<svg version="1.1" viewBox="0.0 0.0 600.0 371.0" fill="none" stroke="none" stroke-linecap="square" stroke-miterlimit="10" width="600" height="371" xmlns:xlink="http://www.w3.org/1999/xlink" xmlns="http://www.w3.org/2000/svg"><path fill="#ffffff" d="M0 0L600.0 0L600.0 371.0L0 371.0L0 0Z" fill-rule="nonzero"/><path fill="#4285f4" d="M300.0 58.916668C363.58316 58.916668 419.93512 99.85875 439.5834 160.32994L369.7917 183.00664C359.96756 152.77104 331.7916 132.3 300.0 132.3Z" fill-rule="nonzero"/><path fill="#ea4335" d="M439.5834 160.32994C459.2317 220.80113 437.70715 287.0468 386.26727 324.42007L343.13364 265.0517C368.85358 246.36507 379.61584 213.24223 369.7917 183.00664Z" fill-rule="nonzero"/><path fill="#ff6d01" d="M160.41661 251.03673C145.89876 206.35538 153.64868 157.42427 181.26328 119.41605C208.87787 81.40783 253.01926 58.916668 300.0 58.916668L300.0 132.3C276.5096 132.3 254.43893 143.54558 240.63164 162.5497C226.82434 181.5538 222.94937 206.01936 230.2083 228.36003Z" fill-rule="nonzero"/><path fill="#34a853" d="M213.73271 324.42007C188.65799 306.2022 169.99431 280.51385 160.41661 251.03673L230.2083 228.36003C234.99715 243.09859 244.329 255.94276 256.86636 265.0517Z" fill-rule="nonzero"/><path fill="#fbbc04" d="M386.26727 324.42007C334.82742 361.7933 265.17258 361.7933 213.73271 324.42007L256.86636 265.0517C282.5863 283.7383 317.4137 283.7383 343.13364 265.0517Z" fill-rule="nonzero"/><path fill="#1a1a1a" d="M19.425 110.948166Q19.425 107.74504 21.14375 105.93254Q22.8625 104.12004 25.596874 104.12004Q27.378124 104.12004 28.8 104.979416Q30.2375 105.823166 30.9875 107.354416Q31.7375 108.87004 31.7375 110.80754Q31.7375 112.760666 30.940624 114.30754Q30.159374 115.854416 28.70625 116.65129Q27.253124 117.448166 25.58125 117.448166Q23.76875 117.448166 22.33125 116.573166Q20.89375 115.698166 20.159374 114.18254Q19.425 112.65129 19.425 110.948166ZM21.175 110.979416Q21.175 113.30754 22.425 114.65129Q23.690624 115.99504 25.565624 115.99504Q27.503124 115.99504 28.7375 114.635666Q29.9875 113.27629 29.9875 110.791916Q29.9875 109.229416 29.45625 108.05754Q28.925 106.87004 27.89375 106.229416Q26.878124 105.58879 25.596874 105.58879Q23.784374 105.58879 22.471874 106.83879Q21.175 108.073166 21.175 110.979416ZM37.190624 115.80754L37.425 117.21379Q36.753124 117.354416 36.221874 117.354416Q35.3625 117.354416 34.878124 117.08879Q34.409374 116.80754 34.221874 116.37004Q34.034374 115.916916 34.034374 114.49504L34.034374 109.12004L32.8625 109.12004L32.8625 107.90129L34.034374 107.90129L34.034374 105.58879L35.596874 104.635666L35.596874 107.90129L37.190624 107.90129L37.190624 109.12004L35.596874 109.12004L35.596874 114.58879Q35.596874 115.260666 35.675 115.46379Q35.76875 115.65129 35.95625 115.760666Q36.14375 115.87004 36.503124 115.87004Q36.753124 115.87004 37.190624 115.80754ZM38.7375 117.229416L38.7375 104.33879L40.315624 104.33879L40.315624 108.96379Q41.425 107.68254 43.1125 107.68254Q44.14375 107.68254 44.909374 108.08879Q45.675 108.49504 46.003124 109.229416Q46.346874 109.948166 46.346874 111.30754L46.346874 117.229416L44.753124 117.229416L44.753124 111.30754Q44.753124 110.12004 44.2375 109.58879Q43.721874 109.041916 42.784374 109.041916Q42.08125 109.041916 41.45625 109.416916Q40.846874 109.77629 40.58125 110.40129Q40.315624 111.02629 40.315624 112.12004L40.315624 117.229416L38.7375 117.229416ZM55.128124 114.229416L56.76875 114.43254Q56.378124 115.854416 55.33125 116.65129Q54.284374 117.448166 52.659374 117.448166Q50.6125 117.448166 49.409374 116.18254Q48.20625 114.916916 48.20625 112.635666Q48.20625 110.291916 49.409374 108.99504Q50.628124 107.68254 52.565624 107.68254Q54.440624 107.68254 55.628124 108.96379Q56.815624 110.229416 56.815624 112.541916Q56.815624 112.68254 56.8 112.96379L49.846874 112.96379Q49.925 114.510666 50.70625 115.323166Q51.503124 116.135666 52.659374 116.135666Q53.534374 116.135666 54.14375 115.68254Q54.76875 115.229416 55.128124 114.229416ZM49.925 111.666916L55.14375 111.666916Q55.034374 110.49504 54.55 109.90129Q53.784374 108.979416 52.58125 108.979416Q51.503124 108.979416 50.753124 109.71379Q50.01875 110.448166 49.925 111.666916ZM58.721874 117.229416L58.721874 107.90129L60.14375 107.90129L60.14375 109.30754Q60.690624 108.323166 61.14375 108.010666Q61.6125 107.68254 62.159374 107.68254Q62.971874 107.68254 63.784374 108.198166L63.253124 109.666916Q62.659374 109.323166 62.08125 109.323166Q61.565624 109.323166 61.14375 109.635666Q60.7375 109.948166 60.565624 110.49504Q60.3 111.33879 60.3 112.33879L60.3 117.229416L58.721874 117.229416Z" fill-rule="nonzero"/><path fill="#9e9e9e" d="M19.3 138.82317L20.89375 138.62004Q21.159374 139.96379 21.815624 140.55754Q22.471874 141.15129 23.409374 141.15129Q24.534374 141.15129 25.3 140.38567Q26.065624 139.60442 26.065624 138.46379Q26.065624 137.37004 25.346874 136.66692Q24.64375 135.94817 23.55 135.94817Q23.096874 135.94817 22.425 136.13567L22.596874 134.74504Q22.753124 134.76067 22.8625 134.76067Q23.8625 134.76067 24.675 134.22942Q25.4875 133.69817 25.4875 132.60442Q25.4875 131.72942 24.89375 131.16692Q24.3 130.58879 23.378124 130.58879Q22.45625 130.58879 21.83125 131.16692Q21.221874 131.74504 21.05 132.91692L19.471874 132.63567Q19.753124 131.04192 20.784374 130.16692Q21.815624 129.29192 23.346874 129.29192Q24.39375 129.29192 25.284374 129.74504Q26.175 130.19817 26.64375 130.97942Q27.1125 131.76067 27.1125 132.63567Q27.1125 133.47942 26.659374 134.16692Q26.221874 134.83879 25.33125 135.24504Q26.471874 135.51067 27.096874 136.35442Q27.7375 137.18254 27.7375 138.41692Q27.7375 140.10442 26.503124 141.29192Q25.284374 142.46379 23.409374 142.46379Q21.70625 142.46379 20.58125 141.44817Q19.471874 140.43254 19.3 138.82317ZM29.3 135.87004Q29.3 133.58879 29.76875 132.19817Q30.2375 130.80754 31.159374 130.05754Q32.096874 129.29192 33.503124 129.29192Q34.534374 129.29192 35.315624 129.71379Q36.096874 130.12004 36.596874 130.91692Q37.1125 131.69817 37.409374 132.83879Q37.70625 133.96379 37.70625 135.87004Q37.70625 138.13567 37.2375 139.54192Q36.76875 140.93254 35.83125 141.69817Q34.909374 142.44817 33.503124 142.44817Q31.628124 142.44817 30.565624 141.12004Q29.3 139.51067 29.3 135.87004ZM30.925 135.87004Q30.925 139.04192 31.659374 140.10442Q32.409374 141.15129 33.503124 141.15129Q34.58125 141.15129 35.33125 140.10442Q36.08125 139.04192 36.08125 135.87004Q36.08125 132.69817 35.33125 131.65129Q34.58125 130.60442 33.4875 130.60442Q32.39375 130.60442 31.7375 131.52629Q30.925 132.69817 30.925 135.87004ZM40.190624 142.22942L40.190624 140.43254L41.9875 140.43254L41.9875 142.22942L40.190624 142.22942ZM44.3 135.87004Q44.3 133.58879 44.76875 132.19817Q45.2375 130.80754 46.159374 130.05754Q47.096874 129.29192 48.503124 129.29192Q49.534374 129.29192 50.315624 129.71379Q51.096874 130.12004 51.596874 130.91692Q52.1125 131.69817 52.409374 132.83879Q52.70625 133.96379 52.70625 135.87004Q52.70625 138.13567 52.2375 139.54192Q51.76875 140.93254 50.83125 141.69817Q49.909374 142.44817 48.503124 142.44817Q46.628124 142.44817 45.565624 141.12004Q44.3 139.51067 44.3 135.87004ZM45.925 135.87004Q45.925 139.04192 46.659374 140.10442Q47.409374 141.15129 48.503124 141.15129Q49.58125 141.15129 50.33125 140.10442Q51.08125 139.04192 51.08125 135.87004Q51.08125 132.69817 50.33125 131.65129Q49.58125 130.60442 48.4875 130.60442Q47.39375 130.60442 46.7375 131.52629Q45.925 132.69817 45.925 135.87004ZM54.596874 132.43254Q54.596874 131.05754 55.284374 130.08879Q55.9875 129.12004 57.3 129.12004Q58.51875 129.12004 59.315624 129.99504Q60.1125 130.85442 60.1125 132.54192Q60.1125 134.16692 59.3 135.05754Q58.503124 135.93254 57.315624 135.93254Q56.159374 135.93254 55.378124 135.07317Q54.596874 134.19817 54.596874 132.43254ZM57.346874 130.21379Q56.753124 130.21379 56.3625 130.72942Q55.971874 131.22942 55.971874 132.58879Q55.971874 133.83879 56.3625 134.33879Q56.76875 134.83879 57.346874 134.83879Q57.940624 134.83879 58.33125 134.33879Q58.721874 133.82317 58.721874 132.47942Q58.721874 131.22942 58.33125 130.72942Q57.940624 130.21379 57.346874 130.21379ZM57.3625 142.69817L64.40938 129.12004L65.69063 129.12004L58.659374 142.69817L57.3625 142.69817ZM62.925 139.19817Q62.925 137.82317 63.6125 136.85442Q64.31563 135.88567 65.64375 135.88567Q66.8625 135.88567 67.64375 136.76067Q68.44063 137.62004 68.44063 139.30754Q68.44063 140.93254 67.64375 141.82317Q66.84688 142.69817 65.65938 142.69817Q64.4875 142.69817 63.70625 141.82317Q62.925 140.94817 62.925 139.19817ZM65.69063 136.97942Q65.09688 136.97942 64.70625 137.49504Q64.31563 137.99504 64.31563 139.37004Q64.31563 140.58879 64.70625 141.10442Q65.09688 141.62004 65.675 141.62004Q66.28438 141.62004 66.675 141.10442Q67.06563 140.58879 67.06563 139.24504Q67.06563 137.99504 66.675 137.49504Q66.28438 136.97942 65.69063 136.97942Z" fill-rule="nonzero"/><path stroke="#757575" stroke-width="1.0" stroke-linecap="butt" d="M18.55 123.729416L147.23334 123.729416L187.2001 123.729416" fill-rule="nonzero"/><path fill="#9e9e9e" d="M189.2001 123.729416C189.2001 122.62485 188.30467 121.729416 187.2001 121.729416C186.09554 121.729416 185.2001 122.62485 185.2001 123.729416C185.2001 124.833984 186.09554 125.729416 187.2001 125.729416C188.30467 125.729416 189.2001 124.833984 189.2001 123.729416" fill-rule="nonzero"/><path fill="#1a1a1a" d="M25.971874 276.09036L25.971874 274.57474L31.425 274.5591L31.425 279.34036Q30.175 280.34036 28.83125 280.856Q27.503124 281.356 26.096874 281.356Q24.190624 281.356 22.64375 280.5435Q21.096874 279.731 20.3 278.19974Q19.503124 276.65286 19.503124 274.76224Q19.503124 272.8716 20.284374 271.2466Q21.08125 269.6216 22.55 268.82474Q24.034374 268.02786 25.95625 268.02786Q27.3625 268.02786 28.4875 268.481Q29.6125 268.9341 30.253124 269.7466Q30.89375 270.5591 31.2375 271.856L29.690624 272.27786Q29.409374 271.2935 28.971874 270.731Q28.55 270.1685 27.7375 269.84036Q26.940624 269.4966 25.971874 269.4966Q24.8 269.4966 23.940624 269.856Q23.096874 270.19974 22.565624 270.77786Q22.05 271.356 21.753124 272.0591Q21.26875 273.2466 21.26875 274.65286Q21.26875 276.3716 21.8625 277.5435Q22.45625 278.69974 23.58125 279.26224Q24.721874 279.82474 25.9875 279.82474Q27.096874 279.82474 28.14375 279.40286Q29.20625 278.96536 29.753124 278.481L29.753124 276.09036L25.971874 276.09036ZM33.753124 270.07474L33.753124 268.2466L35.33125 268.2466L35.33125 270.07474L33.753124 270.07474ZM33.753124 281.13724L33.753124 271.8091L35.33125 271.8091L35.33125 281.13724L33.753124 281.13724ZM37.7375 281.13724L37.7375 271.8091L39.159374 271.8091L39.159374 273.13724Q40.190624 271.59036 42.128124 271.59036Q42.971874 271.59036 43.675 271.90286Q44.39375 272.19974 44.7375 272.69974Q45.096874 273.1841 45.2375 273.856Q45.315624 274.2935 45.315624 275.40286L45.315624 281.13724L43.7375 281.13724L43.7375 275.46536Q43.7375 274.4966 43.55 274.01224Q43.378124 273.52786 42.89375 273.2466Q42.425 272.96536 41.8 272.96536Q40.784374 272.96536 40.05 273.606Q39.315624 274.2466 39.315624 276.0435L39.315624 281.13724L37.7375 281.13724ZM47.440624 281.9185L48.9875 282.13724Q49.08125 282.856 49.51875 283.1841Q50.1125 283.6216 51.128124 283.6216Q52.221874 283.6216 52.815624 283.1685Q53.425 282.731 53.628124 281.94974Q53.753124 281.46536 53.753124 279.9185Q52.70625 281.13724 51.159374 281.13724Q49.2375 281.13724 48.175 279.7466Q47.128124 278.356 47.128124 276.4185Q47.128124 275.07474 47.6125 273.94974Q48.096874 272.82474 49.01875 272.21536Q49.940624 271.59036 51.175 271.59036Q52.83125 271.59036 53.89375 272.9341L53.89375 271.8091L55.3625 271.8091L55.3625 279.8716Q55.3625 282.0591 54.909374 282.96536Q54.471874 283.8716 53.503124 284.38724Q52.55 284.9185 51.14375 284.9185Q49.471874 284.9185 48.440624 284.1685Q47.409374 283.4185 47.440624 281.9185ZM48.753124 276.3091Q48.753124 278.13724 49.4875 278.981Q50.221874 279.82474 51.315624 279.82474Q52.409374 279.82474 53.14375 278.9966Q53.878124 278.15286 53.878124 276.356Q53.878124 274.63724 53.1125 273.77786Q52.3625 272.90286 51.284374 272.90286Q50.2375 272.90286 49.4875 273.76224Q48.753124 274.6216 48.753124 276.3091ZM64.12813 278.13724L65.76875 278.34036Q65.37813 279.76224 64.33125 280.5591Q63.284374 281.356 61.659374 281.356Q59.6125 281.356 58.409374 280.09036Q57.20625 278.82474 57.20625 276.5435Q57.20625 274.19974 58.409374 272.90286Q59.628124 271.59036 61.565624 271.59036Q63.440624 271.59036 64.62813 272.8716Q65.81563 274.13724 65.81563 276.44974Q65.81563 276.59036 65.8 276.8716L58.846874 276.8716Q58.925 278.4185 59.70625 279.231Q60.503124 280.0435 61.659374 280.0435Q62.534374 280.0435 63.14375 279.59036Q63.76875 279.13724 64.12813 278.13724ZM58.925 275.57474L64.14375 275.57474Q64.03438 274.40286 63.55 273.8091Q62.784374 272.88724 61.58125 272.88724Q60.503124 272.88724 59.753124 273.6216Q59.01875 274.356 58.925 275.57474ZM67.72188 281.13724L67.72188 271.8091L69.14375 271.8091L69.14375 273.21536Q69.69063 272.231 70.14375 271.9185Q70.6125 271.59036 71.15938 271.59036Q71.97188 271.59036 72.78438 272.106L72.25313 273.57474Q71.65938 273.231 71.08125 273.231Q70.56563 273.231 70.14375 273.5435Q69.7375 273.856 69.56563 274.40286Q69.3 275.2466 69.3 276.2466L69.3 281.13724L67.72188 281.13724Z" fill-rule="nonzero"/><path fill="#9e9e9e" d="M25.253124 306.13724L23.675 306.13724L23.675 296.0591Q23.096874 296.606 22.175 297.15286Q21.253124 297.6841 20.503124 297.96536L20.503124 296.4341Q21.83125 295.8091 22.83125 294.9185Q23.83125 294.02786 24.2375 293.19974L25.253124 293.19974L25.253124 306.13724ZM29.3 299.77786Q29.3 297.4966 29.76875 296.106Q30.2375 294.71536 31.159374 293.96536Q32.096874 293.19974 33.503124 293.19974Q34.534374 293.19974 35.315624 293.6216Q36.096874 294.02786 36.596874 294.82474Q37.1125 295.606 37.409374 296.7466Q37.70625 297.8716 37.70625 299.77786Q37.70625 302.0435 37.2375 303.44974Q36.76875 304.84036 35.83125 305.606Q34.909374 306.356 33.503124 306.356Q31.628124 306.356 30.565624 305.02786Q29.3 303.4185 29.3 299.77786ZM30.925 299.77786Q30.925 302.94974 31.659374 304.01224Q32.409374 305.0591 33.503124 305.0591Q34.58125 305.0591 35.33125 304.01224Q36.08125 302.94974 36.08125 299.77786Q36.08125 296.606 35.33125 295.5591Q34.58125 294.51224 33.4875 294.51224Q32.39375 294.51224 31.7375 295.4341Q30.925 296.606 30.925 299.77786ZM40.190624 306.13724L40.190624 304.34036L41.9875 304.34036L41.9875 306.13724L40.190624 306.13724ZM44.3 299.77786Q44.3 297.4966 44.76875 296.106Q45.2375 294.71536 46.159374 293.96536Q47.096874 293.19974 48.503124 293.19974Q49.534374 293.19974 50.315624 293.6216Q51.096874 294.02786 51.596874 294.82474Q52.1125 295.606 52.409374 296.7466Q52.70625 297.8716 52.70625 299.77786Q52.70625 302.0435 52.2375 303.44974Q51.76875 304.84036 50.83125 305.606Q49.909374 306.356 48.503124 306.356Q46.628124 306.356 45.565624 305.02786Q44.3 303.4185 44.3 299.77786ZM45.925 299.77786Q45.925 302.94974 46.659374 304.01224Q47.409374 305.0591 48.503124 305.0591Q49.58125 305.0591 50.33125 304.01224Q51.08125 302.94974 51.08125 299.77786Q51.08125 296.606 50.33125 295.5591Q49.58125 294.51224 48.4875 294.51224Q47.39375 294.51224 46.7375 295.4341Q45.925 296.606 45.925 299.77786ZM54.596874 296.34036Q54.596874 294.96536 55.284374 293.9966Q55.9875 293.02786 57.3 293.02786Q58.51875 293.02786 59.315624 293.90286Q60.1125 294.76224 60.1125 296.44974Q60.1125 298.07474 59.3 298.96536Q58.503124 299.84036 57.315624 299.84036Q56.159374 299.84036 55.378124 298.981Q54.596874 298.106 54.596874 296.34036ZM57.346874 294.1216Q56.753124 294.1216 56.3625 294.63724Q55.971874 295.13724 55.971874 296.4966Q55.971874 297.7466 56.3625 298.2466Q56.76875 298.7466 57.346874 298.7466Q57.940624 298.7466 58.33125 298.2466Q58.721874 297.731 58.721874 296.38724Q58.721874 295.13724 58.33125 294.63724Q57.940624 294.1216 57.346874 294.1216ZM57.3625 306.606L64.40938 293.02786L65.69063 293.02786L58.659374 306.606L57.3625 306.606ZM62.925 303.106Q62.925 301.731 63.6125 300.76224Q64.31563 299.7935 65.64375 299.7935Q66.8625 299.7935 67.64375 300.6685Q68.44063 301.52786 68.44063 303.21536Q68.44063 304.84036 67.64375 305.731Q66.84688 306.606 65.65938 306.606Q64.4875 306.606 63.70625 305.731Q62.925 304.856 62.925 303.106ZM65.69063 300.88724Q65.09688 300.88724 64.70625 301.40286Q64.31563 301.90286 64.31563 303.27786Q64.31563 304.4966 64.70625 305.01224Q65.09688 305.52786 65.675 305.52786Q66.28438 305.52786 66.675 305.01224Q67.06563 304.4966 67.06563 303.15286Q67.06563 301.90286 66.675 301.40286Q66.28438 300.88724 65.69063 300.88724Z" fill-rule="nonzero"/><path stroke="#757575" stroke-width="1.0" stroke-linecap="butt" d="M18.55 287.63724L147.23334 287.63724L187.2001 287.63724" fill-rule="nonzero"/><path fill="#9e9e9e" d="M189.2001 287.63724C189.2001 286.53268 188.30467 285.63724 187.2001 285.63724C186.09554 285.63724 185.2001 286.53268 185.2001 287.63724C185.2001 288.74182 186.09554 289.63724 187.2001 289.63724C188.30467 289.63724 189.2001 288.74182 189.2001 287.63724" fill-rule="nonzero"/><path fill="#1a1a1a" d="M531.84064 86.383446L531.84064 73.49282L536.7 73.49282Q537.98126 73.49282 538.65314 73.61782Q539.60626 73.77407 540.2469 74.227196Q540.8875 74.664696 541.27814 75.477196Q541.66876 76.27407 541.66876 77.227196Q541.66876 78.86782 540.6219 80.008446Q539.575 81.14907 536.85626 81.14907L533.54376 81.14907L533.54376 86.383446L531.84064 86.383446ZM533.54376 79.61782L536.8719 79.61782Q538.52814 79.61782 539.21564 79.008446Q539.91876 78.39907 539.91876 77.27407Q539.91876 76.46157 539.5125 75.89907Q539.10626 75.320946 538.4344 75.133446Q537.9969 75.02407 536.84064 75.02407L533.54376 75.02407L533.54376 79.61782ZM549.73126 85.227196Q548.85626 85.977196 548.02814 86.289696Q547.21564 86.602196 546.29376 86.602196Q544.7469 86.602196 543.91876 85.852196Q543.10626 85.08657 543.10626 83.914696Q543.10626 83.24282 543.41876 82.68032Q543.73126 82.102196 544.23126 81.758446Q544.73126 81.414696 545.3719 81.24282Q545.84064 81.11782 546.77814 81.008446Q548.6844 80.77407 549.59064 80.46157Q549.60626 80.133446 549.60626 80.039696Q549.60626 79.08657 549.15314 78.68032Q548.54376 78.14907 547.35626 78.14907Q546.23126 78.14907 545.7 78.539696Q545.16876 78.93032 544.91876 79.93032L543.3719 79.71157Q543.59064 78.71157 544.0594 78.102196Q544.54376 77.49282 545.45 77.164696Q546.3719 76.83657 547.59064 76.83657Q548.77814 76.83657 549.52814 77.11782Q550.27814 77.39907 550.6219 77.83657Q550.98126 78.258446 551.1219 78.89907Q551.2 79.30532 551.2 80.36782L551.2 82.477196Q551.2 84.68032 551.29376 85.27407Q551.40314 85.852196 551.7 86.383446L550.04376 86.383446Q549.79376 85.883446 549.73126 85.227196ZM549.59064 81.695946Q548.73126 82.05532 547.0125 82.289696Q546.04376 82.43032 545.6375 82.61782Q545.23126 82.789696 545.0125 83.133446Q544.79376 83.46157 544.79376 83.883446Q544.79376 84.508446 545.2625 84.93032Q545.7469 85.352196 546.66876 85.352196Q547.59064 85.352196 548.29376 84.96157Q549.0125 84.55532 549.34064 83.86782Q549.59064 83.320946 549.59064 82.27407L549.59064 81.695946ZM559.7 86.383446L559.7 85.21157Q558.8094 86.602196 557.075 86.602196Q555.96564 86.602196 555.02814 85.99282Q554.09064 85.36782 553.575 84.27407Q553.0594 83.164696 553.0594 81.727196Q553.0594 80.320946 553.52814 79.195946Q553.9969 78.05532 554.91876 77.445946Q555.85626 76.83657 557.0125 76.83657Q557.85626 76.83657 558.5125 77.195946Q559.16876 77.55532 559.59064 78.11782L559.59064 73.49282L561.15314 73.49282L561.15314 86.383446L559.7 86.383446ZM554.6844 81.727196Q554.6844 83.52407 555.4344 84.414696Q556.2 85.289696 557.23126 85.289696Q558.2625 85.289696 558.98126 84.445946Q559.71564 83.602196 559.71564 81.852196Q559.71564 79.945946 558.98126 79.05532Q558.2469 78.14907 557.16876 78.14907Q556.10626 78.14907 555.3875 79.008446Q554.6844 79.86782 554.6844 81.727196ZM569.7 86.383446L569.7 85.21157Q568.8094 86.602196 567.075 86.602196Q565.96564 86.602196 565.02814 85.99282Q564.09064 85.36782 563.575 84.27407Q563.0594 83.164696 563.0594 81.727196Q563.0594 80.320946 563.52814 79.195946Q563.9969 78.05532 564.91876 77.445946Q565.85626 76.83657 567.0125 76.83657Q567.85626 76.83657 568.5125 77.195946Q569.16876 77.55532 569.59064 78.11782L569.59064 73.49282L571.15314 73.49282L571.15314 86.383446L569.7 86.383446ZM564.6844 81.727196Q564.6844 83.52407 565.4344 84.414696Q566.2 85.289696 567.23126 85.289696Q568.2625 85.289696 568.98126 84.445946Q569.71564 83.602196 569.71564 81.852196Q569.71564 79.945946 568.98126 79.05532Q568.2469 78.14907 567.16876 78.14907Q566.10626 78.14907 565.3875 79.008446Q564.6844 79.86782 564.6844 81.727196ZM573.5594 89.977196L573.3875 88.49282Q573.90314 88.633446 574.29376 88.633446Q574.825 88.633446 575.1375 88.46157Q575.45 88.289696 575.65314 87.96157Q575.8094 87.727196 576.1375 86.789696Q576.1844 86.64907 576.27814 86.39907L572.7469 77.05532L574.45 77.05532L576.3875 82.46157Q576.7625 83.477196 577.0594 84.61782Q577.34064 83.52407 577.71564 82.49282L579.71564 77.05532L581.29376 77.05532L577.7469 86.539696Q577.16876 88.08657 576.85626 88.664696Q576.4344 89.445946 575.8875 89.80532Q575.34064 90.164696 574.59064 90.164696Q574.1219 90.164696 573.5594 89.977196Z" fill-rule="nonzero"/><path fill="#9e9e9e" d="M539.5125 109.86782L539.5125 111.383446L530.9969 111.383446Q530.98126 110.80532 531.1844 110.289696Q531.5125 109.414696 532.21564 108.570946Q532.9344 107.727196 534.29376 106.61782Q536.3875 104.89907 537.1219 103.89907Q537.8719 102.883446 537.8719 101.99282Q537.8719 101.039696 537.2 100.39907Q536.52814 99.758446 535.45 99.758446Q534.29376 99.758446 533.60626 100.445946Q532.9344 101.133446 532.91876 102.33657L531.29376 102.164696Q531.46564 100.352196 532.54376 99.39907Q533.6375 98.445946 535.48126 98.445946Q537.325 98.445946 538.40314 99.477196Q539.4969 100.508446 539.4969 102.02407Q539.4969 102.789696 539.16876 103.539696Q538.85626 104.289696 538.1219 105.11782Q537.3875 105.945946 535.6844 107.383446Q534.2625 108.58657 533.85626 109.008446Q533.45 109.43032 533.2 109.86782L539.5125 109.86782ZM541.2 105.02407Q541.2 102.74282 541.66876 101.352196Q542.1375 99.96157 543.0594 99.21157Q543.9969 98.445946 545.40314 98.445946Q546.4344 98.445946 547.21564 98.86782Q547.9969 99.27407 548.4969 100.070946Q549.0125 100.852196 549.3094 101.99282Q549.60626 103.11782 549.60626 105.02407Q549.60626 107.289696 549.1375 108.695946Q548.66876 110.08657 547.73126 110.852196Q546.8094 111.602196 545.40314 111.602196Q543.52814 111.602196 542.46564 110.27407Q541.2 108.664696 541.2 105.02407ZM542.825 105.02407Q542.825 108.195946 543.5594 109.258446Q544.3094 110.30532 545.40314 110.30532Q546.48126 110.30532 547.23126 109.258446Q547.98126 108.195946 547.98126 105.02407Q547.98126 101.852196 547.23126 100.80532Q546.48126 99.758446 545.3875 99.758446Q544.29376 99.758446 543.6375 100.68032Q542.825 101.852196 542.825 105.02407ZM552.09064 111.383446L552.09064 109.58657L553.8875 109.58657L553.8875 111.383446L552.09064 111.383446ZM556.2 105.02407Q556.2 102.74282 556.66876 101.352196Q557.1375 99.96157 558.0594 99.21157Q558.9969 98.445946 560.40314 98.445946Q561.4344 98.445946 562.21564 98.86782Q562.9969 99.27407 563.4969 100.070946Q564.0125 100.852196 564.3094 101.99282Q564.60626 103.11782 564.60626 105.02407Q564.60626 107.289696 564.1375 108.695946Q563.66876 110.08657 562.73126 110.852196Q561.8094 111.602196 560.40314 111.602196Q558.52814 111.602196 557.46564 110.27407Q556.2 108.664696 556.2 105.02407ZM557.825 105.02407Q557.825 108.195946 558.5594 109.258446Q559.3094 110.30532 560.40314 110.30532Q561.48126 110.30532 562.23126 109.258446Q562.98126 108.195946 562.98126 105.02407Q562.98126 101.852196 562.23126 100.80532Q561.48126 99.758446 560.3875 99.758446Q559.29376 99.758446 558.6375 100.68032Q557.825 101.852196 557.825 105.02407ZM566.4969 101.58657Q566.4969 100.21157 567.1844 99.24282Q567.8875 98.27407 569.2 98.27407Q570.41876 98.27407 571.21564 99.14907Q572.0125 100.008446 572.0125 101.695946Q572.0125 103.320946 571.2 104.21157Q570.40314 105.08657 569.21564 105.08657Q568.0594 105.08657 567.27814 104.227196Q566.4969 103.352196 566.4969 101.58657ZM569.2469 99.36782Q568.65314 99.36782 568.2625 99.883446Q567.8719 100.383446 567.8719 101.74282Q567.8719 102.99282 568.2625 103.49282Q568.66876 103.99282 569.2469 103.99282Q569.84064 103.99282 570.23126 103.49282Q570.6219 102.977196 570.6219 101.633446Q570.6219 100.383446 570.23126 99.883446Q569.84064 99.36782 569.2469 99.36782ZM569.2625 111.852196L576.3094 98.27407L577.59064 98.27407L570.5594 111.852196L569.2625 111.852196ZM574.825 108.352196Q574.825 106.977196 575.5125 106.008446Q576.21564 105.039696 577.54376 105.039696Q578.7625 105.039696 579.54376 105.914696Q580.34064 106.77407 580.34064 108.46157Q580.34064 110.08657 579.54376 110.977196Q578.7469 111.852196 577.5594 111.852196Q576.3875 111.852196 575.60626 110.977196Q574.825 110.102196 574.825 108.352196ZM577.59064 106.133446Q576.9969 106.133446 576.60626 106.64907Q576.21564 107.14907 576.21564 108.52407Q576.21564 109.74282 576.60626 110.258446Q576.9969 110.77407 577.575 110.77407Q578.1844 110.77407 578.575 110.258446Q578.96564 109.74282 578.96564 108.39907Q578.96564 107.14907 578.575 106.64907Q578.1844 106.133446 577.59064 106.133446Z" fill-rule="nonzero"/><path stroke="#757575" stroke-width="1.0" stroke-linecap="butt" d="M581.45 92.883446L452.76666 92.883446L381.95392 92.883446" fill-rule="nonzero"/><path fill="#9e9e9e" d="M383.95392 92.883446C383.95392 91.77887 383.0585 90.883446 381.95392 90.883446C380.84933 90.883446 379.95392 91.77887 379.95392 92.883446C379.95392 93.988014 380.84933 94.883446 381.95392 94.883446C383.0585 94.883446 383.95392 93.988014 383.95392 92.883446" fill-rule="nonzero"/><path fill="#1a1a1a" d="M534.79376 242.26906L534.79376 229.37843L537.35626 229.37843L540.40314 238.50343Q540.825 239.78468 541.0125 240.40968Q541.23126 239.70656 541.7 238.34718L544.79376 229.37843L547.075 229.37843L547.075 242.26906L545.4344 242.26906L545.4344 231.48781L541.7 242.26906L540.15314 242.26906L536.4344 231.30031L536.4344 242.26906L534.79376 242.26906ZM555.73126 241.11281Q554.85626 241.86281 554.02814 242.17531Q553.21564 242.48781 552.29376 242.48781Q550.7469 242.48781 549.91876 241.73781Q549.10626 240.97218 549.10626 239.80031Q549.10626 239.12843 549.41876 238.56593Q549.73126 237.98781 550.23126 237.64406Q550.73126 237.30031 551.3719 237.12843Q551.84064 237.00343 552.77814 236.89406Q554.6844 236.65968 555.59064 236.34718Q555.60626 236.01906 555.60626 235.92531Q555.60626 234.97218 555.15314 234.56593Q554.54376 234.03468 553.35626 234.03468Q552.23126 234.03468 551.7 234.42531Q551.16876 234.81593 550.91876 235.81593L549.3719 235.59718Q549.59064 234.59718 550.0594 233.98781Q550.54376 233.37843 551.45 233.05031Q552.3719 232.72218 553.59064 232.72218Q554.77814 232.72218 555.52814 233.00343Q556.27814 233.28468 556.6219 233.72218Q556.98126 234.14406 557.1219 234.78468Q557.2 235.19093 557.2 236.25343L557.2 238.36281Q557.2 240.56593 557.29376 241.15968Q557.40314 241.73781 557.7 242.26906L556.04376 242.26906Q555.79376 241.76906 555.73126 241.11281ZM555.59064 237.58156Q554.73126 237.94093 553.0125 238.17531Q552.04376 238.31593 551.6375 238.50343Q551.23126 238.67531 551.0125 239.01906Q550.79376 239.34718 550.79376 239.76906Q550.79376 240.39406 551.2625 240.81593Q551.7469 241.23781 552.66876 241.23781Q553.59064 241.23781 554.29376 240.84718Q555.0125 240.44093 555.34064 239.75343Q555.59064 239.20656 555.59064 238.15968L555.59064 237.58156ZM559.65314 231.20656L559.65314 229.37843L561.23126 229.37843L561.23126 231.20656L559.65314 231.20656ZM559.65314 242.26906L559.65314 232.94093L561.23126 232.94093L561.23126 242.26906L559.65314 242.26906ZM562.8094 242.26906L562.8094 240.98781L568.7469 234.15968Q567.73126 234.22218 566.96564 234.22218L563.15314 234.22218L563.15314 232.94093L570.77814 232.94093L570.77814 233.98781L565.73126 239.90968L564.7469 240.98781Q565.8094 240.90968 566.7469 240.90968L571.0594 240.90968L571.0594 242.26906L562.8094 242.26906ZM579.02814 239.26906L580.66876 239.47218Q580.27814 240.89406 579.23126 241.69093Q578.1844 242.48781 576.5594 242.48781Q574.5125 242.48781 573.3094 241.22218Q572.10626 239.95656 572.10626 237.67531Q572.10626 235.33156 573.3094 234.03468Q574.52814 232.72218 576.46564 232.72218Q578.34064 232.72218 579.52814 234.00343Q580.71564 235.26906 580.71564 237.58156Q580.71564 237.72218 580.7 238.00343L573.7469 238.00343Q573.825 239.55031 574.60626 240.36281Q575.40314 241.17531 576.5594 241.17531Q577.4344 241.17531 578.04376 240.72218Q578.66876 240.26906 579.02814 239.26906ZM573.825 236.70656L579.04376 236.70656Q578.9344 235.53468 578.45 234.94093Q577.6844 234.01906 576.48126 234.01906Q575.40314 234.01906 574.65314 234.75343Q573.91876 235.48781 573.825 236.70656Z" fill-rule="nonzero"/><path fill="#9e9e9e" d="M539.5125 265.75342L539.5125 267.26904L530.9969 267.26904Q530.98126 266.69092 531.1844 266.1753Q531.5125 265.3003 532.21564 264.45654Q532.9344 263.6128 534.29376 262.50342Q536.3875 260.78467 537.1219 259.78467Q537.8719 258.76904 537.8719 257.87842Q537.8719 256.9253 537.2 256.28467Q536.52814 255.64404 535.45 255.64404Q534.29376 255.64404 533.60626 256.33154Q532.9344 257.01904 532.91876 258.22217L531.29376 258.0503Q531.46564 256.2378 532.54376 255.28467Q533.6375 254.33154 535.48126 254.33154Q537.325 254.33154 538.40314 255.3628Q539.4969 256.39404 539.4969 257.90967Q539.4969 258.6753 539.16876 259.4253Q538.85626 260.1753 538.1219 261.00342Q537.3875 261.83154 535.6844 263.26904Q534.2625 264.47217 533.85626 264.89404Q533.45 265.31592 533.2 265.75342L539.5125 265.75342ZM541.2 260.90967Q541.2 258.62842 541.66876 257.2378Q542.1375 255.84717 543.0594 255.09717Q543.9969 254.33154 545.40314 254.33154Q546.4344 254.33154 547.21564 254.75342Q547.9969 255.15967 548.4969 255.95654Q549.0125 256.7378 549.3094 257.87842Q549.60626 259.00342 549.60626 260.90967Q549.60626 263.1753 549.1375 264.58154Q548.66876 265.97217 547.73126 266.7378Q546.8094 267.4878 545.40314 267.4878Q543.52814 267.4878 542.46564 266.15967Q541.2 264.5503 541.2 260.90967ZM542.825 260.90967Q542.825 264.08154 543.5594 265.14404Q544.3094 266.19092 545.40314 266.19092Q546.48126 266.19092 547.23126 265.14404Q547.98126 264.08154 547.98126 260.90967Q547.98126 257.7378 547.23126 256.69092Q546.48126 255.64404 545.3875 255.64404Q544.29376 255.64404 543.6375 256.56592Q542.825 257.7378 542.825 260.90967ZM552.09064 267.26904L552.09064 265.47217L553.8875 265.47217L553.8875 267.26904L552.09064 267.26904ZM556.2 260.90967Q556.2 258.62842 556.66876 257.2378Q557.1375 255.84717 558.0594 255.09717Q558.9969 254.33154 560.40314 254.33154Q561.4344 254.33154 562.21564 254.75342Q562.9969 255.15967 563.4969 255.95654Q564.0125 256.7378 564.3094 257.87842Q564.60626 259.00342 564.60626 260.90967Q564.60626 263.1753 564.1375 264.58154Q563.66876 265.97217 562.73126 266.7378Q561.8094 267.4878 560.40314 267.4878Q558.52814 267.4878 557.46564 266.15967Q556.2 264.5503 556.2 260.90967ZM557.825 260.90967Q557.825 264.08154 558.5594 265.14404Q559.3094 266.19092 560.40314 266.19092Q561.48126 266.19092 562.23126 265.14404Q562.98126 264.08154 562.98126 260.90967Q562.98126 257.7378 562.23126 256.69092Q561.48126 255.64404 560.3875 255.64404Q559.29376 255.64404 558.6375 256.56592Q557.825 257.7378 557.825 260.90967ZM566.4969 257.47217Q566.4969 256.09717 567.1844 255.12842Q567.8875 254.15967 569.2 254.15967Q570.41876 254.15967 571.21564 255.03467Q572.0125 255.89404 572.0125 257.58154Q572.0125 259.20654 571.2 260.09717Q570.40314 260.97217 569.21564 260.97217Q568.0594 260.97217 567.27814 260.1128Q566.4969 259.2378 566.4969 257.47217ZM569.2469 255.25342Q568.65314 255.25342 568.2625 255.76904Q567.8719 256.26904 567.8719 257.62842Q567.8719 258.87842 568.2625 259.37842Q568.66876 259.87842 569.2469 259.87842Q569.84064 259.87842 570.23126 259.37842Q570.6219 258.8628 570.6219 257.51904Q570.6219 256.26904 570.23126 255.76904Q569.84064 255.25342 569.2469 255.25342ZM569.2625 267.7378L576.3094 254.15967L577.59064 254.15967L570.5594 267.7378L569.2625 267.7378ZM574.825 264.2378Q574.825 262.8628 575.5125 261.89404Q576.21564 260.9253 577.54376 260.9253Q578.7625 260.9253 579.54376 261.8003Q580.34064 262.65967 580.34064 264.34717Q580.34064 265.97217 579.54376 266.8628Q578.7469 267.7378 577.5594 267.7378Q576.3875 267.7378 575.60626 266.8628Q574.825 265.9878 574.825 264.2378ZM577.59064 262.01904Q576.9969 262.01904 576.60626 262.53467Q576.21564 263.03467 576.21564 264.40967Q576.21564 265.62842 576.60626 266.14404Q576.9969 266.65967 577.575 266.65967Q578.1844 266.65967 578.575 266.14404Q578.96564 265.62842 578.96564 264.28467Q578.96564 263.03467 578.575 262.53467Q578.1844 262.01904 577.59064 262.01904Z" fill-rule="nonzero"/><path stroke="#757575" stroke-width="1.0" stroke-linecap="butt" d="M581.45 248.76906L452.76666 248.76906L432.60422 248.76906" fill-rule="nonzero"/><path fill="#9e9e9e" d="M434.60422 248.76906C434.60422 247.66449 433.7088 246.76906 432.60422 246.76906C431.49966 246.76906 430.60422 247.66449 430.60422 248.76906C430.60422 249.87363 431.49966 250.76906 432.60422 250.76906C433.7088 250.76906 434.60422 249.87363 434.60422 248.76906" fill-rule="nonzero"/><path fill="#1a1a1a" d="M525.1219 322.45L525.1219 311.09064L520.8719 311.09064L520.8719 309.5594L531.09064 309.5594L531.09064 311.09064L526.825 311.09064L526.825 322.45L525.1219 322.45ZM532.04376 317.77814Q532.04376 315.1844 533.4969 313.9344Q534.7 312.90314 536.41876 312.90314Q538.35626 312.90314 539.575 314.16876Q540.79376 315.4344 540.79376 317.65314Q540.79376 319.45 540.2469 320.48126Q539.71564 321.5125 538.6844 322.09064Q537.65314 322.66876 536.41876 322.66876Q534.46564 322.66876 533.2469 321.41876Q532.04376 320.15314 532.04376 317.77814ZM533.66876 317.77814Q533.66876 319.575 534.45 320.46564Q535.23126 321.35626 536.41876 321.35626Q537.60626 321.35626 538.3875 320.46564Q539.16876 319.5594 539.16876 317.73126Q539.16876 315.9969 538.3719 315.10626Q537.59064 314.21564 536.41876 314.21564Q535.23126 314.21564 534.45 315.10626Q533.66876 315.9969 533.66876 317.77814ZM542.6375 322.45L542.6375 313.1219L544.0594 313.1219L544.0594 314.41876Q544.4969 313.7469 545.21564 313.325Q545.95 312.90314 546.8875 312.90314Q547.91876 312.90314 548.575 313.34064Q549.2469 313.7625 549.5125 314.54376Q550.6219 312.90314 552.40314 312.90314Q553.79376 312.90314 554.52814 313.6844Q555.27814 314.45 555.27814 316.04376L555.27814 322.45L553.71564 322.45L553.71564 316.575Q553.71564 315.6219 553.5594 315.2Q553.40314 314.77814 552.9969 314.52814Q552.59064 314.27814 552.04376 314.27814Q551.0594 314.27814 550.40314 314.9344Q549.7625 315.59064 549.7625 317.02814L549.7625 322.45L548.1844 322.45L548.1844 316.3875Q548.1844 315.325 547.79376 314.8094Q547.40314 314.27814 546.52814 314.27814Q545.85626 314.27814 545.29376 314.6375Q544.73126 314.98126 544.46564 315.65314Q544.21564 316.325 544.21564 317.60626L544.21564 322.45L542.6375 322.45ZM563.73126 321.29376Q562.85626 322.04376 562.02814 322.35626Q561.21564 322.66876 560.29376 322.66876Q558.7469 322.66876 557.91876 321.91876Q557.10626 321.15314 557.10626 319.98126Q557.10626 319.3094 557.41876 318.7469Q557.73126 318.16876 558.23126 317.825Q558.73126 317.48126 559.3719 317.3094Q559.84064 317.1844 560.77814 317.075Q562.6844 316.84064 563.59064 316.52814Q563.60626 316.2 563.60626 316.10626Q563.60626 315.15314 563.15314 314.7469Q562.54376 314.21564 561.35626 314.21564Q560.23126 314.21564 559.7 314.60626Q559.16876 314.9969 558.91876 315.9969L557.3719 315.77814Q557.59064 314.77814 558.0594 314.16876Q558.54376 313.5594 559.45 313.23126Q560.3719 312.90314 561.59064 312.90314Q562.77814 312.90314 563.52814 313.1844Q564.27814 313.46564 564.6219 313.90314Q564.98126 314.325 565.1219 314.96564Q565.2 315.3719 565.2 316.4344L565.2 318.54376Q565.2 320.7469 565.29376 321.34064Q565.40314 321.91876 565.7 322.45L564.04376 322.45Q563.79376 321.95 563.73126 321.29376ZM563.59064 317.7625Q562.73126 318.1219 561.0125 318.35626Q560.04376 318.4969 559.6375 318.6844Q559.23126 318.85626 559.0125 319.2Q558.79376 319.52814 558.79376 319.95Q558.79376 320.575 559.2625 320.9969Q559.7469 321.41876 560.66876 321.41876Q561.59064 321.41876 562.29376 321.02814Q563.0125 320.6219 563.34064 319.9344Q563.59064 319.3875 563.59064 318.34064L563.59064 317.7625ZM571.09064 321.02814L571.325 322.4344Q570.65314 322.575 570.1219 322.575Q569.2625 322.575 568.77814 322.3094Q568.3094 322.02814 568.1219 321.59064Q567.9344 321.1375 567.9344 319.71564L567.9344 314.34064L566.7625 314.34064L566.7625 313.1219L567.9344 313.1219L567.9344 310.8094L569.4969 309.85626L569.4969 313.1219L571.09064 313.1219L571.09064 314.34064L569.4969 314.34064L569.4969 319.8094Q569.4969 320.48126 569.575 320.6844Q569.66876 320.8719 569.85626 320.98126Q570.04376 321.09064 570.40314 321.09064Q570.65314 321.09064 571.09064 321.02814ZM572.04376 317.77814Q572.04376 315.1844 573.4969 313.9344Q574.7 312.90314 576.41876 312.90314Q578.35626 312.90314 579.575 314.16876Q580.79376 315.4344 580.79376 317.65314Q580.79376 319.45 580.2469 320.48126Q579.71564 321.5125 578.6844 322.09064Q577.65314 322.66876 576.41876 322.66876Q574.46564 322.66876 573.2469 321.41876Q572.04376 320.15314 572.04376 317.77814ZM573.66876 317.77814Q573.66876 319.575 574.45 320.46564Q575.23126 321.35626 576.41876 321.35626Q577.60626 321.35626 578.3875 320.46564Q579.16876 319.5594 579.16876 317.73126Q579.16876 315.9969 578.3719 315.10626Q577.59064 314.21564 576.41876 314.21564Q575.23126 314.21564 574.45 315.10626Q573.66876 315.9969 573.66876 317.77814Z" fill-rule="nonzero"/><path fill="#9e9e9e" d="M539.5125 345.9344L539.5125 347.45L530.9969 347.45Q530.98126 346.8719 531.1844 346.35626Q531.5125 345.48126 532.21564 344.6375Q532.9344 343.79376 534.29376 342.6844Q536.3875 340.96564 537.1219 339.96564Q537.8719 338.95 537.8719 338.0594Q537.8719 337.10626 537.2 336.46564Q536.52814 335.825 535.45 335.825Q534.29376 335.825 533.60626 336.5125Q532.9344 337.2 532.91876 338.40314L531.29376 338.23126Q531.46564 336.41876 532.54376 335.46564Q533.6375 334.5125 535.48126 334.5125Q537.325 334.5125 538.40314 335.54376Q539.4969 336.575 539.4969 338.09064Q539.4969 338.85626 539.16876 339.60626Q538.85626 340.35626 538.1219 341.1844Q537.3875 342.0125 535.6844 343.45Q534.2625 344.65314 533.85626 345.075Q533.45 345.4969 533.2 345.9344L539.5125 345.9344ZM541.2 341.09064Q541.2 338.8094 541.66876 337.41876Q542.1375 336.02814 543.0594 335.27814Q543.9969 334.5125 545.40314 334.5125Q546.4344 334.5125 547.21564 334.9344Q547.9969 335.34064 548.4969 336.1375Q549.0125 336.91876 549.3094 338.0594Q549.60626 339.1844 549.60626 341.09064Q549.60626 343.35626 549.1375 344.7625Q548.66876 346.15314 547.73126 346.91876Q546.8094 347.66876 545.40314 347.66876Q543.52814 347.66876 542.46564 346.34064Q541.2 344.73126 541.2 341.09064ZM542.825 341.09064Q542.825 344.2625 543.5594 345.325Q544.3094 346.3719 545.40314 346.3719Q546.48126 346.3719 547.23126 345.325Q547.98126 344.2625 547.98126 341.09064Q547.98126 337.91876 547.23126 336.8719Q546.48126 335.825 545.3875 335.825Q544.29376 335.825 543.6375 336.7469Q542.825 337.91876 542.825 341.09064ZM552.09064 347.45L552.09064 345.65314L553.8875 345.65314L553.8875 347.45L552.09064 347.45ZM556.2 341.09064Q556.2 338.8094 556.66876 337.41876Q557.1375 336.02814 558.0594 335.27814Q558.9969 334.5125 560.40314 334.5125Q561.4344 334.5125 562.21564 334.9344Q562.9969 335.34064 563.4969 336.1375Q564.0125 336.91876 564.3094 338.0594Q564.60626 339.1844 564.60626 341.09064Q564.60626 343.35626 564.1375 344.7625Q563.66876 346.15314 562.73126 346.91876Q561.8094 347.66876 560.40314 347.66876Q558.52814 347.66876 557.46564 346.34064Q556.2 344.73126 556.2 341.09064ZM557.825 341.09064Q557.825 344.2625 558.5594 345.325Q559.3094 346.3719 560.40314 346.3719Q561.48126 346.3719 562.23126 345.325Q562.98126 344.2625 562.98126 341.09064Q562.98126 337.91876 562.23126 336.8719Q561.48126 335.825 560.3875 335.825Q559.29376 335.825 558.6375 336.7469Q557.825 337.91876 557.825 341.09064ZM566.4969 337.65314Q566.4969 336.27814 567.1844 335.3094Q567.8875 334.34064 569.2 334.34064Q570.41876 334.34064 571.21564 335.21564Q572.0125 336.075 572.0125 337.7625Q572.0125 339.3875 571.2 340.27814Q570.40314 341.15314 569.21564 341.15314Q568.0594 341.15314 567.27814 340.29376Q566.4969 339.41876 566.4969 337.65314ZM569.2469 335.4344Q568.65314 335.4344 568.2625 335.95Q567.8719 336.45 567.8719 337.8094Q567.8719 339.0594 568.2625 339.5594Q568.66876 340.0594 569.2469 340.0594Q569.84064 340.0594 570.23126 339.5594Q570.6219 339.04376 570.6219 337.7Q570.6219 336.45 570.23126 335.95Q569.84064 335.4344 569.2469 335.4344ZM569.2625 347.91876L576.3094 334.34064L577.59064 334.34064L570.5594 347.91876L569.2625 347.91876ZM574.825 344.41876Q574.825 343.04376 575.5125 342.075Q576.21564 341.10626 577.54376 341.10626Q578.7625 341.10626 579.54376 341.98126Q580.34064 342.84064 580.34064 344.52814Q580.34064 346.15314 579.54376 347.04376Q578.7469 347.91876 577.5594 347.91876Q576.3875 347.91876 575.60626 347.04376Q574.825 346.16876 574.825 344.41876ZM577.59064 342.2Q576.9969 342.2 576.60626 342.71564Q576.21564 343.21564 576.21564 344.59064Q576.21564 345.8094 576.60626 346.325Q576.9969 346.84064 577.575 346.84064Q578.1844 346.84064 578.575 346.325Q578.96564 345.8094 578.96564 344.46564Q578.96564 343.21564 578.575 342.71564Q578.1844 342.2 577.59064 342.2Z" fill-rule="nonzero"/><path stroke="#757575" stroke-width="1.0" stroke-linecap="butt" d="M581.45 328.95L452.76666 328.95L300.0 345.11166" fill-rule="nonzero"/><path fill="#9e9e9e" d="M302.0 345.11166C302.0 344.0071 301.10458 343.11166 300.0 343.11166C298.89542 343.11166 298.0 344.0071 298.0 345.11166C298.0 346.21625 298.89542 347.11166 300.0 347.11166C301.10458 347.11166 302.0 346.21625 302.0 345.11166" fill-rule="nonzero"/><path fill="#000000" d="M35.784374 40.55L32.01875 40.55L30.51875 36.64375L23.64375 36.64375L22.2375 40.55L18.55 40.55L25.2375 23.3625L28.909374 23.3625L35.784374 40.55ZM29.409374 33.753124L27.034374 27.378124L24.721874 33.753124L29.409374 33.753124ZM48.128124 31.784374L44.878124 32.3625Q44.721874 31.39375 44.128124 30.909374Q43.55 30.409374 42.628124 30.409374Q41.39375 30.409374 40.659374 31.26875Q39.940624 32.1125 39.940624 34.096874Q39.940624 36.315624 40.675 37.2375Q41.425 38.14375 42.675 38.14375Q43.6125 38.14375 44.20625 37.6125Q44.815624 37.08125 45.05 35.784374L48.284374 36.33125Q47.784374 38.55 46.346874 39.690624Q44.925 40.83125 42.51875 40.83125Q39.8 40.83125 38.175 39.1125Q36.55 37.378124 36.55 34.33125Q36.55 31.253124 38.175 29.534374Q39.8 27.815624 42.58125 27.815624Q44.8625 27.815624 46.190624 28.8Q47.534374 29.784374 48.128124 31.784374ZM55.9875 28.096874L55.9875 30.721874L53.7375 30.721874L53.7375 35.7375Q53.7375 37.26875 53.8 37.51875Q53.8625 37.76875 54.08125 37.940624Q54.315624 38.096874 54.64375 38.096874Q55.096874 38.096874 55.971874 37.784374L56.253124 40.33125Q55.096874 40.83125 53.64375 40.83125Q52.753124 40.83125 52.034374 40.534374Q51.33125 40.2375 50.9875 39.76875Q50.659374 39.284374 50.534374 38.471874Q50.425 37.89375 50.425 36.159374L50.425 30.721874L48.909374 30.721874L48.909374 28.096874L50.425 28.096874L50.425 25.628124L53.7375 23.70625L53.7375 28.096874L55.9875 28.096874ZM66.47188 40.55L66.47188 38.690624Q65.78438 39.675 64.675 40.253124Q63.565624 40.83125 62.346874 40.83125Q61.08125 40.83125 60.08125 40.284374Q59.096874 39.721874 58.64375 38.7375Q58.20625 37.7375 58.20625 35.971874L58.20625 28.096874L61.503124 28.096874L61.503124 33.815624Q61.503124 36.440624 61.675 37.034374Q61.8625 37.628124 62.33125 37.971874Q62.815624 38.315624 63.565624 38.315624Q64.40938 38.315624 65.06563 37.8625Q65.7375 37.39375 65.9875 36.70625Q66.2375 36.01875 66.2375 33.346874L66.2375 28.096874L69.51875 28.096874L69.51875 40.55L66.47188 40.55ZM75.7375 31.89375L72.75313 31.3625Q73.25313 29.55 74.47188 28.690624Q75.70625 27.815624 78.14375 27.815624Q80.34688 27.815624 81.425 28.346874Q82.50313 28.8625 82.94063 29.675Q83.37813 30.471874 83.37813 32.6125L83.34688 36.45625Q83.34688 38.096874 83.50313 38.878124Q83.65938 39.659374 84.09688 40.55L80.83125 40.55Q80.70625 40.221874 80.51875 39.58125Q80.44063 39.284374 80.39375 39.190624Q79.55 40.003124 78.58125 40.425Q77.62813 40.83125 76.55 40.83125Q74.62813 40.83125 73.51875 39.784374Q72.40938 38.7375 72.40938 37.14375Q72.40938 36.096874 72.90938 35.26875Q73.40938 34.440624 74.31563 34.003124Q75.2375 33.565624 76.94063 33.2375Q79.25313 32.8 80.14375 32.425L80.14375 32.096874Q80.14375 31.14375 79.675 30.753124Q79.20625 30.346874 77.90938 30.346874Q77.01875 30.346874 76.51875 30.690624Q76.03438 31.034374 75.7375 31.89375ZM80.14375 34.565624Q79.50313 34.784374 78.12813 35.08125Q76.76875 35.3625 76.34688 35.64375Q75.70625 36.1125 75.70625 36.815624Q75.70625 37.503124 76.22188 38.003124Q76.7375 38.503124 77.53438 38.503124Q78.425 38.503124 79.22188 37.925Q79.83125 37.471874 80.01875 36.83125Q80.14375 36.409374 80.14375 35.221874L80.14375 34.565624ZM86.26875 40.55L86.26875 23.3625L89.56563 23.3625L89.56563 40.55L86.26875 40.55Z" fill-rule="nonzero"/></svg>