<svg version="1.1" viewBox="0.0 0.0 600.0 371.0" fill="none" stroke="none" stroke-linecap="square" stroke-miterlimit="10" width="600" height="371" xmlns:xlink="http://www.w3.org/1999/xlink" xmlns="http://www.w3.org/2000/svg"><path fill="#ffffff" d="M0 0L600.0 0L600.0 371.0L0 371.0L0 0Z" fill-rule="nonzero"/><path stroke="#333333" stroke-width="1.0" stroke-linecap="butt" d="M45.5 332.5L581.5 332.5" fill-rule="nonzero"/><path stroke="#cccccc" stroke-width="1.0" stroke-linecap="butt" d="M45.5 243.5L581.5 243.5" fill-rule="nonzero"/><path stroke="#cccccc" stroke-width="1.0" stroke-linecap="butt" d="M45.5 154.5L581.5 154.5" fill-rule="nonzero"/><path stroke="#cccccc" stroke-width="1.0" stroke-linecap="butt" d="M45.5 65.5L581.5 65.5" fill-rule="nonzero"/><clipPath id="id_0"><path d="M45.55 65.916664L581.45 65.916664L581.45 332.45L45.55 332.45L45.55 65.916664Z" clip-rule="nonzero"/></clipPath><path stroke="#000000" stroke-width="2.0" stroke-linecap="butt" stroke-opacity="0.0" clip-path="url(#id_0)" d="M273.0 332.0L125.0 332.0L125.0 157.0C125.0 155.89543 125.89543 155.0 127.0 155.0L271.0 155.0C272.10458 155.0 273.0 155.89543 273.0 157.0Z" fill-rule="nonzero"/><path fill="#4285f4" clip-path="url(#id_0)" d="M273.0 332.0L125.0 332.0L125.0 157.0C125.0 155.89543 125.89543 155.0 127.0 155.0L271.0 155.0C272.10458 155.0 273.0 155.89543 273.0 157.0Z" fill-rule="nonzero"/><path stroke="#000000" stroke-width="2.0" stroke-linecap="butt" stroke-opacity="0.0" clip-path="url(#id_0)" d="M502.0 332.0L354.0 332.0L354.0 103.0C354.0 101.89543 354.89542 101.0 356.0 101.0L500.0 101.0C501.10458 101.0 502.0 101.89543 502.0 103.0Z" fill-rule="nonzero"/><path fill="#e69138" clip-path="url(#id_0)" d="M502.0 332.0L354.0 332.0L354.0 103.0C354.0 101.89543 354.89542 101.0 356.0 101.0L500.0 101.0C501.10458 101.0 502.0 101.89543 502.0 103.0Z" fill-rule="nonzero"/><path stroke="#4285f4" stroke-width="3.0" stroke-linejoin="round" stroke-linecap="round" d="M192.76562 171.56111L191.6875 171.56111L191.6875 164.34236L189.5 165.13924L189.5 164.15486L192.60938 162.98299L192.76562 162.98299L192.76562 171.56111ZM201.5625 167.92049Q201.5625 169.82674 200.90625 170.76424Q200.26562 171.68611 198.875 171.68611Q197.51562 171.68611 196.85938 170.77986Q196.20312 169.87361 196.17188 168.06111L196.17188 166.62361Q196.17188 164.73299 196.8125 163.82674Q197.46875 162.90486 198.85938 162.90486Q200.23438 162.90486 200.89062 163.79549Q201.54688 164.67049 201.5625 166.51424L201.5625 167.92049ZM200.46875 166.43611Q200.46875 165.06111 200.07812 164.43611Q199.70312 163.79549 198.85938 163.79549Q198.03125 163.79549 197.64062 164.43611Q197.26562 165.06111 197.26562 166.35799L197.26562 168.09236Q197.26562 169.46736 197.65625 170.13924Q198.0625 170.79549 198.875 170.79549Q199.67188 170.79549 200.0625 170.17049Q200.45312 169.54549 200.46875 168.21736L200.46875 166.43611ZM208.5625 167.92049Q208.5625 169.82674 207.90625 170.76424Q207.26562 171.68611 205.875 171.68611Q204.51562 171.68611 203.85938 170.77986Q203.20312 169.87361 203.17188 168.06111L203.17188 166.62361Q203.17188 164.73299 203.8125 163.82674Q204.46875 162.90486 205.85938 162.90486Q207.23438 162.90486 207.89062 163.79549Q208.54688 164.67049 208.5625 166.51424L208.5625 167.92049ZM207.46875 166.43611Q207.46875 165.06111 207.07812 164.43611Q206.70312 163.79549 205.85938 163.79549Q205.03125 163.79549 204.64062 164.43611Q204.26562 165.06111 204.26562 166.35799L204.26562 168.09236Q204.26562 169.46736 204.65625 170.13924Q205.0625 170.79549 205.875 170.79549Q206.67188 170.79549 207.0625 170.17049Q207.45312 169.54549 207.46875 168.21736L207.46875 166.43611Z" fill-rule="nonzero"/><path fill="#ffffff" d="M192.76562 171.56111L191.6875 171.56111L191.6875 164.34236L189.5 165.13924L189.5 164.15486L192.60938 162.98299L192.76562 162.98299L192.76562 171.56111ZM201.5625 167.92049Q201.5625 169.82674 200.90625 170.76424Q200.26562 171.68611 198.875 171.68611Q197.51562 171.68611 196.85938 170.77986Q196.20312 169.87361 196.17188 168.06111L196.17188 166.62361Q196.17188 164.73299 196.8125 163.82674Q197.46875 162.90486 198.85938 162.90486Q200.23438 162.90486 200.89062 163.79549Q201.54688 164.67049 201.5625 166.51424L201.5625 167.92049ZM200.46875 166.43611Q200.46875 165.06111 200.07812 164.43611Q199.70312 163.79549 198.85938 163.79549Q198.03125 163.79549 197.64062 164.43611Q197.26562 165.06111 197.26562 166.35799L197.26562 168.09236Q197.26562 169.46736 197.65625 170.13924Q198.0625 170.79549 198.875 170.79549Q199.67188 170.79549 200.0625 170.17049Q200.45312 169.54549 200.46875 168.21736L200.46875 166.43611ZM208.5625 167.92049Q208.5625 169.82674 207.90625 170.76424Q207.26562 171.68611 205.875 171.68611Q204.51562 171.68611 203.85938 170.77986Q203.20312 169.87361 203.17188 168.06111L203.17188 166.62361Q203.17188 164.73299 203.8125 163.82674Q204.46875 162.90486 205.85938 162.90486Q207.23438 162.90486 207.89062 163.79549Q208.54688 164.67049 208.5625 166.51424L208.5625 167.92049ZM207.46875 166.43611Q207.46875 165.06111 207.07812 164.43611Q206.70312 163.79549 205.85938 163.79549Q205.03125 163.79549 204.64062 164.43611Q204.26562 165.06111 204.26562 166.35799L204.26562 168.09236Q204.26562 169.46736 204.65625 170.13924Q205.0625 170.79549 205.875 170.79549Q206.67188 170.79549 207.0625 170.17049Q207.45312 169.54549 207.46875 168.21736L207.46875 166.43611Z" fill-rule="nonzero"/><path stroke="#e69138" stroke-width="3.0" stroke-linejoin="round" stroke-linecap="round" d="M421.76562 118.25445L420.6875 118.25445L420.6875 111.0357L418.5 111.83257L418.5 110.8482L421.60938 109.67632L421.76562 109.67632L421.76562 118.25445ZM426.78125 113.45757L427.59375 113.45757Q428.375 113.44195 428.8125 113.05132Q429.25 112.6607 429.25 111.98882Q429.25 110.48882 427.75 110.48882Q427.04688 110.48882 426.625 110.89507Q426.21875 111.30132 426.21875 111.95757L425.125 111.95757Q425.125 110.94195 425.85938 110.27007Q426.60938 109.5982 427.75 109.5982Q428.95312 109.5982 429.64062 110.23882Q430.32812 110.87945 430.32812 112.02007Q430.32812 112.58257 429.96875 113.0982Q429.60938 113.61382 428.98438 113.87945Q429.6875 114.0982 430.0625 114.61382Q430.45312 115.12945 430.45312 115.87945Q430.45312 117.02007 429.70312 117.70757Q428.95312 118.37945 427.75 118.37945Q426.5625 118.37945 425.79688 117.7232Q425.04688 117.06695 425.04688 116.00445L426.14062 116.00445Q426.14062 116.67632 426.57812 117.08257Q427.01562 117.48882 427.76562 117.48882Q428.54688 117.48882 428.95312 117.08257Q429.375 116.6607 429.375 115.89507Q429.375 115.1607 428.92188 114.77007Q428.46875 114.36382 427.59375 114.3482L426.78125 114.3482L426.78125 113.45757ZM437.5625 114.61382Q437.5625 116.52007 436.90625 117.45757Q436.26562 118.37945 434.875 118.37945Q433.51562 118.37945 432.85938 117.4732Q432.20312 116.56695 432.17188 114.75445L432.17188 113.31695Q432.17188 111.42632 432.8125 110.52007Q433.46875 109.5982 434.85938 109.5982Q436.23438 109.5982 436.89062 110.48882Q437.54688 111.36382 437.5625 113.20757L437.5625 114.61382ZM436.46875 113.12945Q436.46875 111.75445 436.07812 111.12945Q435.70312 110.48882 434.85938 110.48882Q434.03125 110.48882 433.64062 111.12945Q433.26562 111.75445 433.26562 113.05132L433.26562 114.7857Q433.26562 116.1607 433.65625 116.83257Q434.0625 117.48882 434.875 117.48882Q435.67188 117.48882 436.0625 116.86382Q436.45312 116.23882 436.46875 114.9107L436.46875 113.12945Z" fill-rule="nonzero"/><path fill="#000000" d="M421.76562 118.25445L420.6875 118.25445L420.6875 111.0357L418.5 111.83257L418.5 110.8482L421.60938 109.67632L421.76562 109.67632L421.76562 118.25445ZM426.78125 113.45757L427.59375 113.45757Q428.375 113.44195 428.8125 113.05132Q429.25 112.6607 429.25 111.98882Q429.25 110.48882 427.75 110.48882Q427.04688 110.48882 426.625 110.89507Q426.21875 111.30132 426.21875 111.95757L425.125 111.95757Q425.125 110.94195 425.85938 110.27007Q426.60938 109.5982 427.75 109.5982Q428.95312 109.5982 429.64062 110.23882Q430.32812 110.87945 430.32812 112.02007Q430.32812 112.58257 429.96875 113.0982Q429.60938 113.61382 428.98438 113.87945Q429.6875 114.0982 430.0625 114.61382Q430.45312 115.12945 430.45312 115.87945Q430.45312 117.02007 429.70312 117.70757Q428.95312 118.37945 427.75 118.37945Q426.5625 118.37945 425.79688 117.7232Q425.04688 117.06695 425.04688 116.00445L426.14062 116.00445Q426.14062 116.67632 426.57812 117.08257Q427.01562 117.48882 427.76562 117.48882Q428.54688 117.48882 428.95312 117.08257Q429.375 116.6607 429.375 115.89507Q429.375 115.1607 428.92188 114.77007Q428.46875 114.36382 427.59375 114.3482L426.78125 114.3482L426.78125 113.45757ZM437.5625 114.61382Q437.5625 116.52007 436.90625 117.45757Q436.26562 118.37945 434.875 118.37945Q433.51562 118.37945 432.85938 117.4732Q432.20312 116.56695 432.17188 114.75445L432.17188 113.31695Q432.17188 111.42632 432.8125 110.52007Q433.46875 109.5982 434.85938 109.5982Q436.23438 109.5982 436.89062 110.48882Q437.54688 111.36382 437.5625 113.20757L437.5625 114.61382ZM436.46875 113.12945Q436.46875 111.75445 436.07812 111.12945Q435.70312 110.48882 434.85938 110.48882Q434.03125 110.48882 433.64062 111.12945Q433.26562 111.75445 433.26562 113.05132L433.26562 114.7857Q433.26562 116.1607 433.65625 116.83257Q434.0625 117.48882 434.875 117.48882Q435.67188 117.48882 436.0625 116.86382Q436.45312 116.23882 436.46875 114.9107L436.46875 113.12945Z" fill-rule="nonzero"/><path fill="#000000" d="M33.05 332.21564Q33.05 330.6844 33.3625 329.7625Q33.675 328.825 34.284374 328.325Q34.909374 327.825 35.846874 327.825Q36.534374 327.825 37.05 328.10626Q37.58125 328.3875 37.925 328.91876Q38.26875 329.4344 38.45625 330.1844Q38.64375 330.9344 38.64375 332.21564Q38.64375 333.73126 38.33125 334.65314Q38.034374 335.575 37.409374 336.09064Q36.8 336.59064 35.846874 336.59064Q34.6125 336.59064 33.89375 335.7Q33.05 334.6375 33.05 332.21564ZM34.128124 332.21564Q34.128124 334.325 34.628124 335.02814Q35.128124 335.73126 35.846874 335.73126Q36.58125 335.73126 37.065624 335.02814Q37.565624 334.325 37.565624 332.21564Q37.565624 330.09064 37.065624 329.40314Q36.58125 328.7 35.83125 328.7Q35.1125 328.7 34.675 329.3094Q34.128124 330.09064 34.128124 332.21564Z" fill-rule="nonzero"/><path fill="#000000" d="M26.05 245.35556L27.159374 245.26181Q27.284374 246.07431 27.721874 246.48056Q28.175 246.88681 28.815624 246.88681Q29.565624 246.88681 30.096874 246.30869Q30.628124 245.73056 30.628124 244.79306Q30.628124 243.88681 30.1125 243.37119Q29.6125 242.83994 28.784374 242.83994Q28.284374 242.83994 27.8625 243.07431Q27.45625 243.30869 27.221874 243.66806L26.2375 243.54306L27.065624 239.13681L31.346874 239.13681L31.346874 240.13681L27.909374 240.13681L27.45625 242.44931Q28.221874 241.90244 29.065624 241.90244Q30.190624 241.90244 30.95625 242.68369Q31.7375 243.46494 31.7375 244.69931Q31.7375 245.85556 31.065624 246.71494Q30.2375 247.74619 28.815624 247.74619Q27.64375 247.74619 26.89375 247.08994Q26.159374 246.43369 26.05 245.35556ZM33.05 243.37119Q33.05 241.83994 33.3625 240.91806Q33.675 239.98056 34.284374 239.48056Q34.909374 238.98056 35.846874 238.98056Q36.534374 238.98056 37.05 239.26181Q37.58125 239.54306 37.925 240.07431Q38.26875 240.58994 38.45625 241.33994Q38.64375 242.08994 38.64375 243.37119Q38.64375 244.88681 38.33125 245.80869Q38.034374 246.73056 37.409374 247.24619Q36.8 247.74619 35.846874 247.74619Q34.6125 247.74619 33.89375 246.85556Q33.05 245.79306 33.05 243.37119ZM34.128124 243.37119Q34.128124 245.48056 34.628124 246.18369Q35.128124 246.88681 35.846874 246.88681Q36.58125 246.88681 37.065624 246.18369Q37.565624 245.48056 37.565624 243.37119Q37.565624 241.24619 37.065624 240.55869Q36.58125 239.85556 35.83125 239.85556Q35.1125 239.85556 34.675 240.46494Q34.128124 241.24619 34.128124 243.37119Z" fill-rule="nonzero"/><path fill="#000000" d="M23.01875 158.76111L21.971874 158.76111L21.971874 152.04236Q21.58125 152.40173 20.95625 152.77673Q20.346874 153.13611 19.8625 153.30798L19.8625 152.29236Q20.7375 151.87048 21.39375 151.29236Q22.065624 150.69861 22.346874 150.13611L23.01875 150.13611L23.01875 158.76111ZM26.05 154.52673Q26.05 152.99548 26.3625 152.07361Q26.675 151.13611 27.284374 150.63611Q27.909374 150.13611 28.846874 150.13611Q29.534374 150.13611 30.05 150.41736Q30.58125 150.69861 30.925 151.22986Q31.26875 151.74548 31.45625 152.49548Q31.64375 153.24548 31.64375 154.52673Q31.64375 156.04236 31.33125 156.96423Q31.034374 157.88611 30.409374 158.40173Q29.8 158.90173 28.846874 158.90173Q27.6125 158.90173 26.89375 158.01111Q26.05 156.94861 26.05 154.52673ZM27.128124 154.52673Q27.128124 156.63611 27.628124 157.33923Q28.128124 158.04236 28.846874 158.04236Q29.58125 158.04236 30.065624 157.33923Q30.565624 156.63611 30.565624 154.52673Q30.565624 152.40173 30.065624 151.71423Q29.58125 151.01111 28.83125 151.01111Q28.1125 151.01111 27.675 151.62048Q27.128124 152.40173 27.128124 154.52673ZM33.05 154.52673Q33.05 152.99548 33.3625 152.07361Q33.675 151.13611 34.284374 150.63611Q34.909374 150.13611 35.846874 150.13611Q36.534374 150.13611 37.05 150.41736Q37.58125 150.69861 37.925 151.22986Q38.26875 151.74548 38.45625 152.49548Q38.64375 153.24548 38.64375 154.52673Q38.64375 156.04236 38.33125 156.96423Q38.034374 157.88611 37.409374 158.40173Q36.8 158.90173 35.846874 158.90173Q34.6125 158.90173 33.89375 158.01111Q33.05 156.94861 33.05 154.52673ZM34.128124 154.52673Q34.128124 156.63611 34.628124 157.33923Q35.128124 158.04236 35.846874 158.04236Q36.58125 158.04236 37.065624 157.33923Q37.565624 156.63611 37.565624 154.52673Q37.565624 152.40173 37.065624 151.71423Q36.58125 151.01111 35.83125 151.01111Q35.1125 151.01111 34.675 151.62048Q34.128124 152.40173 34.128124 154.52673Z" fill-rule="nonzero"/><path fill="#000000" d="M23.01875 69.916664L21.971874 69.916664L21.971874 63.197914Q21.58125 63.55729 20.95625 63.93229Q20.346874 64.291664 19.8625 64.46354L19.8625 63.447914Q20.7375 63.02604 21.39375 62.447914Q22.065624 61.854164 22.346874 61.291664L23.01875 61.291664L23.01875 69.916664ZM26.05 67.666664L27.159374 67.572914Q27.284374 68.385414 27.721874 68.791664Q28.175 69.197914 28.815624 69.197914Q29.565624 69.197914 30.096874 68.61979Q30.628124 68.041664 30.628124 67.104164Q30.628124 66.197914 30.1125 65.68229Q29.6125 65.15104 28.784374 65.15104Q28.284374 65.15104 27.8625 65.385414Q27.45625 65.61979 27.221874 65.979164L26.2375 65.854164L27.065624 61.447914L31.346874 61.447914L31.346874 62.447914L27.909374 62.447914L27.45625 64.760414Q28.221874 64.21354 29.065624 64.21354Q30.190624 64.21354 30.95625 64.99479Q31.7375 65.77604 31.7375 67.010414Q31.7375 68.166664 31.065624 69.02604Q30.2375 70.05729 28.815624 70.05729Q27.64375 70.05729 26.89375 69.40104Q26.159374 68.74479 26.05 67.666664ZM33.05 65.68229Q33.05 64.15104 33.3625 63.229164Q33.675 62.291664 34.284374 61.791664Q34.909374 61.291664 35.846874 61.291664Q36.534374 61.291664 37.05 61.572914Q37.58125 61.854164 37.925 62.385414Q38.26875 62.90104 38.45625 63.65104Q38.64375 64.40104 38.64375 65.68229Q38.64375 67.197914 38.33125 68.11979Q38.034374 69.041664 37.409374 69.55729Q36.8 70.05729 35.846874 70.05729Q34.6125 70.05729 33.89375 69.166664Q33.05 68.104164 33.05 65.68229ZM34.128124 65.68229Q34.128124 67.791664 34.628124 68.49479Q35.128124 69.197914 35.846874 69.197914Q36.58125 69.197914 37.065624 68.49479Q37.565624 67.791664 37.565624 65.68229Q37.565624 63.55729 37.065624 62.86979Q36.58125 62.166664 35.83125 62.166664Q35.1125 62.166664 34.675 62.77604Q34.128124 63.55729 34.128124 65.68229Z" fill-rule="nonzero"/><path fill="#000000" d="M164.9006 349.45L162.61935 340.85626L163.79123 340.85626L165.10373 346.4969Q165.30685 347.3719 165.4631 348.2469Q165.79123 346.8719 165.85373 346.65314L167.47873 340.85626L168.85373 340.85626L170.0881 345.2Q170.54123 346.825 170.75998 348.2469Q170.91623 347.4344 171.18185 346.3719L172.5256 340.85626L173.66623 340.85626L171.32248 349.45L170.2131 349.45L168.41623 342.90314Q168.18185 342.09064 168.13498 341.90314Q168.00998 342.48126 167.88498 342.90314L166.07248 349.45L164.9006 349.45ZM178.3381 348.6844Q177.74435 349.1844 177.19748 349.3875Q176.66623 349.59064 176.04123 349.59064Q175.00998 349.59064 174.4631 349.09064Q173.91623 348.59064 173.91623 347.8094Q173.91623 347.35626 174.11935 346.98126Q174.32248 346.59064 174.66623 346.3719Q175.00998 346.1375 175.43185 346.02814Q175.72873 345.9344 176.36935 345.85626Q177.63498 345.71564 178.24435 345.4969Q178.24435 345.27814 178.24435 345.23126Q178.24435 344.575 177.94748 344.3094Q177.54123 343.96564 176.74435 343.96564Q176.00998 343.96564 175.6506 344.23126Q175.29123 344.48126 175.11935 345.1375L174.0881 344.9969Q174.22873 344.34064 174.55685 343.9344Q174.88498 343.52814 175.49435 343.3094Q176.10373 343.09064 176.9006 343.09064Q177.69748 343.09064 178.19748 343.27814Q178.69748 343.46564 178.93185 343.7469Q179.16623 344.02814 179.25998 344.46564Q179.30685 344.73126 179.30685 345.4344L179.30685 346.84064Q179.30685 348.3094 179.36935 348.7Q179.44748 349.09064 179.6506 349.45L178.54123 349.45Q178.38498 349.1219 178.3381 348.6844ZM178.24435 346.325Q177.66623 346.5594 176.5256 346.73126Q175.86935 346.825 175.60373 346.95Q175.3381 347.0594 175.18185 347.27814Q175.04123 347.4969 175.04123 347.77814Q175.04123 348.2 175.35373 348.48126Q175.68185 348.7625 176.29123 348.7625Q176.9006 348.7625 177.36935 348.4969Q177.85373 348.23126 178.07248 347.7625Q178.24435 347.40314 178.24435 346.71564L178.24435 346.325ZM183.57248 348.5125L183.72873 349.4344Q183.2756 349.52814 182.93185 349.52814Q182.35373 349.52814 182.04123 349.35626Q181.72873 349.16876 181.5881 348.8719Q181.4631 348.575 181.4631 347.6219L181.4631 344.04376L180.69748 344.04376L180.69748 343.23126L181.4631 343.23126L181.4631 341.6844L182.50998 341.0594L182.50998 343.23126L183.57248 343.23126L183.57248 344.04376L182.50998 344.04376L182.50998 347.6844Q182.50998 348.1375 182.55685 348.2625Q182.61935 348.3875 182.74435 348.46564Q182.86935 348.54376 183.10373 348.54376Q183.29123 348.54376 183.57248 348.5125ZM188.5256 347.45L189.61935 347.575Q189.36935 348.52814 188.66623 349.0594Q187.9631 349.59064 186.88498 349.59064Q185.5256 349.59064 184.7131 348.7469Q183.91623 347.90314 183.91623 346.3875Q183.91623 344.825 184.72873 343.96564Q185.54123 343.09064 186.82248 343.09064Q188.07248 343.09064 188.85373 343.9344Q189.6506 344.77814 189.6506 346.325Q189.6506 346.41876 189.6506 346.60626L185.00998 346.60626Q185.07248 347.6375 185.5881 348.1844Q186.10373 348.71564 186.88498 348.71564Q187.4631 348.71564 187.86935 348.41876Q188.29123 348.10626 188.5256 347.45ZM185.07248 345.7469L188.54123 345.7469Q188.47873 344.95 188.1506 344.5594Q187.63498 343.95 186.8381 343.95Q186.10373 343.95 185.60373 344.4344Q185.11935 344.91876 185.07248 345.7469ZM191.25998 349.45L191.25998 343.23126L192.2131 343.23126L192.2131 344.16876Q192.57248 343.5125 192.86935 343.3094Q193.18185 343.09064 193.55685 343.09064Q194.0881 343.09064 194.63498 343.41876L194.2756 344.40314Q193.88498 344.16876 193.50998 344.16876Q193.1506 344.16876 192.86935 344.3875Q192.60373 344.59064 192.49435 344.96564Q192.30685 345.52814 192.30685 346.1844L192.30685 349.45L191.25998 349.45ZM198.35373 349.45L198.35373 340.85626L201.5881 340.85626Q202.57248 340.85626 203.16623 341.1219Q203.75998 341.3875 204.0881 341.9344Q204.43185 342.46564 204.43185 343.0594Q204.43185 343.60626 204.13498 344.09064Q203.8381 344.575 203.22873 344.8719Q204.00998 345.10626 204.41623 345.66876Q204.8381 346.21564 204.8381 346.96564Q204.8381 347.5594 204.5881 348.09064Q204.3381 348.60626 203.9631 348.8875Q203.5881 349.16876 203.00998 349.3094Q202.44748 349.45 201.63498 349.45L198.35373 349.45ZM199.49435 344.46564L201.35373 344.46564Q202.10373 344.46564 202.43185 344.3719Q202.86935 344.2469 203.0881 343.95Q203.30685 343.6375 203.30685 343.1844Q203.30685 342.7625 203.10373 342.4344Q202.9006 342.10626 202.50998 341.9969Q202.13498 341.8719 201.2131 341.8719L199.49435 341.8719L199.49435 344.46564ZM199.49435 348.4344L201.63498 348.4344Q202.18185 348.4344 202.4006 348.3875Q202.80685 348.325 203.05685 348.16876Q203.32248 347.9969 203.49435 347.6844Q203.66623 347.3719 203.66623 346.96564Q203.66623 346.48126 203.41623 346.1219Q203.18185 345.7625 202.74435 345.6219Q202.30685 345.48126 201.47873 345.48126L199.49435 345.48126L199.49435 348.4344ZM210.35373 349.45L210.35373 348.52814Q209.61935 349.59064 208.36935 349.59064Q207.82248 349.59064 207.3381 349.3875Q206.86935 349.16876 206.63498 348.85626Q206.4006 348.52814 206.30685 348.0594Q206.24435 347.7625 206.24435 347.075L206.24435 343.23126L207.30685 343.23126L207.30685 346.6844Q207.30685 347.4969 207.36935 347.79376Q207.4631 348.2 207.7756 348.45Q208.10373 348.6844 208.5881 348.6844Q209.05685 348.6844 209.4631 348.45Q209.88498 348.2 210.05685 347.77814Q210.24435 347.35626 210.24435 346.5594L210.24435 343.23126L211.29123 343.23126L211.29123 349.45L210.35373 349.45ZM217.30685 349.45L217.30685 348.66876Q216.7131 349.59064 215.57248 349.59064Q214.82248 349.59064 214.19748 349.1844Q213.57248 348.7625 213.22873 348.02814Q212.88498 347.29376 212.88498 346.34064Q212.88498 345.41876 213.19748 344.65314Q213.50998 343.8875 214.13498 343.4969Q214.75998 343.09064 215.5256 343.09064Q216.0881 343.09064 216.5256 343.325Q216.9631 343.5594 217.24435 343.9344L217.24435 340.85626L218.29123 340.85626L218.29123 349.45L217.30685 349.45ZM213.97873 346.34064Q213.97873 347.54376 214.47873 348.1375Q214.97873 348.71564 215.66623 348.71564Q216.35373 348.71564 216.8381 348.15314Q217.32248 347.59064 217.32248 346.4344Q217.32248 345.15314 216.82248 344.5594Q216.3381 343.96564 215.61935 343.96564Q214.91623 343.96564 214.44748 344.54376Q213.97873 345.10626 213.97873 346.34064ZM220.07248 349.96564L221.10373 350.1219Q221.16623 350.59064 221.4631 350.8094Q221.85373 351.10626 222.5256 351.10626Q223.25998 351.10626 223.6506 350.8094Q224.05685 350.5125 224.19748 349.9969Q224.29123 349.66876 224.2756 348.6375Q223.5881 349.45 222.55685 349.45Q221.2756 349.45 220.57248 348.52814Q219.86935 347.59064 219.86935 346.3094Q219.86935 345.41876 220.18185 344.66876Q220.50998 343.90314 221.11935 343.4969Q221.72873 343.09064 222.55685 343.09064Q223.66623 343.09064 224.38498 343.98126L224.38498 343.23126L225.35373 343.23126L225.35373 348.60626Q225.35373 350.0594 225.05685 350.66876Q224.75998 351.27814 224.11935 351.6219Q223.47873 351.98126 222.54123 351.98126Q221.43185 351.98126 220.74435 351.48126Q220.05685 350.98126 220.07248 349.96564ZM220.94748 346.23126Q220.94748 347.45 221.43185 348.0125Q221.91623 348.575 222.6506 348.575Q223.38498 348.575 223.86935 348.0125Q224.36935 347.45 224.36935 346.2625Q224.36935 345.1219 223.85373 344.54376Q223.35373 343.96564 222.63498 343.96564Q221.93185 343.96564 221.43185 344.54376Q220.94748 345.10626 220.94748 346.23126ZM231.5256 347.45L232.61935 347.575Q232.36935 348.52814 231.66623 349.0594Q230.9631 349.59064 229.88498 349.59064Q228.5256 349.59064 227.7131 348.7469Q226.91623 347.90314 226.91623 346.3875Q226.91623 344.825 227.72873 343.96564Q228.54123 343.09064 229.82248 343.09064Q231.07248 343.09064 231.85373 343.9344Q232.6506 344.77814 232.6506 346.325Q232.6506 346.41876 232.6506 346.60626L228.00998 346.60626Q228.07248 347.6375 228.5881 348.1844Q229.10373 348.71564 229.88498 348.71564Q230.4631 348.71564 230.86935 348.41876Q231.29123 348.10626 231.5256 347.45ZM228.07248 345.7469L231.54123 345.7469Q231.47873 344.95 231.1506 344.5594Q230.63498 343.95 229.8381 343.95Q229.10373 343.95 228.60373 344.4344Q228.11935 344.91876 228.07248 345.7469ZM236.57248 348.5125L236.72873 349.4344Q236.2756 349.52814 235.93185 349.52814Q235.35373 349.52814 235.04123 349.35626Q234.72873 349.16876 234.5881 348.8719Q234.4631 348.575 234.4631 347.6219L234.4631 344.04376L233.69748 344.04376L233.69748 343.23126L234.4631 343.23126L234.4631 341.6844L235.50998 341.0594L235.50998 343.23126L236.57248 343.23126L236.57248 344.04376L235.50998 344.04376L235.50998 347.6844Q235.50998 348.1375 235.55685 348.2625Q235.61935 348.3875 235.74435 348.46564Q235.86935 348.54376 236.10373 348.54376Q236.29123 348.54376 236.57248 348.5125Z" fill-rule="nonzero"/><path fill="#000000" d="M391.00565 349.45L394.30252 340.85626L395.52127 340.85626L399.0369 349.45L397.75565 349.45L396.74002 346.84064L393.1619 346.84064L392.20877 349.45L391.00565 349.45ZM393.49002 345.91876L396.39627 345.91876L395.50565 343.54376Q395.08377 342.46564 394.89627 341.7625Q394.7244 342.59064 394.42752 343.40314L393.49002 345.91876ZM403.88065 347.16876L404.9119 347.3094Q404.74002 348.3719 404.0369 348.98126Q403.33377 349.59064 402.31815 349.59064Q401.0369 349.59064 400.25565 348.7625Q399.49002 347.91876 399.49002 346.35626Q399.49002 345.35626 399.81815 344.60626Q400.1619 343.84064 400.83377 343.46564Q401.52127 343.09064 402.33377 343.09064Q403.33377 343.09064 403.9744 343.60626Q404.63065 344.10626 404.81815 345.0594L403.7869 345.21564Q403.64627 344.59064 403.27127 344.27814Q402.89627 343.95 402.36502 343.95Q401.56815 343.95 401.06815 344.52814Q400.56815 345.09064 400.56815 346.325Q400.56815 347.59064 401.05252 348.15314Q401.5369 348.71564 402.30252 348.71564Q402.92752 348.71564 403.33377 348.34064Q403.75565 347.96564 403.88065 347.16876ZM408.11502 348.5125L408.27127 349.4344Q407.81815 349.52814 407.4744 349.52814Q406.89627 349.52814 406.58377 349.35626Q406.27127 349.16876 406.13065 348.8719Q406.00565 348.575 406.00565 347.6219L406.00565 344.04376L405.24002 344.04376L405.24002 343.23126L406.00565 343.23126L406.00565 341.6844L407.05252 341.0594L407.05252 343.23126L408.11502 343.23126L408.11502 344.04376L407.05252 344.04376L407.05252 347.6844Q407.05252 348.1375 407.0994 348.2625Q407.1619 348.3875 407.2869 348.46564Q407.4119 348.54376 407.64627 348.54376Q407.83377 348.54376 408.11502 348.5125ZM412.89627 349.45L412.89627 348.52814Q412.1619 349.59064 410.9119 349.59064Q410.36502 349.59064 409.88065 349.3875Q409.4119 349.16876 409.17752 348.85626Q408.94315 348.52814 408.8494 348.0594Q408.7869 347.7625 408.7869 347.075L408.7869 343.23126L409.8494 343.23126L409.8494 346.6844Q409.8494 347.4969 409.9119 347.79376Q410.00565 348.2 410.31815 348.45Q410.64627 348.6844 411.13065 348.6844Q411.5994 348.6844 412.00565 348.45Q412.42752 348.2 412.5994 347.77814Q412.7869 347.35626 412.7869 346.5594L412.7869 343.23126L413.83377 343.23126L413.83377 349.45L412.89627 349.45ZM419.88065 348.6844Q419.2869 349.1844 418.74002 349.3875Q418.20877 349.59064 417.58377 349.59064Q416.55252 349.59064 416.00565 349.09064Q415.45877 348.59064 415.45877 347.8094Q415.45877 347.35626 415.6619 346.98126Q415.86502 346.59064 416.20877 346.3719Q416.55252 346.1375 416.9744 346.02814Q417.27127 345.9344 417.9119 345.85626Q419.17752 345.71564 419.7869 345.4969Q419.7869 345.27814 419.7869 345.23126Q419.7869 344.575 419.49002 344.3094Q419.08377 343.96564 418.2869 343.96564Q417.55252 343.96564 417.19315 344.23126Q416.83377 344.48126 416.6619 345.1375L415.63065 344.9969Q415.77127 344.34064 416.0994 343.9344Q416.42752 343.52814 417.0369 343.3094Q417.64627 343.09064 418.44315 343.09064Q419.24002 343.09064 419.74002 343.27814Q420.24002 343.46564 420.4744 343.7469Q420.70877 344.02814 420.80252 344.46564Q420.8494 344.73126 420.8494 345.4344L420.8494 346.84064Q420.8494 348.3094 420.9119 348.7Q420.99002 349.09064 421.19315 349.45L420.08377 349.45Q419.92752 349.1219 419.88065 348.6844ZM419.7869 346.325Q419.20877 346.5594 418.06815 346.73126Q417.4119 346.825 417.14627 346.95Q416.88065 347.0594 416.7244 347.27814Q416.58377 347.4969 416.58377 347.77814Q416.58377 348.2 416.89627 348.48126Q417.2244 348.7625 417.83377 348.7625Q418.44315 348.7625 418.9119 348.4969Q419.39627 348.23126 419.61502 347.7625Q419.7869 347.40314 419.7869 346.71564L419.7869 346.325ZM422.7869 349.45L422.7869 340.85626L423.8494 340.85626L423.8494 349.45L422.7869 349.45ZM434.58377 340.85626L435.7244 340.85626L435.7244 345.825Q435.7244 347.1219 435.42752 347.8875Q435.13065 348.6375 434.36502 349.1219Q433.5994 349.59064 432.36502 349.59064Q431.1619 349.59064 430.38065 349.1844Q429.61502 348.7625 429.2869 347.98126Q428.95877 347.1844 428.95877 345.825L428.95877 340.85626L430.0994 340.85626L430.0994 345.8094Q430.0994 346.9344 430.30252 347.46564Q430.52127 347.9969 431.02127 348.29376Q431.5369 348.575 432.27127 348.575Q433.52127 348.575 434.05252 348.0125Q434.58377 347.4344 434.58377 345.8094L434.58377 340.85626ZM437.39627 347.59064L438.42752 347.4344Q438.52127 348.0594 438.9119 348.3875Q439.31815 348.71564 440.05252 348.71564Q440.77127 348.71564 441.11502 348.4344Q441.4744 348.1375 441.4744 347.73126Q441.4744 347.3719 441.1619 347.16876Q440.94315 347.02814 440.08377 346.8094Q438.92752 346.5125 438.4744 346.3094Q438.0369 346.09064 437.80252 345.71564Q437.56815 345.34064 437.56815 344.8719Q437.56815 344.46564 437.75565 344.10626Q437.94315 343.7469 438.27127 343.5125Q438.52127 343.34064 438.94315 343.21564Q439.36502 343.09064 439.86502 343.09064Q440.58377 343.09064 441.13065 343.3094Q441.69315 343.5125 441.95877 343.8719Q442.2244 344.23126 442.31815 344.825L441.2869 344.96564Q441.2244 344.4969 440.88065 344.23126Q440.55252 343.95 439.92752 343.95Q439.20877 343.95 438.89627 344.2Q438.58377 344.4344 438.58377 344.7625Q438.58377 344.96564 438.70877 345.1219Q438.8494 345.29376 439.11502 345.40314Q439.27127 345.46564 440.05252 345.66876Q441.17752 345.98126 441.61502 346.16876Q442.05252 346.35626 442.30252 346.71564Q442.55252 347.075 442.55252 347.6219Q442.55252 348.15314 442.24002 348.6219Q441.94315 349.075 441.36502 349.34064Q440.7869 349.59064 440.05252 349.59064Q438.83377 349.59064 438.19315 349.09064Q437.56815 348.575 437.39627 347.59064ZM447.88065 348.6844Q447.2869 349.1844 446.74002 349.3875Q446.20877 349.59064 445.58377 349.59064Q444.55252 349.59064 444.00565 349.09064Q443.45877 348.59064 443.45877 347.8094Q443.45877 347.35626 443.6619 346.98126Q443.86502 346.59064 444.20877 346.3719Q444.55252 346.1375 444.9744 346.02814Q445.27127 345.9344 445.9119 345.85626Q447.17752 345.71564 447.7869 345.4969Q447.7869 345.27814 447.7869 345.23126Q447.7869 344.575 447.49002 344.3094Q447.08377 343.96564 446.2869 343.96564Q445.55252 343.96564 445.19315 344.23126Q444.83377 344.48126 444.6619 345.1375L443.63065 344.9969Q443.77127 344.34064 444.0994 343.9344Q444.42752 343.52814 445.0369 343.3094Q445.64627 343.09064 446.44315 343.09064Q447.24002 343.09064 447.74002 343.27814Q448.24002 343.46564 448.4744 343.7469Q448.70877 344.02814 448.80252 344.46564Q448.8494 344.73126 448.8494 345.4344L448.8494 346.84064Q448.8494 348.3094 448.9119 348.7Q448.99002 349.09064 449.19315 349.45L448.08377 349.45Q447.92752 349.1219 447.88065 348.6844ZM447.7869 346.325Q447.20877 346.5594 446.06815 346.73126Q445.4119 346.825 445.14627 346.95Q444.88065 347.0594 444.7244 347.27814Q444.58377 347.4969 444.58377 347.77814Q444.58377 348.2 444.89627 348.48126Q445.2244 348.7625 445.83377 348.7625Q446.44315 348.7625 446.9119 348.4969Q447.39627 348.23126 447.61502 347.7625Q447.7869 347.40314 447.7869 346.71564L447.7869 346.325ZM450.61502 349.96564L451.64627 350.1219Q451.70877 350.59064 452.00565 350.8094Q452.39627 351.10626 453.06815 351.10626Q453.80252 351.10626 454.19315 350.8094Q454.5994 350.5125 454.74002 349.9969Q454.83377 349.66876 454.81815 348.6375Q454.13065 349.45 453.0994 349.45Q451.81815 349.45 451.11502 348.52814Q450.4119 347.59064 450.4119 346.3094Q450.4119 345.41876 450.7244 344.66876Q451.05252 343.90314 451.6619 343.4969Q452.27127 343.09064 453.0994 343.09064Q454.20877 343.09064 454.92752 343.98126L454.92752 343.23126L455.89627 343.23126L455.89627 348.60626Q455.89627 350.0594 455.5994 350.66876Q455.30252 351.27814 454.6619 351.6219Q454.02127 351.98126 453.08377 351.98126Q451.9744 351.98126 451.2869 351.48126Q450.5994 350.98126 450.61502 349.96564ZM451.49002 346.23126Q451.49002 347.45 451.9744 348.0125Q452.45877 348.575 453.19315 348.575Q453.92752 348.575 454.4119 348.0125Q454.9119 347.45 454.9119 346.2625Q454.9119 345.1219 454.39627 344.54376Q453.89627 343.96564 453.17752 343.96564Q452.4744 343.96564 451.9744 344.54376Q451.49002 345.10626 451.49002 346.23126ZM462.06815 347.45L463.1619 347.575Q462.9119 348.52814 462.20877 349.0594Q461.50565 349.59064 460.42752 349.59064Q459.06815 349.59064 458.25565 348.7469Q457.45877 347.90314 457.45877 346.3875Q457.45877 344.825 458.27127 343.96564Q459.08377 343.09064 460.36502 343.09064Q461.61502 343.09064 462.39627 343.9344Q463.19315 344.77814 463.19315 346.325Q463.19315 346.41876 463.19315 346.60626L458.55252 346.60626Q458.61502 347.6375 459.13065 348.1844Q459.64627 348.71564 460.42752 348.71564Q461.00565 348.71564 461.4119 348.41876Q461.83377 348.10626 462.06815 347.45ZM458.61502 345.7469L462.08377 345.7469Q462.02127 344.95 461.69315 344.5594Q461.17752 343.95 460.38065 343.95Q459.64627 343.95 459.14627 344.4344Q458.6619 344.91876 458.61502 345.7469Z" fill-rule="nonzero"/><path fill="#000000" d="M22.7375 40.55L18.628124 23.3625L22.190624 23.3625L24.76875 35.175L27.909374 23.3625L32.034374 23.3625L35.05 35.3625L37.690624 23.3625L41.175 23.3625L37.003124 40.55L33.33125 40.55L29.909374 27.70625L26.503124 40.55L22.7375 40.55ZM45.7375 31.89375L42.753124 31.3625Q43.253124 29.55 44.471874 28.690624Q45.70625 27.815624 48.14375 27.815624Q50.346874 27.815624 51.425 28.346874Q52.503124 28.8625 52.940624 29.675Q53.378124 30.471874 53.378124 32.6125L53.346874 36.45625Q53.346874 38.096874 53.503124 38.878124Q53.659374 39.659374 54.096874 40.55L50.83125 40.55Q50.70625 40.221874 50.51875 39.58125Q50.440624 39.284374 50.39375 39.190624Q49.55 40.003124 48.58125 40.425Q47.628124 40.83125 46.55 40.83125Q44.628124 40.83125 43.51875 39.784374Q42.409374 38.7375 42.409374 37.14375Q42.409374 36.096874 42.909374 35.26875Q43.409374 34.440624 44.315624 34.003124Q45.2375 33.565624 46.940624 33.2375Q49.253124 32.8 50.14375 32.425L50.14375 32.096874Q50.14375 31.14375 49.675 30.753124Q49.20625 30.346874 47.909374 30.346874Q47.01875 30.346874 46.51875 30.690624Q46.034374 31.034374 45.7375 31.89375ZM50.14375 34.565624Q49.503124 34.784374 48.128124 35.08125Q46.76875 35.3625 46.346874 35.64375Q45.70625 36.1125 45.70625 36.815624Q45.70625 37.503124 46.221874 38.003124Q46.7375 38.503124 47.534374 38.503124Q48.425 38.503124 49.221874 37.925Q49.83125 37.471874 50.01875 36.83125Q50.14375 36.409374 50.14375 35.221874L50.14375 34.565624ZM61.9875 28.096874L61.9875 30.721874L59.7375 30.721874L59.7375 35.7375Q59.7375 37.26875 59.8 37.51875Q59.8625 37.76875 60.08125 37.940624Q60.315624 38.096874 60.64375 38.096874Q61.096874 38.096874 61.971874 37.784374L62.253124 40.33125Q61.096874 40.83125 59.64375 40.83125Q58.753124 40.83125 58.034374 40.534374Q57.33125 40.2375 56.9875 39.76875Q56.659374 39.284374 56.534374 38.471874Q56.425 37.89375 56.425 36.159374L56.425 30.721874L54.909374 30.721874L54.909374 28.096874L56.425 28.096874L56.425 25.628124L59.7375 23.70625L59.7375 28.096874L61.9875 28.096874ZM71.4875 36.58125L74.76875 37.14375Q74.12813 38.940624 72.75313 39.89375Q71.39375 40.83125 69.34688 40.83125Q66.09688 40.83125 64.55 38.70625Q63.315624 37.003124 63.315624 34.425Q63.315624 31.33125 64.925 29.58125Q66.55 27.815624 69.01875 27.815624Q71.8 27.815624 73.39375 29.659374Q75.00313 31.4875 74.94063 35.26875L66.69063 35.26875Q66.72188 36.7375 67.4875 37.55Q68.25313 38.3625 69.37813 38.3625Q70.15938 38.3625 70.675 37.940624Q71.20625 37.51875 71.4875 36.58125ZM71.675 33.253124Q71.62813 31.83125 70.925 31.096874Q70.22188 30.346874 69.22188 30.346874Q68.14375 30.346874 67.44063 31.128124Q66.7375 31.909374 66.75313 33.253124L71.675 33.253124ZM80.425 40.55L77.12813 40.55L77.12813 28.096874L80.19063 28.096874L80.19063 29.878124Q80.97188 28.6125 81.59688 28.221874Q82.2375 27.815624 83.03438 27.815624Q84.15938 27.815624 85.19063 28.440624L84.175 31.315624Q83.34688 30.76875 82.62813 30.76875Q81.94063 30.76875 81.45625 31.159374Q80.97188 31.534374 80.69063 32.534374Q80.425 33.534374 80.425 36.70625L80.425 40.55ZM93.31563 23.3625L100.175 23.3625Q102.22188 23.3625 103.22188 23.534374Q104.22188 23.70625 105.00313 24.253124Q105.8 24.784374 106.33125 25.690624Q106.8625 26.58125 106.8625 27.690624Q106.8625 28.89375 106.20625 29.909374Q105.55 30.909374 104.44063 31.425Q106.01875 31.878124 106.8625 32.9875Q107.70625 34.08125 107.70625 35.565624Q107.70625 36.7375 107.15938 37.846874Q106.6125 38.95625 105.65938 39.628124Q104.72188 40.284374 103.34688 40.425Q102.47188 40.51875 99.15938 40.55L93.31563 40.55L93.31563 23.3625ZM96.78438 26.221874L96.78438 30.20625L99.05 30.20625Q101.08125 30.20625 101.56563 30.14375Q102.45625 30.034374 102.97188 29.534374Q103.4875 29.01875 103.4875 28.190624Q103.4875 27.39375 103.03438 26.89375Q102.59688 26.39375 101.7375 26.284374Q101.22188 26.221874 98.76875 26.221874L96.78438 26.221874ZM96.78438 33.065624L96.78438 37.659374L99.9875 37.659374Q101.8625 37.659374 102.3625 37.55Q103.14375 37.409374 103.62813 36.8625Q104.1125 36.315624 104.1125 35.409374Q104.1125 34.628124 103.7375 34.096874Q103.3625 33.55 102.64375 33.315624Q101.94063 33.065624 99.58125 33.065624L96.78438 33.065624ZM118.47188 40.55L118.47188 38.690624Q117.78438 39.675 116.675 40.253124Q115.56563 40.83125 114.34688 40.83125Q113.08125 40.83125 112.08125 40.284374Q111.09688 39.721874 110.64375 38.7375Q110.20625 37.7375 110.20625 35.971874L110.20625 28.096874L113.50313 28.096874L113.50313 33.815624Q113.50313 36.440624 113.675 37.034374Q113.8625 37.628124 114.33125 37.971874Q114.81563 38.315624 115.56563 38.315624Q116.40938 38.315624 117.06563 37.8625Q117.7375 37.39375 117.9875 36.70625Q118.2375 36.01875 118.2375 33.346874L118.2375 28.096874L121.51875 28.096874L121.51875 40.55L118.47188 40.55ZM136.69063 40.55L133.62813 40.55L133.62813 38.721874Q132.8625 39.784374 131.83125 40.315624Q130.8 40.83125 129.7375 40.83125Q127.59688 40.83125 126.06563 39.1125Q124.53438 37.378124 124.53438 34.284374Q124.53438 31.1125 126.01875 29.471874Q127.51875 27.815624 129.78438 27.815624Q131.87813 27.815624 133.39375 29.55L133.39375 23.3625L136.69063 23.3625L136.69063 40.55ZM127.89375 34.05Q127.89375 36.05 128.45625 36.940624Q129.25313 38.221874 130.675 38.221874Q131.81563 38.221874 132.6125 37.26875Q133.40938 36.3 133.40938 34.378124Q133.40938 32.221874 132.62813 31.284374Q131.8625 30.346874 130.65938 30.346874Q129.4875 30.346874 128.69063 31.284374Q127.89375 32.20625 127.89375 34.05ZM139.97188 41.378124L143.7375 41.83125Q143.83125 42.4875 144.15938 42.7375Q144.62813 43.08125 145.64375 43.08125Q146.925 43.08125 147.58125 42.690624Q148.00313 42.440624 148.2375 41.8625Q148.37813 41.45625 148.37813 40.346874L148.37813 38.534374Q146.90938 40.55 144.65938 40.55Q142.14375 40.55 140.69063 38.425Q139.53438 36.753124 139.53438 34.253124Q139.53438 31.128124 141.03438 29.471874Q142.55 27.815624 144.78438 27.815624Q147.09688 27.815624 148.59688 29.846874L148.59688 28.096874L151.675 28.096874L151.675 39.26875Q151.675 41.471874 151.31563 42.565624Q150.95625 43.659374 150.3 44.26875Q149.64375 44.89375 148.53438 45.2375Q147.44063 45.596874 145.76875 45.596874Q142.6125 45.596874 141.28438 44.51875Q139.95625 43.440624 139.95625 41.76875Q139.95625 41.6125 139.97188 41.378124ZM142.90938 34.065624Q142.90938 36.05 143.675 36.971874Q144.44063 37.89375 145.56563 37.89375Q146.78438 37.89375 147.6125 36.95625Q148.44063 36.003124 148.44063 34.14375Q148.44063 32.221874 147.64375 31.284374Q146.84688 30.346874 145.62813 30.346874Q144.44063 30.346874 143.675 31.26875Q142.90938 32.175 142.90938 34.065624ZM162.4875 36.58125L165.76875 37.14375Q165.12813 38.940624 163.75313 39.89375Q162.39375 40.83125 160.34688 40.83125Q157.09688 40.83125 155.55 38.70625Q154.31563 37.003124 154.31563 34.425Q154.31563 31.33125 155.925 29.58125Q157.55 27.815624 160.01875 27.815624Q162.8 27.815624 164.39375 29.659374Q166.00313 31.4875 165.94063 35.26875L157.69063 35.26875Q157.72188 36.7375 158.4875 37.55Q159.25313 38.3625 160.37813 38.3625Q161.15938 38.3625 161.675 37.940624Q162.20625 37.51875 162.4875 36.58125ZM162.675 33.253124Q162.62813 31.83125 161.925 31.096874Q161.22188 30.346874 160.22188 30.346874Q159.14375 30.346874 158.44063 31.128124Q157.7375 31.909374 157.75313 33.253124L162.675 33.253124ZM173.9875 28.096874L173.9875 30.721874L171.7375 30.721874L171.7375 35.7375Q171.7375 37.26875 171.8 37.51875Q171.8625 37.76875 172.08125 37.940624Q172.31563 38.096874 172.64375 38.096874Q173.09688 38.096874 173.97188 37.784374L174.25313 40.33125Q173.09688 40.83125 171.64375 40.83125Q170.75313 40.83125 170.03438 40.534374Q169.33125 40.2375 168.9875 39.76875Q168.65938 39.284374 168.53438 38.471874Q168.425 37.89375 168.425 36.159374L168.425 30.721874L166.90938 30.721874L166.90938 28.096874L168.425 28.096874L168.425 25.628124L171.7375 23.70625L171.7375 28.096874L173.9875 28.096874ZM186.69063 40.55L181.675 28.096874L185.14375 28.096874L187.4875 34.45625L188.15938 36.58125Q188.425 35.76875 188.50313 35.503124Q188.65938 34.9875 188.84688 34.45625L191.22188 28.096874L194.6125 28.096874L189.65938 40.55L186.69063 40.55ZM195.1125 37.003124L198.425 36.4875Q198.62813 37.45625 199.26875 37.95625Q199.925 38.45625 201.08125 38.45625Q202.3625 38.45625 203.00313 37.9875Q203.44063 37.659374 203.44063 37.096874Q203.44063 36.721874 203.20625 36.4875Q202.95625 36.253124 202.09688 36.05Q198.1125 35.175 197.05 34.440624Q195.56563 33.440624 195.56563 31.64375Q195.56563 30.01875 196.84688 28.925Q198.12813 27.815624 200.81563 27.815624Q203.3625 27.815624 204.59688 28.659374Q205.84688 29.4875 206.31563 31.1125L203.20625 31.690624Q203.01875 30.95625 202.45625 30.58125Q201.89375 30.190624 200.8625 30.190624Q199.56563 30.190624 199.00313 30.55Q198.62813 30.815624 198.62813 31.221874Q198.62813 31.565624 198.95625 31.815624Q199.40938 32.14375 202.03438 32.753124Q204.65938 33.346874 205.70625 34.20625Q206.7375 35.08125 206.7375 36.659374Q206.7375 38.3625 205.3 39.596874Q203.87813 40.83125 201.08125 40.83125Q198.53438 40.83125 197.05 39.8Q195.56563 38.76875 195.1125 37.003124ZM216.26875 23.3625L219.7375 23.3625L219.7375 32.675Q219.7375 34.89375 219.87813 35.55Q220.09688 36.596874 220.925 37.2375Q221.76875 37.878124 223.22188 37.878124Q224.70625 37.878124 225.45625 37.284374Q226.20625 36.675 226.34688 35.8Q226.50313 34.909374 226.50313 32.878124L226.50313 23.3625L229.97188 23.3625L229.97188 32.39375Q229.97188 35.4875 229.69063 36.76875Q229.40938 38.034374 228.64375 38.925Q227.89375 39.8 226.62813 40.33125Q225.3625 40.846874 223.33125 40.846874Q220.8625 40.846874 219.59688 40.284374Q218.33125 39.70625 217.58125 38.8Q216.84688 37.89375 216.6125 36.89375Q216.26875 35.409374 216.26875 32.534374L216.26875 23.3625ZM232.1125 37.003124L235.425 36.4875Q235.62813 37.45625 236.26875 37.95625Q236.925 38.45625 238.08125 38.45625Q239.3625 38.45625 240.00313 37.9875Q240.44063 37.659374 240.44063 37.096874Q240.44063 36.721874 240.20625 36.4875Q239.95625 36.253124 239.09688 36.05Q235.1125 35.175 234.05 34.440624Q232.56563 33.440624 232.56563 31.64375Q232.56563 30.01875 233.84688 28.925Q235.12813 27.815624 237.81563 27.815624Q240.3625 27.815624 241.59688 28.659374Q242.84688 29.4875 243.31563 31.1125L240.20625 31.690624Q240.01875 30.95625 239.45625 30.58125Q238.89375 30.190624 237.8625 30.190624Q236.56563 30.190624 236.00313 30.55Q235.62813 30.815624 235.62813 31.221874Q235.62813 31.565624 235.95625 31.815624Q236.40938 32.14375 239.03438 32.753124Q241.65938 33.346874 242.70625 34.20625Q243.7375 35.08125 243.7375 36.659374Q243.7375 38.3625 242.3 39.596874Q240.87813 40.83125 238.08125 40.83125Q235.53438 40.83125 234.05 39.8Q232.56563 38.76875 232.1125 37.003124ZM248.7375 31.89375L245.75313 31.3625Q246.25313 29.55 247.47188 28.690624Q248.70625 27.815624 251.14375 27.815624Q253.34688 27.815624 254.425 28.346874Q255.50313 28.8625 255.94063 29.675Q256.3781 30.471874 256.3781 32.6125L256.34686 36.45625Q256.34686 38.096874 256.5031 38.878124Q256.65936 39.659374 257.09686 40.55L253.83125 40.55Q253.70625 40.221874 253.51875 39.58125Q253.44063 39.284374 253.39375 39.190624Q252.55 40.003124 251.58125 40.425Q250.62813 40.83125 249.55 40.83125Q247.62813 40.83125 246.51875 39.784374Q245.40938 38.7375 245.40938 37.14375Q245.40938 36.096874 245.90938 35.26875Q246.40938 34.440624 247.31563 34.003124Q248.2375 33.565624 249.94063 33.2375Q252.25313 32.8 253.14375 32.425L253.14375 32.096874Q253.14375 31.14375 252.675 30.753124Q252.20625 30.346874 250.90938 30.346874Q250.01875 30.346874 249.51875 30.690624Q249.03438 31.034374 248.7375 31.89375ZM253.14375 34.565624Q252.50313 34.784374 251.12813 35.08125Q249.76875 35.3625 249.34688 35.64375Q248.70625 36.1125 248.70625 36.815624Q248.70625 37.503124 249.22188 38.003124Q249.7375 38.503124 250.53438 38.503124Q251.425 38.503124 252.22188 37.925Q252.83125 37.471874 253.01875 36.83125Q253.14375 36.409374 253.14375 35.221874L253.14375 34.565624ZM258.97186 41.378124L262.7375 41.83125Q262.83124 42.4875 263.15936 42.7375Q263.6281 43.08125 264.64374 43.08125Q265.925 43.08125 266.58124 42.690624Q267.0031 42.440624 267.2375 41.8625Q267.3781 41.45625 267.3781 40.346874L267.3781 38.534374Q265.90936 40.55 263.65936 40.55Q261.14374 40.55 259.6906 38.425Q258.53436 36.753124 258.53436 34.253124Q258.53436 31.128124 260.03436 29.471874Q261.55 27.815624 263.78436 27.815624Q266.09686 27.815624 267.59686 29.846874L267.59686 28.096874L270.675 28.096874L270.675 39.26875Q270.675 41.471874 270.3156 42.565624Q269.95624 43.659374 269.3 44.26875Q268.64374 44.89375 267.53436 45.2375Q266.4406 45.596874 264.76874 45.596874Q261.6125 45.596874 260.28436 44.51875Q258.95624 43.440624 258.95624 41.76875Q258.95624 41.6125 258.97186 41.378124ZM261.90936 34.065624Q261.90936 36.05 262.675 36.971874Q263.4406 37.89375 264.5656 37.89375Q265.78436 37.89375 266.6125 36.95625Q267.4406 36.003124 267.4406 34.14375Q267.4406 32.221874 266.64374 31.284374Q265.84686 30.346874 264.6281 30.346874Q263.4406 30.346874 262.675 31.26875Q261.90936 32.175 261.90936 34.065624ZM281.4875 36.58125L284.76874 37.14375Q284.1281 38.940624 282.7531 39.89375Q281.39374 40.83125 279.34686 40.83125Q276.09686 40.83125 274.55 38.70625Q273.3156 37.003124 273.3156 34.425Q273.3156 31.33125 274.925 29.58125Q276.55 27.815624 279.01874 27.815624Q281.8 27.815624 283.39374 29.659374Q285.0031 31.4875 284.9406 35.26875L276.6906 35.26875Q276.72186 36.7375 277.4875 37.55Q278.2531 38.3625 279.3781 38.3625Q280.15936 38.3625 280.675 37.940624Q281.20624 37.51875 281.4875 36.58125ZM281.675 33.253124Q281.6281 31.83125 280.925 31.096874Q280.22186 30.346874 279.22186 30.346874Q278.14374 30.346874 277.4406 31.128124Q276.7375 31.909374 276.7531 33.253124L281.675 33.253124Z" fill-rule="nonzero"/></svg>