<svg version="1.1" viewBox="0.0 0.0 600.0 371.0" fill="none" stroke="none" stroke-linecap="square" stroke-miterlimit="10" width="600" height="371" xmlns:xlink="http://www.w3.org/1999/xlink" xmlns="http://www.w3.org/2000/svg"><path fill="#ffffff" d="M0 0L600.0 0L600.0 371.0L0 371.0L0 0Z" fill-rule="nonzero"/><path stroke="#333333" stroke-width="1.0" stroke-linecap="butt" d="M45.5 318.5L581.5 318.5" fill-rule="nonzero"/><path stroke="#cccccc" stroke-width="1.0" stroke-linecap="butt" d="M45.5 243.5L581.5 243.5" fill-rule="nonzero"/><path stroke="#cccccc" stroke-width="1.0" stroke-linecap="butt" d="M45.5 167.5L581.5 167.5" fill-rule="nonzero"/><path stroke="#cccccc" stroke-width="1.0" stroke-linecap="butt" d="M45.5 92.5L581.5 92.5" fill-rule="nonzero"/><path stroke="#eeeeee" stroke-width="1.0" stroke-linecap="butt" d="M69.90909 121.51667L69.90909 137.51666" fill-rule="nonzero"/><path stroke="#eeeeee" stroke-width="1.0" stroke-linecap="butt" d="M118.62727 121.51667L118.62727 137.51666" fill-rule="nonzero"/><path stroke="#eeeeee" stroke-width="1.0" stroke-linecap="butt" d="M167.34546 121.51667L167.34546 137.51666" fill-rule="nonzero"/><path stroke="#eeeeee" stroke-width="1.0" stroke-linecap="butt" d="M216.06363 121.51667L216.06363 137.51666" fill-rule="nonzero"/><path stroke="#eeeeee" stroke-width="1.0" stroke-linecap="butt" d="M264.78183 121.51667L264.78183 137.51666" fill-rule="nonzero"/><path stroke="#eeeeee" stroke-width="1.0" stroke-linecap="butt" d="M313.5 121.51667L313.5 137.51666" fill-rule="nonzero"/><path stroke="#eeeeee" stroke-width="1.0" stroke-linecap="butt" d="M362.21817 121.51667L362.21817 137.51666" fill-rule="nonzero"/><path stroke="#eeeeee" stroke-width="1.0" stroke-linecap="butt" d="M410.93637 121.51667L410.93637 137.51666" fill-rule="nonzero"/><path stroke="#eeeeee" stroke-width="1.0" stroke-linecap="butt" d="M459.65454 121.51667L459.65454 137.51666" fill-rule="nonzero"/><path stroke="#eeeeee" stroke-width="1.0" stroke-linecap="butt" d="M508.37274 121.51667L508.37274 137.51666" fill-rule="nonzero"/><path stroke="#eeeeee" stroke-width="1.0" stroke-linecap="butt" d="M557.0909 121.51667L557.0909 137.51666" fill-rule="nonzero"/><clipPath id="id_0"><path d="M45.55 92.28333L581.45 92.28333L581.45 318.45L45.55 318.45L45.55 92.28333Z" clip-rule="nonzero"/></clipPath><path stroke="#a2c3fa" stroke-width="1.0" stroke-linecap="butt" clip-path="url(#id_0)" d="M69.90909 155.61L69.90909 119.42333" fill-rule="nonzero"/><path stroke="#a2c3fa" stroke-width="1.0" stroke-linecap="butt" clip-path="url(#id_0)" d="M63.909092 155.61L75.90909 155.61" fill-rule="nonzero"/><path stroke="#a2c3fa" stroke-width="1.0" stroke-linecap="butt" clip-path="url(#id_0)" d="M63.909092 119.42333L75.90909 119.42333" fill-rule="nonzero"/><path stroke="#a2c3fa" stroke-width="1.0" stroke-linecap="butt" clip-path="url(#id_0)" d="M118.62727 155.61L118.62727 119.42333" fill-rule="nonzero"/><path stroke="#a2c3fa" stroke-width="1.0" stroke-linecap="butt" clip-path="url(#id_0)" d="M112.62727 155.61L124.62727 155.61" fill-rule="nonzero"/><path stroke="#a2c3fa" stroke-width="1.0" stroke-linecap="butt" clip-path="url(#id_0)" d="M112.62727 119.42333L124.62727 119.42333" fill-rule="nonzero"/><path stroke="#a2c3fa" stroke-width="1.0" stroke-linecap="butt" clip-path="url(#id_0)" d="M167.34546 155.61L167.34546 119.42333" fill-rule="nonzero"/><path stroke="#a2c3fa" stroke-width="1.0" stroke-linecap="butt" clip-path="url(#id_0)" d="M161.34546 155.61L173.34546 155.61" fill-rule="nonzero"/><path stroke="#a2c3fa" stroke-width="1.0" stroke-linecap="butt" clip-path="url(#id_0)" d="M161.34546 119.42333L173.34546 119.42333" fill-rule="nonzero"/><path stroke="#a2c3fa" stroke-width="1.0" stroke-linecap="butt" clip-path="url(#id_0)" d="M216.06363 155.61L216.06363 119.42333" fill-rule="nonzero"/><path stroke="#a2c3fa" stroke-width="1.0" stroke-linecap="butt" clip-path="url(#id_0)" d="M210.06363 155.61L222.06363 155.61" fill-rule="nonzero"/><path stroke="#a2c3fa" stroke-width="1.0" stroke-linecap="butt" clip-path="url(#id_0)" d="M210.06363 119.42333L222.06363 119.42333" fill-rule="nonzero"/><path stroke="#a2c3fa" stroke-width="1.0" stroke-linecap="butt" clip-path="url(#id_0)" d="M264.78183 155.61L264.78183 119.42333" fill-rule="nonzero"/><path stroke="#a2c3fa" stroke-width="1.0" stroke-linecap="butt" clip-path="url(#id_0)" d="M258.78183 155.61L270.78183 155.61" fill-rule="nonzero"/><path stroke="#a2c3fa" stroke-width="1.0" stroke-linecap="butt" clip-path="url(#id_0)" d="M258.78183 119.42333L270.78183 119.42333" fill-rule="nonzero"/><path stroke="#a2c3fa" stroke-width="1.0" stroke-linecap="butt" clip-path="url(#id_0)" d="M313.5 155.61L313.5 119.42333" fill-rule="nonzero"/><path stroke="#a2c3fa" stroke-width="1.0" stroke-linecap="butt" clip-path="url(#id_0)" d="M307.5 155.61L319.5 155.61" fill-rule="nonzero"/><path stroke="#a2c3fa" stroke-width="1.0" stroke-linecap="butt" clip-path="url(#id_0)" d="M307.5 119.42333L319.5 119.42333" fill-rule="nonzero"/><path stroke="#a2c3fa" stroke-width="1.0" stroke-linecap="butt" clip-path="url(#id_0)" d="M362.21817 155.61L362.21817 119.42333" fill-rule="nonzero"/><path stroke="#a2c3fa" stroke-width="1.0" stroke-linecap="butt" clip-path="url(#id_0)" d="M356.21817 155.61L368.21817 155.61" fill-rule="nonzero"/><path stroke="#a2c3fa" stroke-width="1.0" stroke-linecap="butt" clip-path="url(#id_0)" d="M356.21817 119.42333L368.21817 119.42333" fill-rule="nonzero"/><path stroke="#a2c3fa" stroke-width="1.0" stroke-linecap="butt" clip-path="url(#id_0)" d="M410.93637 155.61L410.93637 119.42333" fill-rule="nonzero"/><path stroke="#a2c3fa" stroke-width="1.0" stroke-linecap="butt" clip-path="url(#id_0)" d="M404.93637 155.61L416.93637 155.61" fill-rule="nonzero"/><path stroke="#a2c3fa" stroke-width="1.0" stroke-linecap="butt" clip-path="url(#id_0)" d="M404.93637 119.42333L416.93637 119.42333" fill-rule="nonzero"/><path stroke="#a2c3fa" stroke-width="1.0" stroke-linecap="butt" clip-path="url(#id_0)" d="M459.65454 155.61L459.65454 119.42333" fill-rule="nonzero"/><path stroke="#a2c3fa" stroke-width="1.0" stroke-linecap="butt" clip-path="url(#id_0)" d="M453.65454 155.61L465.65454 155.61" fill-rule="nonzero"/><path stroke="#a2c3fa" stroke-width="1.0" stroke-linecap="butt" clip-path="url(#id_0)" d="M453.65454 119.42333L465.65454 119.42333" fill-rule="nonzero"/><path stroke="#a2c3fa" stroke-width="1.0" stroke-linecap="butt" clip-path="url(#id_0)" d="M508.37274 155.61L508.37274 119.42333" fill-rule="nonzero"/><path stroke="#a2c3fa" stroke-width="1.0" stroke-linecap="butt" clip-path="url(#id_0)" d="M502.37274 155.61L514.37274 155.61" fill-rule="nonzero"/><path stroke="#a2c3fa" stroke-width="1.0" stroke-linecap="butt" clip-path="url(#id_0)" d="M502.37274 119.42333L514.37274 119.42333" fill-rule="nonzero"/><path stroke="#a2c3fa" stroke-width="1.0" stroke-linecap="butt" clip-path="url(#id_0)" d="M557.0909 155.61L557.0909 119.42333" fill-rule="nonzero"/><path stroke="#a2c3fa" stroke-width="1.0" stroke-linecap="butt" clip-path="url(#id_0)" d="M551.0909 155.61L563.0909 155.61" fill-rule="nonzero"/><path stroke="#a2c3fa" stroke-width="1.0" stroke-linecap="butt" clip-path="url(#id_0)" d="M551.0909 119.42333L563.0909 119.42333" fill-rule="nonzero"/><path stroke="#4285f4" stroke-width="2.0" stroke-linecap="butt" clip-path="url(#id_0)" d="M69.90909 137.51666C69.90909 137.51666 102.38788 137.51666 118.62727 137.51666C134.86667 137.51666 151.10606 137.51666 167.34546 137.51666C183.58485 137.51666 199.82425 137.51666 216.06363 137.51666C232.30302 137.51666 248.54242 137.51666 264.78183 137.51666C281.0212 137.51666 297.26062 137.51666 313.5 137.51666C329.73938 137.51666 345.9788 137.51666 362.21817 137.51666C378.45758 137.51666 394.69696 137.51666 410.93637 137.51666C427.17575 137.51666 443.41516 137.51666 459.65454 137.51666C475.89395 137.51666 492.13333 137.51666 508.37274 137.51666C524.6121 137.51666 557.0909 137.51666 557.0909 137.51666" fill-rule="nonzero"/><path stroke="#4285f4" stroke-width="2.0" stroke-linecap="butt" stroke-opacity="0.4" clip-path="url(#id_0)" d="M0 137.51666L581.45 137.51666" fill-rule="nonzero"/><path fill="#4285f4" clip-path="url(#id_0)" d="M75.90909 137.51666C75.90909 140.83037 73.2228 143.51666 69.90909 143.51666C66.59538 143.51666 63.909092 140.83037 63.909092 137.51666C63.909092 134.20296 66.59538 131.51666 69.90909 131.51666C73.2228 131.51666 75.90909 134.20296 75.90909 137.51666Z" fill-rule="nonzero"/><path fill="#4285f4" clip-path="url(#id_0)" d="M124.62727 137.51666C124.62727 140.83037 121.94098 143.51666 118.62727 143.51666C115.31356 143.51666 112.62727 140.83037 112.62727 137.51666C112.62727 134.20296 115.31356 131.51666 118.62727 131.51666C121.94098 131.51666 124.62727 134.20296 124.62727 137.51666Z" fill-rule="nonzero"/><path fill="#4285f4" clip-path="url(#id_0)" d="M173.34546 137.51666C173.34546 140.83037 170.65916 143.51666 167.34546 143.51666C164.03175 143.51666 161.34546 140.83037 161.34546 137.51666C161.34546 134.20296 164.03175 131.51666 167.34546 131.51666C170.65916 131.51666 173.34546 134.20296 173.34546 137.51666Z" fill-rule="nonzero"/><path fill="#4285f4" clip-path="url(#id_0)" d="M222.06363 137.51666C222.06363 140.83037 219.37735 143.51666 216.06363 143.51666C212.74992 143.51666 210.06363 140.83037 210.06363 137.51666C210.06363 134.20296 212.74992 131.51666 216.06363 131.51666C219.37735 131.51666 222.06363 134.20296 222.06363 137.51666Z" fill-rule="nonzero"/><path fill="#4285f4" clip-path="url(#id_0)" d="M270.78183 137.51666C270.78183 140.83037 268.09552 143.51666 264.78183 143.51666C261.4681 143.51666 258.78183 140.83037 258.78183 137.51666C258.78183 134.20296 261.4681 131.51666 264.78183 131.51666C268.09552 131.51666 270.78183 134.20296 270.78183 137.51666Z" fill-rule="nonzero"/><path fill="#4285f4" clip-path="url(#id_0)" d="M319.5 137.51666C319.5 140.83037 316.81372 143.51666 313.5 143.51666C310.18628 143.51666 307.5 140.83037 307.5 137.51666C307.5 134.20296 310.18628 131.51666 313.5 131.51666C316.81372 131.51666 319.5 134.20296 319.5 137.51666Z" fill-rule="nonzero"/><path fill="#4285f4" clip-path="url(#id_0)" d="M368.21817 137.51666C368.21817 140.83037 365.5319 143.51666 362.21817 143.51666C358.90448 143.51666 356.21817 140.83037 356.21817 137.51666C356.21817 134.20296 358.90448 131.51666 362.21817 131.51666C365.5319 131.51666 368.21817 134.20296 368.21817 137.51666Z" fill-rule="nonzero"/><path fill="#4285f4" clip-path="url(#id_0)" d="M416.93637 137.51666C416.93637 140.83037 414.25006 143.51666 410.93637 143.51666C407.62265 143.51666 404.93637 140.83037 404.93637 137.51666C404.93637 134.20296 407.62265 131.51666 410.93637 131.51666C414.25006 131.51666 416.93637 134.20296 416.93637 137.51666Z" fill-rule="nonzero"/><path fill="#4285f4" clip-path="url(#id_0)" d="M465.65454 137.51666C465.65454 140.83037 462.96826 143.51666 459.65454 143.51666C456.34085 143.51666 453.65454 140.83037 453.65454 137.51666C453.65454 134.20296 456.34085 131.51666 459.65454 131.51666C462.96826 131.51666 465.65454 134.20296 465.65454 137.51666Z" fill-rule="nonzero"/><path fill="#4285f4" clip-path="url(#id_0)" d="M514.37274 137.51666C514.37274 140.83037 511.68643 143.51666 508.37274 143.51666C505.05902 143.51666 502.37274 140.83037 502.37274 137.51666C502.37274 134.20296 505.05902 131.51666 508.37274 131.51666C511.68643 131.51666 514.37274 134.20296 514.37274 137.51666Z" fill-rule="nonzero"/><path fill="#4285f4" clip-path="url(#id_0)" d="M563.0909 137.51666C563.0909 140.83037 560.4046 143.51666 557.0909 143.51666C553.7772 143.51666 551.0909 140.83037 551.0909 137.51666C551.0909 134.20296 553.7772 131.51666 557.0909 131.51666C560.4046 131.51666 563.0909 134.20296 563.0909 137.51666Z" fill-rule="nonzero"/><path stroke="#ffffff" stroke-width="3.0" stroke-linejoin="round" stroke-linecap="round" d="M67.17471 119.51667L66.09659 119.51667L66.09659 112.29792L63.909092 113.094795L63.909092 112.11042L67.01846 110.938545L67.17471 110.938545L67.17471 119.51667ZM76.20596 119.51667L70.61221 119.51667L70.61221 118.73542L73.56534 115.45417Q74.22159 114.70417 74.47159 114.251045Q74.72159 113.782295 74.72159 113.282295Q74.72159 112.61042 74.31534 112.188545Q73.92471 111.751045 73.23721 111.751045Q72.44034 111.751045 71.98721 112.219795Q71.53409 112.67292 71.53409 113.501045L70.45596 113.501045Q70.45596 112.313545 71.20596 111.594795Q71.97159 110.86042 73.23721 110.86042Q74.44034 110.86042 75.12784 111.48542Q75.81534 112.11042 75.81534 113.157295Q75.81534 114.407295 74.20596 116.157295L71.92471 118.626045L76.20596 118.626045L76.20596 119.51667Z" fill-rule="nonzero"/><path fill="#4285f4" d="M67.17471 119.51667L66.09659 119.51667L66.09659 112.29792L63.909092 113.094795L63.909092 112.11042L67.01846 110.938545L67.17471 110.938545L67.17471 119.51667ZM76.20596 119.51667L70.61221 119.51667L70.61221 118.73542L73.56534 115.45417Q74.22159 114.70417 74.47159 114.251045Q74.72159 113.782295 74.72159 113.282295Q74.72159 112.61042 74.31534 112.188545Q73.92471 111.751045 73.23721 111.751045Q72.44034 111.751045 71.98721 112.219795Q71.53409 112.67292 71.53409 113.501045L70.45596 113.501045Q70.45596 112.313545 71.20596 111.594795Q71.97159 110.86042 73.23721 110.86042Q74.44034 110.86042 75.12784 111.48542Q75.81534 112.11042 75.81534 113.157295Q75.81534 114.407295 74.20596 116.157295L71.92471 118.626045L76.20596 118.626045L76.20596 119.51667Z" fill-rule="nonzero"/><path stroke="#ffffff" stroke-width="3.0" stroke-linejoin="round" stroke-linecap="round" d="M115.8929 119.51667L114.81477 119.51667L114.81477 112.29792L112.62727 113.094795L112.62727 112.11042L115.73665 110.938545L115.8929 110.938545L115.8929 119.51667ZM124.92415 119.51667L119.3304 119.51667L119.3304 118.73542L122.28352 115.45417Q122.93977 114.70417 123.18977 114.251045Q123.43977 113.782295 123.43977 113.282295Q123.43977 112.61042 123.03352 112.188545Q122.6429 111.751045 121.9554 111.751045Q121.15852 111.751045 120.7054 112.219795Q120.25227 112.67292 120.25227 113.501045L119.17415 113.501045Q119.17415 112.313545 119.92415 111.594795Q120.68977 110.86042 121.9554 110.86042Q123.15852 110.86042 123.84602 111.48542Q124.53352 112.11042 124.53352 113.157295Q124.53352 114.407295 122.92415 116.157295L120.6429 118.626045L124.92415 118.626045L124.92415 119.51667Z" fill-rule="nonzero"/><path fill="#4285f4" d="M115.8929 119.51667L114.81477 119.51667L114.81477 112.29792L112.62727 113.094795L112.62727 112.11042L115.73665 110.938545L115.8929 110.938545L115.8929 119.51667ZM124.92415 119.51667L119.3304 119.51667L119.3304 118.73542L122.28352 115.45417Q122.93977 114.70417 123.18977 114.251045Q123.43977 113.782295 123.43977 113.282295Q123.43977 112.61042 123.03352 112.188545Q122.6429 111.751045 121.9554 111.751045Q121.15852 111.751045 120.7054 112.219795Q120.25227 112.67292 120.25227 113.501045L119.17415 113.501045Q119.17415 112.313545 119.92415 111.594795Q120.68977 110.86042 121.9554 110.86042Q123.15852 110.86042 123.84602 111.48542Q124.53352 112.11042 124.53352 113.157295Q124.53352 114.407295 122.92415 116.157295L120.6429 118.626045L124.92415 118.626045L124.92415 119.51667Z" fill-rule="nonzero"/><path stroke="#ffffff" stroke-width="3.0" stroke-linejoin="round" stroke-linecap="round" d="M164.61108 119.51667L163.53296 119.51667L163.53296 112.29792L161.34546 113.094795L161.34546 112.11042L164.45483 110.938545L164.61108 110.938545L164.61108 119.51667ZM173.64233 119.51667L168.04858 119.51667L168.04858 118.73542L171.00171 115.45417Q171.65796 114.70417 171.90796 114.251045Q172.15796 113.782295 172.15796 113.282295Q172.15796 112.61042 171.75171 112.188545Q171.36108 111.751045 170.67358 111.751045Q169.87671 111.751045 169.42358 112.219795Q168.97046 112.67292 168.97046 113.501045L167.89233 113.501045Q167.89233 112.313545 168.64233 111.594795Q169.40796 110.86042 170.67358 110.86042Q171.87671 110.86042 172.56421 111.48542Q173.25171 112.11042 173.25171 113.157295Q173.25171 114.407295 171.64233 116.157295L169.36108 118.626045L173.64233 118.626045L173.64233 119.51667Z" fill-rule="nonzero"/><path fill="#4285f4" d="M164.61108 119.51667L163.53296 119.51667L163.53296 112.29792L161.34546 113.094795L161.34546 112.11042L164.45483 110.938545L164.61108 110.938545L164.61108 119.51667ZM173.64233 119.51667L168.04858 119.51667L168.04858 118.73542L171.00171 115.45417Q171.65796 114.70417 171.90796 114.251045Q172.15796 113.782295 172.15796 113.282295Q172.15796 112.61042 171.75171 112.188545Q171.36108 111.751045 170.67358 111.751045Q169.87671 111.751045 169.42358 112.219795Q168.97046 112.67292 168.97046 113.501045L167.89233 113.501045Q167.89233 112.313545 168.64233 111.594795Q169.40796 110.86042 170.67358 110.86042Q171.87671 110.86042 172.56421 111.48542Q173.25171 112.11042 173.25171 113.157295Q173.25171 114.407295 171.64233 116.157295L169.36108 118.626045L173.64233 118.626045L173.64233 119.51667Z" fill-rule="nonzero"/><path stroke="#ffffff" stroke-width="3.0" stroke-linejoin="round" stroke-linecap="round" d="M213.32925 119.51667L212.25113 119.51667L212.25113 112.29792L210.06363 113.094795L210.06363 112.11042L213.173 110.938545L213.32925 110.938545L213.32925 119.51667ZM222.3605 119.51667L216.76675 119.51667L216.76675 118.73542L219.71988 115.45417Q220.37613 114.70417 220.62613 114.251045Q220.87613 113.782295 220.87613 113.282295Q220.87613 112.61042 220.46988 112.188545Q220.07925 111.751045 219.39175 111.751045Q218.59488 111.751045 218.14175 112.219795Q217.68863 112.67292 217.68863 113.501045L216.6105 113.501045Q216.6105 112.313545 217.3605 111.594795Q218.12613 110.86042 219.39175 110.86042Q220.59488 110.86042 221.28238 111.48542Q221.96988 112.11042 221.96988 113.157295Q221.96988 114.407295 220.3605 116.157295L218.07925 118.626045L222.3605 118.626045L222.3605 119.51667Z" fill-rule="nonzero"/><path fill="#4285f4" d="M213.32925 119.51667L212.25113 119.51667L212.25113 112.29792L210.06363 113.094795L210.06363 112.11042L213.173 110.938545L213.32925 110.938545L213.32925 119.51667ZM222.3605 119.51667L216.76675 119.51667L216.76675 118.73542L219.71988 115.45417Q220.37613 114.70417 220.62613 114.251045Q220.87613 113.782295 220.87613 113.282295Q220.87613 112.61042 220.46988 112.188545Q220.07925 111.751045 219.39175 111.751045Q218.59488 111.751045 218.14175 112.219795Q217.68863 112.67292 217.68863 113.501045L216.6105 113.501045Q216.6105 112.313545 217.3605 111.594795Q218.12613 110.86042 219.39175 110.86042Q220.59488 110.86042 221.28238 111.48542Q221.96988 112.11042 221.96988 113.157295Q221.96988 114.407295 220.3605 116.157295L218.07925 118.626045L222.3605 118.626045L222.3605 119.51667Z" fill-rule="nonzero"/><path stroke="#ffffff" stroke-width="3.0" stroke-linejoin="round" stroke-linecap="round" d="M262.04745 119.51667L260.96933 119.51667L260.96933 112.29792L258.78183 113.094795L258.78183 112.11042L261.8912 110.938545L262.04745 110.938545L262.04745 119.51667ZM271.0787 119.51667L265.48495 119.51667L265.48495 118.73542L268.43808 115.45417Q269.09433 114.70417 269.34433 114.251045Q269.59433 113.782295 269.59433 113.282295Q269.59433 112.61042 269.18808 112.188545Q268.79745 111.751045 268.10995 111.751045Q267.31308 111.751045 266.85995 112.219795Q266.40683 112.67292 266.40683 113.501045L265.3287 113.501045Q265.3287 112.313545 266.0787 111.594795Q266.84433 110.86042 268.10995 110.86042Q269.31308 110.86042 270.00058 111.48542Q270.68808 112.11042 270.68808 113.157295Q270.68808 114.407295 269.0787 116.157295L266.79745 118.626045L271.0787 118.626045L271.0787 119.51667Z" fill-rule="nonzero"/><path fill="#4285f4" d="M262.04745 119.51667L260.96933 119.51667L260.96933 112.29792L258.78183 113.094795L258.78183 112.11042L261.8912 110.938545L262.04745 110.938545L262.04745 119.51667ZM271.0787 119.51667L265.48495 119.51667L265.48495 118.73542L268.43808 115.45417Q269.09433 114.70417 269.34433 114.251045Q269.59433 113.782295 269.59433 113.282295Q269.59433 112.61042 269.18808 112.188545Q268.79745 111.751045 268.10995 111.751045Q267.31308 111.751045 266.85995 112.219795Q266.40683 112.67292 266.40683 113.501045L265.3287 113.501045Q265.3287 112.313545 266.0787 111.594795Q266.84433 110.86042 268.10995 110.86042Q269.31308 110.86042 270.00058 111.48542Q270.68808 112.11042 270.68808 113.157295Q270.68808 114.407295 269.0787 116.157295L266.79745 118.626045L271.0787 118.626045L271.0787 119.51667Z" fill-rule="nonzero"/><path stroke="#ffffff" stroke-width="3.0" stroke-linejoin="round" stroke-linecap="round" d="M310.76562 119.51667L309.6875 119.51667L309.6875 112.29792L307.5 113.094795L307.5 112.11042L310.60938 110.938545L310.76562 110.938545L310.76562 119.51667ZM319.79688 119.51667L314.20312 119.51667L314.20312 118.73542L317.15625 115.45417Q317.8125 114.70417 318.0625 114.251045Q318.3125 113.782295 318.3125 113.282295Q318.3125 112.61042 317.90625 112.188545Q317.51562 111.751045 316.82812 111.751045Q316.03125 111.751045 315.57812 112.219795Q315.125 112.67292 315.125 113.501045L314.04688 113.501045Q314.04688 112.313545 314.79688 111.594795Q315.5625 110.86042 316.82812 110.86042Q318.03125 110.86042 318.71875 111.48542Q319.40625 112.11042 319.40625 113.157295Q319.40625 114.407295 317.79688 116.157295L315.51562 118.626045L319.79688 118.626045L319.79688 119.51667Z" fill-rule="nonzero"/><path fill="#4285f4" d="M310.76562 119.51667L309.6875 119.51667L309.6875 112.29792L307.5 113.094795L307.5 112.11042L310.60938 110.938545L310.76562 110.938545L310.76562 119.51667ZM319.79688 119.51667L314.20312 119.51667L314.20312 118.73542L317.15625 115.45417Q317.8125 114.70417 318.0625 114.251045Q318.3125 113.782295 318.3125 113.282295Q318.3125 112.61042 317.90625 112.188545Q317.51562 111.751045 316.82812 111.751045Q316.03125 111.751045 315.57812 112.219795Q315.125 112.67292 315.125 113.501045L314.04688 113.501045Q314.04688 112.313545 314.79688 111.594795Q315.5625 110.86042 316.82812 110.86042Q318.03125 110.86042 318.71875 111.48542Q319.40625 112.11042 319.40625 113.157295Q319.40625 114.407295 317.79688 116.157295L315.51562 118.626045L319.79688 118.626045L319.79688 119.51667Z" fill-rule="nonzero"/><path stroke="#ffffff" stroke-width="3.0" stroke-linejoin="round" stroke-linecap="round" d="M359.4838 119.51667L358.40567 119.51667L358.40567 112.29792L356.21817 113.094795L356.21817 112.11042L359.32755 110.938545L359.4838 110.938545L359.4838 119.51667ZM368.51505 119.51667L362.9213 119.51667L362.9213 118.73542L365.87442 115.45417Q366.53067 114.70417 366.78067 114.251045Q367.03067 113.782295 367.03067 113.282295Q367.03067 112.61042 366.62442 112.188545Q366.2338 111.751045 365.5463 111.751045Q364.74942 111.751045 364.2963 112.219795Q363.84317 112.67292 363.84317 113.501045L362.76505 113.501045Q362.76505 112.313545 363.51505 111.594795Q364.28067 110.86042 365.5463 110.86042Q366.74942 110.86042 367.43692 111.48542Q368.12442 112.11042 368.12442 113.157295Q368.12442 114.407295 366.51505 116.157295L364.2338 118.626045L368.51505 118.626045L368.51505 119.51667Z" fill-rule="nonzero"/><path fill="#4285f4" d="M359.4838 119.51667L358.40567 119.51667L358.40567 112.29792L356.21817 113.094795L356.21817 112.11042L359.32755 110.938545L359.4838 110.938545L359.4838 119.51667ZM368.51505 119.51667L362.9213 119.51667L362.9213 118.73542L365.87442 115.45417Q366.53067 114.70417 366.78067 114.251045Q367.03067 113.782295 367.03067 113.282295Q367.03067 112.61042 366.62442 112.188545Q366.2338 111.751045 365.5463 111.751045Q364.74942 111.751045 364.2963 112.219795Q363.84317 112.67292 363.84317 113.501045L362.76505 113.501045Q362.76505 112.313545 363.51505 111.594795Q364.28067 110.86042 365.5463 110.86042Q366.74942 110.86042 367.43692 111.48542Q368.12442 112.11042 368.12442 113.157295Q368.12442 114.407295 366.51505 116.157295L364.2338 118.626045L368.51505 118.626045L368.51505 119.51667Z" fill-rule="nonzero"/><path stroke="#ffffff" stroke-width="3.0" stroke-linejoin="round" stroke-linecap="round" d="M408.202 119.51667L407.12387 119.51667L407.12387 112.29792L404.93637 113.094795L404.93637 112.11042L408.04575 110.938545L408.202 110.938545L408.202 119.51667ZM417.23325 119.51667L411.6395 119.51667L411.6395 118.73542L414.59262 115.45417Q415.24887 114.70417 415.49887 114.251045Q415.74887 113.782295 415.74887 113.282295Q415.74887 112.61042 415.34262 112.188545Q414.952 111.751045 414.2645 111.751045Q413.46762 111.751045 413.0145 112.219795Q412.56137 112.67292 412.56137 113.501045L411.48325 113.501045Q411.48325 112.313545 412.23325 111.594795Q412.99887 110.86042 414.2645 110.86042Q415.46762 110.86042 416.15512 111.48542Q416.84262 112.11042 416.84262 113.157295Q416.84262 114.407295 415.23325 116.157295L412.952 118.626045L417.23325 118.626045L417.23325 119.51667Z" fill-rule="nonzero"/><path fill="#4285f4" d="M408.202 119.51667L407.12387 119.51667L407.12387 112.29792L404.93637 113.094795L404.93637 112.11042L408.04575 110.938545L408.202 110.938545L408.202 119.51667ZM417.23325 119.51667L411.6395 119.51667L411.6395 118.73542L414.59262 115.45417Q415.24887 114.70417 415.49887 114.251045Q415.74887 113.782295 415.74887 113.282295Q415.74887 112.61042 415.34262 112.188545Q414.952 111.751045 414.2645 111.751045Q413.46762 111.751045 413.0145 112.219795Q412.56137 112.67292 412.56137 113.501045L411.48325 113.501045Q411.48325 112.313545 412.23325 111.594795Q412.99887 110.86042 414.2645 110.86042Q415.46762 110.86042 416.15512 111.48542Q416.84262 112.11042 416.84262 113.157295Q416.84262 114.407295 415.23325 116.157295L412.952 118.626045L417.23325 118.626045L417.23325 119.51667Z" fill-rule="nonzero"/><path stroke="#ffffff" stroke-width="3.0" stroke-linejoin="round" stroke-linecap="round" d="M456.92017 119.51667L455.84204 119.51667L455.84204 112.29792L453.65454 113.094795L453.65454 112.11042L456.76392 110.938545L456.92017 110.938545L456.92017 119.51667ZM465.95142 119.51667L460.35767 119.51667L460.35767 118.73542L463.3108 115.45417Q463.96704 114.70417 464.21704 114.251045Q464.46704 113.782295 464.46704 113.282295Q464.46704 112.61042 464.0608 112.188545Q463.67017 111.751045 462.98267 111.751045Q462.1858 111.751045 461.73267 112.219795Q461.27954 112.67292 461.27954 113.501045L460.20142 113.501045Q460.20142 112.313545 460.95142 111.594795Q461.71704 110.86042 462.98267 110.86042Q464.1858 110.86042 464.8733 111.48542Q465.5608 112.11042 465.5608 113.157295Q465.5608 114.407295 463.95142 116.157295L461.67017 118.626045L465.95142 118.626045L465.95142 119.51667Z" fill-rule="nonzero"/><path fill="#4285f4" d="M456.92017 119.51667L455.84204 119.51667L455.84204 112.29792L453.65454 113.094795L453.65454 112.11042L456.76392 110.938545L456.92017 110.938545L456.92017 119.51667ZM465.95142 119.51667L460.35767 119.51667L460.35767 118.73542L463.3108 115.45417Q463.96704 114.70417 464.21704 114.251045Q464.46704 113.782295 464.46704 113.282295Q464.46704 112.61042 464.0608 112.188545Q463.67017 111.751045 462.98267 111.751045Q462.1858 111.751045 461.73267 112.219795Q461.27954 112.67292 461.27954 113.501045L460.20142 113.501045Q460.20142 112.313545 460.95142 111.594795Q461.71704 110.86042 462.98267 110.86042Q464.1858 110.86042 464.8733 111.48542Q465.5608 112.11042 465.5608 113.157295Q465.5608 114.407295 463.95142 116.157295L461.67017 118.626045L465.95142 118.626045L465.95142 119.51667Z" fill-rule="nonzero"/><path stroke="#ffffff" stroke-width="3.0" stroke-linejoin="round" stroke-linecap="round" d="M505.63837 119.51667L504.56024 119.51667L504.56024 112.29792L502.37274 113.094795L502.37274 112.11042L505.48212 110.938545L505.63837 110.938545L505.63837 119.51667ZM514.6696 119.51667L509.07587 119.51667L509.07587 118.73542L512.029 115.45417Q512.68524 114.70417 512.93524 114.251045Q513.18524 113.782295 513.18524 113.282295Q513.18524 112.61042 512.779 112.188545Q512.38837 111.751045 511.70087 111.751045Q510.904 111.751045 510.45087 112.219795Q509.99774 112.67292 509.99774 113.501045L508.91962 113.501045Q508.91962 112.313545 509.66962 111.594795Q510.43524 110.86042 511.70087 110.86042Q512.904 110.86042 513.5915 111.48542Q514.279 112.11042 514.279 113.157295Q514.279 114.407295 512.6696 116.157295L510.38837 118.626045L514.6696 118.626045L514.6696 119.51667Z" fill-rule="nonzero"/><path fill="#4285f4" d="M505.63837 119.51667L504.56024 119.51667L504.56024 112.29792L502.37274 113.094795L502.37274 112.11042L505.48212 110.938545L505.63837 110.938545L505.63837 119.51667ZM514.6696 119.51667L509.07587 119.51667L509.07587 118.73542L512.029 115.45417Q512.68524 114.70417 512.93524 114.251045Q513.18524 113.782295 513.18524 113.282295Q513.18524 112.61042 512.779 112.188545Q512.38837 111.751045 511.70087 111.751045Q510.904 111.751045 510.45087 112.219795Q509.99774 112.67292 509.99774 113.501045L508.91962 113.501045Q508.91962 112.313545 509.66962 111.594795Q510.43524 110.86042 511.70087 110.86042Q512.904 110.86042 513.5915 111.48542Q514.279 112.11042 514.279 113.157295Q514.279 114.407295 512.6696 116.157295L510.38837 118.626045L514.6696 118.626045L514.6696 119.51667Z" fill-rule="nonzero"/><path stroke="#ffffff" stroke-width="3.0" stroke-linejoin="round" stroke-linecap="round" d="M554.3565 119.51667L553.2784 119.51667L553.2784 112.29792L551.0909 113.094795L551.0909 112.11042L554.20026 110.938545L554.3565 110.938545L554.3565 119.51667ZM563.38776 119.51667L557.794 119.51667L557.794 118.73542L560.74713 115.45417Q561.4034 114.70417 561.6534 114.251045Q561.9034 113.782295 561.9034 113.282295Q561.9034 112.61042 561.49713 112.188545Q561.1065 111.751045 560.419 111.751045Q559.62213 111.751045 559.169 112.219795Q558.7159 112.67292 558.7159 113.501045L557.63776 113.501045Q557.63776 112.313545 558.38776 111.594795Q559.1534 110.86042 560.419 110.86042Q561.62213 110.86042 562.30963 111.48542Q562.99713 112.11042 562.99713 113.157295Q562.99713 114.407295 561.38776 116.157295L559.1065 118.626045L563.38776 118.626045L563.38776 119.51667Z" fill-rule="nonzero"/><path fill="#4285f4" d="M554.3565 119.51667L553.2784 119.51667L553.2784 112.29792L551.0909 113.094795L551.0909 112.11042L554.20026 110.938545L554.3565 110.938545L554.3565 119.51667ZM563.38776 119.51667L557.794 119.51667L557.794 118.73542L560.74713 115.45417Q561.4034 114.70417 561.6534 114.251045Q561.9034 113.782295 561.9034 113.282295Q561.9034 112.61042 561.49713 112.188545Q561.1065 111.751045 560.419 111.751045Q559.62213 111.751045 559.169 112.219795Q558.7159 112.67292 558.7159 113.501045L557.63776 113.501045Q557.63776 112.313545 558.38776 111.594795Q559.1534 110.86042 560.419 110.86042Q561.62213 110.86042 562.30963 111.48542Q562.99713 112.11042 562.99713 113.157295Q562.99713 114.407295 561.38776 116.157295L559.1065 118.626045L563.38776 118.626045L563.38776 119.51667Z" fill-rule="nonzero"/><path fill="#000000" d="M33.05 318.21564Q33.05 316.6844 33.3625 315.7625Q33.675 314.825 34.284374 314.325Q34.909374 313.825 35.846874 313.825Q36.534374 313.825 37.05 314.10626Q37.58125 314.3875 37.925 314.91876Q38.26875 315.4344 38.45625 316.1844Q38.64375 316.9344 38.64375 318.21564Q38.64375 319.73126 38.33125 320.65314Q38.034374 321.575 37.409374 322.09064Q36.8 322.59064 35.846874 322.59064Q34.6125 322.59064 33.89375 321.7Q33.05 320.6375 33.05 318.21564ZM34.128124 318.21564Q34.128124 320.325 34.628124 321.02814Q35.128124 321.73126 35.846874 321.73126Q36.58125 321.73126 37.065624 321.02814Q37.565624 320.325 37.565624 318.21564Q37.565624 316.09064 37.065624 315.40314Q36.58125 314.7 35.83125 314.7Q35.1125 314.7 34.675 315.3094Q34.128124 316.09064 34.128124 318.21564Z" fill-rule="nonzero"/><path fill="#000000" d="M33.05 244.81111L34.159374 244.71736Q34.284374 245.52986 34.721874 245.93611Q35.175 246.34236 35.815624 246.34236Q36.565624 246.34236 37.096874 245.76424Q37.628124 245.18611 37.628124 244.24861Q37.628124 243.34236 37.1125 242.82674Q36.6125 242.29549 35.784374 242.29549Q35.284374 242.29549 34.8625 242.52986Q34.45625 242.76424 34.221874 243.12361L33.2375 242.99861L34.065624 238.59236L38.346874 238.59236L38.346874 239.59236L34.909374 239.59236L34.45625 241.90486Q35.221874 241.35799 36.065624 241.35799Q37.190624 241.35799 37.95625 242.13924Q38.7375 242.92049 38.7375 244.15486Q38.7375 245.31111 38.065624 246.17049Q37.2375 247.20174 35.815624 247.20174Q34.64375 247.20174 33.89375 246.54549Q33.159374 245.88924 33.05 244.81111Z" fill-rule="nonzero"/><path fill="#000000" d="M30.01875 171.67223L28.971874 171.67223L28.971874 164.95348Q28.58125 165.31285 27.95625 165.68785Q27.346874 166.04723 26.8625 166.2191L26.8625 165.20348Q27.7375 164.7816 28.39375 164.20348Q29.065624 163.60973 29.346874 163.04723L30.01875 163.04723L30.01875 171.67223ZM33.05 167.43785Q33.05 165.9066 33.3625 164.98473Q33.675 164.04723 34.284374 163.54723Q34.909374 163.04723 35.846874 163.04723Q36.534374 163.04723 37.05 163.32848Q37.58125 163.60973 37.925 164.14098Q38.26875 164.6566 38.45625 165.4066Q38.64375 166.1566 38.64375 167.43785Q38.64375 168.95348 38.33125 169.87535Q38.034374 170.79723 37.409374 171.31285Q36.8 171.81285 35.846874 171.81285Q34.6125 171.81285 33.89375 170.92223Q33.05 169.85973 33.05 167.43785ZM34.128124 167.43785Q34.128124 169.54723 34.628124 170.25035Q35.128124 170.95348 35.846874 170.95348Q36.58125 170.95348 37.065624 170.25035Q37.565624 169.54723 37.565624 167.43785Q37.565624 165.31285 37.065624 164.62535Q36.58125 163.92223 35.83125 163.92223Q35.1125 163.92223 34.675 164.5316Q34.128124 165.31285 34.128124 167.43785Z" fill-rule="nonzero"/><path fill="#000000" d="M30.01875 96.28333L28.971874 96.28333L28.971874 89.56458Q28.58125 89.92396 27.95625 90.29896Q27.346874 90.65833 26.8625 90.83021L26.8625 89.81458Q27.7375 89.39271 28.39375 88.81458Q29.065624 88.22083 29.346874 87.65833L30.01875 87.65833L30.01875 96.28333ZM33.05 94.03333L34.159374 93.93958Q34.284374 94.75208 34.721874 95.15833Q35.175 95.56458 35.815624 95.56458Q36.565624 95.56458 37.096874 94.98646Q37.628124 94.40833 37.628124 93.47083Q37.628124 92.56458 37.1125 92.04896Q36.6125 91.51771 35.784374 91.51771Q35.284374 91.51771 34.8625 91.75208Q34.45625 91.98646 34.221874 92.34583L33.2375 92.22083L34.065624 87.81458L38.346874 87.81458L38.346874 88.81458L34.909374 88.81458L34.45625 91.12708Q35.221874 90.58021 36.065624 90.58021Q37.190624 90.58021 37.95625 91.36146Q38.7375 92.14271 38.7375 93.37708Q38.7375 94.53333 38.065624 95.39271Q37.2375 96.42396 35.815624 96.42396Q34.64375 96.42396 33.89375 95.76771Q33.159374 95.11146 33.05 94.03333Z" fill-rule="nonzero"/><path fill="#000000" d="M58.877842 335.45L57.830967 335.45L57.830967 328.73126Q57.440342 329.09064 56.815342 329.46564Q56.205967 329.825 55.721592 329.9969L55.721592 328.98126Q56.596592 328.5594 57.252842 327.98126Q57.924717 327.3875 58.205967 326.825L58.877842 326.825L58.877842 335.45ZM65.87784 335.45L64.83096 335.45L64.83096 328.73126Q64.44034 329.09064 63.815342 329.46564Q63.205967 329.825 62.721592 329.9969L62.721592 328.98126Q63.596592 328.5594 64.25284 327.98126Q64.92471 327.3875 65.20596 326.825L65.87784 326.825L65.87784 335.45ZM69.48721 330.4344L69.48721 329.23126L70.69034 329.23126L70.69034 330.4344L69.48721 330.4344ZM69.48721 335.45L69.48721 334.2469L70.69034 334.2469L70.69034 335.45L69.48721 335.45ZM71.90909 331.21564Q71.90909 329.6844 72.22159 328.7625Q72.53409 327.825 73.14346 327.325Q73.76846 326.825 74.70596 326.825Q75.39346 326.825 75.90909 327.10626Q76.44034 327.3875 76.78409 327.91876Q77.12784 328.4344 77.31534 329.1844Q77.50284 329.9344 77.50284 331.21564Q77.50284 332.73126 77.19034 333.65314Q76.89346 334.575 76.26846 335.09064Q75.65909 335.59064 74.70596 335.59064Q73.47159 335.59064 72.75284 334.7Q71.90909 333.6375 71.90909 331.21564ZM72.98721 331.21564Q72.98721 333.325 73.48721 334.02814Q73.98721 334.73126 74.70596 334.73126Q75.44034 334.73126 75.92471 334.02814Q76.42471 333.325 76.42471 331.21564Q76.42471 329.09064 75.92471 328.40314Q75.44034 327.7 74.69034 327.7Q73.97159 327.7 73.53409 328.3094Q72.98721 329.09064 72.98721 331.21564ZM78.90909 331.21564Q78.90909 329.6844 79.22159 328.7625Q79.53409 327.825 80.14346 327.325Q80.76846 326.825 81.70596 326.825Q82.39346 326.825 82.90909 327.10626Q83.44034 327.3875 83.78409 327.91876Q84.12784 328.4344 84.31534 329.1844Q84.50284 329.9344 84.50284 331.21564Q84.50284 332.73126 84.19034 333.65314Q83.89346 334.575 83.26846 335.09064Q82.65909 335.59064 81.70596 335.59064Q80.47159 335.59064 79.75284 334.7Q78.90909 333.6375 78.90909 331.21564ZM79.98721 331.21564Q79.98721 333.325 80.48721 334.02814Q80.98721 334.73126 81.70596 334.73126Q82.44034 334.73126 82.92471 334.02814Q83.42471 333.325 83.42471 331.21564Q83.42471 329.09064 82.92471 328.40314Q82.44034 327.7 81.69034 327.7Q80.97159 327.7 80.53409 328.3094Q79.98721 329.09064 79.98721 331.21564Z" fill-rule="nonzero"/><path fill="#000000" d="M60.893467 349.45L64.19034 340.85626L65.40909 340.85626L68.92471 349.45L67.64346 349.45L66.62784 346.84064L63.049717 346.84064L62.096592 349.45L60.893467 349.45ZM63.377842 345.91876L66.28409 345.91876L65.39346 343.54376Q64.97159 342.46564 64.78409 341.7625Q64.61221 342.59064 64.31534 343.40314L63.377842 345.91876ZM69.79971 349.45L69.79971 340.85626L71.51846 340.85626L73.54971 346.9344Q73.83096 347.79376 73.95596 348.21564Q74.09659 347.7469 74.40909 346.84064L76.47159 340.85626L78.00284 340.85626L78.00284 349.45L76.90909 349.45L76.90909 342.2625L74.40909 349.45L73.37784 349.45L70.89346 342.1375L70.89346 349.45L69.79971 349.45Z" fill-rule="nonzero"/><path fill="#000000" d="M107.59602 335.45L106.54915 335.45L106.54915 328.73126Q106.15852 329.09064 105.53352 329.46564Q104.92415 329.825 104.43977 329.9969L104.43977 328.98126Q105.31477 328.5594 105.97102 327.98126Q106.6429 327.3875 106.92415 326.825L107.59602 326.825L107.59602 335.45ZM116.17415 334.4344L116.17415 335.45L110.48665 335.45Q110.48665 335.075 110.61165 334.71564Q110.8304 334.1375 111.29915 333.575Q111.78352 333.0125 112.68977 332.27814Q114.09602 331.1219 114.5804 330.45Q115.0804 329.77814 115.0804 329.1844Q115.0804 328.5594 114.62727 328.1375Q114.17415 327.7 113.4554 327.7Q112.68977 327.7 112.23665 328.15314Q111.78352 328.60626 111.7679 329.41876L110.68977 329.3094Q110.79915 328.09064 111.5179 327.46564Q112.25227 326.825 113.48665 326.825Q114.72102 326.825 115.43977 327.5125Q116.15852 328.2 116.15852 329.21564Q116.15852 329.73126 115.93977 330.23126Q115.73665 330.71564 115.23665 331.27814Q114.75227 331.825 113.62727 332.77814Q112.67415 333.575 112.3929 333.8719Q112.12727 334.15314 111.9554 334.4344L116.17415 334.4344ZM118.2054 330.4344L118.2054 329.23126L119.40852 329.23126L119.40852 330.4344L118.2054 330.4344ZM118.2054 335.45L118.2054 334.2469L119.40852 334.2469L119.40852 335.45L118.2054 335.45ZM120.62727 331.21564Q120.62727 329.6844 120.93977 328.7625Q121.25227 327.825 121.86165 327.325Q122.48665 326.825 123.42415 326.825Q124.11165 326.825 124.62727 327.10626Q125.15852 327.3875 125.50227 327.91876Q125.84602 328.4344 126.03352 329.1844Q126.22102 329.9344 126.22102 331.21564Q126.22102 332.73126 125.90852 333.65314Q125.61165 334.575 124.98665 335.09064Q124.37727 335.59064 123.42415 335.59064Q122.18977 335.59064 121.47102 334.7Q120.62727 333.6375 120.62727 331.21564ZM121.7054 331.21564Q121.7054 333.325 122.2054 334.02814Q122.7054 334.73126 123.42415 334.73126Q124.15852 334.73126 124.6429 334.02814Q125.1429 333.325 125.1429 331.21564Q125.1429 329.09064 124.6429 328.40314Q124.15852 327.7 123.40852 327.7Q122.68977 327.7 122.25227 328.3094Q121.7054 329.09064 121.7054 331.21564ZM127.62727 331.21564Q127.62727 329.6844 127.93977 328.7625Q128.25227 327.825 128.86165 327.325Q129.48665 326.825 130.42415 326.825Q131.11165 326.825 131.62727 327.10626Q132.15852 327.3875 132.50227 327.91876Q132.84602 328.4344 133.03352 329.1844Q133.22102 329.9344 133.22102 331.21564Q133.22102 332.73126 132.90852 333.65314Q132.61165 334.575 131.98665 335.09064Q131.37727 335.59064 130.42415 335.59064Q129.18977 335.59064 128.47102 334.7Q127.62727 333.6375 127.62727 331.21564ZM128.7054 331.21564Q128.7054 333.325 129.2054 334.02814Q129.7054 334.73126 130.42415 334.73126Q131.15852 334.73126 131.6429 334.02814Q132.1429 333.325 132.1429 331.21564Q132.1429 329.09064 131.6429 328.40314Q131.15852 327.7 130.40852 327.7Q129.68977 327.7 129.25227 328.3094Q128.7054 329.09064 128.7054 331.21564Z" fill-rule="nonzero"/><path fill="#000000" d="M110.54915 349.45L110.54915 340.85626L113.79915 340.85626Q114.6429 340.85626 115.09602 340.9344Q115.73665 341.04376 116.15852 341.34064Q116.59602 341.6375 116.84602 342.16876Q117.11165 342.7 117.11165 343.34064Q117.11165 344.4344 116.40852 345.2Q115.72102 345.95 113.8929 345.95L111.68977 345.95L111.68977 349.45L110.54915 349.45ZM111.68977 344.95L113.90852 344.95Q115.0179 344.95 115.47102 344.54376Q115.93977 344.1219 115.93977 343.3719Q115.93977 342.84064 115.65852 342.46564Q115.3929 342.075 114.9554 341.95Q114.65852 341.8719 113.8929 341.8719L111.68977 341.8719L111.68977 344.95ZM118.5179 349.45L118.5179 340.85626L120.23665 340.85626L122.2679 346.9344Q122.54915 347.79376 122.67415 348.21564Q122.81477 347.7469 123.12727 346.84064L125.18977 340.85626L126.72102 340.85626L126.72102 349.45L125.62727 349.45L125.62727 342.2625L123.12727 349.45L122.09602 349.45L119.61165 342.1375L119.61165 349.45L118.5179 349.45Z" fill-rule="nonzero"/><path fill="#000000" d="M159.81421 335.45L158.76733 335.45L158.76733 328.73126Q158.37671 329.09064 157.75171 329.46564Q157.14233 329.825 156.65796 329.9969L156.65796 328.98126Q157.53296 328.5594 158.18921 327.98126Q158.86108 327.3875 159.14233 326.825L159.81421 326.825L159.81421 335.45ZM163.42358 330.4344L163.42358 329.23126L164.62671 329.23126L164.62671 330.4344L163.42358 330.4344ZM163.42358 335.45L163.42358 334.2469L164.62671 334.2469L164.62671 335.45L163.42358 335.45ZM165.84546 331.21564Q165.84546 329.6844 166.15796 328.7625Q166.47046 327.825 167.07983 327.325Q167.70483 326.825 168.64233 326.825Q169.32983 326.825 169.84546 327.10626Q170.37671 327.3875 170.72046 327.91876Q171.06421 328.4344 171.25171 329.1844Q171.43921 329.9344 171.43921 331.21564Q171.43921 332.73126 171.12671 333.65314Q170.82983 334.575 170.20483 335.09064Q169.59546 335.59064 168.64233 335.59064Q167.40796 335.59064 166.68921 334.7Q165.84546 333.6375 165.84546 331.21564ZM166.92358 331.21564Q166.92358 333.325 167.42358 334.02814Q167.92358 334.73126 168.64233 334.73126Q169.37671 334.73126 169.86108 334.02814Q170.36108 333.325 170.36108 331.21564Q170.36108 329.09064 169.86108 328.40314Q169.37671 327.7 168.62671 327.7Q167.90796 327.7 167.47046 328.3094Q166.92358 329.09064 166.92358 331.21564ZM172.84546 331.21564Q172.84546 329.6844 173.15796 328.7625Q173.47046 327.825 174.07983 327.325Q174.70483 326.825 175.64233 326.825Q176.32983 326.825 176.84546 327.10626Q177.37671 327.3875 177.72046 327.91876Q178.06421 328.4344 178.25171 329.1844Q178.43921 329.9344 178.43921 331.21564Q178.43921 332.73126 178.12671 333.65314Q177.82983 334.575 177.20483 335.09064Q176.59546 335.59064 175.64233 335.59064Q174.40796 335.59064 173.68921 334.7Q172.84546 333.6375 172.84546 331.21564ZM173.92358 331.21564Q173.92358 333.325 174.42358 334.02814Q174.92358 334.73126 175.64233 334.73126Q176.37671 334.73126 176.86108 334.02814Q177.36108 333.325 177.36108 331.21564Q177.36108 329.09064 176.86108 328.40314Q176.37671 327.7 175.62671 327.7Q174.90796 327.7 174.47046 328.3094Q173.92358 329.09064 173.92358 331.21564Z" fill-rule="nonzero"/><path fill="#000000" d="M159.26733 349.45L159.26733 340.85626L162.51733 340.85626Q163.36108 340.85626 163.81421 340.9344Q164.45483 341.04376 164.87671 341.34064Q165.31421 341.6375 165.56421 342.16876Q165.82983 342.7 165.82983 343.34064Q165.82983 344.4344 165.12671 345.2Q164.43921 345.95 162.61108 345.95L160.40796 345.95L160.40796 349.45L159.26733 349.45ZM160.40796 344.95L162.62671 344.95Q163.73608 344.95 164.18921 344.54376Q164.65796 344.1219 164.65796 343.3719Q164.65796 342.84064 164.37671 342.46564Q164.11108 342.075 163.67358 341.95Q163.37671 341.8719 162.61108 341.8719L160.40796 341.8719L160.40796 344.95ZM167.23608 349.45L167.23608 340.85626L168.95483 340.85626L170.98608 346.9344Q171.26733 347.79376 171.39233 348.21564Q171.53296 347.7469 171.84546 346.84064L173.90796 340.85626L175.43921 340.85626L175.43921 349.45L174.34546 349.45L174.34546 342.2625L171.84546 349.45L170.81421 349.45L168.32983 342.1375L168.32983 349.45L167.23608 349.45Z" fill-rule="nonzero"/><path fill="#000000" d="M210.1105 334.4344L210.1105 335.45L204.423 335.45Q204.423 335.075 204.548 334.71564Q204.76675 334.1375 205.2355 333.575Q205.71988 333.0125 206.62613 332.27814Q208.03238 331.1219 208.51675 330.45Q209.01675 329.77814 209.01675 329.1844Q209.01675 328.5594 208.56363 328.1375Q208.1105 327.7 207.39175 327.7Q206.62613 327.7 206.173 328.15314Q205.71988 328.60626 205.70425 329.41876L204.62613 329.3094Q204.7355 328.09064 205.45425 327.46564Q206.18863 326.825 207.423 326.825Q208.65738 326.825 209.37613 327.5125Q210.09488 328.2 210.09488 329.21564Q210.09488 329.73126 209.87613 330.23126Q209.673 330.71564 209.173 331.27814Q208.68863 331.825 207.56363 332.77814Q206.6105 333.575 206.32925 333.8719Q206.06363 334.15314 205.89175 334.4344L210.1105 334.4344ZM212.14175 330.4344L212.14175 329.23126L213.34488 329.23126L213.34488 330.4344L212.14175 330.4344ZM212.14175 335.45L212.14175 334.2469L213.34488 334.2469L213.34488 335.45L212.14175 335.45ZM214.56363 331.21564Q214.56363 329.6844 214.87613 328.7625Q215.18863 327.825 215.798 327.325Q216.423 326.825 217.3605 326.825Q218.048 326.825 218.56363 327.10626Q219.09488 327.3875 219.43863 327.91876Q219.78238 328.4344 219.96988 329.1844Q220.15738 329.9344 220.15738 331.21564Q220.15738 332.73126 219.84488 333.65314Q219.548 334.575 218.923 335.09064Q218.31363 335.59064 217.3605 335.59064Q216.12613 335.59064 215.40738 334.7Q214.56363 333.6375 214.56363 331.21564ZM215.64175 331.21564Q215.64175 333.325 216.14175 334.02814Q216.64175 334.73126 217.3605 334.73126Q218.09488 334.73126 218.57925 334.02814Q219.07925 333.325 219.07925 331.21564Q219.07925 329.09064 218.57925 328.40314Q218.09488 327.7 217.34488 327.7Q216.62613 327.7 216.18863 328.3094Q215.64175 329.09064 215.64175 331.21564ZM221.56363 331.21564Q221.56363 329.6844 221.87613 328.7625Q222.18863 327.825 222.798 327.325Q223.423 326.825 224.3605 326.825Q225.048 326.825 225.56363 327.10626Q226.09488 327.3875 226.43863 327.91876Q226.78238 328.4344 226.96988 329.1844Q227.15738 329.9344 227.15738 331.21564Q227.15738 332.73126 226.84488 333.65314Q226.548 334.575 225.923 335.09064Q225.31363 335.59064 224.3605 335.59064Q223.12613 335.59064 222.40738 334.7Q221.56363 333.6375 221.56363 331.21564ZM222.64175 331.21564Q222.64175 333.325 223.14175 334.02814Q223.64175 334.73126 224.3605 334.73126Q225.09488 334.73126 225.57925 334.02814Q226.07925 333.325 226.07925 331.21564Q226.07925 329.09064 225.57925 328.40314Q225.09488 327.7 224.34488 327.7Q223.62613 327.7 223.18863 328.3094Q222.64175 329.09064 222.64175 331.21564Z" fill-rule="nonzero"/><path fill="#000000" d="M207.9855 349.45L207.9855 340.85626L211.2355 340.85626Q212.07925 340.85626 212.53238 340.9344Q213.173 341.04376 213.59488 341.34064Q214.03238 341.6375 214.28238 342.16876Q214.548 342.7 214.548 343.34064Q214.548 344.4344 213.84488 345.2Q213.15738 345.95 211.32925 345.95L209.12613 345.95L209.12613 349.45L207.9855 349.45ZM209.12613 344.95L211.34488 344.95Q212.45425 344.95 212.90738 344.54376Q213.37613 344.1219 213.37613 343.3719Q213.37613 342.84064 213.09488 342.46564Q212.82925 342.075 212.39175 341.95Q212.09488 341.8719 211.32925 341.8719L209.12613 341.8719L209.12613 344.95ZM215.95425 349.45L215.95425 340.85626L217.673 340.85626L219.70425 346.9344Q219.9855 347.79376 220.1105 348.21564Q220.25113 347.7469 220.56363 346.84064L222.62613 340.85626L224.15738 340.85626L224.15738 349.45L223.06363 349.45L223.06363 342.2625L220.56363 349.45L219.53238 349.45L217.048 342.1375L217.048 349.45L215.95425 349.45Z" fill-rule="nonzero"/><path fill="#000000" d="M253.28181 333.1844L254.34431 333.04376Q254.51619 333.9344 254.95369 334.34064Q255.39119 334.73126 256.01617 334.73126Q256.76617 334.73126 257.2818 334.21564Q257.79742 333.7 257.79742 332.9344Q257.79742 332.21564 257.31305 331.7469Q256.8443 331.2625 256.10992 331.2625Q255.81306 331.2625 255.35994 331.3875L255.48494 330.45Q255.59431 330.46564 255.65681 330.46564Q256.32867 330.46564 256.85992 330.1219Q257.4068 329.7625 257.4068 329.02814Q257.4068 328.45 257.01617 328.075Q256.62555 327.6844 256.00055 327.6844Q255.39119 327.6844 254.96931 328.075Q254.56306 328.46564 254.45369 329.23126L253.39119 329.04376Q253.57869 327.9969 254.26619 327.41876Q254.95369 326.825 255.96931 326.825Q256.67242 326.825 257.26617 327.1375Q257.85992 327.4344 258.17242 327.95Q258.48492 328.46564 258.48492 329.0594Q258.48492 329.60626 258.18805 330.075Q257.89117 330.52814 257.31305 330.79376Q258.06305 330.96564 258.48492 331.52814Q258.9068 332.075 258.9068 332.91876Q258.9068 334.04376 258.07867 334.825Q257.26617 335.60626 256.01617 335.60626Q254.89119 335.60626 254.14119 334.9344Q253.39119 334.2469 253.28181 333.1844ZM260.85992 330.4344L260.85992 329.23126L262.06305 329.23126L262.06305 330.4344L260.85992 330.4344ZM260.85992 335.45L260.85992 334.2469L262.06305 334.2469L262.06305 335.45L260.85992 335.45ZM263.2818 331.21564Q263.2818 329.6844 263.5943 328.7625Q263.9068 327.825 264.51617 327.325Q265.14117 326.825 266.07867 326.825Q266.76617 326.825 267.2818 327.10626Q267.81305 327.3875 268.1568 327.91876Q268.50055 328.4344 268.68805 329.1844Q268.87555 329.9344 268.87555 331.21564Q268.87555 332.73126 268.56305 333.65314Q268.26617 334.575 267.64117 335.09064Q267.0318 335.59064 266.07867 335.59064Q264.8443 335.59064 264.12555 334.7Q263.2818 333.6375 263.2818 331.21564ZM264.35992 331.21564Q264.35992 333.325 264.85992 334.02814Q265.35992 334.73126 266.07867 334.73126Q266.81305 334.73126 267.29742 334.02814Q267.79742 333.325 267.79742 331.21564Q267.79742 329.09064 267.29742 328.40314Q266.81305 327.7 266.06305 327.7Q265.3443 327.7 264.9068 328.3094Q264.35992 329.09064 264.35992 331.21564ZM270.2818 331.21564Q270.2818 329.6844 270.5943 328.7625Q270.9068 327.825 271.51617 327.325Q272.14117 326.825 273.07867 326.825Q273.76617 326.825 274.2818 327.10626Q274.81305 327.3875 275.1568 327.91876Q275.50055 328.4344 275.68805 329.1844Q275.87555 329.9344 275.87555 331.21564Q275.87555 332.73126 275.56305 333.65314Q275.26617 334.575 274.64117 335.09064Q274.0318 335.59064 273.07867 335.59064Q271.8443 335.59064 271.12555 334.7Q270.2818 333.6375 270.2818 331.21564ZM271.35992 331.21564Q271.35992 333.325 271.85992 334.02814Q272.35992 334.73126 273.07867 334.73126Q273.81305 334.73126 274.29742 334.02814Q274.79742 333.325 274.79742 331.21564Q274.79742 329.09064 274.29742 328.40314Q273.81305 327.7 273.06305 327.7Q272.3443 327.7 271.9068 328.3094Q271.35992 329.09064 271.35992 331.21564Z" fill-rule="nonzero"/><path fill="#000000" d="M256.70367 349.45L256.70367 340.85626L259.95367 340.85626Q260.79742 340.85626 261.25055 340.9344Q261.89117 341.04376 262.31305 341.34064Q262.75055 341.6375 263.00055 342.16876Q263.26617 342.7 263.26617 343.34064Q263.26617 344.4344 262.56305 345.2Q261.87555 345.95 260.04742 345.95L257.8443 345.95L257.8443 349.45L256.70367 349.45ZM257.8443 344.95L260.06305 344.95Q261.17242 344.95 261.62555 344.54376Q262.0943 344.1219 262.0943 343.3719Q262.0943 342.84064 261.81305 342.46564Q261.54742 342.075 261.10992 341.95Q260.81305 341.8719 260.04742 341.8719L257.8443 341.8719L257.8443 344.95ZM264.67242 349.45L264.67242 340.85626L266.39117 340.85626L268.42242 346.9344Q268.70367 347.79376 268.82867 348.21564Q268.9693 347.7469 269.2818 346.84064L271.3443 340.85626L272.87555 340.85626L272.87555 349.45L271.7818 349.45L271.7818 342.2625L269.2818 349.45L268.25055 349.45L265.76617 342.1375L265.76617 349.45L264.67242 349.45Z" fill-rule="nonzero"/><path fill="#000000" d="M305.375 335.45L305.375 333.3875L301.65625 333.3875L301.65625 332.41876L305.57812 326.85626L306.4375 326.85626L306.4375 332.41876L307.59375 332.41876L307.59375 333.3875L306.4375 333.3875L306.4375 335.45L305.375 335.45ZM305.375 332.41876L305.375 328.5594L302.6875 332.41876L305.375 332.41876ZM309.57812 330.4344L309.57812 329.23126L310.78125 329.23126L310.78125 330.4344L309.57812 330.4344ZM309.57812 335.45L309.57812 334.2469L310.78125 334.2469L310.78125 335.45L309.57812 335.45ZM312.0 331.21564Q312.0 329.6844 312.3125 328.7625Q312.625 327.825 313.23438 327.325Q313.85938 326.825 314.79688 326.825Q315.48438 326.825 316.0 327.10626Q316.53125 327.3875 316.875 327.91876Q317.21875 328.4344 317.40625 329.1844Q317.59375 329.9344 317.59375 331.21564Q317.59375 332.73126 317.28125 333.65314Q316.98438 334.575 316.35938 335.09064Q315.75 335.59064 314.79688 335.59064Q313.5625 335.59064 312.84375 334.7Q312.0 333.6375 312.0 331.21564ZM313.07812 331.21564Q313.07812 333.325 313.57812 334.02814Q314.07812 334.73126 314.79688 334.73126Q315.53125 334.73126 316.01562 334.02814Q316.51562 333.325 316.51562 331.21564Q316.51562 329.09064 316.01562 328.40314Q315.53125 327.7 314.78125 327.7Q314.0625 327.7 313.625 328.3094Q313.07812 329.09064 313.07812 331.21564ZM319.0 331.21564Q319.0 329.6844 319.3125 328.7625Q319.625 327.825 320.23438 327.325Q320.85938 326.825 321.79688 326.825Q322.48438 326.825 323.0 327.10626Q323.53125 327.3875 323.875 327.91876Q324.21875 328.4344 324.40625 329.1844Q324.59375 329.9344 324.59375 331.21564Q324.59375 332.73126 324.28125 333.65314Q323.98438 334.575 323.35938 335.09064Q322.75 335.59064 321.79688 335.59064Q320.5625 335.59064 319.84375 334.7Q319.0 333.6375 319.0 331.21564ZM320.07812 331.21564Q320.07812 333.325 320.57812 334.02814Q321.07812 334.73126 321.79688 334.73126Q322.53125 334.73126 323.01562 334.02814Q323.51562 333.325 323.51562 331.21564Q323.51562 329.09064 323.01562 328.40314Q322.53125 327.7 321.78125 327.7Q321.0625 327.7 320.625 328.3094Q320.07812 329.09064 320.07812 331.21564Z" fill-rule="nonzero"/><path fill="#000000" d="M305.42188 349.45L305.42188 340.85626L308.67188 340.85626Q309.51562 340.85626 309.96875 340.9344Q310.60938 341.04376 311.03125 341.34064Q311.46875 341.6375 311.71875 342.16876Q311.98438 342.7 311.98438 343.34064Q311.98438 344.4344 311.28125 345.2Q310.59375 345.95 308.76562 345.95L306.5625 345.95L306.5625 349.45L305.42188 349.45ZM306.5625 344.95L308.78125 344.95Q309.89062 344.95 310.34375 344.54376Q310.8125 344.1219 310.8125 343.3719Q310.8125 342.84064 310.53125 342.46564Q310.26562 342.075 309.82812 341.95Q309.53125 341.8719 308.76562 341.8719L306.5625 341.8719L306.5625 344.95ZM313.39062 349.45L313.39062 340.85626L315.10938 340.85626L317.14062 346.9344Q317.42188 347.79376 317.54688 348.21564Q317.6875 347.7469 318.0 346.84064L320.0625 340.85626L321.59375 340.85626L321.59375 349.45L320.5 349.45L320.5 342.2625L318.0 349.45L316.96875 349.45L314.48438 342.1375L314.48438 349.45L313.39062 349.45Z" fill-rule="nonzero"/><path fill="#000000" d="M350.71817 333.2L351.82755 333.10626Q351.95255 333.91876 352.39005 334.325Q352.84317 334.73126 353.4838 334.73126Q354.2338 334.73126 354.76505 334.15314Q355.2963 333.575 355.2963 332.6375Q355.2963 331.73126 354.78067 331.21564Q354.28067 330.6844 353.45255 330.6844Q352.95255 330.6844 352.53067 330.91876Q352.12442 331.15314 351.89005 331.5125L350.90567 331.3875L351.7338 326.98126L356.01505 326.98126L356.01505 327.98126L352.57755 327.98126L352.12442 330.29376Q352.89005 329.7469 353.7338 329.7469Q354.8588 329.7469 355.62442 330.52814Q356.40567 331.3094 356.40567 332.54376Q356.40567 333.7 355.7338 334.5594Q354.90567 335.59064 353.4838 335.59064Q352.31192 335.59064 351.56192 334.9344Q350.82755 334.27814 350.71817 333.2ZM358.2963 330.4344L358.2963 329.23126L359.49942 329.23126L359.49942 330.4344L358.2963 330.4344ZM358.2963 335.45L358.2963 334.2469L359.49942 334.2469L359.49942 335.45L358.2963 335.45ZM360.71817 331.21564Q360.71817 329.6844 361.03067 328.7625Q361.34317 327.825 361.95255 327.325Q362.57755 326.825 363.51505 326.825Q364.20255 326.825 364.71817 327.10626Q365.24942 327.3875 365.59317 327.91876Q365.93692 328.4344 366.12442 329.1844Q366.31192 329.9344 366.31192 331.21564Q366.31192 332.73126 365.99942 333.65314Q365.70255 334.575 365.07755 335.09064Q364.46817 335.59064 363.51505 335.59064Q362.28067 335.59064 361.56192 334.7Q360.71817 333.6375 360.71817 331.21564ZM361.7963 331.21564Q361.7963 333.325 362.2963 334.02814Q362.7963 334.73126 363.51505 334.73126Q364.24942 334.73126 364.7338 334.02814Q365.2338 333.325 365.2338 331.21564Q365.2338 329.09064 364.7338 328.40314Q364.24942 327.7 363.49942 327.7Q362.78067 327.7 362.34317 328.3094Q361.7963 329.09064 361.7963 331.21564ZM367.71817 331.21564Q367.71817 329.6844 368.03067 328.7625Q368.34317 327.825 368.95255 327.325Q369.57755 326.825 370.51505 326.825Q371.20255 326.825 371.71817 327.10626Q372.24942 327.3875 372.59317 327.91876Q372.93692 328.4344 373.12442 329.1844Q373.31192 329.9344 373.31192 331.21564Q373.31192 332.73126 372.99942 333.65314Q372.70255 334.575 372.07755 335.09064Q371.46817 335.59064 370.51505 335.59064Q369.28067 335.59064 368.56192 334.7Q367.71817 333.6375 367.71817 331.21564ZM368.7963 331.21564Q368.7963 333.325 369.2963 334.02814Q369.7963 334.73126 370.51505 334.73126Q371.24942 334.73126 371.7338 334.02814Q372.2338 333.325 372.2338 331.21564Q372.2338 329.09064 371.7338 328.40314Q371.24942 327.7 370.49942 327.7Q369.78067 327.7 369.34317 328.3094Q368.7963 329.09064 368.7963 331.21564Z" fill-rule="nonzero"/><path fill="#000000" d="M354.14005 349.45L354.14005 340.85626L357.39005 340.85626Q358.2338 340.85626 358.68692 340.9344Q359.32755 341.04376 359.74942 341.34064Q360.18692 341.6375 360.43692 342.16876Q360.70255 342.7 360.70255 343.34064Q360.70255 344.4344 359.99942 345.2Q359.31192 345.95 357.4838 345.95L355.28067 345.95L355.28067 349.45L354.14005 349.45ZM355.28067 344.95L357.49942 344.95Q358.6088 344.95 359.06192 344.54376Q359.53067 344.1219 359.53067 343.3719Q359.53067 342.84064 359.24942 342.46564Q358.9838 342.075 358.5463 341.95Q358.24942 341.8719 357.4838 341.8719L355.28067 341.8719L355.28067 344.95ZM362.1088 349.45L362.1088 340.85626L363.82755 340.85626L365.8588 346.9344Q366.14005 347.79376 366.26505 348.21564Q366.40567 347.7469 366.71817 346.84064L368.78067 340.85626L370.31192 340.85626L370.31192 349.45L369.21817 349.45L369.21817 342.2625L366.71817 349.45L365.68692 349.45L363.20255 342.1375L363.20255 349.45L362.1088 349.45Z" fill-rule="nonzero"/><path fill="#000000" d="M404.90512 328.96564L403.85825 329.04376Q403.71762 328.41876 403.46762 328.1375Q403.03012 327.6844 402.40512 327.6844Q401.90512 327.6844 401.5145 327.96564Q401.03012 328.34064 400.73325 329.04376Q400.452 329.73126 400.43637 331.0125Q400.81137 330.4344 401.35825 330.15314Q401.92075 329.8719 402.53012 329.8719Q403.577 329.8719 404.31137 330.65314Q405.06137 331.4344 405.06137 332.65314Q405.06137 333.46564 404.702 334.16876Q404.35825 334.85626 403.74887 335.23126Q403.1395 335.59064 402.37387 335.59064Q401.04575 335.59064 400.21762 334.6219Q399.3895 333.65314 399.3895 331.4344Q399.3895 328.9344 400.31137 327.8094Q401.10825 326.825 402.46762 326.825Q403.48325 326.825 404.12387 327.40314Q404.78012 327.96564 404.90512 328.96564ZM400.60825 332.66876Q400.60825 333.21564 400.827 333.71564Q401.06137 334.2 401.46762 334.46564Q401.8895 334.73126 402.35825 334.73126Q403.0145 334.73126 403.49887 334.2Q403.98325 333.65314 403.98325 332.73126Q403.98325 331.84064 403.49887 331.325Q403.03012 330.8094 402.31137 330.8094Q401.59262 330.8094 401.09262 331.325Q400.60825 331.84064 400.60825 332.66876ZM407.0145 330.4344L407.0145 329.23126L408.21762 329.23126L408.21762 330.4344L407.0145 330.4344ZM407.0145 335.45L407.0145 334.2469L408.21762 334.2469L408.21762 335.45L407.0145 335.45ZM409.43637 331.21564Q409.43637 329.6844 409.74887 328.7625Q410.06137 327.825 410.67075 327.325Q411.29575 326.825 412.23325 326.825Q412.92075 326.825 413.43637 327.10626Q413.96762 327.3875 414.31137 327.91876Q414.65512 328.4344 414.84262 329.1844Q415.03012 329.9344 415.03012 331.21564Q415.03012 332.73126 414.71762 333.65314Q414.42075 334.575 413.79575 335.09064Q413.18637 335.59064 412.23325 335.59064Q410.99887 335.59064 410.28012 334.7Q409.43637 333.6375 409.43637 331.21564ZM410.5145 331.21564Q410.5145 333.325 411.0145 334.02814Q411.5145 334.73126 412.23325 334.73126Q412.96762 334.73126 413.452 334.02814Q413.952 333.325 413.952 331.21564Q413.952 329.09064 413.452 328.40314Q412.96762 327.7 412.21762 327.7Q411.49887 327.7 411.06137 328.3094Q410.5145 329.09064 410.5145 331.21564ZM416.43637 331.21564Q416.43637 329.6844 416.74887 328.7625Q417.06137 327.825 417.67075 327.325Q418.29575 326.825 419.23325 326.825Q419.92075 326.825 420.43637 327.10626Q420.96762 327.3875 421.31137 327.91876Q421.65512 328.4344 421.84262 329.1844Q422.03012 329.9344 422.03012 331.21564Q422.03012 332.73126 421.71762 333.65314Q421.42075 334.575 420.79575 335.09064Q420.18637 335.59064 419.23325 335.59064Q417.99887 335.59064 417.28012 334.7Q416.43637 333.6375 416.43637 331.21564ZM417.5145 331.21564Q417.5145 333.325 418.0145 334.02814Q418.5145 334.73126 419.23325 334.73126Q419.96762 334.73126 420.452 334.02814Q420.952 333.325 420.952 331.21564Q420.952 329.09064 420.452 328.40314Q419.96762 327.7 419.21762 327.7Q418.49887 327.7 418.06137 328.3094Q417.5145 329.09064 417.5145 331.21564Z" fill-rule="nonzero"/><path fill="#000000" d="M402.85825 349.45L402.85825 340.85626L406.10825 340.85626Q406.952 340.85626 407.40512 340.9344Q408.04575 341.04376 408.46762 341.34064Q408.90512 341.6375 409.15512 342.16876Q409.42075 342.7 409.42075 343.34064Q409.42075 344.4344 408.71762 345.2Q408.03012 345.95 406.202 345.95L403.99887 345.95L403.99887 349.45L402.85825 349.45ZM403.99887 344.95L406.21762 344.95Q407.327 344.95 407.78012 344.54376Q408.24887 344.1219 408.24887 343.3719Q408.24887 342.84064 407.96762 342.46564Q407.702 342.075 407.2645 341.95Q406.96762 341.8719 406.202 341.8719L403.99887 341.8719L403.99887 344.95ZM410.827 349.45L410.827 340.85626L412.54575 340.85626L414.577 346.9344Q414.85825 347.79376 414.98325 348.21564Q415.12387 347.7469 415.43637 346.84064L417.49887 340.85626L419.03012 340.85626L419.03012 349.45L417.93637 349.45L417.93637 342.2625L415.43637 349.45L414.40512 349.45L411.92075 342.1375L411.92075 349.45L410.827 349.45Z" fill-rule="nonzero"/><path fill="#000000" d="M448.21704 327.98126L448.21704 326.96564L453.77954 326.96564L453.77954 327.79376Q452.96704 328.66876 452.15454 330.1219Q451.35767 331.5594 450.92017 333.09064Q450.59204 334.16876 450.51392 335.45L449.42017 335.45Q449.4358 334.4344 449.8108 332.9969Q450.20142 331.5594 450.90454 330.23126Q451.6233 328.90314 452.4358 327.98126L448.21704 327.98126ZM455.73267 330.4344L455.73267 329.23126L456.9358 329.23126L456.9358 330.4344L455.73267 330.4344ZM455.73267 335.45L455.73267 334.2469L456.9358 334.2469L456.9358 335.45L455.73267 335.45ZM458.15454 331.21564Q458.15454 329.6844 458.46704 328.7625Q458.77954 327.825 459.38892 327.325Q460.01392 326.825 460.95142 326.825Q461.63892 326.825 462.15454 327.10626Q462.6858 327.3875 463.02954 327.91876Q463.3733 328.4344 463.5608 329.1844Q463.7483 329.9344 463.7483 331.21564Q463.7483 332.73126 463.4358 333.65314Q463.13892 334.575 462.51392 335.09064Q461.90454 335.59064 460.95142 335.59064Q459.71704 335.59064 458.9983 334.7Q458.15454 333.6375 458.15454 331.21564ZM459.23267 331.21564Q459.23267 333.325 459.73267 334.02814Q460.23267 334.73126 460.95142 334.73126Q461.6858 334.73126 462.17017 334.02814Q462.67017 333.325 462.67017 331.21564Q462.67017 329.09064 462.17017 328.40314Q461.6858 327.7 460.9358 327.7Q460.21704 327.7 459.77954 328.3094Q459.23267 329.09064 459.23267 331.21564ZM465.15454 331.21564Q465.15454 329.6844 465.46704 328.7625Q465.77954 327.825 466.38892 327.325Q467.01392 326.825 467.95142 326.825Q468.63892 326.825 469.15454 327.10626Q469.6858 327.3875 470.02954 327.91876Q470.3733 328.4344 470.5608 329.1844Q470.7483 329.9344 470.7483 331.21564Q470.7483 332.73126 470.4358 333.65314Q470.13892 334.575 469.51392 335.09064Q468.90454 335.59064 467.95142 335.59064Q466.71704 335.59064 465.9983 334.7Q465.15454 333.6375 465.15454 331.21564ZM466.23267 331.21564Q466.23267 333.325 466.73267 334.02814Q467.23267 334.73126 467.95142 334.73126Q468.6858 334.73126 469.17017 334.02814Q469.67017 333.325 469.67017 331.21564Q469.67017 329.09064 469.17017 328.40314Q468.6858 327.7 467.9358 327.7Q467.21704 327.7 466.77954 328.3094Q466.23267 329.09064 466.23267 331.21564Z" fill-rule="nonzero"/><path fill="#000000" d="M451.57642 349.45L451.57642 340.85626L454.82642 340.85626Q455.67017 340.85626 456.1233 340.9344Q456.76392 341.04376 457.1858 341.34064Q457.6233 341.6375 457.8733 342.16876Q458.13892 342.7 458.13892 343.34064Q458.13892 344.4344 457.4358 345.2Q456.7483 345.95 454.92017 345.95L452.71704 345.95L452.71704 349.45L451.57642 349.45ZM452.71704 344.95L454.9358 344.95Q456.04517 344.95 456.4983 344.54376Q456.96704 344.1219 456.96704 343.3719Q456.96704 342.84064 456.6858 342.46564Q456.42017 342.075 455.98267 341.95Q455.6858 341.8719 454.92017 341.8719L452.71704 341.8719L452.71704 344.95ZM459.54517 349.45L459.54517 340.85626L461.26392 340.85626L463.29517 346.9344Q463.57642 347.79376 463.70142 348.21564Q463.84204 347.7469 464.15454 346.84064L466.21704 340.85626L467.7483 340.85626L467.7483 349.45L466.65454 349.45L466.65454 342.2625L464.15454 349.45L463.1233 349.45L460.63892 342.1375L460.63892 349.45L459.54517 349.45Z" fill-rule="nonzero"/><path fill="#000000" d="M498.49774 330.79376Q497.8415 330.54376 497.51337 330.10626Q497.20087 329.65314 497.20087 329.04376Q497.20087 328.10626 497.87274 327.46564Q498.56024 326.825 499.66962 326.825Q500.79462 326.825 501.48212 327.48126Q502.16962 328.1375 502.16962 329.075Q502.16962 329.66876 501.85712 330.10626Q501.54462 330.54376 500.904 330.79376Q501.70087 331.04376 502.10712 331.6219Q502.51337 332.2 502.51337 332.9969Q502.51337 334.09064 501.73212 334.84064Q500.9665 335.59064 499.68524 335.59064Q498.41962 335.59064 497.63837 334.84064Q496.85712 334.09064 496.85712 332.96564Q496.85712 332.1219 497.279 331.5594Q497.7165 330.9969 498.49774 330.79376ZM498.279 328.9969Q498.279 329.60626 498.66962 329.9969Q499.07587 330.3875 499.70087 330.3875Q500.31024 330.3875 500.70087 330.0125Q501.0915 329.6219 501.0915 329.0594Q501.0915 328.48126 500.68524 328.09064Q500.279 327.6844 499.68524 327.6844Q499.07587 327.6844 498.66962 328.075Q498.279 328.46564 498.279 328.9969ZM497.95087 332.96564Q497.95087 333.41876 498.154 333.84064Q498.37274 334.2625 498.79462 334.4969Q499.2165 334.73126 499.70087 334.73126Q500.45087 334.73126 500.93524 334.2469Q501.43524 333.7625 501.43524 333.0125Q501.43524 332.2469 500.93524 331.7469Q500.43524 331.2469 499.66962 331.2469Q498.91962 331.2469 498.43524 331.7469Q497.95087 332.23126 497.95087 332.96564ZM504.45087 330.4344L504.45087 329.23126L505.654 329.23126L505.654 330.4344L504.45087 330.4344ZM504.45087 335.45L504.45087 334.2469L505.654 334.2469L505.654 335.45L504.45087 335.45ZM506.87274 331.21564Q506.87274 329.6844 507.18524 328.7625Q507.49774 327.825 508.10712 327.325Q508.73212 326.825 509.66962 326.825Q510.35712 326.825 510.87274 327.10626Q511.404 327.3875 511.74774 327.91876Q512.0915 328.4344 512.279 329.1844Q512.4665 329.9344 512.4665 331.21564Q512.4665 332.73126 512.154 333.65314Q511.85712 334.575 511.23212 335.09064Q510.62274 335.59064 509.66962 335.59064Q508.43524 335.59064 507.7165 334.7Q506.87274 333.6375 506.87274 331.21564ZM507.95087 331.21564Q507.95087 333.325 508.45087 334.02814Q508.95087 334.73126 509.66962 334.73126Q510.404 334.73126 510.88837 334.02814Q511.38837 333.325 511.38837 331.21564Q511.38837 329.09064 510.88837 328.40314Q510.404 327.7 509.654 327.7Q508.93524 327.7 508.49774 328.3094Q507.95087 329.09064 507.95087 331.21564ZM513.87274 331.21564Q513.87274 329.6844 514.18524 328.7625Q514.49774 327.825 515.1071 327.325Q515.7321 326.825 516.6696 326.825Q517.3571 326.825 517.87274 327.10626Q518.404 327.3875 518.74774 327.91876Q519.0915 328.4344 519.279 329.1844Q519.4665 329.9344 519.4665 331.21564Q519.4665 332.73126 519.154 333.65314Q518.8571 334.575 518.2321 335.09064Q517.62274 335.59064 516.6696 335.59064Q515.43524 335.59064 514.7165 334.7Q513.87274 333.6375 513.87274 331.21564ZM514.95087 331.21564Q514.95087 333.325 515.45087 334.02814Q515.95087 334.73126 516.6696 334.73126Q517.404 334.73126 517.88837 334.02814Q518.38837 333.325 518.38837 331.21564Q518.38837 329.09064 517.88837 328.40314Q517.404 327.7 516.654 327.7Q515.93524 327.7 515.49774 328.3094Q514.95087 329.09064 514.95087 331.21564Z" fill-rule="nonzero"/><path fill="#000000" d="M500.29462 349.45L500.29462 340.85626L503.54462 340.85626Q504.38837 340.85626 504.8415 340.9344Q505.48212 341.04376 505.904 341.34064Q506.3415 341.6375 506.5915 342.16876Q506.85712 342.7 506.85712 343.34064Q506.85712 344.4344 506.154 345.2Q505.4665 345.95 503.63837 345.95L501.43524 345.95L501.43524 349.45L500.29462 349.45ZM501.43524 344.95L503.654 344.95Q504.76337 344.95 505.2165 344.54376Q505.68524 344.1219 505.68524 343.3719Q505.68524 342.84064 505.404 342.46564Q505.13837 342.075 504.70087 341.95Q504.404 341.8719 503.63837 341.8719L501.43524 341.8719L501.43524 344.95ZM508.26337 349.45L508.26337 340.85626L509.98212 340.85626L512.01337 346.9344Q512.2946 347.79376 512.4196 348.21564Q512.56024 347.7469 512.87274 346.84064L514.93524 340.85626L516.4665 340.85626L516.4665 349.45L515.37274 349.45L515.37274 342.2625L512.87274 349.45L511.8415 349.45L509.35712 342.1375L509.35712 349.45L508.26337 349.45Z" fill-rule="nonzero"/><path fill="#000000" d="M545.74713 333.46564L546.76276 333.3719Q546.88776 334.09064 547.24713 334.41876Q547.62213 334.73126 548.18463 334.73126Q548.669 334.73126 549.0284 334.5125Q549.4034 334.27814 549.63776 333.91876Q549.87213 333.54376 550.0284 332.91876Q550.18463 332.27814 550.18463 331.6219Q550.18463 331.54376 550.18463 331.40314Q549.87213 331.90314 549.32526 332.23126Q548.7784 332.54376 548.13776 332.54376Q547.05963 332.54376 546.32526 331.77814Q545.5909 330.9969 545.5909 329.73126Q545.5909 328.41876 546.3565 327.6219Q547.13776 326.825 548.294 326.825Q549.12213 326.825 549.80963 327.27814Q550.51276 327.73126 550.87213 328.575Q551.2315 329.40314 551.2315 330.98126Q551.2315 332.6219 550.87213 333.60626Q550.5284 334.575 549.80963 335.09064Q549.1065 335.59064 548.169 335.59064Q547.1534 335.59064 546.51276 335.04376Q545.87213 334.48126 545.74713 333.46564ZM550.05963 329.66876Q550.05963 328.7625 549.57526 328.23126Q549.1065 327.7 548.419 327.7Q547.7159 327.7 547.18463 328.27814Q546.669 328.84064 546.669 329.7625Q546.669 330.575 547.169 331.09064Q547.669 331.60626 548.38776 331.60626Q549.12213 331.60626 549.5909 331.09064Q550.05963 330.575 550.05963 329.66876ZM553.169 330.4344L553.169 329.23126L554.37213 329.23126L554.37213 330.4344L553.169 330.4344ZM553.169 335.45L553.169 334.2469L554.37213 334.2469L554.37213 335.45L553.169 335.45ZM555.5909 331.21564Q555.5909 329.6844 555.9034 328.7625Q556.2159 327.825 556.82526 327.325Q557.45026 326.825 558.38776 326.825Q559.07526 326.825 559.5909 327.10626Q560.12213 327.3875 560.4659 327.91876Q560.80963 328.4344 560.99713 329.1844Q561.18463 329.9344 561.18463 331.21564Q561.18463 332.73126 560.87213 333.65314Q560.57526 334.575 559.95026 335.09064Q559.3409 335.59064 558.38776 335.59064Q557.1534 335.59064 556.43463 334.7Q555.5909 333.6375 555.5909 331.21564ZM556.669 331.21564Q556.669 333.325 557.169 334.02814Q557.669 334.73126 558.38776 334.73126Q559.12213 334.73126 559.6065 334.02814Q560.1065 333.325 560.1065 331.21564Q560.1065 329.09064 559.6065 328.40314Q559.12213 327.7 558.37213 327.7Q557.6534 327.7 557.2159 328.3094Q556.669 329.09064 556.669 331.21564ZM562.5909 331.21564Q562.5909 329.6844 562.9034 328.7625Q563.2159 327.825 563.82526 327.325Q564.45026 326.825 565.38776 326.825Q566.07526 326.825 566.5909 327.10626Q567.12213 327.3875 567.4659 327.91876Q567.80963 328.4344 567.99713 329.1844Q568.18463 329.9344 568.18463 331.21564Q568.18463 332.73126 567.87213 333.65314Q567.57526 334.575 566.95026 335.09064Q566.3409 335.59064 565.38776 335.59064Q564.1534 335.59064 563.43463 334.7Q562.5909 333.6375 562.5909 331.21564ZM563.669 331.21564Q563.669 333.325 564.169 334.02814Q564.669 334.73126 565.38776 334.73126Q566.12213 334.73126 566.6065 334.02814Q567.1065 333.325 567.1065 331.21564Q567.1065 329.09064 566.6065 328.40314Q566.12213 327.7 565.37213 327.7Q564.6534 327.7 564.2159 328.3094Q563.669 329.09064 563.669 331.21564Z" fill-rule="nonzero"/><path fill="#000000" d="M549.01276 349.45L549.01276 340.85626L552.26276 340.85626Q553.1065 340.85626 553.55963 340.9344Q554.20026 341.04376 554.62213 341.34064Q555.05963 341.6375 555.30963 342.16876Q555.57526 342.7 555.57526 343.34064Q555.57526 344.4344 554.87213 345.2Q554.18463 345.95 552.3565 345.95L550.1534 345.95L550.1534 349.45L549.01276 349.45ZM550.1534 344.95L552.37213 344.95Q553.4815 344.95 553.93463 344.54376Q554.4034 344.1219 554.4034 343.3719Q554.4034 342.84064 554.12213 342.46564Q553.8565 342.075 553.419 341.95Q553.12213 341.8719 552.3565 341.8719L550.1534 341.8719L550.1534 344.95ZM556.9815 349.45L556.9815 340.85626L558.70026 340.85626L560.7315 346.9344Q561.01276 347.79376 561.13776 348.21564Q561.2784 347.7469 561.5909 346.84064L563.6534 340.85626L565.18463 340.85626L565.18463 349.45L564.0909 349.45L564.0909 342.2625L561.5909 349.45L560.55963 349.45L558.07526 342.1375L558.07526 349.45L556.9815 349.45Z" fill-rule="nonzero"/><path fill="#4285f4" d="M229.0 65.916664C229.0 69.23038 226.3137 71.916664 223.0 71.916664C219.6863 71.916664 217.0 69.23038 217.0 65.916664C217.0 62.60296 219.6863 59.916668 223.0 59.916668C226.3137 59.916668 229.0 62.60296 229.0 65.916664Z" fill-rule="nonzero"/><path fill="#1a1a1a" d="M237.9375 69.916664L237.9375 61.322914L241.75 61.322914Q242.90625 61.322914 243.5 61.55729Q244.09375 61.791664 244.45312 62.385414Q244.8125 62.96354 244.8125 63.666664Q244.8125 64.58854 244.21875 65.21354Q243.625 65.83854 242.39062 66.010414Q242.84375 66.229164 243.07812 66.43229Q243.57812 66.885414 244.01562 67.572914L245.51562 69.916664L244.07812 69.916664L242.95312 68.135414Q242.45312 67.354164 242.125 66.947914Q241.8125 66.541664 241.54688 66.385414Q241.29688 66.21354 241.03125 66.135414Q240.84375 66.104164 240.40625 66.104164L239.07812 66.104164L239.07812 69.916664L237.9375 69.916664ZM239.07812 65.11979L241.53125 65.11979Q242.29688 65.11979 242.73438 64.96354Q243.1875 64.791664 243.40625 64.447914Q243.64062 64.08854 243.64062 63.666664Q243.64062 63.05729 243.1875 62.666664Q242.75 62.27604 241.79688 62.27604L239.07812 62.27604L239.07812 65.11979ZM251.04688 67.916664L252.14062 68.041664Q251.89062 68.99479 251.1875 69.52604Q250.48438 70.05729 249.40625 70.05729Q248.04688 70.05729 247.23438 69.21354Q246.4375 68.36979 246.4375 66.854164Q246.4375 65.291664 247.25 64.43229Q248.0625 63.55729 249.34375 63.55729Q250.59375 63.55729 251.375 64.40104Q252.17188 65.24479 252.17188 66.791664Q252.17188 66.885414 252.17188 67.072914L247.53125 67.072914Q247.59375 68.104164 248.10938 68.65104Q248.625 69.18229 249.40625 69.18229Q249.98438 69.18229 250.39062 68.885414Q250.8125 68.572914 251.04688 67.916664ZM247.59375 66.21354L251.0625 66.21354Q251.0 65.416664 250.67188 65.02604Q250.15625 64.416664 249.35938 64.416664Q248.625 64.416664 248.125 64.90104Q247.64062 65.385414 247.59375 66.21354ZM253.76562 69.916664L253.76562 61.322914L254.82812 61.322914L254.82812 69.916664L253.76562 69.916664ZM260.85938 69.15104Q260.26562 69.65104 259.71875 69.854164Q259.1875 70.05729 258.5625 70.05729Q257.53125 70.05729 256.98438 69.55729Q256.4375 69.05729 256.4375 68.27604Q256.4375 67.822914 256.64062 67.447914Q256.84375 67.05729 257.1875 66.83854Q257.53125 66.604164 257.95312 66.49479Q258.25 66.40104 258.89062 66.322914Q260.15625 66.18229 260.76562 65.96354Q260.76562 65.74479 260.76562 65.697914Q260.76562 65.041664 260.46875 64.77604Q260.0625 64.43229 259.26562 64.43229Q258.53125 64.43229 258.17188 64.697914Q257.8125 64.947914 257.64062 65.604164L256.60938 65.46354Q256.75 64.80729 257.07812 64.40104Q257.40625 63.99479 258.01562 63.77604Q258.625 63.55729 259.42188 63.55729Q260.21875 63.55729 260.71875 63.74479Q261.21875 63.93229 261.45312 64.21354Q261.6875 64.49479 261.78125 64.93229Q261.82812 65.197914 261.82812 65.90104L261.82812 67.30729Q261.82812 68.77604 261.89062 69.166664Q261.96875 69.55729 262.17188 69.916664L261.0625 69.916664Q260.90625 69.58854 260.85938 69.15104ZM260.76562 66.791664Q260.1875 67.02604 259.04688 67.197914Q258.39062 67.291664 258.125 67.416664Q257.85938 67.52604 257.70312 67.74479Q257.5625 67.96354 257.5625 68.24479Q257.5625 68.666664 257.875 68.947914Q258.20312 69.229164 258.8125 69.229164Q259.42188 69.229164 259.89062 68.96354Q260.375 68.697914 260.59375 68.229164Q260.76562 67.86979 260.76562 67.18229L260.76562 66.791664ZM266.09375 68.979164L266.25 69.90104Q265.79688 69.99479 265.45312 69.99479Q264.875 69.99479 264.5625 69.822914Q264.25 69.635414 264.10938 69.33854Q263.98438 69.041664 263.98438 68.08854L263.98438 64.510414L263.21875 64.510414L263.21875 63.697914L263.98438 63.697914L263.98438 62.15104L265.03125 61.52604L265.03125 63.697914L266.09375 63.697914L266.09375 64.510414L265.03125 64.510414L265.03125 68.15104Q265.03125 68.604164 265.07812 68.729164Q265.14062 68.854164 265.26562 68.93229Q265.39062 69.010414 265.625 69.010414Q265.8125 69.010414 266.09375 68.979164ZM266.79688 62.541664L266.79688 61.322914L267.85938 61.322914L267.85938 62.541664L266.79688 62.541664ZM266.79688 69.916664L266.79688 63.697914L267.85938 63.697914L267.85938 69.916664L266.79688 69.916664ZM271.51562 69.916664L269.15625 63.697914L270.26562 63.697914L271.60938 67.416664Q271.8125 68.02604 272.0 68.666664Q272.14062 68.18229 272.39062 67.49479L273.78125 63.697914L274.85938 63.697914L272.5 69.916664L271.51562 69.916664ZM280.04688 67.916664L281.14062 68.041664Q280.89062 68.99479 280.1875 69.52604Q279.48438 70.05729 278.40625 70.05729Q277.04688 70.05729 276.23438 69.21354Q275.4375 68.36979 275.4375 66.854164Q275.4375 65.291664 276.25 64.43229Q277.0625 63.55729 278.34375 63.55729Q279.59375 63.55729 280.375 64.40104Q281.17188 65.24479 281.17188 66.791664Q281.17188 66.885414 281.17188 67.072914L276.53125 67.072914Q276.59375 68.104164 277.10938 68.65104Q277.625 69.18229 278.40625 69.18229Q278.98438 69.18229 279.39062 68.885414Q279.8125 68.572914 280.04688 67.916664ZM276.59375 66.21354L280.0625 66.21354Q280.0 65.416664 279.67188 65.02604Q279.15625 64.416664 278.35938 64.416664Q277.625 64.416664 277.125 64.90104Q276.64062 65.385414 276.59375 66.21354ZM285.96875 69.916664L285.96875 61.322914L287.09375 61.322914L287.09375 64.854164L291.5625 64.854164L291.5625 61.322914L292.70312 61.322914L292.70312 69.916664L291.5625 69.916664L291.5625 65.86979L287.09375 65.86979L287.09375 69.916664L285.96875 69.916664ZM298.875 69.916664L298.875 68.99479Q298.14062 70.05729 296.89062 70.05729Q296.34375 70.05729 295.85938 69.854164Q295.39062 69.635414 295.15625 69.322914Q294.92188 68.99479 294.82812 68.52604Q294.76562 68.229164 294.76562 67.541664L294.76562 63.697914L295.82812 63.697914L295.82812 67.15104Q295.82812 67.96354 295.89062 68.260414Q295.98438 68.666664 296.29688 68.916664Q296.625 69.15104 297.10938 69.15104Q297.57812 69.15104 297.98438 68.916664Q298.40625 68.666664 298.57812 68.24479Q298.76562 67.822914 298.76562 67.02604L298.76562 63.697914L299.8125 63.697914L299.8125 69.916664L298.875 69.916664ZM301.79688 69.916664L301.79688 63.697914L302.73438 63.697914L302.73438 64.572914Q303.03125 64.104164 303.51562 63.83854Q304.0 63.55729 304.625 63.55729Q305.3125 63.55729 305.75 63.83854Q306.20312 64.11979 306.375 64.635414Q307.125 63.55729 308.29688 63.55729Q309.23438 63.55729 309.71875 64.072914Q310.21875 64.572914 310.21875 65.65104L310.21875 69.916664L309.17188 69.916664L309.17188 65.99479Q309.17188 65.36979 309.0625 65.08854Q308.96875 64.80729 308.70312 64.635414Q308.4375 64.46354 308.0625 64.46354Q307.40625 64.46354 306.96875 64.90104Q306.54688 65.33854 306.54688 66.30729L306.54688 69.916664L305.48438 69.916664L305.48438 65.86979Q305.48438 65.166664 305.21875 64.822914Q304.96875 64.46354 304.39062 64.46354Q303.9375 64.46354 303.5625 64.697914Q303.1875 64.93229 303.01562 65.385414Q302.84375 65.83854 302.84375 66.68229L302.84375 69.916664L301.79688 69.916664ZM311.79688 62.541664L311.79688 61.322914L312.85938 61.322914L312.85938 62.541664L311.79688 62.541664ZM311.79688 69.916664L311.79688 63.697914L312.85938 63.697914L312.85938 69.916664L311.79688 69.916664ZM318.82812 69.916664L318.82812 69.135414Q318.23438 70.05729 317.09375 70.05729Q316.34375 70.05729 315.71875 69.65104Q315.09375 69.229164 314.75 68.49479Q314.40625 67.760414 314.40625 66.80729Q314.40625 65.885414 314.71875 65.11979Q315.03125 64.354164 315.65625 63.96354Q316.28125 63.55729 317.04688 63.55729Q317.60938 63.55729 318.04688 63.791664Q318.48438 64.02604 318.76562 64.40104L318.76562 61.322914L319.8125 61.322914L319.8125 69.916664L318.82812 69.916664ZM315.5 66.80729Q315.5 68.010414 316.0 68.604164Q316.5 69.18229 317.1875 69.18229Q317.875 69.18229 318.35938 68.61979Q318.84375 68.05729 318.84375 66.90104Q318.84375 65.61979 318.34375 65.02604Q317.85938 64.43229 317.14062 64.43229Q316.4375 64.43229 315.96875 65.010414Q315.5 65.572914 315.5 66.80729ZM321.79688 62.541664L321.79688 61.322914L322.85938 61.322914L322.85938 62.541664L321.79688 62.541664ZM321.79688 69.916664L321.79688 63.697914L322.85938 63.697914L322.85938 69.916664L321.79688 69.916664ZM327.09375 68.979164L327.25 69.90104Q326.79688 69.99479 326.45312 69.99479Q325.875 69.99479 325.5625 69.822914Q325.25 69.635414 325.10938 69.33854Q324.98438 69.041664 324.98438 68.08854L324.98438 64.510414L324.21875 64.510414L324.21875 63.697914L324.98438 63.697914L324.98438 62.15104L326.03125 61.52604L326.03125 63.697914L327.09375 63.697914L327.09375 64.510414L326.03125 64.510414L326.03125 68.15104Q326.03125 68.604164 326.07812 68.729164Q326.14062 68.854164 326.26562 68.93229Q326.39062 69.010414 326.625 69.010414Q326.8125 69.010414 327.09375 68.979164ZM327.75 72.30729L327.625 71.322914Q327.96875 71.416664 328.23438 71.416664Q328.57812 71.416664 328.78125 71.291664Q329.0 71.18229 329.14062 70.979164Q329.23438 70.80729 329.46875 70.18229Q329.48438 70.104164 329.5625 69.93229L327.1875 63.697914L328.32812 63.697914L329.625 67.291664Q329.875 67.979164 330.07812 68.74479Q330.26562 68.010414 330.51562 67.322914L331.84375 63.697914L332.89062 63.697914L330.53125 70.02604Q330.14062 71.041664 329.9375 71.43229Q329.65625 71.96354 329.28125 72.197914Q328.92188 72.447914 328.42188 72.447914Q328.125 72.447914 327.75 72.30729ZM338.8125 72.447914Q337.9375 71.33854 337.32812 69.86979Q336.73438 68.385414 336.73438 66.80729Q336.73438 65.416664 337.17188 64.135414Q337.70312 62.65104 338.8125 61.18229L339.5625 61.18229Q338.85938 62.40104 338.625 62.916664Q338.26562 63.729164 338.0625 64.604164Q337.8125 65.697914 337.8125 66.80729Q337.8125 69.635414 339.5625 72.447914L338.8125 72.447914ZM340.70312 63.385414Q340.70312 62.46354 341.15625 61.822914Q341.625 61.18229 342.5 61.18229Q343.3125 61.18229 343.84375 61.760414Q344.375 62.33854 344.375 63.447914Q344.375 64.541664 343.82812 65.135414Q343.29688 65.71354 342.51562 65.71354Q341.73438 65.71354 341.21875 65.135414Q340.70312 64.55729 340.70312 63.385414ZM342.53125 61.90104Q342.14062 61.90104 341.875 62.24479Q341.625 62.58854 341.625 63.49479Q341.625 64.322914 341.875 64.666664Q342.14062 64.99479 342.53125 64.99479Q342.9375 64.99479 343.1875 64.65104Q343.45312 64.30729 343.45312 63.416664Q343.45312 62.572914 343.1875 62.24479Q342.92188 61.90104 342.53125 61.90104ZM342.53125 70.229164L347.23438 61.18229L348.09375 61.18229L343.40625 70.229164L342.53125 70.229164ZM346.25 67.90104Q346.25 66.979164 346.70312 66.33854Q347.17188 65.697914 348.0625 65.697914Q348.875 65.697914 349.40625 66.27604Q349.9375 66.83854 349.9375 67.96354Q349.9375 69.05729 349.39062 69.65104Q348.85938 70.229164 348.0625 70.229164Q347.29688 70.229164 346.76562 69.65104Q346.25 69.072914 346.25 67.90104ZM348.09375 66.416664Q347.6875 66.416664 347.42188 66.760414Q347.17188 67.104164 347.17188 68.010414Q347.17188 68.822914 347.4375 69.166664Q347.70312 69.510414 348.09375 69.510414Q348.48438 69.510414 348.75 69.166664Q349.01562 68.822914 349.01562 67.916664Q349.01562 67.08854 348.75 66.760414Q348.48438 66.416664 348.09375 66.416664ZM352.48438 72.447914L351.73438 72.447914Q353.48438 69.635414 353.48438 66.80729Q353.48438 65.71354 353.23438 64.61979Q353.03125 63.74479 352.67188 62.93229Q352.4375 62.416664 351.73438 61.18229L352.48438 61.18229Q353.57812 62.65104 354.10938 64.135414Q354.5625 65.416664 354.5625 66.80729Q354.5625 68.385414 353.95312 69.86979Q353.34375 71.33854 352.48438 72.447914Z" fill-rule="nonzero"/><path stroke="#4285f4" stroke-width="4.0" stroke-linecap="butt" stroke-opacity="0.4" d="M371.0 65.916664L383.0 65.916664" fill-rule="nonzero"/><path fill="#000000" d="M20.315624 40.55L20.315624 23.3625L27.6125 23.3625Q30.3625 23.3625 31.6125 23.83125Q32.8625 24.3 33.6125 25.4875Q34.3625 26.659374 34.3625 28.190624Q34.3625 30.1125 33.221874 31.378124Q32.08125 32.64375 29.83125 32.971874Q30.95625 33.628124 31.675 34.409374Q32.409374 35.190624 33.659374 37.190624L35.753124 40.55L31.6125 40.55L29.096874 36.815624Q27.76875 34.8 27.26875 34.284374Q26.784374 33.76875 26.221874 33.58125Q25.675 33.378124 24.4875 33.378124L23.784374 33.378124L23.784374 40.55L20.315624 40.55ZM23.784374 30.628124L26.346874 30.628124Q28.846874 30.628124 29.45625 30.425Q30.08125 30.20625 30.425 29.690624Q30.784374 29.175 30.784374 28.409374Q30.784374 27.534374 30.315624 27.003124Q29.8625 26.471874 29.01875 26.33125Q28.596874 26.26875 26.4875 26.26875L23.784374 26.26875L23.784374 30.628124ZM44.4875 36.58125L47.76875 37.14375Q47.128124 38.940624 45.753124 39.89375Q44.39375 40.83125 42.346874 40.83125Q39.096874 40.83125 37.55 38.70625Q36.315624 37.003124 36.315624 34.425Q36.315624 31.33125 37.925 29.58125Q39.55 27.815624 42.01875 27.815624Q44.8 27.815624 46.39375 29.659374Q48.003124 31.4875 47.940624 35.26875L39.690624 35.26875Q39.721874 36.7375 40.4875 37.55Q41.253124 38.3625 42.378124 38.3625Q43.159374 38.3625 43.675 37.940624Q44.20625 37.51875 44.4875 36.58125ZM44.675 33.253124Q44.628124 31.83125 43.925 31.096874Q43.221874 30.346874 42.221874 30.346874Q41.14375 30.346874 40.440624 31.128124Q39.7375 31.909374 39.753124 33.253124L44.675 33.253124ZM50.26875 40.55L50.26875 23.3625L53.565624 23.3625L53.565624 40.55L50.26875 40.55ZM59.7375 31.89375L56.753124 31.3625Q57.253124 29.55 58.471874 28.690624Q59.70625 27.815624 62.14375 27.815624Q64.34688 27.815624 65.425 28.346874Q66.50313 28.8625 66.94063 29.675Q67.37813 30.471874 67.37813 32.6125L67.34688 36.45625Q67.34688 38.096874 67.50313 38.878124Q67.65938 39.659374 68.09688 40.55L64.83125 40.55Q64.70625 40.221874 64.51875 39.58125Q64.44063 39.284374 64.39375 39.190624Q63.55 40.003124 62.58125 40.425Q61.628124 40.83125 60.55 40.83125Q58.628124 40.83125 57.51875 39.784374Q56.409374 38.7375 56.409374 37.14375Q56.409374 36.096874 56.909374 35.26875Q57.409374 34.440624 58.315624 34.003124Q59.2375 33.565624 60.940624 33.2375Q63.253124 32.8 64.14375 32.425L64.14375 32.096874Q64.14375 31.14375 63.675 30.753124Q63.20625 30.346874 61.909374 30.346874Q61.01875 30.346874 60.51875 30.690624Q60.034374 31.034374 59.7375 31.89375ZM64.14375 34.565624Q63.503124 34.784374 62.128124 35.08125Q60.76875 35.3625 60.346874 35.64375Q59.70625 36.1125 59.70625 36.815624Q59.70625 37.503124 60.221874 38.003124Q60.7375 38.503124 61.534374 38.503124Q62.425 38.503124 63.221874 37.925Q63.83125 37.471874 64.01875 36.83125Q64.14375 36.409374 64.14375 35.221874L64.14375 34.565624ZM75.9875 28.096874L75.9875 30.721874L73.7375 30.721874L73.7375 35.7375Q73.7375 37.26875 73.8 37.51875Q73.8625 37.76875 74.08125 37.940624Q74.31563 38.096874 74.64375 38.096874Q75.09688 38.096874 75.97188 37.784374L76.25313 40.33125Q75.09688 40.83125 73.64375 40.83125Q72.75313 40.83125 72.03438 40.534374Q71.33125 40.2375 70.9875 39.76875Q70.65938 39.284374 70.53438 38.471874Q70.425 37.89375 70.425 36.159374L70.425 30.721874L68.90938 30.721874L68.90938 28.096874L70.425 28.096874L70.425 25.628124L73.7375 23.70625L73.7375 28.096874L75.9875 28.096874ZM78.26875 26.409374L78.26875 23.3625L81.56563 23.3625L81.56563 26.409374L78.26875 26.409374ZM78.26875 40.55L78.26875 28.096874L81.56563 28.096874L81.56563 40.55L78.26875 40.55ZM88.69063 40.55L83.675 28.096874L87.14375 28.096874L89.4875 34.45625L90.15938 36.58125Q90.425 35.76875 90.50313 35.503124Q90.65938 34.9875 90.84688 34.45625L93.22188 28.096874L96.6125 28.096874L91.65938 40.55L88.69063 40.55ZM105.4875 36.58125L108.76875 37.14375Q108.12813 38.940624 106.75313 39.89375Q105.39375 40.83125 103.34688 40.83125Q100.09688 40.83125 98.55 38.70625Q97.31563 37.003124 97.31563 34.425Q97.31563 31.33125 98.925 29.58125Q100.55 27.815624 103.01875 27.815624Q105.8 27.815624 107.39375 29.659374Q109.00313 31.4875 108.94063 35.26875L100.69063 35.26875Q100.72188 36.7375 101.4875 37.55Q102.25313 38.3625 103.37813 38.3625Q104.15938 38.3625 104.675 37.940624Q105.20625 37.51875 105.4875 36.58125ZM105.675 33.253124Q105.62813 31.83125 104.925 31.096874Q104.22188 30.346874 103.22188 30.346874Q102.14375 30.346874 101.44063 31.128124Q100.7375 31.909374 100.75313 33.253124L105.675 33.253124ZM118.31563 40.55L118.31563 23.3625L121.78438 23.3625L121.78438 30.128124L128.58125 30.128124L128.58125 23.3625L132.05 23.3625L132.05 40.55L128.58125 40.55L128.58125 33.034374L121.78438 33.034374L121.78438 40.55L118.31563 40.55ZM143.47188 40.55L143.47188 38.690624Q142.78438 39.675 141.675 40.253124Q140.56563 40.83125 139.34688 40.83125Q138.08125 40.83125 137.08125 40.284374Q136.09688 39.721874 135.64375 38.7375Q135.20625 37.7375 135.20625 35.971874L135.20625 28.096874L138.50313 28.096874L138.50313 33.815624Q138.50313 36.440624 138.675 37.034374Q138.8625 37.628124 139.33125 37.971874Q139.81563 38.315624 140.56563 38.315624Q141.40938 38.315624 142.06563 37.8625Q142.7375 37.39375 142.9875 36.70625Q143.2375 36.01875 143.2375 33.346874L143.2375 28.096874L146.51875 28.096874L146.51875 40.55L143.47188 40.55ZM150.03438 28.096874L153.06563 28.096874L153.06563 29.8Q154.69063 27.815624 156.94063 27.815624Q158.14375 27.815624 159.01875 28.315624Q159.89375 28.8 160.45625 29.8Q161.28438 28.8 162.22188 28.315624Q163.175 27.815624 164.25313 27.815624Q165.62813 27.815624 166.56563 28.378124Q167.51875 28.940624 167.9875 30.01875Q168.33125 30.815624 168.33125 32.596874L168.33125 40.55L165.03438 40.55L165.03438 33.440624Q165.03438 31.58125 164.70625 31.05Q164.2375 30.346874 163.3 30.346874Q162.59688 30.346874 161.9875 30.76875Q161.37813 31.190624 161.1125 32.003124Q160.84688 32.815624 160.84688 34.565624L160.84688 40.55L157.55 40.55L157.55 33.721874Q157.55 31.909374 157.37813 31.39375Q157.20625 30.8625 156.83125 30.6125Q156.45625 30.346874 155.83125 30.346874Q155.06563 30.346874 154.45625 30.753124Q153.84688 31.159374 153.58125 31.940624Q153.31563 32.70625 153.31563 34.503124L153.31563 40.55L150.03438 40.55L150.03438 28.096874ZM171.26875 26.409374L171.26875 23.3625L174.56563 23.3625L174.56563 26.409374L171.26875 26.409374ZM171.26875 40.55L171.26875 28.096874L174.56563 28.096874L174.56563 40.55L171.26875 40.55ZM189.69063 40.55L186.62813 40.55L186.62813 38.721874Q185.8625 39.784374 184.83125 40.315624Q183.8 40.83125 182.7375 40.83125Q180.59688 40.83125 179.06563 39.1125Q177.53438 37.378124 177.53438 34.284374Q177.53438 31.1125 179.01875 29.471874Q180.51875 27.815624 182.78438 27.815624Q184.87813 27.815624 186.39375 29.55L186.39375 23.3625L189.69063 23.3625L189.69063 40.55ZM180.89375 34.05Q180.89375 36.05 181.45625 36.940624Q182.25313 38.221874 183.675 38.221874Q184.81563 38.221874 185.6125 37.26875Q186.40938 36.3 186.40938 34.378124Q186.40938 32.221874 185.62813 31.284374Q184.8625 30.346874 183.65938 30.346874Q182.4875 30.346874 181.69063 31.284374Q180.89375 32.20625 180.89375 34.05ZM193.26875 26.409374L193.26875 23.3625L196.56563 23.3625L196.56563 26.409374L193.26875 26.409374ZM193.26875 40.55L193.26875 28.096874L196.56563 28.096874L196.56563 40.55L193.26875 40.55ZM205.9875 28.096874L205.9875 30.721874L203.7375 30.721874L203.7375 35.7375Q203.7375 37.26875 203.8 37.51875Q203.8625 37.76875 204.08125 37.940624Q204.31563 38.096874 204.64375 38.096874Q205.09688 38.096874 205.97188 37.784374L206.25313 40.33125Q205.09688 40.83125 203.64375 40.83125Q202.75313 40.83125 202.03438 40.534374Q201.33125 40.2375 200.9875 39.76875Q200.65938 39.284374 200.53438 38.471874Q200.425 37.89375 200.425 36.159374L200.425 30.721874L198.90938 30.721874L198.90938 28.096874L200.425 28.096874L200.425 25.628124L203.7375 23.70625L203.7375 28.096874L205.9875 28.096874ZM206.72188 28.096874L210.22188 28.096874L213.19063 36.940624L216.09688 28.096874L219.51875 28.096874L215.1125 40.08125L214.33125 42.253124Q213.89375 43.346874 213.50313 43.909374Q213.1125 44.4875 212.59688 44.846874Q212.09688 45.20625 211.34688 45.39375Q210.6125 45.596874 209.675 45.596874Q208.72188 45.596874 207.8 45.409374L207.51875 42.83125Q208.28438 42.971874 208.90938 42.971874Q210.05 42.971874 210.59688 42.3Q211.15938 41.628124 211.45625 40.58125L206.72188 28.096874Z" fill-rule="nonzero"/></svg>