<svg version="1.1" viewBox="0.0 0.0 600.0 371.0" fill="none" stroke="none" stroke-linecap="square" stroke-miterlimit="10" width="600" height="371" xmlns:xlink="http://www.w3.org/1999/xlink" xmlns="http://www.w3.org/2000/svg"><path fill="#ffffff" d="M0 0L600.0 0L600.0 371.0L0 371.0L0 0Z" fill-rule="nonzero"/><path stroke="#cccccc" stroke-width="1.0" stroke-linecap="butt" d="M45.5 318.5L581.5 318.5" fill-rule="nonzero"/><path stroke="#cccccc" stroke-width="1.0" stroke-linecap="butt" d="M45.5 261.5L581.5 261.5" fill-rule="nonzero"/><path stroke="#333333" stroke-width="1.0" stroke-linecap="butt" d="M45.5 205.5L581.5 205.5" fill-rule="nonzero"/><path stroke="#cccccc" stroke-width="1.0" stroke-linecap="butt" d="M45.5 148.5L581.5 148.5" fill-rule="nonzero"/><path stroke="#cccccc" stroke-width="1.0" stroke-linecap="butt" d="M45.5 92.5L581.5 92.5" fill-rule="nonzero"/><path stroke="#eeeeee" stroke-width="1.0" stroke-linecap="butt" d="M69.90909 189.36667L69.90909 205.36667" fill-rule="nonzero"/><path stroke="#eeeeee" stroke-width="1.0" stroke-linecap="butt" d="M118.62727 189.36667L118.62727 205.36667" fill-rule="nonzero"/><path stroke="#eeeeee" stroke-width="1.0" stroke-linecap="butt" d="M167.34546 189.36667L167.34546 205.36667" fill-rule="nonzero"/><path stroke="#eeeeee" stroke-width="1.0" stroke-linecap="butt" d="M216.06363 189.36667L216.06363 205.36667" fill-rule="nonzero"/><path stroke="#eeeeee" stroke-width="1.0" stroke-linecap="butt" d="M264.78183 189.36667L264.78183 205.36667" fill-rule="nonzero"/><path stroke="#eeeeee" stroke-width="1.0" stroke-linecap="butt" d="M313.5 189.36667L313.5 205.36667" fill-rule="nonzero"/><path stroke="#eeeeee" stroke-width="1.0" stroke-linecap="butt" d="M362.21817 189.36667L362.21817 205.36667" fill-rule="nonzero"/><path stroke="#eeeeee" stroke-width="1.0" stroke-linecap="butt" d="M410.93637 189.36667L410.93637 205.36667" fill-rule="nonzero"/><path stroke="#eeeeee" stroke-width="1.0" stroke-linecap="butt" d="M459.65454 189.36667L459.65454 205.36667" fill-rule="nonzero"/><path stroke="#eeeeee" stroke-width="1.0" stroke-linecap="butt" d="M508.37274 189.36667L508.37274 205.36667" fill-rule="nonzero"/><path stroke="#eeeeee" stroke-width="1.0" stroke-linecap="butt" d="M557.0909 189.36667L557.0909 205.36667" fill-rule="nonzero"/><clipPath id="id_0"><path d="M45.55 92.28333L581.45 92.28333L581.45 318.45L45.55 318.45L45.55 92.28333Z" clip-rule="nonzero"/></clipPath><path stroke="#4a4aff" stroke-width="1.0" stroke-linecap="butt" clip-path="url(#id_0)" d="M69.90909 205.36667L69.90909 205.36667" fill-rule="nonzero"/><path stroke="#4a4aff" stroke-width="1.0" stroke-linecap="butt" clip-path="url(#id_0)" d="M63.909092 205.36667L75.90909 205.36667" fill-rule="nonzero"/><path stroke="#4a4aff" stroke-width="1.0" stroke-linecap="butt" clip-path="url(#id_0)" d="M63.909092 205.36667L75.90909 205.36667" fill-rule="nonzero"/><path stroke="#4a4aff" stroke-width="1.0" stroke-linecap="butt" clip-path="url(#id_0)" d="M118.62727 205.36667L118.62727 205.36667" fill-rule="nonzero"/><path stroke="#4a4aff" stroke-width="1.0" stroke-linecap="butt" clip-path="url(#id_0)" d="M112.62727 205.36667L124.62727 205.36667" fill-rule="nonzero"/><path stroke="#4a4aff" stroke-width="1.0" stroke-linecap="butt" clip-path="url(#id_0)" d="M112.62727 205.36667L124.62727 205.36667" fill-rule="nonzero"/><path stroke="#4a4aff" stroke-width="1.0" stroke-linecap="butt" clip-path="url(#id_0)" d="M167.34546 205.36667L167.34546 205.36667" fill-rule="nonzero"/><path stroke="#4a4aff" stroke-width="1.0" stroke-linecap="butt" clip-path="url(#id_0)" d="M161.34546 205.36667L173.34546 205.36667" fill-rule="nonzero"/><path stroke="#4a4aff" stroke-width="1.0" stroke-linecap="butt" clip-path="url(#id_0)" d="M161.34546 205.36667L173.34546 205.36667" fill-rule="nonzero"/><path stroke="#4a4aff" stroke-width="1.0" stroke-linecap="butt" clip-path="url(#id_0)" d="M216.06363 205.36667L216.06363 205.36667" fill-rule="nonzero"/><path stroke="#4a4aff" stroke-width="1.0" stroke-linecap="butt" clip-path="url(#id_0)" d="M210.06363 205.36667L222.06363 205.36667" fill-rule="nonzero"/><path stroke="#4a4aff" stroke-width="1.0" stroke-linecap="butt" clip-path="url(#id_0)" d="M210.06363 205.36667L222.06363 205.36667" fill-rule="nonzero"/><path stroke="#4a4aff" stroke-width="1.0" stroke-linecap="butt" clip-path="url(#id_0)" d="M264.78183 205.36667L264.78183 205.36667" fill-rule="nonzero"/><path stroke="#4a4aff" stroke-width="1.0" stroke-linecap="butt" clip-path="url(#id_0)" d="M258.78183 205.36667L270.78183 205.36667" fill-rule="nonzero"/><path stroke="#4a4aff" stroke-width="1.0" stroke-linecap="butt" clip-path="url(#id_0)" d="M258.78183 205.36667L270.78183 205.36667" fill-rule="nonzero"/><path stroke="#4a4aff" stroke-width="1.0" stroke-linecap="butt" clip-path="url(#id_0)" d="M313.5 205.36667L313.5 205.36667" fill-rule="nonzero"/><path stroke="#4a4aff" stroke-width="1.0" stroke-linecap="butt" clip-path="url(#id_0)" d="M307.5 205.36667L319.5 205.36667" fill-rule="nonzero"/><path stroke="#4a4aff" stroke-width="1.0" stroke-linecap="butt" clip-path="url(#id_0)" d="M307.5 205.36667L319.5 205.36667" fill-rule="nonzero"/><path stroke="#4a4aff" stroke-width="1.0" stroke-linecap="butt" clip-path="url(#id_0)" d="M362.21817 205.36667L362.21817 205.36667" fill-rule="nonzero"/><path stroke="#4a4aff" stroke-width="1.0" stroke-linecap="butt" clip-path="url(#id_0)" d="M356.21817 205.36667L368.21817 205.36667" fill-rule="nonzero"/><path stroke="#4a4aff" stroke-width="1.0" stroke-linecap="butt" clip-path="url(#id_0)" d="M356.21817 205.36667L368.21817 205.36667" fill-rule="nonzero"/><path stroke="#4a4aff" stroke-width="1.0" stroke-linecap="butt" clip-path="url(#id_0)" d="M410.93637 205.36667L410.93637 205.36667" fill-rule="nonzero"/><path stroke="#4a4aff" stroke-width="1.0" stroke-linecap="butt" clip-path="url(#id_0)" d="M404.93637 205.36667L416.93637 205.36667" fill-rule="nonzero"/><path stroke="#4a4aff" stroke-width="1.0" stroke-linecap="butt" clip-path="url(#id_0)" d="M404.93637 205.36667L416.93637 205.36667" fill-rule="nonzero"/><path stroke="#4a4aff" stroke-width="1.0" stroke-linecap="butt" clip-path="url(#id_0)" d="M459.65454 205.36667L459.65454 205.36667" fill-rule="nonzero"/><path stroke="#4a4aff" stroke-width="1.0" stroke-linecap="butt" clip-path="url(#id_0)" d="M453.65454 205.36667L465.65454 205.36667" fill-rule="nonzero"/><path stroke="#4a4aff" stroke-width="1.0" stroke-linecap="butt" clip-path="url(#id_0)" d="M453.65454 205.36667L465.65454 205.36667" fill-rule="nonzero"/><path stroke="#4a4aff" stroke-width="1.0" stroke-linecap="butt" clip-path="url(#id_0)" d="M508.37274 205.36667L508.37274 205.36667" fill-rule="nonzero"/><path stroke="#4a4aff" stroke-width="1.0" stroke-linecap="butt" clip-path="url(#id_0)" d="M502.37274 205.36667L514.37274 205.36667" fill-rule="nonzero"/><path stroke="#4a4aff" stroke-width="1.0" stroke-linecap="butt" clip-path="url(#id_0)" d="M502.37274 205.36667L514.37274 205.36667" fill-rule="nonzero"/><path stroke="#4a4aff" stroke-width="1.0" stroke-linecap="butt" clip-path="url(#id_0)" d="M557.0909 205.36667L557.0909 205.36667" fill-rule="nonzero"/><path stroke="#4a4aff" stroke-width="1.0" stroke-linecap="butt" clip-path="url(#id_0)" d="M551.0909 205.36667L563.0909 205.36667" fill-rule="nonzero"/><path stroke="#4a4aff" stroke-width="1.0" stroke-linecap="butt" clip-path="url(#id_0)" d="M551.0909 205.36667L563.0909 205.36667" fill-rule="nonzero"/><path stroke="#0000ff" stroke-width="2.0" stroke-linecap="butt" clip-path="url(#id_0)" d="M69.90909 205.36667C69.90909 205.36667 102.38788 205.36667 118.62727 205.36667C134.86667 205.36667 151.10606 205.36667 167.34546 205.36667C183.58485 205.36667 199.82425 205.36667 216.06363 205.36667C232.30302 205.36667 248.54242 205.36667 264.78183 205.36667C281.0212 205.36667 297.26062 205.36667 313.5 205.36667C329.73938 205.36667 345.9788 205.36667 362.21817 205.36667C378.45758 205.36667 394.69696 205.36667 410.93637 205.36667C427.17575 205.36667 443.41516 205.36667 459.65454 205.36667C475.89395 205.36667 492.13333 205.36667 508.37274 205.36667C524.6121 205.36667 557.0909 205.36667 557.0909 205.36667" fill-rule="nonzero"/><path stroke="#0000ff" stroke-width="2.0" stroke-linecap="butt" stroke-opacity="0.4" clip-path="url(#id_0)" d="M0 205.36667L581.45 205.36667" fill-rule="nonzero"/><path fill="#0000ff" clip-path="url(#id_0)" d="M75.90909 205.36667C75.90909 208.68037 73.2228 211.36667 69.90909 211.36667C66.59538 211.36667 63.909092 208.68037 63.909092 205.36667C63.909092 202.05296 66.59538 199.36667 69.90909 199.36667C73.2228 199.36667 75.90909 202.05296 75.90909 205.36667Z" fill-rule="nonzero"/><path fill="#0000ff" clip-path="url(#id_0)" d="M124.62727 205.36667C124.62727 208.68037 121.94098 211.36667 118.62727 211.36667C115.31356 211.36667 112.62727 208.68037 112.62727 205.36667C112.62727 202.05296 115.31356 199.36667 118.62727 199.36667C121.94098 199.36667 124.62727 202.05296 124.62727 205.36667Z" fill-rule="nonzero"/><path fill="#0000ff" clip-path="url(#id_0)" d="M173.34546 205.36667C173.34546 208.68037 170.65916 211.36667 167.34546 211.36667C164.03175 211.36667 161.34546 208.68037 161.34546 205.36667C161.34546 202.05296 164.03175 199.36667 167.34546 199.36667C170.65916 199.36667 173.34546 202.05296 173.34546 205.36667Z" fill-rule="nonzero"/><path fill="#0000ff" clip-path="url(#id_0)" d="M222.06363 205.36667C222.06363 208.68037 219.37735 211.36667 216.06363 211.36667C212.74992 211.36667 210.06363 208.68037 210.06363 205.36667C210.06363 202.05296 212.74992 199.36667 216.06363 199.36667C219.37735 199.36667 222.06363 202.05296 222.06363 205.36667Z" fill-rule="nonzero"/><path fill="#0000ff" clip-path="url(#id_0)" d="M270.78183 205.36667C270.78183 208.68037 268.09552 211.36667 264.78183 211.36667C261.4681 211.36667 258.78183 208.68037 258.78183 205.36667C258.78183 202.05296 261.4681 199.36667 264.78183 199.36667C268.09552 199.36667 270.78183 202.05296 270.78183 205.36667Z" fill-rule="nonzero"/><path fill="#0000ff" clip-path="url(#id_0)" d="M319.5 205.36667C319.5 208.68037 316.81372 211.36667 313.5 211.36667C310.18628 211.36667 307.5 208.68037 307.5 205.36667C307.5 202.05296 310.18628 199.36667 313.5 199.36667C316.81372 199.36667 319.5 202.05296 319.5 205.36667Z" fill-rule="nonzero"/><path fill="#0000ff" clip-path="url(#id_0)" d="M368.21817 205.36667C368.21817 208.68037 365.5319 211.36667 362.21817 211.36667C358.90448 211.36667 356.21817 208.68037 356.21817 205.36667C356.21817 202.05296 358.90448 199.36667 362.21817 199.36667C365.5319 199.36667 368.21817 202.05296 368.21817 205.36667Z" fill-rule="nonzero"/><path fill="#0000ff" clip-path="url(#id_0)" d="M416.93637 205.36667C416.93637 208.68037 414.25006 211.36667 410.93637 211.36667C407.62265 211.36667 404.93637 208.68037 404.93637 205.36667C404.93637 202.05296 407.62265 199.36667 410.93637 199.36667C414.25006 199.36667 416.93637 202.05296 416.93637 205.36667Z" fill-rule="nonzero"/><path fill="#0000ff" clip-path="url(#id_0)" d="M465.65454 205.36667C465.65454 208.68037 462.96826 211.36667 459.65454 211.36667C456.34085 211.36667 453.65454 208.68037 453.65454 205.36667C453.65454 202.05296 456.34085 199.36667 459.65454 199.36667C462.96826 199.36667 465.65454 202.05296 465.65454 205.36667Z" fill-rule="nonzero"/><path fill="#0000ff" clip-path="url(#id_0)" d="M514.37274 205.36667C514.37274 208.68037 511.68643 211.36667 508.37274 211.36667C505.05902 211.36667 502.37274 208.68037 502.37274 205.36667C502.37274 202.05296 505.05902 199.36667 508.37274 199.36667C511.68643 199.36667 514.37274 202.05296 514.37274 205.36667Z" fill-rule="nonzero"/><path fill="#0000ff" clip-path="url(#id_0)" d="M563.0909 205.36667C563.0909 208.68037 560.4046 211.36667 557.0909 211.36667C553.7772 211.36667 551.0909 208.68037 551.0909 205.36667C551.0909 202.05296 553.7772 199.36667 557.0909 199.36667C560.4046 199.36667 563.0909 202.05296 563.0909 205.36667Z" fill-rule="nonzero"/><path stroke="#ffffff" stroke-width="3.0" stroke-linejoin="round" stroke-linecap="round" d="M72.47159 183.72604Q72.47159 185.6323 71.81534 186.5698Q71.17471 187.49167 69.78409 187.49167Q68.42471 187.49167 67.76846 186.58542Q67.11221 185.67917 67.08096 183.86667L67.08096 182.42917Q67.08096 180.53854 67.72159 179.6323Q68.37784 178.71042 69.76846 178.71042Q71.14346 178.71042 71.79971 179.60104Q72.45596 180.47604 72.47159 182.3198L72.47159 183.72604ZM71.37784 182.24167Q71.37784 180.86667 70.98721 180.24167Q70.61221 179.60104 69.76846 179.60104Q68.94034 179.60104 68.54971 180.24167Q68.17471 180.86667 68.17471 182.16354L68.17471 183.89792Q68.17471 185.27292 68.56534 185.9448Q68.97159 186.60104 69.78409 186.60104Q70.58096 186.60104 70.97159 185.97604Q71.36221 185.35104 71.37784 184.02292L71.37784 182.24167Z" fill-rule="nonzero"/><path fill="#0000ff" d="M72.47159 183.72604Q72.47159 185.6323 71.81534 186.5698Q71.17471 187.49167 69.78409 187.49167Q68.42471 187.49167 67.76846 186.58542Q67.11221 185.67917 67.08096 183.86667L67.08096 182.42917Q67.08096 180.53854 67.72159 179.6323Q68.37784 178.71042 69.76846 178.71042Q71.14346 178.71042 71.79971 179.60104Q72.45596 180.47604 72.47159 182.3198L72.47159 183.72604ZM71.37784 182.24167Q71.37784 180.86667 70.98721 180.24167Q70.61221 179.60104 69.76846 179.60104Q68.94034 179.60104 68.54971 180.24167Q68.17471 180.86667 68.17471 182.16354L68.17471 183.89792Q68.17471 185.27292 68.56534 185.9448Q68.97159 186.60104 69.78409 186.60104Q70.58096 186.60104 70.97159 185.97604Q71.36221 185.35104 71.37784 184.02292L71.37784 182.24167Z" fill-rule="nonzero"/><path stroke="#ffffff" stroke-width="3.0" stroke-linejoin="round" stroke-linecap="round" d="M121.18977 183.72604Q121.18977 185.6323 120.53352 186.5698Q119.8929 187.49167 118.50227 187.49167Q117.1429 187.49167 116.48665 186.58542Q115.8304 185.67917 115.79915 183.86667L115.79915 182.42917Q115.79915 180.53854 116.43977 179.6323Q117.09602 178.71042 118.48665 178.71042Q119.86165 178.71042 120.5179 179.60104Q121.17415 180.47604 121.18977 182.3198L121.18977 183.72604ZM120.09602 182.24167Q120.09602 180.86667 119.7054 180.24167Q119.3304 179.60104 118.48665 179.60104Q117.65852 179.60104 117.2679 180.24167Q116.8929 180.86667 116.8929 182.16354L116.8929 183.89792Q116.8929 185.27292 117.28352 185.9448Q117.68977 186.60104 118.50227 186.60104Q119.29915 186.60104 119.68977 185.97604Q120.0804 185.35104 120.09602 184.02292L120.09602 182.24167Z" fill-rule="nonzero"/><path fill="#0000ff" d="M121.18977 183.72604Q121.18977 185.6323 120.53352 186.5698Q119.8929 187.49167 118.50227 187.49167Q117.1429 187.49167 116.48665 186.58542Q115.8304 185.67917 115.79915 183.86667L115.79915 182.42917Q115.79915 180.53854 116.43977 179.6323Q117.09602 178.71042 118.48665 178.71042Q119.86165 178.71042 120.5179 179.60104Q121.17415 180.47604 121.18977 182.3198L121.18977 183.72604ZM120.09602 182.24167Q120.09602 180.86667 119.7054 180.24167Q119.3304 179.60104 118.48665 179.60104Q117.65852 179.60104 117.2679 180.24167Q116.8929 180.86667 116.8929 182.16354L116.8929 183.89792Q116.8929 185.27292 117.28352 185.9448Q117.68977 186.60104 118.50227 186.60104Q119.29915 186.60104 119.68977 185.97604Q120.0804 185.35104 120.09602 184.02292L120.09602 182.24167Z" fill-rule="nonzero"/><path stroke="#ffffff" stroke-width="3.0" stroke-linejoin="round" stroke-linecap="round" d="M169.90796 183.72604Q169.90796 185.6323 169.25171 186.5698Q168.61108 187.49167 167.22046 187.49167Q165.86108 187.49167 165.20483 186.58542Q164.54858 185.67917 164.51733 183.86667L164.51733 182.42917Q164.51733 180.53854 165.15796 179.6323Q165.81421 178.71042 167.20483 178.71042Q168.57983 178.71042 169.23608 179.60104Q169.89233 180.47604 169.90796 182.3198L169.90796 183.72604ZM168.81421 182.24167Q168.81421 180.86667 168.42358 180.24167Q168.04858 179.60104 167.20483 179.60104Q166.37671 179.60104 165.98608 180.24167Q165.61108 180.86667 165.61108 182.16354L165.61108 183.89792Q165.61108 185.27292 166.00171 185.9448Q166.40796 186.60104 167.22046 186.60104Q168.01733 186.60104 168.40796 185.97604Q168.79858 185.35104 168.81421 184.02292L168.81421 182.24167Z" fill-rule="nonzero"/><path fill="#0000ff" d="M169.90796 183.72604Q169.90796 185.6323 169.25171 186.5698Q168.61108 187.49167 167.22046 187.49167Q165.86108 187.49167 165.20483 186.58542Q164.54858 185.67917 164.51733 183.86667L164.51733 182.42917Q164.51733 180.53854 165.15796 179.6323Q165.81421 178.71042 167.20483 178.71042Q168.57983 178.71042 169.23608 179.60104Q169.89233 180.47604 169.90796 182.3198L169.90796 183.72604ZM168.81421 182.24167Q168.81421 180.86667 168.42358 180.24167Q168.04858 179.60104 167.20483 179.60104Q166.37671 179.60104 165.98608 180.24167Q165.61108 180.86667 165.61108 182.16354L165.61108 183.89792Q165.61108 185.27292 166.00171 185.9448Q166.40796 186.60104 167.22046 186.60104Q168.01733 186.60104 168.40796 185.97604Q168.79858 185.35104 168.81421 184.02292L168.81421 182.24167Z" fill-rule="nonzero"/><path stroke="#ffffff" stroke-width="3.0" stroke-linejoin="round" stroke-linecap="round" d="M218.62613 183.72604Q218.62613 185.6323 217.96988 186.5698Q217.32925 187.49167 215.93863 187.49167Q214.57925 187.49167 213.923 186.58542Q213.26675 185.67917 213.2355 183.86667L213.2355 182.42917Q213.2355 180.53854 213.87613 179.6323Q214.53238 178.71042 215.923 178.71042Q217.298 178.71042 217.95425 179.60104Q218.6105 180.47604 218.62613 182.3198L218.62613 183.72604ZM217.53238 182.24167Q217.53238 180.86667 217.14175 180.24167Q216.76675 179.60104 215.923 179.60104Q215.09488 179.60104 214.70425 180.24167Q214.32925 180.86667 214.32925 182.16354L214.32925 183.89792Q214.32925 185.27292 214.71988 185.9448Q215.12613 186.60104 215.93863 186.60104Q216.7355 186.60104 217.12613 185.97604Q217.51675 185.35104 217.53238 184.02292L217.53238 182.24167Z" fill-rule="nonzero"/><path fill="#0000ff" d="M218.62613 183.72604Q218.62613 185.6323 217.96988 186.5698Q217.32925 187.49167 215.93863 187.49167Q214.57925 187.49167 213.923 186.58542Q213.26675 185.67917 213.2355 183.86667L213.2355 182.42917Q213.2355 180.53854 213.87613 179.6323Q214.53238 178.71042 215.923 178.71042Q217.298 178.71042 217.95425 179.60104Q218.6105 180.47604 218.62613 182.3198L218.62613 183.72604ZM217.53238 182.24167Q217.53238 180.86667 217.14175 180.24167Q216.76675 179.60104 215.923 179.60104Q215.09488 179.60104 214.70425 180.24167Q214.32925 180.86667 214.32925 182.16354L214.32925 183.89792Q214.32925 185.27292 214.71988 185.9448Q215.12613 186.60104 215.93863 186.60104Q216.7355 186.60104 217.12613 185.97604Q217.51675 185.35104 217.53238 184.02292L217.53238 182.24167Z" fill-rule="nonzero"/><path stroke="#ffffff" stroke-width="3.0" stroke-linejoin="round" stroke-linecap="round" d="M267.34433 183.72604Q267.34433 185.6323 266.68808 186.5698Q266.04745 187.49167 264.65683 187.49167Q263.29745 187.49167 262.6412 186.58542Q261.98495 185.67917 261.9537 183.86667L261.9537 182.42917Q261.9537 180.53854 262.59433 179.6323Q263.25058 178.71042 264.6412 178.71042Q266.0162 178.71042 266.67245 179.60104Q267.3287 180.47604 267.34433 182.3198L267.34433 183.72604ZM266.25058 182.24167Q266.25058 180.86667 265.85995 180.24167Q265.48495 179.60104 264.6412 179.60104Q263.81308 179.60104 263.42245 180.24167Q263.04745 180.86667 263.04745 182.16354L263.04745 183.89792Q263.04745 185.27292 263.43808 185.9448Q263.84433 186.60104 264.65683 186.60104Q265.4537 186.60104 265.84433 185.97604Q266.23495 185.35104 266.25058 184.02292L266.25058 182.24167Z" fill-rule="nonzero"/><path fill="#0000ff" d="M267.34433 183.72604Q267.34433 185.6323 266.68808 186.5698Q266.04745 187.49167 264.65683 187.49167Q263.29745 187.49167 262.6412 186.58542Q261.98495 185.67917 261.9537 183.86667L261.9537 182.42917Q261.9537 180.53854 262.59433 179.6323Q263.25058 178.71042 264.6412 178.71042Q266.0162 178.71042 266.67245 179.60104Q267.3287 180.47604 267.34433 182.3198L267.34433 183.72604ZM266.25058 182.24167Q266.25058 180.86667 265.85995 180.24167Q265.48495 179.60104 264.6412 179.60104Q263.81308 179.60104 263.42245 180.24167Q263.04745 180.86667 263.04745 182.16354L263.04745 183.89792Q263.04745 185.27292 263.43808 185.9448Q263.84433 186.60104 264.65683 186.60104Q265.4537 186.60104 265.84433 185.97604Q266.23495 185.35104 266.25058 184.02292L266.25058 182.24167Z" fill-rule="nonzero"/><path stroke="#ffffff" stroke-width="3.0" stroke-linejoin="round" stroke-linecap="round" d="M316.0625 183.72604Q316.0625 185.6323 315.40625 186.5698Q314.76562 187.49167 313.375 187.49167Q312.01562 187.49167 311.35938 186.58542Q310.70312 185.67917 310.67188 183.86667L310.67188 182.42917Q310.67188 180.53854 311.3125 179.6323Q311.96875 178.71042 313.35938 178.71042Q314.73438 178.71042 315.39062 179.60104Q316.04688 180.47604 316.0625 182.3198L316.0625 183.72604ZM314.96875 182.24167Q314.96875 180.86667 314.57812 180.24167Q314.20312 179.60104 313.35938 179.60104Q312.53125 179.60104 312.14062 180.24167Q311.76562 180.86667 311.76562 182.16354L311.76562 183.89792Q311.76562 185.27292 312.15625 185.9448Q312.5625 186.60104 313.375 186.60104Q314.17188 186.60104 314.5625 185.97604Q314.95312 185.35104 314.96875 184.02292L314.96875 182.24167Z" fill-rule="nonzero"/><path fill="#0000ff" d="M316.0625 183.72604Q316.0625 185.6323 315.40625 186.5698Q314.76562 187.49167 313.375 187.49167Q312.01562 187.49167 311.35938 186.58542Q310.70312 185.67917 310.67188 183.86667L310.67188 182.42917Q310.67188 180.53854 311.3125 179.6323Q311.96875 178.71042 313.35938 178.71042Q314.73438 178.71042 315.39062 179.60104Q316.04688 180.47604 316.0625 182.3198L316.0625 183.72604ZM314.96875 182.24167Q314.96875 180.86667 314.57812 180.24167Q314.20312 179.60104 313.35938 179.60104Q312.53125 179.60104 312.14062 180.24167Q311.76562 180.86667 311.76562 182.16354L311.76562 183.89792Q311.76562 185.27292 312.15625 185.9448Q312.5625 186.60104 313.375 186.60104Q314.17188 186.60104 314.5625 185.97604Q314.95312 185.35104 314.96875 184.02292L314.96875 182.24167Z" fill-rule="nonzero"/><path stroke="#ffffff" stroke-width="3.0" stroke-linejoin="round" stroke-linecap="round" d="M364.78067 183.72604Q364.78067 185.6323 364.12442 186.5698Q363.4838 187.49167 362.09317 187.49167Q360.7338 187.49167 360.07755 186.58542Q359.4213 185.67917 359.39005 183.86667L359.39005 182.42917Q359.39005 180.53854 360.03067 179.6323Q360.68692 178.71042 362.07755 178.71042Q363.45255 178.71042 364.1088 179.60104Q364.76505 180.47604 364.78067 182.3198L364.78067 183.72604ZM363.68692 182.24167Q363.68692 180.86667 363.2963 180.24167Q362.9213 179.60104 362.07755 179.60104Q361.24942 179.60104 360.8588 180.24167Q360.4838 180.86667 360.4838 182.16354L360.4838 183.89792Q360.4838 185.27292 360.87442 185.9448Q361.28067 186.60104 362.09317 186.60104Q362.89005 186.60104 363.28067 185.97604Q363.6713 185.35104 363.68692 184.02292L363.68692 182.24167Z" fill-rule="nonzero"/><path fill="#0000ff" d="M364.78067 183.72604Q364.78067 185.6323 364.12442 186.5698Q363.4838 187.49167 362.09317 187.49167Q360.7338 187.49167 360.07755 186.58542Q359.4213 185.67917 359.39005 183.86667L359.39005 182.42917Q359.39005 180.53854 360.03067 179.6323Q360.68692 178.71042 362.07755 178.71042Q363.45255 178.71042 364.1088 179.60104Q364.76505 180.47604 364.78067 182.3198L364.78067 183.72604ZM363.68692 182.24167Q363.68692 180.86667 363.2963 180.24167Q362.9213 179.60104 362.07755 179.60104Q361.24942 179.60104 360.8588 180.24167Q360.4838 180.86667 360.4838 182.16354L360.4838 183.89792Q360.4838 185.27292 360.87442 185.9448Q361.28067 186.60104 362.09317 186.60104Q362.89005 186.60104 363.28067 185.97604Q363.6713 185.35104 363.68692 184.02292L363.68692 182.24167Z" fill-rule="nonzero"/><path stroke="#ffffff" stroke-width="3.0" stroke-linejoin="round" stroke-linecap="round" d="M413.49887 183.72604Q413.49887 185.6323 412.84262 186.5698Q412.202 187.49167 410.81137 187.49167Q409.452 187.49167 408.79575 186.58542Q408.1395 185.67917 408.10825 183.86667L408.10825 182.42917Q408.10825 180.53854 408.74887 179.6323Q409.40512 178.71042 410.79575 178.71042Q412.17075 178.71042 412.827 179.60104Q413.48325 180.47604 413.49887 182.3198L413.49887 183.72604ZM412.40512 182.24167Q412.40512 180.86667 412.0145 180.24167Q411.6395 179.60104 410.79575 179.60104Q409.96762 179.60104 409.577 180.24167Q409.202 180.86667 409.202 182.16354L409.202 183.89792Q409.202 185.27292 409.59262 185.9448Q409.99887 186.60104 410.81137 186.60104Q411.60825 186.60104 411.99887 185.97604Q412.3895 185.35104 412.40512 184.02292L412.40512 182.24167Z" fill-rule="nonzero"/><path fill="#0000ff" d="M413.49887 183.72604Q413.49887 185.6323 412.84262 186.5698Q412.202 187.49167 410.81137 187.49167Q409.452 187.49167 408.79575 186.58542Q408.1395 185.67917 408.10825 183.86667L408.10825 182.42917Q408.10825 180.53854 408.74887 179.6323Q409.40512 178.71042 410.79575 178.71042Q412.17075 178.71042 412.827 179.60104Q413.48325 180.47604 413.49887 182.3198L413.49887 183.72604ZM412.40512 182.24167Q412.40512 180.86667 412.0145 180.24167Q411.6395 179.60104 410.79575 179.60104Q409.96762 179.60104 409.577 180.24167Q409.202 180.86667 409.202 182.16354L409.202 183.89792Q409.202 185.27292 409.59262 185.9448Q409.99887 186.60104 410.81137 186.60104Q411.60825 186.60104 411.99887 185.97604Q412.3895 185.35104 412.40512 184.02292L412.40512 182.24167Z" fill-rule="nonzero"/><path stroke="#ffffff" stroke-width="3.0" stroke-linejoin="round" stroke-linecap="round" d="M462.21704 183.72604Q462.21704 185.6323 461.5608 186.5698Q460.92017 187.49167 459.52954 187.49167Q458.17017 187.49167 457.51392 186.58542Q456.85767 185.67917 456.82642 183.86667L456.82642 182.42917Q456.82642 180.53854 457.46704 179.6323Q458.1233 178.71042 459.51392 178.71042Q460.88892 178.71042 461.54517 179.60104Q462.20142 180.47604 462.21704 182.3198L462.21704 183.72604ZM461.1233 182.24167Q461.1233 180.86667 460.73267 180.24167Q460.35767 179.60104 459.51392 179.60104Q458.6858 179.60104 458.29517 180.24167Q457.92017 180.86667 457.92017 182.16354L457.92017 183.89792Q457.92017 185.27292 458.3108 185.9448Q458.71704 186.60104 459.52954 186.60104Q460.32642 186.60104 460.71704 185.97604Q461.10767 185.35104 461.1233 184.02292L461.1233 182.24167Z" fill-rule="nonzero"/><path fill="#0000ff" d="M462.21704 183.72604Q462.21704 185.6323 461.5608 186.5698Q460.92017 187.49167 459.52954 187.49167Q458.17017 187.49167 457.51392 186.58542Q456.85767 185.67917 456.82642 183.86667L456.82642 182.42917Q456.82642 180.53854 457.46704 179.6323Q458.1233 178.71042 459.51392 178.71042Q460.88892 178.71042 461.54517 179.60104Q462.20142 180.47604 462.21704 182.3198L462.21704 183.72604ZM461.1233 182.24167Q461.1233 180.86667 460.73267 180.24167Q460.35767 179.60104 459.51392 179.60104Q458.6858 179.60104 458.29517 180.24167Q457.92017 180.86667 457.92017 182.16354L457.92017 183.89792Q457.92017 185.27292 458.3108 185.9448Q458.71704 186.60104 459.52954 186.60104Q460.32642 186.60104 460.71704 185.97604Q461.10767 185.35104 461.1233 184.02292L461.1233 182.24167Z" fill-rule="nonzero"/><path stroke="#ffffff" stroke-width="3.0" stroke-linejoin="round" stroke-linecap="round" d="M510.93524 183.72604Q510.93524 185.6323 510.279 186.5698Q509.63837 187.49167 508.24774 187.49167Q506.88837 187.49167 506.23212 186.58542Q505.57587 185.67917 505.54462 183.86667L505.54462 182.42917Q505.54462 180.53854 506.18524 179.6323Q506.8415 178.71042 508.23212 178.71042Q509.60712 178.71042 510.26337 179.60104Q510.91962 180.47604 510.93524 182.3198L510.93524 183.72604ZM509.8415 182.24167Q509.8415 180.86667 509.45087 180.24167Q509.07587 179.60104 508.23212 179.60104Q507.404 179.60104 507.01337 180.24167Q506.63837 180.86667 506.63837 182.16354L506.63837 183.89792Q506.63837 185.27292 507.029 185.9448Q507.43524 186.60104 508.24774 186.60104Q509.04462 186.60104 509.43524 185.97604Q509.82587 185.35104 509.8415 184.02292L509.8415 182.24167Z" fill-rule="nonzero"/><path fill="#0000ff" d="M510.93524 183.72604Q510.93524 185.6323 510.279 186.5698Q509.63837 187.49167 508.24774 187.49167Q506.88837 187.49167 506.23212 186.58542Q505.57587 185.67917 505.54462 183.86667L505.54462 182.42917Q505.54462 180.53854 506.18524 179.6323Q506.8415 178.71042 508.23212 178.71042Q509.60712 178.71042 510.26337 179.60104Q510.91962 180.47604 510.93524 182.3198L510.93524 183.72604ZM509.8415 182.24167Q509.8415 180.86667 509.45087 180.24167Q509.07587 179.60104 508.23212 179.60104Q507.404 179.60104 507.01337 180.24167Q506.63837 180.86667 506.63837 182.16354L506.63837 183.89792Q506.63837 185.27292 507.029 185.9448Q507.43524 186.60104 508.24774 186.60104Q509.04462 186.60104 509.43524 185.97604Q509.82587 185.35104 509.8415 184.02292L509.8415 182.24167Z" fill-rule="nonzero"/><path stroke="#ffffff" stroke-width="3.0" stroke-linejoin="round" stroke-linecap="round" d="M559.6534 183.72604Q559.6534 185.6323 558.99713 186.5698Q558.3565 187.49167 556.9659 187.49167Q555.6065 187.49167 554.95026 186.58542Q554.294 185.67917 554.26276 183.86667L554.26276 182.42917Q554.26276 180.53854 554.9034 179.6323Q555.55963 178.71042 556.95026 178.71042Q558.32526 178.71042 558.9815 179.60104Q559.63776 180.47604 559.6534 182.3198L559.6534 183.72604ZM558.55963 182.24167Q558.55963 180.86667 558.169 180.24167Q557.794 179.60104 556.95026 179.60104Q556.12213 179.60104 555.7315 180.24167Q555.3565 180.86667 555.3565 182.16354L555.3565 183.89792Q555.3565 185.27292 555.74713 185.9448Q556.1534 186.60104 556.9659 186.60104Q557.76276 186.60104 558.1534 185.97604Q558.544 185.35104 558.55963 184.02292L558.55963 182.24167Z" fill-rule="nonzero"/><path fill="#0000ff" d="M559.6534 183.72604Q559.6534 185.6323 558.99713 186.5698Q558.3565 187.49167 556.9659 187.49167Q555.6065 187.49167 554.95026 186.58542Q554.294 185.67917 554.26276 183.86667L554.26276 182.42917Q554.26276 180.53854 554.9034 179.6323Q555.55963 178.71042 556.95026 178.71042Q558.32526 178.71042 558.9815 179.60104Q559.63776 180.47604 559.6534 182.3198L559.6534 183.72604ZM558.55963 182.24167Q558.55963 180.86667 558.169 180.24167Q557.794 179.60104 556.95026 179.60104Q556.12213 179.60104 555.7315 180.24167Q555.3565 180.86667 555.3565 182.16354L555.3565 183.89792Q555.3565 185.27292 555.74713 185.9448Q556.1534 186.60104 556.9659 186.60104Q557.76276 186.60104 558.1534 185.97604Q558.544 185.35104 558.55963 184.02292L558.55963 182.24167Z" fill-rule="nonzero"/><path fill="#000000" d="M18.925 319.8719L18.925 318.8094L22.175 318.8094L22.175 319.8719L18.925 319.8719ZM27.01875 322.45L25.971874 322.45L25.971874 315.73126Q25.58125 316.09064 24.95625 316.46564Q24.346874 316.825 23.8625 316.9969L23.8625 315.98126Q24.7375 315.5594 25.39375 314.98126Q26.065624 314.3875 26.346874 313.825L27.01875 313.825L27.01875 322.45ZM30.64375 322.45L30.64375 321.2469L31.846874 321.2469L31.846874 322.45L30.64375 322.45ZM33.05 318.21564Q33.05 316.6844 33.3625 315.7625Q33.675 314.825 34.284374 314.325Q34.909374 313.825 35.846874 313.825Q36.534374 313.825 37.05 314.10626Q37.58125 314.3875 37.925 314.91876Q38.26875 315.4344 38.45625 316.1844Q38.64375 316.9344 38.64375 318.21564Q38.64375 319.73126 38.33125 320.65314Q38.034374 321.575 37.409374 322.09064Q36.8 322.59064 35.846874 322.59064Q34.6125 322.59064 33.89375 321.7Q33.05 320.6375 33.05 318.21564ZM34.128124 318.21564Q34.128124 320.325 34.628124 321.02814Q35.128124 321.73126 35.846874 321.73126Q36.58125 321.73126 37.065624 321.02814Q37.565624 320.325 37.565624 318.21564Q37.565624 316.09064 37.065624 315.40314Q36.58125 314.7 35.83125 314.7Q35.1125 314.7 34.675 315.3094Q34.128124 316.09064 34.128124 318.21564Z" fill-rule="nonzero"/><path fill="#000000" d="M18.925 263.3302L18.925 262.2677L22.175 262.2677L22.175 263.3302L18.925 263.3302ZM23.05 261.67395Q23.05 260.1427 23.3625 259.22083Q23.675 258.28333 24.284374 257.78333Q24.909374 257.28333 25.846874 257.28333Q26.534374 257.28333 27.05 257.56458Q27.58125 257.84583 27.925 258.37708Q28.26875 258.8927 28.45625 259.6427Q28.64375 260.3927 28.64375 261.67395Q28.64375 263.18958 28.33125 264.11145Q28.034374 265.03333 27.409374 265.54895Q26.8 266.04895 25.846874 266.04895Q24.6125 266.04895 23.89375 265.15833Q23.05 264.09583 23.05 261.67395ZM24.128124 261.67395Q24.128124 263.78333 24.628124 264.48645Q25.128124 265.18958 25.846874 265.18958Q26.58125 265.18958 27.065624 264.48645Q27.565624 263.78333 27.565624 261.67395Q27.565624 259.54895 27.065624 258.86145Q26.58125 258.15833 25.83125 258.15833Q25.1125 258.15833 24.675 258.7677Q24.128124 259.54895 24.128124 261.67395ZM30.64375 265.90833L30.64375 264.7052L31.846874 264.7052L31.846874 265.90833L30.64375 265.90833ZM33.05 263.65833L34.159374 263.56458Q34.284374 264.37708 34.721874 264.78333Q35.175 265.18958 35.815624 265.18958Q36.565624 265.18958 37.096874 264.61145Q37.628124 264.03333 37.628124 263.09583Q37.628124 262.18958 37.1125 261.67395Q36.6125 261.1427 35.784374 261.1427Q35.284374 261.1427 34.8625 261.37708Q34.45625 261.61145 34.221874 261.97083L33.2375 261.84583L34.065624 257.43958L38.346874 257.43958L38.346874 258.43958L34.909374 258.43958L34.45625 260.75208Q35.221874 260.2052 36.065624 260.2052Q37.190624 260.2052 37.95625 260.98645Q38.7375 261.7677 38.7375 263.00208Q38.7375 264.15833 38.065624 265.0177Q37.2375 266.04895 35.815624 266.04895Q34.64375 266.04895 33.89375 265.3927Q33.159374 264.73645 33.05 263.65833Z" fill-rule="nonzero"/><path fill="#000000" d="M23.05 205.1323Q23.05 203.60104 23.3625 202.67917Q23.675 201.74167 24.284374 201.24167Q24.909374 200.74167 25.846874 200.74167Q26.534374 200.74167 27.05 201.02292Q27.58125 201.30417 27.925 201.83542Q28.26875 202.35104 28.45625 203.10104Q28.64375 203.85104 28.64375 205.1323Q28.64375 206.64792 28.33125 207.5698Q28.034374 208.49167 27.409374 209.0073Q26.8 209.5073 25.846874 209.5073Q24.6125 209.5073 23.89375 208.61667Q23.05 207.55417 23.05 205.1323ZM24.128124 205.1323Q24.128124 207.24167 24.628124 207.9448Q25.128124 208.64792 25.846874 208.64792Q26.58125 208.64792 27.065624 207.9448Q27.565624 207.24167 27.565624 205.1323Q27.565624 203.0073 27.065624 202.3198Q26.58125 201.61667 25.83125 201.61667Q25.1125 201.61667 24.675 202.22604Q24.128124 203.0073 24.128124 205.1323ZM30.64375 209.36667L30.64375 208.16354L31.846874 208.16354L31.846874 209.36667L30.64375 209.36667ZM33.05 205.1323Q33.05 203.60104 33.3625 202.67917Q33.675 201.74167 34.284374 201.24167Q34.909374 200.74167 35.846874 200.74167Q36.534374 200.74167 37.05 201.02292Q37.58125 201.30417 37.925 201.83542Q38.26875 202.35104 38.45625 203.10104Q38.64375 203.85104 38.64375 205.1323Q38.64375 206.64792 38.33125 207.5698Q38.034374 208.49167 37.409374 209.0073Q36.8 209.5073 35.846874 209.5073Q34.6125 209.5073 33.89375 208.61667Q33.05 207.55417 33.05 205.1323ZM34.128124 205.1323Q34.128124 207.24167 34.628124 207.9448Q35.128124 208.64792 35.846874 208.64792Q36.58125 208.64792 37.065624 207.9448Q37.565624 207.24167 37.565624 205.1323Q37.565624 203.0073 37.065624 202.3198Q36.58125 201.61667 35.83125 201.61667Q35.1125 201.61667 34.675 202.22604Q34.128124 203.0073 34.128124 205.1323Z" fill-rule="nonzero"/><path fill="#000000" d="M23.05 148.59062Q23.05 147.05937 23.3625 146.1375Q23.675 145.2 24.284374 144.7Q24.909374 144.2 25.846874 144.2Q26.534374 144.2 27.05 144.48125Q27.58125 144.7625 27.925 145.29375Q28.26875 145.80937 28.45625 146.55937Q28.64375 147.30937 28.64375 148.59062Q28.64375 150.10625 28.33125 151.02812Q28.034374 151.95 27.409374 152.46562Q26.8 152.96562 25.846874 152.96562Q24.6125 152.96562 23.89375 152.075Q23.05 151.0125 23.05 148.59062ZM24.128124 148.59062Q24.128124 150.7 24.628124 151.40312Q25.128124 152.10625 25.846874 152.10625Q26.58125 152.10625 27.065624 151.40312Q27.565624 150.7 27.565624 148.59062Q27.565624 146.46562 27.065624 145.77812Q26.58125 145.075 25.83125 145.075Q25.1125 145.075 24.675 145.68437Q24.128124 146.46562 24.128124 148.59062ZM30.64375 152.825L30.64375 151.62187L31.846874 151.62187L31.846874 152.825L30.64375 152.825ZM33.05 150.575L34.159374 150.48125Q34.284374 151.29375 34.721874 151.7Q35.175 152.10625 35.815624 152.10625Q36.565624 152.10625 37.096874 151.52812Q37.628124 150.95 37.628124 150.0125Q37.628124 149.10625 37.1125 148.59062Q36.6125 148.05937 35.784374 148.05937Q35.284374 148.05937 34.8625 148.29375Q34.45625 148.52812 34.221874 148.8875L33.2375 148.7625L34.065624 144.35625L38.346874 144.35625L38.346874 145.35625L34.909374 145.35625L34.45625 147.66875Q35.221874 147.12187 36.065624 147.12187Q37.190624 147.12187 37.95625 147.90312Q38.7375 148.68437 38.7375 149.91875Q38.7375 151.075 38.065624 151.93437Q37.2375 152.96562 35.815624 152.96562Q34.64375 152.96562 33.89375 152.30937Q33.159374 151.65312 33.05 150.575Z" fill-rule="nonzero"/><path fill="#000000" d="M27.01875 96.28333L25.971874 96.28333L25.971874 89.56458Q25.58125 89.92396 24.95625 90.29896Q24.346874 90.65833 23.8625 90.83021L23.8625 89.81458Q24.7375 89.39271 25.39375 88.81458Q26.065624 88.22083 26.346874 87.65833L27.01875 87.65833L27.01875 96.28333ZM30.64375 96.28333L30.64375 95.08021L31.846874 95.08021L31.846874 96.28333L30.64375 96.28333ZM33.05 92.04896Q33.05 90.51771 33.3625 89.59583Q33.675 88.65833 34.284374 88.15833Q34.909374 87.65833 35.846874 87.65833Q36.534374 87.65833 37.05 87.93958Q37.58125 88.22083 37.925 88.75208Q38.26875 89.26771 38.45625 90.01771Q38.64375 90.76771 38.64375 92.04896Q38.64375 93.56458 38.33125 94.48646Q38.034374 95.40833 37.409374 95.92396Q36.8 96.42396 35.846874 96.42396Q34.6125 96.42396 33.89375 95.53333Q33.05 94.47083 33.05 92.04896ZM34.128124 92.04896Q34.128124 94.15833 34.628124 94.86146Q35.128124 95.56458 35.846874 95.56458Q36.58125 95.56458 37.065624 94.86146Q37.565624 94.15833 37.565624 92.04896Q37.565624 89.92396 37.065624 89.23646Q36.58125 88.53333 35.83125 88.53333Q35.1125 88.53333 34.675 89.14271Q34.128124 89.92396 34.128124 92.04896Z" fill-rule="nonzero"/><path fill="#000000" d="M58.877842 335.45L57.830967 335.45L57.830967 328.73126Q57.440342 329.09064 56.815342 329.46564Q56.205967 329.825 55.721592 329.9969L55.721592 328.98126Q56.596592 328.5594 57.252842 327.98126Q57.924717 327.3875 58.205967 326.825L58.877842 326.825L58.877842 335.45ZM65.87784 335.45L64.83096 335.45L64.83096 328.73126Q64.44034 329.09064 63.815342 329.46564Q63.205967 329.825 62.721592 329.9969L62.721592 328.98126Q63.596592 328.5594 64.25284 327.98126Q64.92471 327.3875 65.20596 326.825L65.87784 326.825L65.87784 335.45ZM69.48721 330.4344L69.48721 329.23126L70.69034 329.23126L70.69034 330.4344L69.48721 330.4344ZM69.48721 335.45L69.48721 334.2469L70.69034 334.2469L70.69034 335.45L69.48721 335.45ZM71.90909 331.21564Q71.90909 329.6844 72.22159 328.7625Q72.53409 327.825 73.14346 327.325Q73.76846 326.825 74.70596 326.825Q75.39346 326.825 75.90909 327.10626Q76.44034 327.3875 76.78409 327.91876Q77.12784 328.4344 77.31534 329.1844Q77.50284 329.9344 77.50284 331.21564Q77.50284 332.73126 77.19034 333.65314Q76.89346 334.575 76.26846 335.09064Q75.65909 335.59064 74.70596 335.59064Q73.47159 335.59064 72.75284 334.7Q71.90909 333.6375 71.90909 331.21564ZM72.98721 331.21564Q72.98721 333.325 73.48721 334.02814Q73.98721 334.73126 74.70596 334.73126Q75.44034 334.73126 75.92471 334.02814Q76.42471 333.325 76.42471 331.21564Q76.42471 329.09064 75.92471 328.40314Q75.44034 327.7 74.69034 327.7Q73.97159 327.7 73.53409 328.3094Q72.98721 329.09064 72.98721 331.21564ZM78.90909 331.21564Q78.90909 329.6844 79.22159 328.7625Q79.53409 327.825 80.14346 327.325Q80.76846 326.825 81.70596 326.825Q82.39346 326.825 82.90909 327.10626Q83.44034 327.3875 83.78409 327.91876Q84.12784 328.4344 84.31534 329.1844Q84.50284 329.9344 84.50284 331.21564Q84.50284 332.73126 84.19034 333.65314Q83.89346 334.575 83.26846 335.09064Q82.65909 335.59064 81.70596 335.59064Q80.47159 335.59064 79.75284 334.7Q78.90909 333.6375 78.90909 331.21564ZM79.98721 331.21564Q79.98721 333.325 80.48721 334.02814Q80.98721 334.73126 81.70596 334.73126Q82.44034 334.73126 82.92471 334.02814Q83.42471 333.325 83.42471 331.21564Q83.42471 329.09064 82.92471 328.40314Q82.44034 327.7 81.69034 327.7Q80.97159 327.7 80.53409 328.3094Q79.98721 329.09064 79.98721 331.21564Z" fill-rule="nonzero"/><path fill="#000000" d="M60.893467 349.45L64.19034 340.85626L65.40909 340.85626L68.92471 349.45L67.64346 349.45L66.62784 346.84064L63.049717 346.84064L62.096592 349.45L60.893467 349.45ZM63.377842 345.91876L66.28409 345.91876L65.39346 343.54376Q64.97159 342.46564 64.78409 341.7625Q64.61221 342.59064 64.31534 343.40314L63.377842 345.91876ZM69.79971 349.45L69.79971 340.85626L71.51846 340.85626L73.54971 346.9344Q73.83096 347.79376 73.95596 348.21564Q74.09659 347.7469 74.40909 346.84064L76.47159 340.85626L78.00284 340.85626L78.00284 349.45L76.90909 349.45L76.90909 342.2625L74.40909 349.45L73.37784 349.45L70.89346 342.1375L70.89346 349.45L69.79971 349.45Z" fill-rule="nonzero"/><path fill="#000000" d="M107.59602 335.45L106.54915 335.45L106.54915 328.73126Q106.15852 329.09064 105.53352 329.46564Q104.92415 329.825 104.43977 329.9969L104.43977 328.98126Q105.31477 328.5594 105.97102 327.98126Q106.6429 327.3875 106.92415 326.825L107.59602 326.825L107.59602 335.45ZM116.17415 334.4344L116.17415 335.45L110.48665 335.45Q110.48665 335.075 110.61165 334.71564Q110.8304 334.1375 111.29915 333.575Q111.78352 333.0125 112.68977 332.27814Q114.09602 331.1219 114.5804 330.45Q115.0804 329.77814 115.0804 329.1844Q115.0804 328.5594 114.62727 328.1375Q114.17415 327.7 113.4554 327.7Q112.68977 327.7 112.23665 328.15314Q111.78352 328.60626 111.7679 329.41876L110.68977 329.3094Q110.79915 328.09064 111.5179 327.46564Q112.25227 326.825 113.48665 326.825Q114.72102 326.825 115.43977 327.5125Q116.15852 328.2 116.15852 329.21564Q116.15852 329.73126 115.93977 330.23126Q115.73665 330.71564 115.23665 331.27814Q114.75227 331.825 113.62727 332.77814Q112.67415 333.575 112.3929 333.8719Q112.12727 334.15314 111.9554 334.4344L116.17415 334.4344ZM118.2054 330.4344L118.2054 329.23126L119.40852 329.23126L119.40852 330.4344L118.2054 330.4344ZM118.2054 335.45L118.2054 334.2469L119.40852 334.2469L119.40852 335.45L118.2054 335.45ZM120.62727 331.21564Q120.62727 329.6844 120.93977 328.7625Q121.25227 327.825 121.86165 327.325Q122.48665 326.825 123.42415 326.825Q124.11165 326.825 124.62727 327.10626Q125.15852 327.3875 125.50227 327.91876Q125.84602 328.4344 126.03352 329.1844Q126.22102 329.9344 126.22102 331.21564Q126.22102 332.73126 125.90852 333.65314Q125.61165 334.575 124.98665 335.09064Q124.37727 335.59064 123.42415 335.59064Q122.18977 335.59064 121.47102 334.7Q120.62727 333.6375 120.62727 331.21564ZM121.7054 331.21564Q121.7054 333.325 122.2054 334.02814Q122.7054 334.73126 123.42415 334.73126Q124.15852 334.73126 124.6429 334.02814Q125.1429 333.325 125.1429 331.21564Q125.1429 329.09064 124.6429 328.40314Q124.15852 327.7 123.40852 327.7Q122.68977 327.7 122.25227 328.3094Q121.7054 329.09064 121.7054 331.21564ZM127.62727 331.21564Q127.62727 329.6844 127.93977 328.7625Q128.25227 327.825 128.86165 327.325Q129.48665 326.825 130.42415 326.825Q131.11165 326.825 131.62727 327.10626Q132.15852 327.3875 132.50227 327.91876Q132.84602 328.4344 133.03352 329.1844Q133.22102 329.9344 133.22102 331.21564Q133.22102 332.73126 132.90852 333.65314Q132.61165 334.575 131.98665 335.09064Q131.37727 335.59064 130.42415 335.59064Q129.18977 335.59064 128.47102 334.7Q127.62727 333.6375 127.62727 331.21564ZM128.7054 331.21564Q128.7054 333.325 129.2054 334.02814Q129.7054 334.73126 130.42415 334.73126Q131.15852 334.73126 131.6429 334.02814Q132.1429 333.325 132.1429 331.21564Q132.1429 329.09064 131.6429 328.40314Q131.15852 327.7 130.40852 327.7Q129.68977 327.7 129.25227 328.3094Q128.7054 329.09064 128.7054 331.21564Z" fill-rule="nonzero"/><path fill="#000000" d="M110.54915 349.45L110.54915 340.85626L113.79915 340.85626Q114.6429 340.85626 115.09602 340.9344Q115.73665 341.04376 116.15852 341.34064Q116.59602 341.6375 116.84602 342.16876Q117.11165 342.7 117.11165 343.34064Q117.11165 344.4344 116.40852 345.2Q115.72102 345.95 113.8929 345.95L111.68977 345.95L111.68977 349.45L110.54915 349.45ZM111.68977 344.95L113.90852 344.95Q115.0179 344.95 115.47102 344.54376Q115.93977 344.1219 115.93977 343.3719Q115.93977 342.84064 115.65852 342.46564Q115.3929 342.075 114.9554 341.95Q114.65852 341.8719 113.8929 341.8719L111.68977 341.8719L111.68977 344.95ZM118.5179 349.45L118.5179 340.85626L120.23665 340.85626L122.2679 346.9344Q122.54915 347.79376 122.67415 348.21564Q122.81477 347.7469 123.12727 346.84064L125.18977 340.85626L126.72102 340.85626L126.72102 349.45L125.62727 349.45L125.62727 342.2625L123.12727 349.45L122.09602 349.45L119.61165 342.1375L119.61165 349.45L118.5179 349.45Z" fill-rule="nonzero"/><path fill="#000000" d="M159.81421 335.45L158.76733 335.45L158.76733 328.73126Q158.37671 329.09064 157.75171 329.46564Q157.14233 329.825 156.65796 329.9969L156.65796 328.98126Q157.53296 328.5594 158.18921 327.98126Q158.86108 327.3875 159.14233 326.825L159.81421 326.825L159.81421 335.45ZM163.42358 330.4344L163.42358 329.23126L164.62671 329.23126L164.62671 330.4344L163.42358 330.4344ZM163.42358 335.45L163.42358 334.2469L164.62671 334.2469L164.62671 335.45L163.42358 335.45ZM165.84546 331.21564Q165.84546 329.6844 166.15796 328.7625Q166.47046 327.825 167.07983 327.325Q167.70483 326.825 168.64233 326.825Q169.32983 326.825 169.84546 327.10626Q170.37671 327.3875 170.72046 327.91876Q171.06421 328.4344 171.25171 329.1844Q171.43921 329.9344 171.43921 331.21564Q171.43921 332.73126 171.12671 333.65314Q170.82983 334.575 170.20483 335.09064Q169.59546 335.59064 168.64233 335.59064Q167.40796 335.59064 166.68921 334.7Q165.84546 333.6375 165.84546 331.21564ZM166.92358 331.21564Q166.92358 333.325 167.42358 334.02814Q167.92358 334.73126 168.64233 334.73126Q169.37671 334.73126 169.86108 334.02814Q170.36108 333.325 170.36108 331.21564Q170.36108 329.09064 169.86108 328.40314Q169.37671 327.7 168.62671 327.7Q167.90796 327.7 167.47046 328.3094Q166.92358 329.09064 166.92358 331.21564ZM172.84546 331.21564Q172.84546 329.6844 173.15796 328.7625Q173.47046 327.825 174.07983 327.325Q174.70483 326.825 175.64233 326.825Q176.32983 326.825 176.84546 327.10626Q177.37671 327.3875 177.72046 327.91876Q178.06421 328.4344 178.25171 329.1844Q178.43921 329.9344 178.43921 331.21564Q178.43921 332.73126 178.12671 333.65314Q177.82983 334.575 177.20483 335.09064Q176.59546 335.59064 175.64233 335.59064Q174.40796 335.59064 173.68921 334.7Q172.84546 333.6375 172.84546 331.21564ZM173.92358 331.21564Q173.92358 333.325 174.42358 334.02814Q174.92358 334.73126 175.64233 334.73126Q176.37671 334.73126 176.86108 334.02814Q177.36108 333.325 177.36108 331.21564Q177.36108 329.09064 176.86108 328.40314Q176.37671 327.7 175.62671 327.7Q174.90796 327.7 174.47046 328.3094Q173.92358 329.09064 173.92358 331.21564Z" fill-rule="nonzero"/><path fill="#000000" d="M159.26733 349.45L159.26733 340.85626L162.51733 340.85626Q163.36108 340.85626 163.81421 340.9344Q164.45483 341.04376 164.87671 341.34064Q165.31421 341.6375 165.56421 342.16876Q165.82983 342.7 165.82983 343.34064Q165.82983 344.4344 165.12671 345.2Q164.43921 345.95 162.61108 345.95L160.40796 345.95L160.40796 349.45L159.26733 349.45ZM160.40796 344.95L162.62671 344.95Q163.73608 344.95 164.18921 344.54376Q164.65796 344.1219 164.65796 343.3719Q164.65796 342.84064 164.37671 342.46564Q164.11108 342.075 163.67358 341.95Q163.37671 341.8719 162.61108 341.8719L160.40796 341.8719L160.40796 344.95ZM167.23608 349.45L167.23608 340.85626L168.95483 340.85626L170.98608 346.9344Q171.26733 347.79376 171.39233 348.21564Q171.53296 347.7469 171.84546 346.84064L173.90796 340.85626L175.43921 340.85626L175.43921 349.45L174.34546 349.45L174.34546 342.2625L171.84546 349.45L170.81421 349.45L168.32983 342.1375L168.32983 349.45L167.23608 349.45Z" fill-rule="nonzero"/><path fill="#000000" d="M210.1105 334.4344L210.1105 335.45L204.423 335.45Q204.423 335.075 204.548 334.71564Q204.76675 334.1375 205.2355 333.575Q205.71988 333.0125 206.62613 332.27814Q208.03238 331.1219 208.51675 330.45Q209.01675 329.77814 209.01675 329.1844Q209.01675 328.5594 208.56363 328.1375Q208.1105 327.7 207.39175 327.7Q206.62613 327.7 206.173 328.15314Q205.71988 328.60626 205.70425 329.41876L204.62613 329.3094Q204.7355 328.09064 205.45425 327.46564Q206.18863 326.825 207.423 326.825Q208.65738 326.825 209.37613 327.5125Q210.09488 328.2 210.09488 329.21564Q210.09488 329.73126 209.87613 330.23126Q209.673 330.71564 209.173 331.27814Q208.68863 331.825 207.56363 332.77814Q206.6105 333.575 206.32925 333.8719Q206.06363 334.15314 205.89175 334.4344L210.1105 334.4344ZM212.14175 330.4344L212.14175 329.23126L213.34488 329.23126L213.34488 330.4344L212.14175 330.4344ZM212.14175 335.45L212.14175 334.2469L213.34488 334.2469L213.34488 335.45L212.14175 335.45ZM214.56363 331.21564Q214.56363 329.6844 214.87613 328.7625Q215.18863 327.825 215.798 327.325Q216.423 326.825 217.3605 326.825Q218.048 326.825 218.56363 327.10626Q219.09488 327.3875 219.43863 327.91876Q219.78238 328.4344 219.96988 329.1844Q220.15738 329.9344 220.15738 331.21564Q220.15738 332.73126 219.84488 333.65314Q219.548 334.575 218.923 335.09064Q218.31363 335.59064 217.3605 335.59064Q216.12613 335.59064 215.40738 334.7Q214.56363 333.6375 214.56363 331.21564ZM215.64175 331.21564Q215.64175 333.325 216.14175 334.02814Q216.64175 334.73126 217.3605 334.73126Q218.09488 334.73126 218.57925 334.02814Q219.07925 333.325 219.07925 331.21564Q219.07925 329.09064 218.57925 328.40314Q218.09488 327.7 217.34488 327.7Q216.62613 327.7 216.18863 328.3094Q215.64175 329.09064 215.64175 331.21564ZM221.56363 331.21564Q221.56363 329.6844 221.87613 328.7625Q222.18863 327.825 222.798 327.325Q223.423 326.825 224.3605 326.825Q225.048 326.825 225.56363 327.10626Q226.09488 327.3875 226.43863 327.91876Q226.78238 328.4344 226.96988 329.1844Q227.15738 329.9344 227.15738 331.21564Q227.15738 332.73126 226.84488 333.65314Q226.548 334.575 225.923 335.09064Q225.31363 335.59064 224.3605 335.59064Q223.12613 335.59064 222.40738 334.7Q221.56363 333.6375 221.56363 331.21564ZM222.64175 331.21564Q222.64175 333.325 223.14175 334.02814Q223.64175 334.73126 224.3605 334.73126Q225.09488 334.73126 225.57925 334.02814Q226.07925 333.325 226.07925 331.21564Q226.07925 329.09064 225.57925 328.40314Q225.09488 327.7 224.34488 327.7Q223.62613 327.7 223.18863 328.3094Q222.64175 329.09064 222.64175 331.21564Z" fill-rule="nonzero"/><path fill="#000000" d="M207.9855 349.45L207.9855 340.85626L211.2355 340.85626Q212.07925 340.85626 212.53238 340.9344Q213.173 341.04376 213.59488 341.34064Q214.03238 341.6375 214.28238 342.16876Q214.548 342.7 214.548 343.34064Q214.548 344.4344 213.84488 345.2Q213.15738 345.95 211.32925 345.95L209.12613 345.95L209.12613 349.45L207.9855 349.45ZM209.12613 344.95L211.34488 344.95Q212.45425 344.95 212.90738 344.54376Q213.37613 344.1219 213.37613 343.3719Q213.37613 342.84064 213.09488 342.46564Q212.82925 342.075 212.39175 341.95Q212.09488 341.8719 211.32925 341.8719L209.12613 341.8719L209.12613 344.95ZM215.95425 349.45L215.95425 340.85626L217.673 340.85626L219.70425 346.9344Q219.9855 347.79376 220.1105 348.21564Q220.25113 347.7469 220.56363 346.84064L222.62613 340.85626L224.15738 340.85626L224.15738 349.45L223.06363 349.45L223.06363 342.2625L220.56363 349.45L219.53238 349.45L217.048 342.1375L217.048 349.45L215.95425 349.45Z" fill-rule="nonzero"/><path fill="#000000" d="M253.28181 333.1844L254.34431 333.04376Q254.51619 333.9344 254.95369 334.34064Q255.39119 334.73126 256.01617 334.73126Q256.76617 334.73126 257.2818 334.21564Q257.79742 333.7 257.79742 332.9344Q257.79742 332.21564 257.31305 331.7469Q256.8443 331.2625 256.10992 331.2625Q255.81306 331.2625 255.35994 331.3875L255.48494 330.45Q255.59431 330.46564 255.65681 330.46564Q256.32867 330.46564 256.85992 330.1219Q257.4068 329.7625 257.4068 329.02814Q257.4068 328.45 257.01617 328.075Q256.62555 327.6844 256.00055 327.6844Q255.39119 327.6844 254.96931 328.075Q254.56306 328.46564 254.45369 329.23126L253.39119 329.04376Q253.57869 327.9969 254.26619 327.41876Q254.95369 326.825 255.96931 326.825Q256.67242 326.825 257.26617 327.1375Q257.85992 327.4344 258.17242 327.95Q258.48492 328.46564 258.48492 329.0594Q258.48492 329.60626 258.18805 330.075Q257.89117 330.52814 257.31305 330.79376Q258.06305 330.96564 258.48492 331.52814Q258.9068 332.075 258.9068 332.91876Q258.9068 334.04376 258.07867 334.825Q257.26617 335.60626 256.01617 335.60626Q254.89119 335.60626 254.14119 334.9344Q253.39119 334.2469 253.28181 333.1844ZM260.85992 330.4344L260.85992 329.23126L262.06305 329.23126L262.06305 330.4344L260.85992 330.4344ZM260.85992 335.45L260.85992 334.2469L262.06305 334.2469L262.06305 335.45L260.85992 335.45ZM263.2818 331.21564Q263.2818 329.6844 263.5943 328.7625Q263.9068 327.825 264.51617 327.325Q265.14117 326.825 266.07867 326.825Q266.76617 326.825 267.2818 327.10626Q267.81305 327.3875 268.1568 327.91876Q268.50055 328.4344 268.68805 329.1844Q268.87555 329.9344 268.87555 331.21564Q268.87555 332.73126 268.56305 333.65314Q268.26617 334.575 267.64117 335.09064Q267.0318 335.59064 266.07867 335.59064Q264.8443 335.59064 264.12555 334.7Q263.2818 333.6375 263.2818 331.21564ZM264.35992 331.21564Q264.35992 333.325 264.85992 334.02814Q265.35992 334.73126 266.07867 334.73126Q266.81305 334.73126 267.29742 334.02814Q267.79742 333.325 267.79742 331.21564Q267.79742 329.09064 267.29742 328.40314Q266.81305 327.7 266.06305 327.7Q265.3443 327.7 264.9068 328.3094Q264.35992 329.09064 264.35992 331.21564ZM270.2818 331.21564Q270.2818 329.6844 270.5943 328.7625Q270.9068 327.825 271.51617 327.325Q272.14117 326.825 273.07867 326.825Q273.76617 326.825 274.2818 327.10626Q274.81305 327.3875 275.1568 327.91876Q275.50055 328.4344 275.68805 329.1844Q275.87555 329.9344 275.87555 331.21564Q275.87555 332.73126 275.56305 333.65314Q275.26617 334.575 274.64117 335.09064Q274.0318 335.59064 273.07867 335.59064Q271.8443 335.59064 271.12555 334.7Q270.2818 333.6375 270.2818 331.21564ZM271.35992 331.21564Q271.35992 333.325 271.85992 334.02814Q272.35992 334.73126 273.07867 334.73126Q273.81305 334.73126 274.29742 334.02814Q274.79742 333.325 274.79742 331.21564Q274.79742 329.09064 274.29742 328.40314Q273.81305 327.7 273.06305 327.7Q272.3443 327.7 271.9068 328.3094Q271.35992 329.09064 271.35992 331.21564Z" fill-rule="nonzero"/><path fill="#000000" d="M256.70367 349.45L256.70367 340.85626L259.95367 340.85626Q260.79742 340.85626 261.25055 340.9344Q261.89117 341.04376 262.31305 341.34064Q262.75055 341.6375 263.00055 342.16876Q263.26617 342.7 263.26617 343.34064Q263.26617 344.4344 262.56305 345.2Q261.87555 345.95 260.04742 345.95L257.8443 345.95L257.8443 349.45L256.70367 349.45ZM257.8443 344.95L260.06305 344.95Q261.17242 344.95 261.62555 344.54376Q262.0943 344.1219 262.0943 343.3719Q262.0943 342.84064 261.81305 342.46564Q261.54742 342.075 261.10992 341.95Q260.81305 341.8719 260.04742 341.8719L257.8443 341.8719L257.8443 344.95ZM264.67242 349.45L264.67242 340.85626L266.39117 340.85626L268.42242 346.9344Q268.70367 347.79376 268.82867 348.21564Q268.9693 347.7469 269.2818 346.84064L271.3443 340.85626L272.87555 340.85626L272.87555 349.45L271.7818 349.45L271.7818 342.2625L269.2818 349.45L268.25055 349.45L265.76617 342.1375L265.76617 349.45L264.67242 349.45Z" fill-rule="nonzero"/><path fill="#000000" d="M305.375 335.45L305.375 333.3875L301.65625 333.3875L301.65625 332.41876L305.57812 326.85626L306.4375 326.85626L306.4375 332.41876L307.59375 332.41876L307.59375 333.3875L306.4375 333.3875L306.4375 335.45L305.375 335.45ZM305.375 332.41876L305.375 328.5594L302.6875 332.41876L305.375 332.41876ZM309.57812 330.4344L309.57812 329.23126L310.78125 329.23126L310.78125 330.4344L309.57812 330.4344ZM309.57812 335.45L309.57812 334.2469L310.78125 334.2469L310.78125 335.45L309.57812 335.45ZM312.0 331.21564Q312.0 329.6844 312.3125 328.7625Q312.625 327.825 313.23438 327.325Q313.85938 326.825 314.79688 326.825Q315.48438 326.825 316.0 327.10626Q316.53125 327.3875 316.875 327.91876Q317.21875 328.4344 317.40625 329.1844Q317.59375 329.9344 317.59375 331.21564Q317.59375 332.73126 317.28125 333.65314Q316.98438 334.575 316.35938 335.09064Q315.75 335.59064 314.79688 335.59064Q313.5625 335.59064 312.84375 334.7Q312.0 333.6375 312.0 331.21564ZM313.07812 331.21564Q313.07812 333.325 313.57812 334.02814Q314.07812 334.73126 314.79688 334.73126Q315.53125 334.73126 316.01562 334.02814Q316.51562 333.325 316.51562 331.21564Q316.51562 329.09064 316.01562 328.40314Q315.53125 327.7 314.78125 327.7Q314.0625 327.7 313.625 328.3094Q313.07812 329.09064 313.07812 331.21564ZM319.0 331.21564Q319.0 329.6844 319.3125 328.7625Q319.625 327.825 320.23438 327.325Q320.85938 326.825 321.79688 326.825Q322.48438 326.825 323.0 327.10626Q323.53125 327.3875 323.875 327.91876Q324.21875 328.4344 324.40625 329.1844Q324.59375 329.9344 324.59375 331.21564Q324.59375 332.73126 324.28125 333.65314Q323.98438 334.575 323.35938 335.09064Q322.75 335.59064 321.79688 335.59064Q320.5625 335.59064 319.84375 334.7Q319.0 333.6375 319.0 331.21564ZM320.07812 331.21564Q320.07812 333.325 320.57812 334.02814Q321.07812 334.73126 321.79688 334.73126Q322.53125 334.73126 323.01562 334.02814Q323.51562 333.325 323.51562 331.21564Q323.51562 329.09064 323.01562 328.40314Q322.53125 327.7 321.78125 327.7Q321.0625 327.7 320.625 328.3094Q320.07812 329.09064 320.07812 331.21564Z" fill-rule="nonzero"/><path fill="#000000" d="M305.42188 349.45L305.42188 340.85626L308.67188 340.85626Q309.51562 340.85626 309.96875 340.9344Q310.60938 341.04376 311.03125 341.34064Q311.46875 341.6375 311.71875 342.16876Q311.98438 342.7 311.98438 343.34064Q311.98438 344.4344 311.28125 345.2Q310.59375 345.95 308.76562 345.95L306.5625 345.95L306.5625 349.45L305.42188 349.45ZM306.5625 344.95L308.78125 344.95Q309.89062 344.95 310.34375 344.54376Q310.8125 344.1219 310.8125 343.3719Q310.8125 342.84064 310.53125 342.46564Q310.26562 342.075 309.82812 341.95Q309.53125 341.8719 308.76562 341.8719L306.5625 341.8719L306.5625 344.95ZM313.39062 349.45L313.39062 340.85626L315.10938 340.85626L317.14062 346.9344Q317.42188 347.79376 317.54688 348.21564Q317.6875 347.7469 318.0 346.84064L320.0625 340.85626L321.59375 340.85626L321.59375 349.45L320.5 349.45L320.5 342.2625L318.0 349.45L316.96875 349.45L314.48438 342.1375L314.48438 349.45L313.39062 349.45Z" fill-rule="nonzero"/><path fill="#000000" d="M350.71817 333.2L351.82755 333.10626Q351.95255 333.91876 352.39005 334.325Q352.84317 334.73126 353.4838 334.73126Q354.2338 334.73126 354.76505 334.15314Q355.2963 333.575 355.2963 332.6375Q355.2963 331.73126 354.78067 331.21564Q354.28067 330.6844 353.45255 330.6844Q352.95255 330.6844 352.53067 330.91876Q352.12442 331.15314 351.89005 331.5125L350.90567 331.3875L351.7338 326.98126L356.01505 326.98126L356.01505 327.98126L352.57755 327.98126L352.12442 330.29376Q352.89005 329.7469 353.7338 329.7469Q354.8588 329.7469 355.62442 330.52814Q356.40567 331.3094 356.40567 332.54376Q356.40567 333.7 355.7338 334.5594Q354.90567 335.59064 353.4838 335.59064Q352.31192 335.59064 351.56192 334.9344Q350.82755 334.27814 350.71817 333.2ZM358.2963 330.4344L358.2963 329.23126L359.49942 329.23126L359.49942 330.4344L358.2963 330.4344ZM358.2963 335.45L358.2963 334.2469L359.49942 334.2469L359.49942 335.45L358.2963 335.45ZM360.71817 331.21564Q360.71817 329.6844 361.03067 328.7625Q361.34317 327.825 361.95255 327.325Q362.57755 326.825 363.51505 326.825Q364.20255 326.825 364.71817 327.10626Q365.24942 327.3875 365.59317 327.91876Q365.93692 328.4344 366.12442 329.1844Q366.31192 329.9344 366.31192 331.21564Q366.31192 332.73126 365.99942 333.65314Q365.70255 334.575 365.07755 335.09064Q364.46817 335.59064 363.51505 335.59064Q362.28067 335.59064 361.56192 334.7Q360.71817 333.6375 360.71817 331.21564ZM361.7963 331.21564Q361.7963 333.325 362.2963 334.02814Q362.7963 334.73126 363.51505 334.73126Q364.24942 334.73126 364.7338 334.02814Q365.2338 333.325 365.2338 331.21564Q365.2338 329.09064 364.7338 328.40314Q364.24942 327.7 363.49942 327.7Q362.78067 327.7 362.34317 328.3094Q361.7963 329.09064 361.7963 331.21564ZM367.71817 331.21564Q367.71817 329.6844 368.03067 328.7625Q368.34317 327.825 368.95255 327.325Q369.57755 326.825 370.51505 326.825Q371.20255 326.825 371.71817 327.10626Q372.24942 327.3875 372.59317 327.91876Q372.93692 328.4344 373.12442 329.1844Q373.31192 329.9344 373.31192 331.21564Q373.31192 332.73126 372.99942 333.65314Q372.70255 334.575 372.07755 335.09064Q371.46817 335.59064 370.51505 335.59064Q369.28067 335.59064 368.56192 334.7Q367.71817 333.6375 367.71817 331.21564ZM368.7963 331.21564Q368.7963 333.325 369.2963 334.02814Q369.7963 334.73126 370.51505 334.73126Q371.24942 334.73126 371.7338 334.02814Q372.2338 333.325 372.2338 331.21564Q372.2338 329.09064 371.7338 328.40314Q371.24942 327.7 370.49942 327.7Q369.78067 327.7 369.34317 328.3094Q368.7963 329.09064 368.7963 331.21564Z" fill-rule="nonzero"/><path fill="#000000" d="M354.14005 349.45L354.14005 340.85626L357.39005 340.85626Q358.2338 340.85626 358.68692 340.9344Q359.32755 341.04376 359.74942 341.34064Q360.18692 341.6375 360.43692 342.16876Q360.70255 342.7 360.70255 343.34064Q360.70255 344.4344 359.99942 345.2Q359.31192 345.95 357.4838 345.95L355.28067 345.95L355.28067 349.45L354.14005 349.45ZM355.28067 344.95L357.49942 344.95Q358.6088 344.95 359.06192 344.54376Q359.53067 344.1219 359.53067 343.3719Q359.53067 342.84064 359.24942 342.46564Q358.9838 342.075 358.5463 341.95Q358.24942 341.8719 357.4838 341.8719L355.28067 341.8719L355.28067 344.95ZM362.1088 349.45L362.1088 340.85626L363.82755 340.85626L365.8588 346.9344Q366.14005 347.79376 366.26505 348.21564Q366.40567 347.7469 366.71817 346.84064L368.78067 340.85626L370.31192 340.85626L370.31192 349.45L369.21817 349.45L369.21817 342.2625L366.71817 349.45L365.68692 349.45L363.20255 342.1375L363.20255 349.45L362.1088 349.45Z" fill-rule="nonzero"/><path fill="#000000" d="M404.90512 328.96564L403.85825 329.04376Q403.71762 328.41876 403.46762 328.1375Q403.03012 327.6844 402.40512 327.6844Q401.90512 327.6844 401.5145 327.96564Q401.03012 328.34064 400.73325 329.04376Q400.452 329.73126 400.43637 331.0125Q400.81137 330.4344 401.35825 330.15314Q401.92075 329.8719 402.53012 329.8719Q403.577 329.8719 404.31137 330.65314Q405.06137 331.4344 405.06137 332.65314Q405.06137 333.46564 404.702 334.16876Q404.35825 334.85626 403.74887 335.23126Q403.1395 335.59064 402.37387 335.59064Q401.04575 335.59064 400.21762 334.6219Q399.3895 333.65314 399.3895 331.4344Q399.3895 328.9344 400.31137 327.8094Q401.10825 326.825 402.46762 326.825Q403.48325 326.825 404.12387 327.40314Q404.78012 327.96564 404.90512 328.96564ZM400.60825 332.66876Q400.60825 333.21564 400.827 333.71564Q401.06137 334.2 401.46762 334.46564Q401.8895 334.73126 402.35825 334.73126Q403.0145 334.73126 403.49887 334.2Q403.98325 333.65314 403.98325 332.73126Q403.98325 331.84064 403.49887 331.325Q403.03012 330.8094 402.31137 330.8094Q401.59262 330.8094 401.09262 331.325Q400.60825 331.84064 400.60825 332.66876ZM407.0145 330.4344L407.0145 329.23126L408.21762 329.23126L408.21762 330.4344L407.0145 330.4344ZM407.0145 335.45L407.0145 334.2469L408.21762 334.2469L408.21762 335.45L407.0145 335.45ZM409.43637 331.21564Q409.43637 329.6844 409.74887 328.7625Q410.06137 327.825 410.67075 327.325Q411.29575 326.825 412.23325 326.825Q412.92075 326.825 413.43637 327.10626Q413.96762 327.3875 414.31137 327.91876Q414.65512 328.4344 414.84262 329.1844Q415.03012 329.9344 415.03012 331.21564Q415.03012 332.73126 414.71762 333.65314Q414.42075 334.575 413.79575 335.09064Q413.18637 335.59064 412.23325 335.59064Q410.99887 335.59064 410.28012 334.7Q409.43637 333.6375 409.43637 331.21564ZM410.5145 331.21564Q410.5145 333.325 411.0145 334.02814Q411.5145 334.73126 412.23325 334.73126Q412.96762 334.73126 413.452 334.02814Q413.952 333.325 413.952 331.21564Q413.952 329.09064 413.452 328.40314Q412.96762 327.7 412.21762 327.7Q411.49887 327.7 411.06137 328.3094Q410.5145 329.09064 410.5145 331.21564ZM416.43637 331.21564Q416.43637 329.6844 416.74887 328.7625Q417.06137 327.825 417.67075 327.325Q418.29575 326.825 419.23325 326.825Q419.92075 326.825 420.43637 327.10626Q420.96762 327.3875 421.31137 327.91876Q421.65512 328.4344 421.84262 329.1844Q422.03012 329.9344 422.03012 331.21564Q422.03012 332.73126 421.71762 333.65314Q421.42075 334.575 420.79575 335.09064Q420.18637 335.59064 419.23325 335.59064Q417.99887 335.59064 417.28012 334.7Q416.43637 333.6375 416.43637 331.21564ZM417.5145 331.21564Q417.5145 333.325 418.0145 334.02814Q418.5145 334.73126 419.23325 334.73126Q419.96762 334.73126 420.452 334.02814Q420.952 333.325 420.952 331.21564Q420.952 329.09064 420.452 328.40314Q419.96762 327.7 419.21762 327.7Q418.49887 327.7 418.06137 328.3094Q417.5145 329.09064 417.5145 331.21564Z" fill-rule="nonzero"/><path fill="#000000" d="M402.85825 349.45L402.85825 340.85626L406.10825 340.85626Q406.952 340.85626 407.40512 340.9344Q408.04575 341.04376 408.46762 341.34064Q408.90512 341.6375 409.15512 342.16876Q409.42075 342.7 409.42075 343.34064Q409.42075 344.4344 408.71762 345.2Q408.03012 345.95 406.202 345.95L403.99887 345.95L403.99887 349.45L402.85825 349.45ZM403.99887 344.95L406.21762 344.95Q407.327 344.95 407.78012 344.54376Q408.24887 344.1219 408.24887 343.3719Q408.24887 342.84064 407.96762 342.46564Q407.702 342.075 407.2645 341.95Q406.96762 341.8719 406.202 341.8719L403.99887 341.8719L403.99887 344.95ZM410.827 349.45L410.827 340.85626L412.54575 340.85626L414.577 346.9344Q414.85825 347.79376 414.98325 348.21564Q415.12387 347.7469 415.43637 346.84064L417.49887 340.85626L419.03012 340.85626L419.03012 349.45L417.93637 349.45L417.93637 342.2625L415.43637 349.45L414.40512 349.45L411.92075 342.1375L411.92075 349.45L410.827 349.45Z" fill-rule="nonzero"/><path fill="#000000" d="M448.21704 327.98126L448.21704 326.96564L453.77954 326.96564L453.77954 327.79376Q452.96704 328.66876 452.15454 330.1219Q451.35767 331.5594 450.92017 333.09064Q450.59204 334.16876 450.51392 335.45L449.42017 335.45Q449.4358 334.4344 449.8108 332.9969Q450.20142 331.5594 450.90454 330.23126Q451.6233 328.90314 452.4358 327.98126L448.21704 327.98126ZM455.73267 330.4344L455.73267 329.23126L456.9358 329.23126L456.9358 330.4344L455.73267 330.4344ZM455.73267 335.45L455.73267 334.2469L456.9358 334.2469L456.9358 335.45L455.73267 335.45ZM458.15454 331.21564Q458.15454 329.6844 458.46704 328.7625Q458.77954 327.825 459.38892 327.325Q460.01392 326.825 460.95142 326.825Q461.63892 326.825 462.15454 327.10626Q462.6858 327.3875 463.02954 327.91876Q463.3733 328.4344 463.5608 329.1844Q463.7483 329.9344 463.7483 331.21564Q463.7483 332.73126 463.4358 333.65314Q463.13892 334.575 462.51392 335.09064Q461.90454 335.59064 460.95142 335.59064Q459.71704 335.59064 458.9983 334.7Q458.15454 333.6375 458.15454 331.21564ZM459.23267 331.21564Q459.23267 333.325 459.73267 334.02814Q460.23267 334.73126 460.95142 334.73126Q461.6858 334.73126 462.17017 334.02814Q462.67017 333.325 462.67017 331.21564Q462.67017 329.09064 462.17017 328.40314Q461.6858 327.7 460.9358 327.7Q460.21704 327.7 459.77954 328.3094Q459.23267 329.09064 459.23267 331.21564ZM465.15454 331.21564Q465.15454 329.6844 465.46704 328.7625Q465.77954 327.825 466.38892 327.325Q467.01392 326.825 467.95142 326.825Q468.63892 326.825 469.15454 327.10626Q469.6858 327.3875 470.02954 327.91876Q470.3733 328.4344 470.5608 329.1844Q470.7483 329.9344 470.7483 331.21564Q470.7483 332.73126 470.4358 333.65314Q470.13892 334.575 469.51392 335.09064Q468.90454 335.59064 467.95142 335.59064Q466.71704 335.59064 465.9983 334.7Q465.15454 333.6375 465.15454 331.21564ZM466.23267 331.21564Q466.23267 333.325 466.73267 334.02814Q467.23267 334.73126 467.95142 334.73126Q468.6858 334.73126 469.17017 334.02814Q469.67017 333.325 469.67017 331.21564Q469.67017 329.09064 469.17017 328.40314Q468.6858 327.7 467.9358 327.7Q467.21704 327.7 466.77954 328.3094Q466.23267 329.09064 466.23267 331.21564Z" fill-rule="nonzero"/><path fill="#000000" d="M451.57642 349.45L451.57642 340.85626L454.82642 340.85626Q455.67017 340.85626 456.1233 340.9344Q456.76392 341.04376 457.1858 341.34064Q457.6233 341.6375 457.8733 342.16876Q458.13892 342.7 458.13892 343.34064Q458.13892 344.4344 457.4358 345.2Q456.7483 345.95 454.92017 345.95L452.71704 345.95L452.71704 349.45L451.57642 349.45ZM452.71704 344.95L454.9358 344.95Q456.04517 344.95 456.4983 344.54376Q456.96704 344.1219 456.96704 343.3719Q456.96704 342.84064 456.6858 342.46564Q456.42017 342.075 455.98267 341.95Q455.6858 341.8719 454.92017 341.8719L452.71704 341.8719L452.71704 344.95ZM459.54517 349.45L459.54517 340.85626L461.26392 340.85626L463.29517 346.9344Q463.57642 347.79376 463.70142 348.21564Q463.84204 347.7469 464.15454 346.84064L466.21704 340.85626L467.7483 340.85626L467.7483 349.45L466.65454 349.45L466.65454 342.2625L464.15454 349.45L463.1233 349.45L460.63892 342.1375L460.63892 349.45L459.54517 349.45Z" fill-rule="nonzero"/><path fill="#000000" d="M498.49774 330.79376Q497.8415 330.54376 497.51337 330.10626Q497.20087 329.65314 497.20087 329.04376Q497.20087 328.10626 497.87274 327.46564Q498.56024 326.825 499.66962 326.825Q500.79462 326.825 501.48212 327.48126Q502.16962 328.1375 502.16962 329.075Q502.16962 329.66876 501.85712 330.10626Q501.54462 330.54376 500.904 330.79376Q501.70087 331.04376 502.10712 331.6219Q502.51337 332.2 502.51337 332.9969Q502.51337 334.09064 501.73212 334.84064Q500.9665 335.59064 499.68524 335.59064Q498.41962 335.59064 497.63837 334.84064Q496.85712 334.09064 496.85712 332.96564Q496.85712 332.1219 497.279 331.5594Q497.7165 330.9969 498.49774 330.79376ZM498.279 328.9969Q498.279 329.60626 498.66962 329.9969Q499.07587 330.3875 499.70087 330.3875Q500.31024 330.3875 500.70087 330.0125Q501.0915 329.6219 501.0915 329.0594Q501.0915 328.48126 500.68524 328.09064Q500.279 327.6844 499.68524 327.6844Q499.07587 327.6844 498.66962 328.075Q498.279 328.46564 498.279 328.9969ZM497.95087 332.96564Q497.95087 333.41876 498.154 333.84064Q498.37274 334.2625 498.79462 334.4969Q499.2165 334.73126 499.70087 334.73126Q500.45087 334.73126 500.93524 334.2469Q501.43524 333.7625 501.43524 333.0125Q501.43524 332.2469 500.93524 331.7469Q500.43524 331.2469 499.66962 331.2469Q498.91962 331.2469 498.43524 331.7469Q497.95087 332.23126 497.95087 332.96564ZM504.45087 330.4344L504.45087 329.23126L505.654 329.23126L505.654 330.4344L504.45087 330.4344ZM504.45087 335.45L504.45087 334.2469L505.654 334.2469L505.654 335.45L504.45087 335.45ZM506.87274 331.21564Q506.87274 329.6844 507.18524 328.7625Q507.49774 327.825 508.10712 327.325Q508.73212 326.825 509.66962 326.825Q510.35712 326.825 510.87274 327.10626Q511.404 327.3875 511.74774 327.91876Q512.0915 328.4344 512.279 329.1844Q512.4665 329.9344 512.4665 331.21564Q512.4665 332.73126 512.154 333.65314Q511.85712 334.575 511.23212 335.09064Q510.62274 335.59064 509.66962 335.59064Q508.43524 335.59064 507.7165 334.7Q506.87274 333.6375 506.87274 331.21564ZM507.95087 331.21564Q507.95087 333.325 508.45087 334.02814Q508.95087 334.73126 509.66962 334.73126Q510.404 334.73126 510.88837 334.02814Q511.38837 333.325 511.38837 331.21564Q511.38837 329.09064 510.88837 328.40314Q510.404 327.7 509.654 327.7Q508.93524 327.7 508.49774 328.3094Q507.95087 329.09064 507.95087 331.21564ZM513.87274 331.21564Q513.87274 329.6844 514.18524 328.7625Q514.49774 327.825 515.1071 327.325Q515.7321 326.825 516.6696 326.825Q517.3571 326.825 517.87274 327.10626Q518.404 327.3875 518.74774 327.91876Q519.0915 328.4344 519.279 329.1844Q519.4665 329.9344 519.4665 331.21564Q519.4665 332.73126 519.154 333.65314Q518.8571 334.575 518.2321 335.09064Q517.62274 335.59064 516.6696 335.59064Q515.43524 335.59064 514.7165 334.7Q513.87274 333.6375 513.87274 331.21564ZM514.95087 331.21564Q514.95087 333.325 515.45087 334.02814Q515.95087 334.73126 516.6696 334.73126Q517.404 334.73126 517.88837 334.02814Q518.38837 333.325 518.38837 331.21564Q518.38837 329.09064 517.88837 328.40314Q517.404 327.7 516.654 327.7Q515.93524 327.7 515.49774 328.3094Q514.95087 329.09064 514.95087 331.21564Z" fill-rule="nonzero"/><path fill="#000000" d="M500.29462 349.45L500.29462 340.85626L503.54462 340.85626Q504.38837 340.85626 504.8415 340.9344Q505.48212 341.04376 505.904 341.34064Q506.3415 341.6375 506.5915 342.16876Q506.85712 342.7 506.85712 343.34064Q506.85712 344.4344 506.154 345.2Q505.4665 345.95 503.63837 345.95L501.43524 345.95L501.43524 349.45L500.29462 349.45ZM501.43524 344.95L503.654 344.95Q504.76337 344.95 505.2165 344.54376Q505.68524 344.1219 505.68524 343.3719Q505.68524 342.84064 505.404 342.46564Q505.13837 342.075 504.70087 341.95Q504.404 341.8719 503.63837 341.8719L501.43524 341.8719L501.43524 344.95ZM508.26337 349.45L508.26337 340.85626L509.98212 340.85626L512.01337 346.9344Q512.2946 347.79376 512.4196 348.21564Q512.56024 347.7469 512.87274 346.84064L514.93524 340.85626L516.4665 340.85626L516.4665 349.45L515.37274 349.45L515.37274 342.2625L512.87274 349.45L511.8415 349.45L509.35712 342.1375L509.35712 349.45L508.26337 349.45Z" fill-rule="nonzero"/><path fill="#000000" d="M545.74713 333.46564L546.76276 333.3719Q546.88776 334.09064 547.24713 334.41876Q547.62213 334.73126 548.18463 334.73126Q548.669 334.73126 549.0284 334.5125Q549.4034 334.27814 549.63776 333.91876Q549.87213 333.54376 550.0284 332.91876Q550.18463 332.27814 550.18463 331.6219Q550.18463 331.54376 550.18463 331.40314Q549.87213 331.90314 549.32526 332.23126Q548.7784 332.54376 548.13776 332.54376Q547.05963 332.54376 546.32526 331.77814Q545.5909 330.9969 545.5909 329.73126Q545.5909 328.41876 546.3565 327.6219Q547.13776 326.825 548.294 326.825Q549.12213 326.825 549.80963 327.27814Q550.51276 327.73126 550.87213 328.575Q551.2315 329.40314 551.2315 330.98126Q551.2315 332.6219 550.87213 333.60626Q550.5284 334.575 549.80963 335.09064Q549.1065 335.59064 548.169 335.59064Q547.1534 335.59064 546.51276 335.04376Q545.87213 334.48126 545.74713 333.46564ZM550.05963 329.66876Q550.05963 328.7625 549.57526 328.23126Q549.1065 327.7 548.419 327.7Q547.7159 327.7 547.18463 328.27814Q546.669 328.84064 546.669 329.7625Q546.669 330.575 547.169 331.09064Q547.669 331.60626 548.38776 331.60626Q549.12213 331.60626 549.5909 331.09064Q550.05963 330.575 550.05963 329.66876ZM553.169 330.4344L553.169 329.23126L554.37213 329.23126L554.37213 330.4344L553.169 330.4344ZM553.169 335.45L553.169 334.2469L554.37213 334.2469L554.37213 335.45L553.169 335.45ZM555.5909 331.21564Q555.5909 329.6844 555.9034 328.7625Q556.2159 327.825 556.82526 327.325Q557.45026 326.825 558.38776 326.825Q559.07526 326.825 559.5909 327.10626Q560.12213 327.3875 560.4659 327.91876Q560.80963 328.4344 560.99713 329.1844Q561.18463 329.9344 561.18463 331.21564Q561.18463 332.73126 560.87213 333.65314Q560.57526 334.575 559.95026 335.09064Q559.3409 335.59064 558.38776 335.59064Q557.1534 335.59064 556.43463 334.7Q555.5909 333.6375 555.5909 331.21564ZM556.669 331.21564Q556.669 333.325 557.169 334.02814Q557.669 334.73126 558.38776 334.73126Q559.12213 334.73126 559.6065 334.02814Q560.1065 333.325 560.1065 331.21564Q560.1065 329.09064 559.6065 328.40314Q559.12213 327.7 558.37213 327.7Q557.6534 327.7 557.2159 328.3094Q556.669 329.09064 556.669 331.21564ZM562.5909 331.21564Q562.5909 329.6844 562.9034 328.7625Q563.2159 327.825 563.82526 327.325Q564.45026 326.825 565.38776 326.825Q566.07526 326.825 566.5909 327.10626Q567.12213 327.3875 567.4659 327.91876Q567.80963 328.4344 567.99713 329.1844Q568.18463 329.9344 568.18463 331.21564Q568.18463 332.73126 567.87213 333.65314Q567.57526 334.575 566.95026 335.09064Q566.3409 335.59064 565.38776 335.59064Q564.1534 335.59064 563.43463 334.7Q562.5909 333.6375 562.5909 331.21564ZM563.669 331.21564Q563.669 333.325 564.169 334.02814Q564.669 334.73126 565.38776 334.73126Q566.12213 334.73126 566.6065 334.02814Q567.1065 333.325 567.1065 331.21564Q567.1065 329.09064 566.6065 328.40314Q566.12213 327.7 565.37213 327.7Q564.6534 327.7 564.2159 328.3094Q563.669 329.09064 563.669 331.21564Z" fill-rule="nonzero"/><path fill="#000000" d="M549.01276 349.45L549.01276 340.85626L552.26276 340.85626Q553.1065 340.85626 553.55963 340.9344Q554.20026 341.04376 554.62213 341.34064Q555.05963 341.6375 555.30963 342.16876Q555.57526 342.7 555.57526 343.34064Q555.57526 344.4344 554.87213 345.2Q554.18463 345.95 552.3565 345.95L550.1534 345.95L550.1534 349.45L549.01276 349.45ZM550.1534 344.95L552.37213 344.95Q553.4815 344.95 553.93463 344.54376Q554.4034 344.1219 554.4034 343.3719Q554.4034 342.84064 554.12213 342.46564Q553.8565 342.075 553.419 341.95Q553.12213 341.8719 552.3565 341.8719L550.1534 341.8719L550.1534 344.95ZM556.9815 349.45L556.9815 340.85626L558.70026 340.85626L560.7315 346.9344Q561.01276 347.79376 561.13776 348.21564Q561.2784 347.7469 561.5909 346.84064L563.6534 340.85626L565.18463 340.85626L565.18463 349.45L564.0909 349.45L564.0909 342.2625L561.5909 349.45L560.55963 349.45L558.07526 342.1375L558.07526 349.45L556.9815 349.45Z" fill-rule="nonzero"/><path fill="#0000ff" d="M244.5 65.916664C244.5 69.23038 241.8137 71.916664 238.5 71.916664C235.1863 71.916664 232.5 69.23038 232.5 65.916664C232.5 62.60296 235.1863 59.916668 238.5 59.916668C241.8137 59.916668 244.5 62.60296 244.5 65.916664Z" fill-rule="nonzero"/><path fill="#1a1a1a" d="M253.4375 69.916664L253.4375 61.322914L257.25 61.322914Q258.40625 61.322914 259.0 61.55729Q259.59375 61.791664 259.95312 62.385414Q260.3125 62.96354 260.3125 63.666664Q260.3125 64.58854 259.71875 65.21354Q259.125 65.83854 257.89062 66.010414Q258.34375 66.229164 258.57812 66.43229Q259.07812 66.885414 259.51562 67.572914L261.01562 69.916664L259.57812 69.916664L258.45312 68.135414Q257.95312 67.354164 257.625 66.947914Q257.3125 66.541664 257.04688 66.385414Q256.79688 66.21354 256.53125 66.135414Q256.34375 66.104164 255.90625 66.104164L254.57812 66.104164L254.57812 69.916664L253.4375 69.916664ZM254.57812 65.11979L257.03125 65.11979Q257.79688 65.11979 258.23438 64.96354Q258.6875 64.791664 258.90625 64.447914Q259.14062 64.08854 259.14062 63.666664Q259.14062 63.05729 258.6875 62.666664Q258.25 62.27604 257.29688 62.27604L254.57812 62.27604L254.57812 65.11979ZM266.35938 69.15104Q265.76562 69.65104 265.21875 69.854164Q264.6875 70.05729 264.0625 70.05729Q263.03125 70.05729 262.48438 69.55729Q261.9375 69.05729 261.9375 68.27604Q261.9375 67.822914 262.14062 67.447914Q262.34375 67.05729 262.6875 66.83854Q263.03125 66.604164 263.45312 66.49479Q263.75 66.40104 264.39062 66.322914Q265.65625 66.18229 266.26562 65.96354Q266.26562 65.74479 266.26562 65.697914Q266.26562 65.041664 265.96875 64.77604Q265.5625 64.43229 264.76562 64.43229Q264.03125 64.43229 263.67188 64.697914Q263.3125 64.947914 263.14062 65.604164L262.10938 65.46354Q262.25 64.80729 262.57812 64.40104Q262.90625 63.99479 263.51562 63.77604Q264.125 63.55729 264.92188 63.55729Q265.71875 63.55729 266.21875 63.74479Q266.71875 63.93229 266.95312 64.21354Q267.1875 64.49479 267.28125 64.93229Q267.32812 65.197914 267.32812 65.90104L267.32812 67.30729Q267.32812 68.77604 267.39062 69.166664Q267.46875 69.55729 267.67188 69.916664L266.5625 69.916664Q266.40625 69.58854 266.35938 69.15104ZM266.26562 66.791664Q265.6875 67.02604 264.54688 67.197914Q263.89062 67.291664 263.625 67.416664Q263.35938 67.52604 263.20312 67.74479Q263.0625 67.96354 263.0625 68.24479Q263.0625 68.666664 263.375 68.947914Q263.70312 69.229164 264.3125 69.229164Q264.92188 69.229164 265.39062 68.96354Q265.875 68.697914 266.09375 68.229164Q266.26562 67.86979 266.26562 67.18229L266.26562 66.791664ZM269.29688 62.541664L269.29688 61.322914L270.35938 61.322914L270.35938 62.541664L269.29688 62.541664ZM269.29688 69.916664L269.29688 63.697914L270.35938 63.697914L270.35938 69.916664L269.29688 69.916664ZM272.29688 69.916664L272.29688 63.697914L273.23438 63.697914L273.23438 64.572914Q273.92188 63.55729 275.21875 63.55729Q275.78125 63.55729 276.25 63.760414Q276.73438 63.96354 276.96875 64.291664Q277.20312 64.61979 277.29688 65.05729Q277.34375 65.354164 277.34375 66.08854L277.34375 69.916664L276.29688 69.916664L276.29688 66.135414Q276.29688 65.479164 276.17188 65.166664Q276.04688 64.854164 275.73438 64.666664Q275.42188 64.46354 275.0 64.46354Q274.32812 64.46354 273.82812 64.90104Q273.34375 65.322914 273.34375 66.510414L273.34375 69.916664L272.29688 69.916664ZM279.54688 69.916664L279.54688 64.510414L278.60938 64.510414L278.60938 63.697914L279.54688 63.697914L279.54688 63.02604Q279.54688 62.40104 279.65625 62.104164Q279.8125 61.68229 280.1875 61.43229Q280.57812 61.18229 281.26562 61.18229Q281.71875 61.18229 282.25 61.291664L282.09375 62.197914Q281.76562 62.15104 281.46875 62.15104Q280.98438 62.15104 280.78125 62.354164Q280.59375 62.55729 280.59375 63.11979L280.59375 63.697914L281.8125 63.697914L281.8125 64.510414L280.59375 64.510414L280.59375 69.916664L279.54688 69.916664ZM286.35938 69.15104Q285.76562 69.65104 285.21875 69.854164Q284.6875 70.05729 284.0625 70.05729Q283.03125 70.05729 282.48438 69.55729Q281.9375 69.05729 281.9375 68.27604Q281.9375 67.822914 282.14062 67.447914Q282.34375 67.05729 282.6875 66.83854Q283.03125 66.604164 283.45312 66.49479Q283.75 66.40104 284.39062 66.322914Q285.65625 66.18229 286.26562 65.96354Q286.26562 65.74479 286.26562 65.697914Q286.26562 65.041664 285.96875 64.77604Q285.5625 64.43229 284.76562 64.43229Q284.03125 64.43229 283.67188 64.697914Q283.3125 64.947914 283.14062 65.604164L282.10938 65.46354Q282.25 64.80729 282.57812 64.40104Q282.90625 63.99479 283.51562 63.77604Q284.125 63.55729 284.92188 63.55729Q285.71875 63.55729 286.21875 63.74479Q286.71875 63.93229 286.95312 64.21354Q287.1875 64.49479 287.28125 64.93229Q287.32812 65.197914 287.32812 65.90104L287.32812 67.30729Q287.32812 68.77604 287.39062 69.166664Q287.46875 69.55729 287.67188 69.916664L286.5625 69.916664Q286.40625 69.58854 286.35938 69.15104ZM286.26562 66.791664Q285.6875 67.02604 284.54688 67.197914Q283.89062 67.291664 283.625 67.416664Q283.35938 67.52604 283.20312 67.74479Q283.0625 67.96354 283.0625 68.24479Q283.0625 68.666664 283.375 68.947914Q283.70312 69.229164 284.3125 69.229164Q284.92188 69.229164 285.39062 68.96354Q285.875 68.697914 286.09375 68.229164Q286.26562 67.86979 286.26562 67.18229L286.26562 66.791664ZM289.26562 69.916664L289.26562 61.322914L290.32812 61.322914L290.32812 69.916664L289.26562 69.916664ZM292.26562 69.916664L292.26562 61.322914L293.32812 61.322914L293.32812 69.916664L292.26562 69.916664ZM300.3125 72.447914Q299.4375 71.33854 298.82812 69.86979Q298.23438 68.385414 298.23438 66.80729Q298.23438 65.416664 298.67188 64.135414Q299.20312 62.65104 300.3125 61.18229L301.0625 61.18229Q300.35938 62.40104 300.125 62.916664Q299.76562 63.729164 299.5625 64.604164Q299.3125 65.697914 299.3125 66.80729Q299.3125 69.635414 301.0625 72.447914L300.3125 72.447914ZM302.29688 69.916664L302.29688 63.697914L303.23438 63.697914L303.23438 64.572914Q303.53125 64.104164 304.01562 63.83854Q304.5 63.55729 305.125 63.55729Q305.8125 63.55729 306.25 63.83854Q306.70312 64.11979 306.875 64.635414Q307.625 63.55729 308.79688 63.55729Q309.73438 63.55729 310.21875 64.072914Q310.71875 64.572914 310.71875 65.65104L310.71875 69.916664L309.67188 69.916664L309.67188 65.99479Q309.67188 65.36979 309.5625 65.08854Q309.46875 64.80729 309.20312 64.635414Q308.9375 64.46354 308.5625 64.46354Q307.90625 64.46354 307.46875 64.90104Q307.04688 65.33854 307.04688 66.30729L307.04688 69.916664L305.98438 69.916664L305.98438 65.86979Q305.98438 65.166664 305.71875 64.822914Q305.46875 64.46354 304.89062 64.46354Q304.4375 64.46354 304.0625 64.697914Q303.6875 64.93229 303.51562 65.385414Q303.34375 65.83854 303.34375 66.68229L303.34375 69.916664L302.29688 69.916664ZM312.29688 69.916664L312.29688 63.697914L313.23438 63.697914L313.23438 64.572914Q313.53125 64.104164 314.01562 63.83854Q314.5 63.55729 315.125 63.55729Q315.8125 63.55729 316.25 63.83854Q316.70312 64.11979 316.875 64.635414Q317.625 63.55729 318.79688 63.55729Q319.73438 63.55729 320.21875 64.072914Q320.71875 64.572914 320.71875 65.65104L320.71875 69.916664L319.67188 69.916664L319.67188 65.99479Q319.67188 65.36979 319.5625 65.08854Q319.46875 64.80729 319.20312 64.635414Q318.9375 64.46354 318.5625 64.46354Q317.90625 64.46354 317.46875 64.90104Q317.04688 65.33854 317.04688 66.30729L317.04688 69.916664L315.98438 69.916664L315.98438 65.86979Q315.98438 65.166664 315.71875 64.822914Q315.46875 64.46354 314.89062 64.46354Q314.4375 64.46354 314.0625 64.697914Q313.6875 64.93229 313.51562 65.385414Q313.34375 65.83854 313.34375 66.68229L313.34375 69.916664L312.29688 69.916664ZM321.5 70.05729L323.98438 61.18229L324.82812 61.18229L322.34375 70.05729L321.5 70.05729ZM325.29688 69.916664L325.29688 61.322914L326.34375 61.322914L326.34375 64.40104Q327.07812 63.55729 328.20312 63.55729Q328.90625 63.55729 329.40625 63.83854Q329.92188 64.104164 330.14062 64.58854Q330.35938 65.05729 330.35938 65.979164L330.35938 69.916664L329.3125 69.916664L329.3125 65.979164Q329.3125 65.18229 328.96875 64.822914Q328.625 64.46354 328.0 64.46354Q327.53125 64.46354 327.10938 64.71354Q326.70312 64.947914 326.51562 65.36979Q326.34375 65.77604 326.34375 66.510414L326.34375 69.916664L325.29688 69.916664ZM332.28125 69.916664L332.28125 63.697914L333.23438 63.697914L333.23438 64.635414Q333.59375 63.979164 333.89062 63.77604Q334.20312 63.55729 334.57812 63.55729Q335.10938 63.55729 335.65625 63.885414L335.29688 64.86979Q334.90625 64.635414 334.53125 64.635414Q334.17188 64.635414 333.89062 64.854164Q333.625 65.05729 333.51562 65.43229Q333.32812 65.99479 333.32812 66.65104L333.32812 69.916664L332.28125 69.916664ZM336.98438 72.447914L336.23438 72.447914Q337.98438 69.635414 337.98438 66.80729Q337.98438 65.71354 337.73438 64.61979Q337.53125 63.74479 337.17188 62.93229Q336.9375 62.416664 336.23438 61.18229L336.98438 61.18229Q338.07812 62.65104 338.60938 64.135414Q339.0625 65.416664 339.0625 66.80729Q339.0625 68.385414 338.45312 69.86979Q337.84375 71.33854 336.98438 72.447914Z" fill-rule="nonzero"/><path stroke="#0000ff" stroke-width="4.0" stroke-linecap="butt" stroke-opacity="0.4" d="M355.5 65.916664L367.5 65.916664" fill-rule="nonzero"/><path fill="#000000" d="M20.315624 40.55L20.315624 23.3625L27.6125 23.3625Q30.3625 23.3625 31.6125 23.83125Q32.8625 24.3 33.6125 25.4875Q34.3625 26.659374 34.3625 28.190624Q34.3625 30.1125 33.221874 31.378124Q32.08125 32.64375 29.83125 32.971874Q30.95625 33.628124 31.675 34.409374Q32.409374 35.190624 33.659374 37.190624L35.753124 40.55L31.6125 40.55L29.096874 36.815624Q27.76875 34.8 27.26875 34.284374Q26.784374 33.76875 26.221874 33.58125Q25.675 33.378124 24.4875 33.378124L23.784374 33.378124L23.784374 40.55L20.315624 40.55ZM23.784374 30.628124L26.346874 30.628124Q28.846874 30.628124 29.45625 30.425Q30.08125 30.20625 30.425 29.690624Q30.784374 29.175 30.784374 28.409374Q30.784374 27.534374 30.315624 27.003124Q29.8625 26.471874 29.01875 26.33125Q28.596874 26.26875 26.4875 26.26875L23.784374 26.26875L23.784374 30.628124ZM39.7375 31.89375L36.753124 31.3625Q37.253124 29.55 38.471874 28.690624Q39.70625 27.815624 42.14375 27.815624Q44.346874 27.815624 45.425 28.346874Q46.503124 28.8625 46.940624 29.675Q47.378124 30.471874 47.378124 32.6125L47.346874 36.45625Q47.346874 38.096874 47.503124 38.878124Q47.659374 39.659374 48.096874 40.55L44.83125 40.55Q44.70625 40.221874 44.51875 39.58125Q44.440624 39.284374 44.39375 39.190624Q43.55 40.003124 42.58125 40.425Q41.628124 40.83125 40.55 40.83125Q38.628124 40.83125 37.51875 39.784374Q36.409374 38.7375 36.409374 37.14375Q36.409374 36.096874 36.909374 35.26875Q37.409374 34.440624 38.315624 34.003124Q39.2375 33.565624 40.940624 33.2375Q43.253124 32.8 44.14375 32.425L44.14375 32.096874Q44.14375 31.14375 43.675 30.753124Q43.20625 30.346874 41.909374 30.346874Q41.01875 30.346874 40.51875 30.690624Q40.034374 31.034374 39.7375 31.89375ZM44.14375 34.565624Q43.503124 34.784374 42.128124 35.08125Q40.76875 35.3625 40.346874 35.64375Q39.70625 36.1125 39.70625 36.815624Q39.70625 37.503124 40.221874 38.003124Q40.7375 38.503124 41.534374 38.503124Q42.425 38.503124 43.221874 37.925Q43.83125 37.471874 44.01875 36.83125Q44.14375 36.409374 44.14375 35.221874L44.14375 34.565624ZM50.26875 26.409374L50.26875 23.3625L53.565624 23.3625L53.565624 26.409374L50.26875 26.409374ZM50.26875 40.55L50.26875 28.096874L53.565624 28.096874L53.565624 40.55L50.26875 40.55ZM68.59688 40.55L65.3 40.55L65.3 34.190624Q65.3 32.175 65.08125 31.596874Q64.87813 31.003124 64.39375 30.675Q63.925 30.346874 63.26875 30.346874Q62.409374 30.346874 61.721874 30.815624Q61.05 31.284374 60.8 32.065624Q60.55 32.83125 60.55 34.909374L60.55 40.55L57.253124 40.55L57.253124 28.096874L60.315624 28.096874L60.315624 29.925Q61.940624 27.815624 64.40938 27.815624Q65.50313 27.815624 66.39375 28.221874Q67.3 28.6125 67.76875 29.221874Q68.2375 29.83125 68.40938 30.6125Q68.59688 31.378124 68.59688 32.815624L68.59688 40.55ZM70.83125 28.096874L72.65938 28.096874L72.65938 27.159374Q72.65938 25.596874 72.9875 24.83125Q73.33125 24.05 74.22188 23.565624Q75.12813 23.08125 76.4875 23.08125Q77.89375 23.08125 79.25313 23.503124L78.8 25.8Q78.01875 25.6125 77.28438 25.6125Q76.58125 25.6125 76.26875 25.940624Q75.95625 26.26875 75.95625 27.221874L75.95625 28.096874L78.40938 28.096874L78.40938 30.690624L75.95625 30.690624L75.95625 40.55L72.65938 40.55L72.65938 30.690624L70.83125 30.690624L70.83125 28.096874ZM82.7375 31.89375L79.75313 31.3625Q80.25313 29.55 81.47188 28.690624Q82.70625 27.815624 85.14375 27.815624Q87.34688 27.815624 88.425 28.346874Q89.50313 28.8625 89.94063 29.675Q90.37813 30.471874 90.37813 32.6125L90.34688 36.45625Q90.34688 38.096874 90.50313 38.878124Q90.65938 39.659374 91.09688 40.55L87.83125 40.55Q87.70625 40.221874 87.51875 39.58125Q87.44063 39.284374 87.39375 39.190624Q86.55 40.003124 85.58125 40.425Q84.62813 40.83125 83.55 40.83125Q81.62813 40.83125 80.51875 39.784374Q79.40938 38.7375 79.40938 37.14375Q79.40938 36.096874 79.90938 35.26875Q80.40938 34.440624 81.31563 34.003124Q82.2375 33.565624 83.94063 33.2375Q86.25313 32.8 87.14375 32.425L87.14375 32.096874Q87.14375 31.14375 86.675 30.753124Q86.20625 30.346874 84.90938 30.346874Q84.01875 30.346874 83.51875 30.690624Q83.03438 31.034374 82.7375 31.89375ZM87.14375 34.565624Q86.50313 34.784374 85.12813 35.08125Q83.76875 35.3625 83.34688 35.64375Q82.70625 36.1125 82.70625 36.815624Q82.70625 37.503124 83.22188 38.003124Q83.7375 38.503124 84.53438 38.503124Q85.425 38.503124 86.22188 37.925Q86.83125 37.471874 87.01875 36.83125Q87.14375 36.409374 87.14375 35.221874L87.14375 34.565624ZM93.26875 40.55L93.26875 23.3625L96.56563 23.3625L96.56563 40.55L93.26875 40.55ZM100.26875 40.55L100.26875 23.3625L103.56563 23.3625L103.56563 40.55L100.26875 40.55Z" fill-rule="nonzero"/></svg>