<svg version="1.1" viewBox="0.0 0.0 600.0 371.0" fill="none" stroke="none" stroke-linecap="square" stroke-miterlimit="10" width="600" height="371" xmlns:xlink="http://www.w3.org/1999/xlink" xmlns="http://www.w3.org/2000/svg"><path fill="#ffffff" d="M0 0L600.0 0L600.0 371.0L0 371.0L0 0Z" fill-rule="nonzero"/><path fill="#4285f4" d="M300.0 58.916668C346.98074 58.916668 391.12213 81.40783 418.73672 119.41605C446.35132 157.42427 454.10126 206.35538 439.5834 251.03673L369.7917 228.36003C377.05063 206.01936 373.17566 181.5538 359.36838 162.5497C345.56107 143.54558 323.4904 132.3 300.0 132.3Z" fill-rule="nonzero"/><path fill="#ea4335" d="M439.5834 251.03673C419.93512 311.50793 363.58316 352.45 300.0 352.45L300.0 279.06668C331.7916 279.06668 359.96756 258.5956 369.7917 228.36003Z" fill-rule="nonzero"/><path fill="#ff6d01" d="M254.6466 66.09994C269.29388 61.34075 284.59894 58.916668 300.0 58.916668L300.0 132.3C292.29947 132.3 284.64694 133.51204 277.3233 135.89163Z" fill-rule="nonzero"/><path fill="#34a853" d="M160.41661 160.32994C174.93445 115.6486 209.96526 80.61779 254.6466 66.09994L277.3233 135.89163C254.98264 143.15056 237.46722 160.66597 230.2083 183.00664Z" fill-rule="nonzero"/><path fill="#fbbc04" d="M300.0 352.45C253.01926 352.45 208.87787 329.95883 181.26328 291.95062C153.64868 253.9424 145.89876 205.01128 160.41661 160.32994L230.2083 183.00664C222.94937 205.3473 226.82434 229.81287 240.63164 248.81697C254.43893 267.82108 276.5096 279.06668 300.0 279.06668Z" fill-rule="nonzero"/><path fill="#1a1a1a" d="M19.425 69.635414Q19.425 66.43229 21.14375 64.61979Q22.8625 62.80729 25.596874 62.80729Q27.378124 62.80729 28.8 63.666664Q30.2375 64.510414 30.9875 66.041664Q31.7375 67.55729 31.7375 69.49479Q31.7375 71.447914 30.940624 72.99479Q30.159374 74.541664 28.70625 75.33854Q27.253124 76.135414 25.58125 76.135414Q23.76875 76.135414 22.33125 75.260414Q20.89375 74.385414 20.159374 72.86979Q19.425 71.33854 19.425 69.635414ZM21.175 69.666664Q21.175 71.99479 22.425 73.33854Q23.690624 74.68229 25.565624 74.68229Q27.503124 74.68229 28.7375 73.322914Q29.9875 71.96354 29.9875 69.479164Q29.9875 67.916664 29.45625 66.74479Q28.925 65.55729 27.89375 64.916664Q26.878124 64.27604 25.596874 64.27604Q23.784374 64.27604 22.471874 65.52604Q21.175 66.760414 21.175 69.666664ZM37.190624 74.49479L37.425 75.90104Q36.753124 76.041664 36.221874 76.041664Q35.3625 76.041664 34.878124 75.77604Q34.409374 75.49479 34.221874 75.05729Q34.034374 74.604164 34.034374 73.18229L34.034374 67.80729L32.8625 67.80729L32.8625 66.58854L34.034374 66.58854L34.034374 64.27604L35.596874 63.322914L35.596874 66.58854L37.190624 66.58854L37.190624 67.80729L35.596874 67.80729L35.596874 73.27604Q35.596874 73.947914 35.675 74.15104Q35.76875 74.33854 35.95625 74.447914Q36.14375 74.55729 36.503124 74.55729Q36.753124 74.55729 37.190624 74.49479ZM38.7375 75.916664L38.7375 63.02604L40.315624 63.02604L40.315624 67.65104Q41.425 66.36979 43.1125 66.36979Q44.14375 66.36979 44.909374 66.77604Q45.675 67.18229 46.003124 67.916664Q46.346874 68.635414 46.346874 69.99479L46.346874 75.916664L44.753124 75.916664L44.753124 69.99479Q44.753124 68.80729 44.2375 68.27604Q43.721874 67.729164 42.784374 67.729164Q42.08125 67.729164 41.45625 68.104164Q40.846874 68.46354 40.58125 69.08854Q40.315624 69.71354 40.315624 70.80729L40.315624 75.916664L38.7375 75.916664ZM55.128124 72.916664L56.76875 73.11979Q56.378124 74.541664 55.33125 75.33854Q54.284374 76.135414 52.659374 76.135414Q50.6125 76.135414 49.409374 74.86979Q48.20625 73.604164 48.20625 71.322914Q48.20625 68.979164 49.409374 67.68229Q50.628124 66.36979 52.565624 66.36979Q54.440624 66.36979 55.628124 67.65104Q56.815624 68.916664 56.815624 71.229164Q56.815624 71.36979 56.8 71.65104L49.846874 71.65104Q49.925 73.197914 50.70625 74.010414Q51.503124 74.822914 52.659374 74.822914Q53.534374 74.822914 54.14375 74.36979Q54.76875 73.916664 55.128124 72.916664ZM49.925 70.354164L55.14375 70.354164Q55.034374 69.18229 54.55 68.58854Q53.784374 67.666664 52.58125 67.666664Q51.503124 67.666664 50.753124 68.40104Q50.01875 69.135414 49.925 70.354164ZM58.721874 75.916664L58.721874 66.58854L60.14375 66.58854L60.14375 67.99479Q60.690624 67.010414 61.14375 66.697914Q61.6125 66.36979 62.159374 66.36979Q62.971874 66.36979 63.784374 66.885414L63.253124 68.354164Q62.659374 68.010414 62.08125 68.010414Q61.565624 68.010414 61.14375 68.322914Q60.7375 68.635414 60.565624 69.18229Q60.3 70.02604 60.3 71.02604L60.3 75.916664L58.721874 75.916664Z" fill-rule="nonzero"/><path fill="#9e9e9e" d="M19.3 97.541664L20.95625 97.40104Q21.14375 98.61979 21.815624 99.229164Q22.4875 99.83854 23.440624 99.83854Q24.58125 99.83854 25.3625 98.979164Q26.159374 98.11979 26.159374 96.68229Q26.159374 95.33854 25.39375 94.55729Q24.64375 93.77604 23.409374 93.77604Q22.64375 93.77604 22.01875 94.11979Q21.409374 94.46354 21.065624 95.02604L19.58125 94.822914L20.83125 88.21354L27.2375 88.21354L27.2375 89.71354L22.096874 89.71354L21.39375 93.18229Q22.565624 92.36979 23.83125 92.36979Q25.51875 92.36979 26.675 93.541664Q27.846874 94.71354 27.846874 96.541664Q27.846874 98.291664 26.815624 99.572914Q25.58125 101.135414 23.440624 101.135414Q21.675 101.135414 20.565624 100.15104Q19.45625 99.166664 19.3 97.541664ZM30.190624 100.916664L30.190624 99.11979L31.9875 99.11979L31.9875 100.916664L30.190624 100.916664ZM34.3 94.55729Q34.3 92.27604 34.76875 90.885414Q35.2375 89.49479 36.159374 88.74479Q37.096874 87.979164 38.503124 87.979164Q39.534374 87.979164 40.315624 88.40104Q41.096874 88.80729 41.596874 89.604164Q42.1125 90.385414 42.409374 91.52604Q42.70625 92.65104 42.70625 94.55729Q42.70625 96.822914 42.2375 98.229164Q41.76875 99.61979 40.83125 100.385414Q39.909374 101.135414 38.503124 101.135414Q36.628124 101.135414 35.565624 99.80729Q34.3 98.197914 34.3 94.55729ZM35.925 94.55729Q35.925 97.729164 36.659374 98.791664Q37.409374 99.83854 38.503124 99.83854Q39.58125 99.83854 40.33125 98.791664Q41.08125 97.729164 41.08125 94.55729Q41.08125 91.385414 40.33125 90.33854Q39.58125 89.291664 38.4875 89.291664Q37.39375 89.291664 36.7375 90.21354Q35.925 91.385414 35.925 94.55729ZM44.596874 91.11979Q44.596874 89.74479 45.284374 88.77604Q45.9875 87.80729 47.3 87.80729Q48.51875 87.80729 49.315624 88.68229Q50.1125 89.541664 50.1125 91.229164Q50.1125 92.854164 49.3 93.74479Q48.503124 94.61979 47.315624 94.61979Q46.159374 94.61979 45.378124 93.760414Q44.596874 92.885414 44.596874 91.11979ZM47.346874 88.90104Q46.753124 88.90104 46.3625 89.416664Q45.971874 89.916664 45.971874 91.27604Q45.971874 92.52604 46.3625 93.02604Q46.76875 93.52604 47.346874 93.52604Q47.940624 93.52604 48.33125 93.02604Q48.721874 92.510414 48.721874 91.166664Q48.721874 89.916664 48.33125 89.416664Q47.940624 88.90104 47.346874 88.90104ZM47.3625 101.385414L54.409374 87.80729L55.690624 87.80729L48.659374 101.385414L47.3625 101.385414ZM52.925 97.885414Q52.925 96.510414 53.6125 95.541664Q54.315624 94.572914 55.64375 94.572914Q56.8625 94.572914 57.64375 95.447914Q58.440624 96.30729 58.440624 97.99479Q58.440624 99.61979 57.64375 100.510414Q56.846874 101.385414 55.659374 101.385414Q54.4875 101.385414 53.70625 100.510414Q52.925 99.635414 52.925 97.885414ZM55.690624 95.666664Q55.096874 95.666664 54.70625 96.18229Q54.315624 96.68229 54.315624 98.05729Q54.315624 99.27604 54.70625 99.791664Q55.096874 100.30729 55.675 100.30729Q56.284374 100.30729 56.675 99.791664Q57.065624 99.27604 57.065624 97.93229Q57.065624 96.68229 56.675 96.18229Q56.284374 95.666664 55.690624 95.666664Z" fill-rule="nonzero"/><path stroke="#757575" stroke-width="1.0" stroke-linecap="butt" d="M18.55 82.416664L147.23334 82.416664L278.1886 67.971596" fill-rule="nonzero"/><path fill="#9e9e9e" d="M280.1886 67.971596C280.1886 66.86703 279.29318 65.971596 278.1886 65.971596C277.08405 65.971596 276.1886 66.86703 276.1886 67.971596C276.1886 69.076164 277.08405 69.971596 278.1886 69.971596C279.29318 69.971596 280.1886 69.076164 280.1886 67.971596" fill-rule="nonzero"/><path fill="#1a1a1a" d="M19.89375 122.916664L19.89375 110.02604L22.45625 110.02604L25.503124 119.15104Q25.925 120.43229 26.1125 121.05729Q26.33125 120.354164 26.8 118.99479L29.89375 110.02604L32.175 110.02604L32.175 122.916664L30.534374 122.916664L30.534374 112.135414L26.8 122.916664L25.253124 122.916664L21.534374 111.947914L21.534374 122.916664L19.89375 122.916664ZM40.83125 121.760414Q39.95625 122.510414 39.128124 122.822914Q38.315624 123.135414 37.39375 123.135414Q35.846874 123.135414 35.01875 122.385414Q34.20625 121.61979 34.20625 120.447914Q34.20625 119.77604 34.51875 119.21354Q34.83125 118.635414 35.33125 118.291664Q35.83125 117.947914 36.471874 117.77604Q36.940624 117.65104 37.878124 117.541664Q39.784374 117.30729 40.690624 116.99479Q40.70625 116.666664 40.70625 116.572914Q40.70625 115.61979 40.253124 115.21354Q39.64375 114.68229 38.45625 114.68229Q37.33125 114.68229 36.8 115.072914Q36.26875 115.46354 36.01875 116.46354L34.471874 116.24479Q34.690624 115.24479 35.159374 114.635414Q35.64375 114.02604 36.55 113.697914Q37.471874 113.36979 38.690624 113.36979Q39.878124 113.36979 40.628124 113.65104Q41.378124 113.93229 41.721874 114.36979Q42.08125 114.791664 42.221874 115.43229Q42.3 115.83854 42.3 116.90104L42.3 119.010414Q42.3 121.21354 42.39375 121.80729Q42.503124 122.385414 42.8 122.916664L41.14375 122.916664Q40.89375 122.416664 40.83125 121.760414ZM40.690624 118.229164Q39.83125 118.58854 38.1125 118.822914Q37.14375 118.96354 36.7375 119.15104Q36.33125 119.322914 36.1125 119.666664Q35.89375 119.99479 35.89375 120.416664Q35.89375 121.041664 36.3625 121.46354Q36.846874 121.885414 37.76875 121.885414Q38.690624 121.885414 39.39375 121.49479Q40.1125 121.08854 40.440624 120.40104Q40.690624 119.854164 40.690624 118.80729L40.690624 118.229164ZM44.753124 111.854164L44.753124 110.02604L46.33125 110.02604L46.33125 111.854164L44.753124 111.854164ZM44.753124 122.916664L44.753124 113.58854L46.33125 113.58854L46.33125 122.916664L44.753124 122.916664ZM47.909374 122.916664L47.909374 121.635414L53.846874 114.80729Q52.83125 114.86979 52.065624 114.86979L48.253124 114.86979L48.253124 113.58854L55.878124 113.58854L55.878124 114.635414L50.83125 120.55729L49.846874 121.635414Q50.909374 121.55729 51.846874 121.55729L56.159374 121.55729L56.159374 122.916664L47.909374 122.916664ZM64.12813 119.916664L65.76875 120.11979Q65.37813 121.541664 64.33125 122.33854Q63.284374 123.135414 61.659374 123.135414Q59.6125 123.135414 58.409374 121.86979Q57.20625 120.604164 57.20625 118.322914Q57.20625 115.979164 58.409374 114.68229Q59.628124 113.36979 61.565624 113.36979Q63.440624 113.36979 64.62813 114.65104Q65.81563 115.916664 65.81563 118.229164Q65.81563 118.36979 65.8 118.65104L58.846874 118.65104Q58.925 120.197914 59.70625 121.010414Q60.503124 121.822914 61.659374 121.822914Q62.534374 121.822914 63.14375 121.36979Q63.76875 120.916664 64.12813 119.916664ZM58.925 117.354164L64.14375 117.354164Q64.03438 116.18229 63.55 115.58854Q62.784374 114.666664 61.58125 114.666664Q60.503124 114.666664 59.753124 115.40104Q59.01875 116.135414 58.925 117.354164Z" fill-rule="nonzero"/><path fill="#9e9e9e" d="M25.253124 147.91667L23.675 147.91667L23.675 137.83855Q23.096874 138.38542 22.175 138.9323Q21.253124 139.46355 20.503124 139.7448L20.503124 138.21355Q21.83125 137.58855 22.83125 136.69792Q23.83125 135.8073 24.2375 134.97917L25.253124 134.97917L25.253124 147.91667ZM29.3 144.54167L30.95625 144.40105Q31.14375 145.6198 31.815624 146.22917Q32.4875 146.83855 33.440624 146.83855Q34.58125 146.83855 35.3625 145.97917Q36.159374 145.1198 36.159374 143.6823Q36.159374 142.33855 35.39375 141.5573Q34.64375 140.77605 33.409374 140.77605Q32.64375 140.77605 32.01875 141.1198Q31.409374 141.46355 31.065624 142.02605L29.58125 141.82292L30.83125 135.21355L37.2375 135.21355L37.2375 136.71355L32.096874 136.71355L31.39375 140.1823Q32.565624 139.3698 33.83125 139.3698Q35.51875 139.3698 36.675 140.54167Q37.846874 141.71355 37.846874 143.54167Q37.846874 145.29167 36.815624 146.57292Q35.58125 148.13542 33.440624 148.13542Q31.675 148.13542 30.565624 147.15105Q29.45625 146.16667 29.3 144.54167ZM40.190624 147.91667L40.190624 146.1198L41.9875 146.1198L41.9875 147.91667L40.190624 147.91667ZM44.3 141.5573Q44.3 139.27605 44.76875 137.88542Q45.2375 136.4948 46.159374 135.7448Q47.096874 134.97917 48.503124 134.97917Q49.534374 134.97917 50.315624 135.40105Q51.096874 135.8073 51.596874 136.60417Q52.1125 137.38542 52.409374 138.52605Q52.70625 139.65105 52.70625 141.5573Q52.70625 143.82292 52.2375 145.22917Q51.76875 146.6198 50.83125 147.38542Q49.909374 148.13542 48.503124 148.13542Q46.628124 148.13542 45.565624 146.8073Q44.3 145.19792 44.3 141.5573ZM45.925 141.5573Q45.925 144.72917 46.659374 145.79167Q47.409374 146.83855 48.503124 146.83855Q49.58125 146.83855 50.33125 145.79167Q51.08125 144.72917 51.08125 141.5573Q51.08125 138.38542 50.33125 137.33855Q49.58125 136.29167 48.4875 136.29167Q47.39375 136.29167 46.7375 137.21355Q45.925 138.38542 45.925 141.5573ZM54.596874 138.1198Q54.596874 136.7448 55.284374 135.77605Q55.9875 134.8073 57.3 134.8073Q58.51875 134.8073 59.315624 135.6823Q60.1125 136.54167 60.1125 138.22917Q60.1125 139.85417 59.3 140.7448Q58.503124 141.6198 57.315624 141.6198Q56.159374 141.6198 55.378124 140.76042Q54.596874 139.88542 54.596874 138.1198ZM57.346874 135.90105Q56.753124 135.90105 56.3625 136.41667Q55.971874 136.91667 55.971874 138.27605Q55.971874 139.52605 56.3625 140.02605Q56.76875 140.52605 57.346874 140.52605Q57.940624 140.52605 58.33125 140.02605Q58.721874 139.51042 58.721874 138.16667Q58.721874 136.91667 58.33125 136.41667Q57.940624 135.90105 57.346874 135.90105ZM57.3625 148.38542L64.40938 134.8073L65.69063 134.8073L58.659374 148.38542L57.3625 148.38542ZM62.925 144.88542Q62.925 143.51042 63.6125 142.54167Q64.31563 141.57292 65.64375 141.57292Q66.8625 141.57292 67.64375 142.44792Q68.44063 143.3073 68.44063 144.9948Q68.44063 146.6198 67.64375 147.51042Q66.84688 148.38542 65.65938 148.38542Q64.4875 148.38542 63.70625 147.51042Q62.925 146.63542 62.925 144.88542ZM65.69063 142.66667Q65.09688 142.66667 64.70625 143.1823Q64.31563 143.6823 64.31563 145.0573Q64.31563 146.27605 64.70625 146.79167Q65.09688 147.3073 65.675 147.3073Q66.28438 147.3073 66.675 146.79167Q67.06563 146.27605 67.06563 144.9323Q67.06563 143.6823 66.675 143.1823Q66.28438 142.66667 65.69063 142.66667Z" fill-rule="nonzero"/><path stroke="#757575" stroke-width="1.0" stroke-linecap="butt" d="M18.55 129.41667L147.23334 129.41667L201.40929 107.09261" fill-rule="nonzero"/><path fill="#9e9e9e" d="M203.40929 107.09261C203.40929 105.988045 202.51385 105.09261 201.40929 105.09261C200.30472 105.09261 199.40929 105.988045 199.40929 107.09261C199.40929 108.19718 200.30472 109.09261 201.40929 109.09261C202.51385 109.09261 203.40929 108.19718 203.40929 107.09261" fill-rule="nonzero"/><path fill="#1a1a1a" d="M19.940624 281.13724L19.940624 268.2466L24.8 268.2466Q26.08125 268.2466 26.753124 268.3716Q27.70625 268.52786 28.346874 268.981Q28.9875 269.4185 29.378124 270.231Q29.76875 271.02786 29.76875 271.981Q29.76875 273.6216 28.721874 274.76224Q27.675 275.90286 24.95625 275.90286L21.64375 275.90286L21.64375 281.13724L19.940624 281.13724ZM21.64375 274.3716L24.971874 274.3716Q26.628124 274.3716 27.315624 273.76224Q28.01875 273.15286 28.01875 272.02786Q28.01875 271.21536 27.6125 270.65286Q27.20625 270.07474 26.534374 269.88724Q26.096874 269.77786 24.940624 269.77786L21.64375 269.77786L21.64375 274.3716ZM31.14375 276.46536Q31.14375 273.8716 32.596874 272.6216Q33.8 271.59036 35.51875 271.59036Q37.45625 271.59036 38.675 272.856Q39.89375 274.1216 39.89375 276.34036Q39.89375 278.13724 39.346874 279.1685Q38.815624 280.19974 37.784374 280.77786Q36.753124 281.356 35.51875 281.356Q33.565624 281.356 32.346874 280.106Q31.14375 278.84036 31.14375 276.46536ZM32.76875 276.46536Q32.76875 278.26224 33.55 279.15286Q34.33125 280.0435 35.51875 280.0435Q36.70625 280.0435 37.4875 279.15286Q38.26875 278.2466 38.26875 276.4185Q38.26875 274.6841 37.471874 273.7935Q36.690624 272.90286 35.51875 272.90286Q34.33125 272.90286 33.55 273.7935Q32.76875 274.6841 32.76875 276.46536ZM45.190624 279.71536L45.425 281.1216Q44.753124 281.26224 44.221874 281.26224Q43.3625 281.26224 42.878124 280.9966Q42.409374 280.71536 42.221874 280.27786Q42.034374 279.82474 42.034374 278.40286L42.034374 273.02786L40.8625 273.02786L40.8625 271.8091L42.034374 271.8091L42.034374 269.4966L43.596874 268.5435L43.596874 271.8091L45.190624 271.8091L45.190624 273.02786L43.596874 273.02786L43.596874 278.4966Q43.596874 279.1685 43.675 279.3716Q43.76875 279.5591 43.95625 279.6685Q44.14375 279.77786 44.503124 279.77786Q44.753124 279.77786 45.190624 279.71536ZM52.83125 279.981Q51.95625 280.731 51.128124 281.0435Q50.315624 281.356 49.39375 281.356Q47.846874 281.356 47.01875 280.606Q46.20625 279.84036 46.20625 278.6685Q46.20625 277.9966 46.51875 277.4341Q46.83125 276.856 47.33125 276.51224Q47.83125 276.1685 48.471874 275.9966Q48.940624 275.8716 49.878124 275.76224Q51.784374 275.52786 52.690624 275.21536Q52.70625 274.88724 52.70625 274.7935Q52.70625 273.84036 52.253124 273.4341Q51.64375 272.90286 50.45625 272.90286Q49.33125 272.90286 48.8 273.2935Q48.26875 273.6841 48.01875 274.6841L46.471874 274.46536Q46.690624 273.46536 47.159374 272.856Q47.64375 272.2466 48.55 271.9185Q49.471874 271.59036 50.690624 271.59036Q51.878124 271.59036 52.628124 271.8716Q53.378124 272.15286 53.721874 272.59036Q54.08125 273.01224 54.221874 273.65286Q54.3 274.0591 54.3 275.1216L54.3 277.231Q54.3 279.4341 54.39375 280.02786Q54.503124 280.606 54.8 281.13724L53.14375 281.13724Q52.89375 280.63724 52.83125 279.981ZM52.690624 276.44974Q51.83125 276.8091 50.1125 277.0435Q49.14375 277.1841 48.7375 277.3716Q48.33125 277.5435 48.1125 277.88724Q47.89375 278.21536 47.89375 278.63724Q47.89375 279.26224 48.3625 279.6841Q48.846874 280.106 49.76875 280.106Q50.690624 280.106 51.39375 279.71536Q52.1125 279.3091 52.440624 278.6216Q52.690624 278.07474 52.690624 277.02786L52.690624 276.44974ZM60.190624 279.71536L60.425 281.1216Q59.753124 281.26224 59.221874 281.26224Q58.3625 281.26224 57.878124 280.9966Q57.409374 280.71536 57.221874 280.27786Q57.034374 279.82474 57.034374 278.40286L57.034374 273.02786L55.8625 273.02786L55.8625 271.8091L57.034374 271.8091L57.034374 269.4966L58.596874 268.5435L58.596874 271.8091L60.190624 271.8091L60.190624 273.02786L58.596874 273.02786L58.596874 278.4966Q58.596874 279.1685 58.675 279.3716Q58.76875 279.5591 58.95625 279.6685Q59.14375 279.77786 59.503124 279.77786Q59.753124 279.77786 60.190624 279.71536ZM61.14375 276.46536Q61.14375 273.8716 62.596874 272.6216Q63.8 271.59036 65.51875 271.59036Q67.45625 271.59036 68.675 272.856Q69.89375 274.1216 69.89375 276.34036Q69.89375 278.13724 69.34688 279.1685Q68.81563 280.19974 67.78438 280.77786Q66.75313 281.356 65.51875 281.356Q63.565624 281.356 62.346874 280.106Q61.14375 278.84036 61.14375 276.46536ZM62.76875 276.46536Q62.76875 278.26224 63.55 279.15286Q64.33125 280.0435 65.51875 280.0435Q66.70625 280.0435 67.4875 279.15286Q68.26875 278.2466 68.26875 276.4185Q68.26875 274.6841 67.47188 273.7935Q66.69063 272.90286 65.51875 272.90286Q64.33125 272.90286 63.55 273.7935Q62.76875 274.6841 62.76875 276.46536Z" fill-rule="nonzero"/><path fill="#9e9e9e" d="M19.3 302.731L20.89375 302.52786Q21.159374 303.8716 21.815624 304.46536Q22.471874 305.0591 23.409374 305.0591Q24.534374 305.0591 25.3 304.2935Q26.065624 303.51224 26.065624 302.3716Q26.065624 301.27786 25.346874 300.57474Q24.64375 299.856 23.55 299.856Q23.096874 299.856 22.425 300.0435L22.596874 298.65286Q22.753124 298.6685 22.8625 298.6685Q23.8625 298.6685 24.675 298.13724Q25.4875 297.606 25.4875 296.51224Q25.4875 295.63724 24.89375 295.07474Q24.3 294.4966 23.378124 294.4966Q22.45625 294.4966 21.83125 295.07474Q21.221874 295.65286 21.05 296.82474L19.471874 296.5435Q19.753124 294.94974 20.784374 294.07474Q21.815624 293.19974 23.346874 293.19974Q24.39375 293.19974 25.284374 293.65286Q26.175 294.106 26.64375 294.88724Q27.1125 295.6685 27.1125 296.5435Q27.1125 297.38724 26.659374 298.07474Q26.221874 298.7466 25.33125 299.15286Q26.471874 299.4185 27.096874 300.26224Q27.7375 301.09036 27.7375 302.32474Q27.7375 304.01224 26.503124 305.19974Q25.284374 306.3716 23.409374 306.3716Q21.70625 306.3716 20.58125 305.356Q19.471874 304.34036 19.3 302.731ZM29.3 299.77786Q29.3 297.4966 29.76875 296.106Q30.2375 294.71536 31.159374 293.96536Q32.096874 293.19974 33.503124 293.19974Q34.534374 293.19974 35.315624 293.6216Q36.096874 294.02786 36.596874 294.82474Q37.1125 295.606 37.409374 296.7466Q37.70625 297.8716 37.70625 299.77786Q37.70625 302.0435 37.2375 303.44974Q36.76875 304.84036 35.83125 305.606Q34.909374 306.356 33.503124 306.356Q31.628124 306.356 30.565624 305.02786Q29.3 303.4185 29.3 299.77786ZM30.925 299.77786Q30.925 302.94974 31.659374 304.01224Q32.409374 305.0591 33.503124 305.0591Q34.58125 305.0591 35.33125 304.01224Q36.08125 302.94974 36.08125 299.77786Q36.08125 296.606 35.33125 295.5591Q34.58125 294.51224 33.4875 294.51224Q32.39375 294.51224 31.7375 295.4341Q30.925 296.606 30.925 299.77786ZM40.190624 306.13724L40.190624 304.34036L41.9875 304.34036L41.9875 306.13724L40.190624 306.13724ZM44.3 299.77786Q44.3 297.4966 44.76875 296.106Q45.2375 294.71536 46.159374 293.96536Q47.096874 293.19974 48.503124 293.19974Q49.534374 293.19974 50.315624 293.6216Q51.096874 294.02786 51.596874 294.82474Q52.1125 295.606 52.409374 296.7466Q52.70625 297.8716 52.70625 299.77786Q52.70625 302.0435 52.2375 303.44974Q51.76875 304.84036 50.83125 305.606Q49.909374 306.356 48.503124 306.356Q46.628124 306.356 45.565624 305.02786Q44.3 303.4185 44.3 299.77786ZM45.925 299.77786Q45.925 302.94974 46.659374 304.01224Q47.409374 305.0591 48.503124 305.0591Q49.58125 305.0591 50.33125 304.01224Q51.08125 302.94974 51.08125 299.77786Q51.08125 296.606 50.33125 295.5591Q49.58125 294.51224 48.4875 294.51224Q47.39375 294.51224 46.7375 295.4341Q45.925 296.606 45.925 299.77786ZM54.596874 296.34036Q54.596874 294.96536 55.284374 293.9966Q55.9875 293.02786 57.3 293.02786Q58.51875 293.02786 59.315624 293.90286Q60.1125 294.76224 60.1125 296.44974Q60.1125 298.07474 59.3 298.96536Q58.503124 299.84036 57.315624 299.84036Q56.159374 299.84036 55.378124 298.981Q54.596874 298.106 54.596874 296.34036ZM57.346874 294.1216Q56.753124 294.1216 56.3625 294.63724Q55.971874 295.13724 55.971874 296.4966Q55.971874 297.7466 56.3625 298.2466Q56.76875 298.7466 57.346874 298.7466Q57.940624 298.7466 58.33125 298.2466Q58.721874 297.731 58.721874 296.38724Q58.721874 295.13724 58.33125 294.63724Q57.940624 294.1216 57.346874 294.1216ZM57.3625 306.606L64.40938 293.02786L65.69063 293.02786L58.659374 306.606L57.3625 306.606ZM62.925 303.106Q62.925 301.731 63.6125 300.76224Q64.31563 299.7935 65.64375 299.7935Q66.8625 299.7935 67.64375 300.6685Q68.44063 301.52786 68.44063 303.21536Q68.44063 304.84036 67.64375 305.731Q66.84688 306.606 65.65938 306.606Q64.4875 306.606 63.70625 305.731Q62.925 304.856 62.925 303.106ZM65.69063 300.88724Q65.09688 300.88724 64.70625 301.40286Q64.31563 301.90286 64.31563 303.27786Q64.31563 304.4966 64.70625 305.01224Q65.09688 305.52786 65.675 305.52786Q66.28438 305.52786 66.675 305.01224Q67.06563 304.4966 67.06563 303.15286Q67.06563 301.90286 66.675 301.40286Q66.28438 300.88724 65.69063 300.88724Z" fill-rule="nonzero"/><path stroke="#757575" stroke-width="1.0" stroke-linecap="butt" d="M18.55 287.63724L147.23334 287.63724L187.2001 287.63724" fill-rule="nonzero"/><path fill="#9e9e9e" d="M189.2001 287.63724C189.2001 286.53268 188.30467 285.63724 187.2001 285.63724C186.09554 285.63724 185.2001 286.53268 185.2001 287.63724C185.2001 288.74182 186.09554 289.63724 187.2001 289.63724C188.30467 289.63724 189.2001 288.74182 189.2001 287.63724" fill-rule="nonzero"/><path fill="#1a1a1a" d="M482.9344 117.229416L482.9344 104.33879L491.6219 104.33879L491.6219 105.87004L484.6375 105.87004L484.6375 109.854416L490.6844 109.854416L490.6844 111.37004L484.6375 111.37004L484.6375 117.229416L482.9344 117.229416ZM493.04376 112.55754Q493.04376 109.96379 494.4969 108.71379Q495.7 107.68254 497.41876 107.68254Q499.35626 107.68254 500.575 108.948166Q501.79376 110.21379 501.79376 112.43254Q501.79376 114.229416 501.2469 115.260666Q500.71564 116.291916 499.6844 116.87004Q498.65314 117.448166 497.41876 117.448166Q495.46564 117.448166 494.2469 116.198166Q493.04376 114.93254 493.04376 112.55754ZM494.66876 112.55754Q494.66876 114.354416 495.45 115.24504Q496.23126 116.135666 497.41876 116.135666Q498.60626 116.135666 499.3875 115.24504Q500.16876 114.33879 500.16876 112.510666Q500.16876 110.77629 499.3719 109.885666Q498.59064 108.99504 497.41876 108.99504Q496.23126 108.99504 495.45 109.885666Q494.66876 110.77629 494.66876 112.55754ZM502.575 117.229416L505.9969 112.37004L502.84064 107.90129L504.8094 107.90129L506.2469 110.08879Q506.65314 110.71379 506.90314 111.135666Q507.27814 110.541916 507.60626 110.104416L509.1844 107.90129L511.075 107.90129L507.84064 112.291916L511.325 117.229416L509.3719 117.229416L507.46564 114.323166L506.95 113.541916L504.4969 117.229416L502.575 117.229416ZM516.09064 115.80754L516.325 117.21379Q515.65314 117.354416 515.1219 117.354416Q514.2625 117.354416 513.77814 117.08879Q513.3094 116.80754 513.1219 116.37004Q512.9344 115.916916 512.9344 114.49504L512.9344 109.12004L511.7625 109.12004L511.7625 107.90129L512.9344 107.90129L512.9344 105.58879L514.4969 104.635666L514.4969 107.90129L516.09064 107.90129L516.09064 109.12004L514.4969 109.12004L514.4969 114.58879Q514.4969 115.260666 514.575 115.46379Q514.66876 115.65129 514.85626 115.760666Q515.04376 115.87004 515.40314 115.87004Q515.65314 115.87004 516.09064 115.80754ZM523.73126 116.073166Q522.85626 116.823166 522.02814 117.135666Q521.21564 117.448166 520.29376 117.448166Q518.7469 117.448166 517.91876 116.698166Q517.10626 115.93254 517.10626 114.760666Q517.10626 114.08879 517.41876 113.52629Q517.73126 112.948166 518.23126 112.604416Q518.73126 112.260666 519.3719 112.08879Q519.84064 111.96379 520.77814 111.854416Q522.6844 111.62004 523.59064 111.30754Q523.60626 110.979416 523.60626 110.885666Q523.60626 109.93254 523.15314 109.52629Q522.54376 108.99504 521.35626 108.99504Q520.23126 108.99504 519.7 109.385666Q519.16876 109.77629 518.91876 110.77629L517.3719 110.55754Q517.59064 109.55754 518.0594 108.948166Q518.54376 108.33879 519.45 108.010666Q520.3719 107.68254 521.59064 107.68254Q522.77814 107.68254 523.52814 107.96379Q524.27814 108.24504 524.6219 108.68254Q524.98126 109.104416 525.1219 109.74504Q525.2 110.15129 525.2 111.21379L525.2 113.323166Q525.2 115.52629 525.29376 116.12004Q525.40314 116.698166 525.7 117.229416L524.04376 117.229416Q523.79376 116.729416 523.73126 116.073166ZM523.59064 112.541916Q522.73126 112.90129 521.0125 113.135666Q520.04376 113.27629 519.6375 113.46379Q519.23126 113.635666 519.0125 113.979416Q518.79376 114.30754 518.79376 114.729416Q518.79376 115.354416 519.2625 115.77629Q519.7469 116.198166 520.66876 116.198166Q521.59064 116.198166 522.29376 115.80754Q523.0125 115.40129 523.34064 114.71379Q523.59064 114.166916 523.59064 113.12004L523.59064 112.541916ZM527.65314 106.166916L527.65314 104.33879L529.23126 104.33879L529.23126 106.166916L527.65314 106.166916ZM527.65314 117.229416L527.65314 107.90129L529.23126 107.90129L529.23126 117.229416L527.65314 117.229416ZM531.60626 117.229416L531.60626 104.33879L533.1844 104.33879L533.1844 117.229416L531.60626 117.229416ZM540.79376 117.229416L540.79376 104.33879L543.35626 104.33879L546.40314 113.46379Q546.825 114.74504 547.0125 115.37004Q547.23126 114.666916 547.7 113.30754L550.79376 104.33879L553.075 104.33879L553.075 117.229416L551.4344 117.229416L551.4344 106.448166L547.7 117.229416L546.15314 117.229416L542.4344 106.260666L542.4344 117.229416L540.79376 117.229416ZM555.65314 106.166916L555.65314 104.33879L557.23126 104.33879L557.23126 106.166916L555.65314 106.166916ZM555.65314 117.229416L555.65314 107.90129L557.23126 107.90129L557.23126 117.229416L555.65314 117.229416ZM559.60626 117.229416L559.60626 104.33879L561.1844 104.33879L561.1844 117.229416L559.60626 117.229416ZM563.60626 117.229416L563.60626 104.33879L565.1844 104.33879L565.1844 117.229416L563.60626 117.229416ZM574.02814 114.229416L575.66876 114.43254Q575.27814 115.854416 574.23126 116.65129Q573.1844 117.448166 571.5594 117.448166Q569.5125 117.448166 568.3094 116.18254Q567.10626 114.916916 567.10626 112.635666Q567.10626 110.291916 568.3094 108.99504Q569.52814 107.68254 571.46564 107.68254Q573.34064 107.68254 574.52814 108.96379Q575.71564 110.229416 575.71564 112.541916Q575.71564 112.68254 575.7 112.96379L568.7469 112.96379Q568.825 114.510666 569.60626 115.323166Q570.40314 116.135666 571.5594 116.135666Q572.4344 116.135666 573.04376 115.68254Q573.66876 115.229416 574.02814 114.229416ZM568.825 111.666916L574.04376 111.666916Q573.9344 110.49504 573.45 109.90129Q572.6844 108.979416 571.48126 108.979416Q570.40314 108.979416 569.65314 109.71379Q568.91876 110.448166 568.825 111.666916ZM581.09064 115.80754L581.325 117.21379Q580.65314 117.354416 580.1219 117.354416Q579.2625 117.354416 578.77814 117.08879Q578.3094 116.80754 578.1219 116.37004Q577.9344 115.916916 577.9344 114.49504L577.9344 109.12004L576.7625 109.12004L576.7625 107.90129L577.9344 107.90129L577.9344 105.58879L579.4969 104.635666L579.4969 107.90129L581.09064 107.90129L581.09064 109.12004L579.4969 109.12004L579.4969 114.58879Q579.4969 115.260666 579.575 115.46379Q579.66876 115.65129 579.85626 115.760666Q580.04376 115.87004 580.40314 115.87004Q580.65314 115.87004 581.09064 115.80754Z" fill-rule="nonzero"/><path fill="#9e9e9e" d="M531.2 138.82317L532.79376 138.62004Q533.0594 139.96379 533.71564 140.55754Q534.3719 141.15129 535.3094 141.15129Q536.4344 141.15129 537.2 140.38567Q537.96564 139.60442 537.96564 138.46379Q537.96564 137.37004 537.2469 136.66692Q536.54376 135.94817 535.45 135.94817Q534.9969 135.94817 534.325 136.13567L534.4969 134.74504Q534.65314 134.76067 534.7625 134.76067Q535.7625 134.76067 536.575 134.22942Q537.3875 133.69817 537.3875 132.60442Q537.3875 131.72942 536.79376 131.16692Q536.2 130.58879 535.27814 130.58879Q534.35626 130.58879 533.73126 131.16692Q533.1219 131.74504 532.95 132.91692L531.3719 132.63567Q531.65314 131.04192 532.6844 130.16692Q533.71564 129.29192 535.2469 129.29192Q536.29376 129.29192 537.1844 129.74504Q538.075 130.19817 538.54376 130.97942Q539.0125 131.76067 539.0125 132.63567Q539.0125 133.47942 538.5594 134.16692Q538.1219 134.83879 537.23126 135.24504Q538.3719 135.51067 538.9969 136.35442Q539.6375 137.18254 539.6375 138.41692Q539.6375 140.10442 538.40314 141.29192Q537.1844 142.46379 535.3094 142.46379Q533.60626 142.46379 532.48126 141.44817Q531.3719 140.43254 531.2 138.82317ZM541.2 135.87004Q541.2 133.58879 541.66876 132.19817Q542.1375 130.80754 543.0594 130.05754Q543.9969 129.29192 545.40314 129.29192Q546.4344 129.29192 547.21564 129.71379Q547.9969 130.12004 548.4969 130.91692Q549.0125 131.69817 549.3094 132.83879Q549.60626 133.96379 549.60626 135.87004Q549.60626 138.13567 549.1375 139.54192Q548.66876 140.93254 547.73126 141.69817Q546.8094 142.44817 545.40314 142.44817Q543.52814 142.44817 542.46564 141.12004Q541.2 139.51067 541.2 135.87004ZM542.825 135.87004Q542.825 139.04192 543.5594 140.10442Q544.3094 141.15129 545.40314 141.15129Q546.48126 141.15129 547.23126 140.10442Q547.98126 139.04192 547.98126 135.87004Q547.98126 132.69817 547.23126 131.65129Q546.48126 130.60442 545.3875 130.60442Q544.29376 130.60442 543.6375 131.52629Q542.825 132.69817 542.825 135.87004ZM552.09064 142.22942L552.09064 140.43254L553.8875 140.43254L553.8875 142.22942L552.09064 142.22942ZM556.2 135.87004Q556.2 133.58879 556.66876 132.19817Q557.1375 130.80754 558.0594 130.05754Q558.9969 129.29192 560.40314 129.29192Q561.4344 129.29192 562.21564 129.71379Q562.9969 130.12004 563.4969 130.91692Q564.0125 131.69817 564.3094 132.83879Q564.60626 133.96379 564.60626 135.87004Q564.60626 138.13567 564.1375 139.54192Q563.66876 140.93254 562.73126 141.69817Q561.8094 142.44817 560.40314 142.44817Q558.52814 142.44817 557.46564 141.12004Q556.2 139.51067 556.2 135.87004ZM557.825 135.87004Q557.825 139.04192 558.5594 140.10442Q559.3094 141.15129 560.40314 141.15129Q561.48126 141.15129 562.23126 140.10442Q562.98126 139.04192 562.98126 135.87004Q562.98126 132.69817 562.23126 131.65129Q561.48126 130.60442 560.3875 130.60442Q559.29376 130.60442 558.6375 131.52629Q557.825 132.69817 557.825 135.87004ZM566.4969 132.43254Q566.4969 131.05754 567.1844 130.08879Q567.8875 129.12004 569.2 129.12004Q570.41876 129.12004 571.21564 129.99504Q572.0125 130.85442 572.0125 132.54192Q572.0125 134.16692 571.2 135.05754Q570.40314 135.93254 569.21564 135.93254Q568.0594 135.93254 567.27814 135.07317Q566.4969 134.19817 566.4969 132.43254ZM569.2469 130.21379Q568.65314 130.21379 568.2625 130.72942Q567.8719 131.22942 567.8719 132.58879Q567.8719 133.83879 568.2625 134.33879Q568.66876 134.83879 569.2469 134.83879Q569.84064 134.83879 570.23126 134.33879Q570.6219 133.82317 570.6219 132.47942Q570.6219 131.22942 570.23126 130.72942Q569.84064 130.21379 569.2469 130.21379ZM569.2625 142.69817L576.3094 129.12004L577.59064 129.12004L570.5594 142.69817L569.2625 142.69817ZM574.825 139.19817Q574.825 137.82317 575.5125 136.85442Q576.21564 135.88567 577.54376 135.88567Q578.7625 135.88567 579.54376 136.76067Q580.34064 137.62004 580.34064 139.30754Q580.34064 140.93254 579.54376 141.82317Q578.7469 142.69817 577.5594 142.69817Q576.3875 142.69817 575.60626 141.82317Q574.825 140.94817 574.825 139.19817ZM577.59064 136.97942Q576.9969 136.97942 576.60626 137.49504Q576.21564 137.99504 576.21564 139.37004Q576.21564 140.58879 576.60626 141.10442Q576.9969 141.62004 577.575 141.62004Q578.1844 141.62004 578.575 141.10442Q578.96564 140.58879 578.96564 139.24504Q578.96564 137.99504 578.575 137.49504Q578.1844 136.97942 577.59064 136.97942Z" fill-rule="nonzero"/><path stroke="#757575" stroke-width="1.0" stroke-linecap="butt" d="M581.45 123.729416L452.76666 123.729416L412.7999 123.729416" fill-rule="nonzero"/><path fill="#9e9e9e" d="M414.7999 123.729416C414.7999 122.62485 413.90445 121.729416 412.7999 121.729416C411.6953 121.729416 410.7999 122.62485 410.7999 123.729416C410.7999 124.833984 411.6953 125.729416 412.7999 125.729416C413.90445 125.729416 414.7999 124.833984 414.7999 123.729416" fill-rule="nonzero"/><path fill="#1a1a1a" d="M534.325 305.70197Q534.325 302.49884 536.04376 300.68634Q537.7625 298.87384 540.4969 298.87384Q542.27814 298.87384 543.7 299.73322Q545.1375 300.57697 545.8875 302.10822Q546.6375 303.62384 546.6375 305.56134Q546.6375 307.51447 545.84064 309.06134Q545.0594 310.60822 543.60626 311.4051Q542.15314 312.20197 540.48126 312.20197Q538.66876 312.20197 537.23126 311.32697Q535.79376 310.45197 535.0594 308.93634Q534.325 307.4051 534.325 305.70197ZM536.075 305.73322Q536.075 308.06134 537.325 309.4051Q538.59064 310.74884 540.46564 310.74884Q542.40314 310.74884 543.6375 309.38947Q544.8875 308.0301 544.8875 305.54572Q544.8875 303.98322 544.35626 302.81134Q543.825 301.62384 542.79376 300.98322Q541.77814 300.3426 540.4969 300.3426Q538.6844 300.3426 537.3719 301.5926Q536.075 302.82697 536.075 305.73322ZM548.6375 311.98322L548.6375 302.6551L550.0594 302.6551L550.0594 303.98322Q551.09064 302.43634 553.02814 302.43634Q553.8719 302.43634 554.575 302.74884Q555.29376 303.04572 555.6375 303.54572Q555.9969 304.0301 556.1375 304.70197Q556.21564 305.13947 556.21564 306.24884L556.21564 311.98322L554.6375 311.98322L554.6375 306.31134Q554.6375 305.3426 554.45 304.85822Q554.27814 304.37384 553.79376 304.0926Q553.325 303.81134 552.7 303.81134Q551.6844 303.81134 550.95 304.45197Q550.21564 305.0926 550.21564 306.88947L550.21564 311.98322L548.6375 311.98322ZM558.65314 300.92072L558.65314 299.0926L560.23126 299.0926L560.23126 300.92072L558.65314 300.92072ZM558.65314 311.98322L558.65314 302.6551L560.23126 302.6551L560.23126 311.98322L558.65314 311.98322ZM562.04376 307.31134Q562.04376 304.7176 563.4969 303.4676Q564.7 302.43634 566.41876 302.43634Q568.35626 302.43634 569.575 303.70197Q570.79376 304.9676 570.79376 307.18634Q570.79376 308.98322 570.2469 310.01447Q569.71564 311.04572 568.6844 311.62384Q567.65314 312.20197 566.41876 312.20197Q564.46564 312.20197 563.2469 310.95197Q562.04376 309.68634 562.04376 307.31134ZM563.66876 307.31134Q563.66876 309.10822 564.45 309.99884Q565.23126 310.88947 566.41876 310.88947Q567.60626 310.88947 568.3875 309.99884Q569.16876 309.0926 569.16876 307.26447Q569.16876 305.5301 568.3719 304.63947Q567.59064 303.74884 566.41876 303.74884Q565.23126 303.74884 564.45 304.63947Q563.66876 305.5301 563.66876 307.31134ZM572.6375 311.98322L572.6375 302.6551L574.0594 302.6551L574.0594 303.98322Q575.09064 302.43634 577.02814 302.43634Q577.8719 302.43634 578.575 302.74884Q579.29376 303.04572 579.6375 303.54572Q579.9969 304.0301 580.1375 304.70197Q580.21564 305.13947 580.21564 306.24884L580.21564 311.98322L578.6375 311.98322L578.6375 306.31134Q578.6375 305.3426 578.45 304.85822Q578.27814 304.37384 577.79376 304.0926Q577.325 303.81134 576.7 303.81134Q575.6844 303.81134 574.95 304.45197Q574.21564 305.0926 574.21564 306.88947L574.21564 311.98322L572.6375 311.98322Z" fill-rule="nonzero"/><path fill="#9e9e9e" d="M539.5125 335.4676L539.5125 336.98322L530.9969 336.98322Q530.98126 336.4051 531.1844 335.88947Q531.5125 335.01447 532.21564 334.17072Q532.9344 333.32697 534.29376 332.2176Q536.3875 330.49884 537.1219 329.49884Q537.8719 328.48322 537.8719 327.5926Q537.8719 326.63947 537.2 325.99884Q536.52814 325.35822 535.45 325.35822Q534.29376 325.35822 533.60626 326.04572Q532.9344 326.73322 532.91876 327.93634L531.29376 327.76447Q531.46564 325.95197 532.54376 324.99884Q533.6375 324.04572 535.48126 324.04572Q537.325 324.04572 538.40314 325.07697Q539.4969 326.10822 539.4969 327.62384Q539.4969 328.38947 539.16876 329.13947Q538.85626 329.88947 538.1219 330.7176Q537.3875 331.54572 535.6844 332.98322Q534.2625 334.18634 533.85626 334.60822Q533.45 335.0301 533.2 335.4676L539.5125 335.4676ZM541.2 330.62384Q541.2 328.3426 541.66876 326.95197Q542.1375 325.56134 543.0594 324.81134Q543.9969 324.04572 545.40314 324.04572Q546.4344 324.04572 547.21564 324.4676Q547.9969 324.87384 548.4969 325.67072Q549.0125 326.45197 549.3094 327.5926Q549.60626 328.7176 549.60626 330.62384Q549.60626 332.88947 549.1375 334.29572Q548.66876 335.68634 547.73126 336.45197Q546.8094 337.20197 545.40314 337.20197Q543.52814 337.20197 542.46564 335.87384Q541.2 334.26447 541.2 330.62384ZM542.825 330.62384Q542.825 333.79572 543.5594 334.85822Q544.3094 335.9051 545.40314 335.9051Q546.48126 335.9051 547.23126 334.85822Q547.98126 333.79572 547.98126 330.62384Q547.98126 327.45197 547.23126 326.4051Q546.48126 325.35822 545.3875 325.35822Q544.29376 325.35822 543.6375 326.2801Q542.825 327.45197 542.825 330.62384ZM552.09064 336.98322L552.09064 335.18634L553.8875 335.18634L553.8875 336.98322L552.09064 336.98322ZM556.2 330.62384Q556.2 328.3426 556.66876 326.95197Q557.1375 325.56134 558.0594 324.81134Q558.9969 324.04572 560.40314 324.04572Q561.4344 324.04572 562.21564 324.4676Q562.9969 324.87384 563.4969 325.67072Q564.0125 326.45197 564.3094 327.5926Q564.60626 328.7176 564.60626 330.62384Q564.60626 332.88947 564.1375 334.29572Q563.66876 335.68634 562.73126 336.45197Q561.8094 337.20197 560.40314 337.20197Q558.52814 337.20197 557.46564 335.87384Q556.2 334.26447 556.2 330.62384ZM557.825 330.62384Q557.825 333.79572 558.5594 334.85822Q559.3094 335.9051 560.40314 335.9051Q561.48126 335.9051 562.23126 334.85822Q562.98126 333.79572 562.98126 330.62384Q562.98126 327.45197 562.23126 326.4051Q561.48126 325.35822 560.3875 325.35822Q559.29376 325.35822 558.6375 326.2801Q557.825 327.45197 557.825 330.62384ZM566.4969 327.18634Q566.4969 325.81134 567.1844 324.8426Q567.8875 323.87384 569.2 323.87384Q570.41876 323.87384 571.21564 324.74884Q572.0125 325.60822 572.0125 327.29572Q572.0125 328.92072 571.2 329.81134Q570.40314 330.68634 569.21564 330.68634Q568.0594 330.68634 567.27814 329.82697Q566.4969 328.95197 566.4969 327.18634ZM569.2469 324.9676Q568.65314 324.9676 568.2625 325.48322Q567.8719 325.98322 567.8719 327.3426Q567.8719 328.5926 568.2625 329.0926Q568.66876 329.5926 569.2469 329.5926Q569.84064 329.5926 570.23126 329.0926Q570.6219 328.57697 570.6219 327.23322Q570.6219 325.98322 570.23126 325.48322Q569.84064 324.9676 569.2469 324.9676ZM569.2625 337.45197L576.3094 323.87384L577.59064 323.87384L570.5594 337.45197L569.2625 337.45197ZM574.825 333.95197Q574.825 332.57697 575.5125 331.60822Q576.21564 330.63947 577.54376 330.63947Q578.7625 330.63947 579.54376 331.51447Q580.34064 332.37384 580.34064 334.06134Q580.34064 335.68634 579.54376 336.57697Q578.7469 337.45197 577.5594 337.45197Q576.3875 337.45197 575.60626 336.57697Q574.825 335.70197 574.825 333.95197ZM577.59064 331.73322Q576.9969 331.73322 576.60626 332.24884Q576.21564 332.74884 576.21564 334.12384Q576.21564 335.3426 576.60626 335.85822Q576.9969 336.37384 577.575 336.37384Q578.1844 336.37384 578.575 335.85822Q578.96564 335.3426 578.96564 333.99884Q578.96564 332.74884 578.575 332.24884Q578.1844 331.73322 577.59064 331.73322Z" fill-rule="nonzero"/><path stroke="#757575" stroke-width="1.0" stroke-linecap="butt" d="M581.45 318.48322L452.76666 318.48322L381.95392 318.48322" fill-rule="nonzero"/><path fill="#9e9e9e" d="M383.95392 318.48322C383.95392 317.37866 383.0585 316.48322 381.95392 316.48322C380.84933 316.48322 379.95392 317.37866 379.95392 318.48322C379.95392 319.5878 380.84933 320.48322 381.95392 320.48322C383.0585 320.48322 383.95392 319.5878 383.95392 318.48322" fill-rule="nonzero"/><path fill="#000000" d="M20.315624 40.55L20.315624 23.3625L27.6125 23.3625Q30.3625 23.3625 31.6125 23.83125Q32.8625 24.3 33.6125 25.4875Q34.3625 26.659374 34.3625 28.190624Q34.3625 30.1125 33.221874 31.378124Q32.08125 32.64375 29.83125 32.971874Q30.95625 33.628124 31.675 34.409374Q32.409374 35.190624 33.659374 37.190624L35.753124 40.55L31.6125 40.55L29.096874 36.815624Q27.76875 34.8 27.26875 34.284374Q26.784374 33.76875 26.221874 33.58125Q25.675 33.378124 24.4875 33.378124L23.784374 33.378124L23.784374 40.55L20.315624 40.55ZM23.784374 30.628124L26.346874 30.628124Q28.846874 30.628124 29.45625 30.425Q30.08125 30.20625 30.425 29.690624Q30.784374 29.175 30.784374 28.409374Q30.784374 27.534374 30.315624 27.003124Q29.8625 26.471874 29.01875 26.33125Q28.596874 26.26875 26.4875 26.26875L23.784374 26.26875L23.784374 30.628124ZM44.4875 36.58125L47.76875 37.14375Q47.128124 38.940624 45.753124 39.89375Q44.39375 40.83125 42.346874 40.83125Q39.096874 40.83125 37.55 38.70625Q36.315624 37.003124 36.315624 34.425Q36.315624 31.33125 37.925 29.58125Q39.55 27.815624 42.01875 27.815624Q44.8 27.815624 46.39375 29.659374Q48.003124 31.4875 47.940624 35.26875L39.690624 35.26875Q39.721874 36.7375 40.4875 37.55Q41.253124 38.3625 42.378124 38.3625Q43.159374 38.3625 43.675 37.940624Q44.20625 37.51875 44.4875 36.58125ZM44.675 33.253124Q44.628124 31.83125 43.925 31.096874Q43.221874 30.346874 42.221874 30.346874Q41.14375 30.346874 40.440624 31.128124Q39.7375 31.909374 39.753124 33.253124L44.675 33.253124ZM61.128124 31.784374L57.878124 32.3625Q57.721874 31.39375 57.128124 30.909374Q56.55 30.409374 55.628124 30.409374Q54.39375 30.409374 53.659374 31.26875Q52.940624 32.1125 52.940624 34.096874Q52.940624 36.315624 53.675 37.2375Q54.425 38.14375 55.675 38.14375Q56.6125 38.14375 57.20625 37.6125Q57.815624 37.08125 58.05 35.784374L61.284374 36.33125Q60.784374 38.55 59.346874 39.690624Q57.925 40.83125 55.51875 40.83125Q52.8 40.83125 51.175 39.1125Q49.55 37.378124 49.55 34.33125Q49.55 31.253124 51.175 29.534374Q52.8 27.815624 55.58125 27.815624Q57.8625 27.815624 59.190624 28.8Q60.534374 29.784374 61.128124 31.784374ZM62.51875 34.14375Q62.51875 32.503124 63.315624 30.971874Q64.12813 29.440624 65.6125 28.628124Q67.09688 27.815624 68.925 27.815624Q71.75313 27.815624 73.55 29.659374Q75.3625 31.4875 75.3625 34.284374Q75.3625 37.1125 73.53438 38.971874Q71.70625 40.83125 68.94063 40.83125Q67.2375 40.83125 65.675 40.065624Q64.12813 39.284374 63.315624 37.8Q62.51875 36.3 62.51875 34.14375ZM65.89375 34.33125Q65.89375 36.175 66.76875 37.159374Q67.64375 38.14375 68.94063 38.14375Q70.22188 38.14375 71.09688 37.159374Q71.97188 36.175 71.97188 34.3Q71.97188 32.471874 71.09688 31.4875Q70.22188 30.503124 68.94063 30.503124Q67.64375 30.503124 66.76875 31.4875Q65.89375 32.471874 65.89375 34.33125ZM78.03438 28.096874L81.06563 28.096874L81.06563 29.8Q82.69063 27.815624 84.94063 27.815624Q86.14375 27.815624 87.01875 28.315624Q87.89375 28.8 88.45625 29.8Q89.28438 28.8 90.22188 28.315624Q91.175 27.815624 92.25313 27.815624Q93.62813 27.815624 94.56563 28.378124Q95.51875 28.940624 95.9875 30.01875Q96.33125 30.815624 96.33125 32.596874L96.33125 40.55L93.03438 40.55L93.03438 33.440624Q93.03438 31.58125 92.70625 31.05Q92.2375 30.346874 91.3 30.346874Q90.59688 30.346874 89.9875 30.76875Q89.37813 31.190624 89.1125 32.003124Q88.84688 32.815624 88.84688 34.565624L88.84688 40.55L85.55 40.55L85.55 33.721874Q85.55 31.909374 85.37813 31.39375Q85.20625 30.8625 84.83125 30.6125Q84.45625 30.346874 83.83125 30.346874Q83.06563 30.346874 82.45625 30.753124Q81.84688 31.159374 81.58125 31.940624Q81.31563 32.70625 81.31563 34.503124L81.31563 40.55L78.03438 40.55L78.03438 28.096874ZM99.03438 28.096874L102.06563 28.096874L102.06563 29.8Q103.69063 27.815624 105.94063 27.815624Q107.14375 27.815624 108.01875 28.315624Q108.89375 28.8 109.45625 29.8Q110.28438 28.8 111.22188 28.315624Q112.175 27.815624 113.25313 27.815624Q114.62813 27.815624 115.56563 28.378124Q116.51875 28.940624 116.9875 30.01875Q117.33125 30.815624 117.33125 32.596874L117.33125 40.55L114.03438 40.55L114.03438 33.440624Q114.03438 31.58125 113.70625 31.05Q113.2375 30.346874 112.3 30.346874Q111.59688 30.346874 110.9875 30.76875Q110.37813 31.190624 110.1125 32.003124Q109.84688 32.815624 109.84688 34.565624L109.84688 40.55L106.55 40.55L106.55 33.721874Q106.55 31.909374 106.37813 31.39375Q106.20625 30.8625 105.83125 30.6125Q105.45625 30.346874 104.83125 30.346874Q104.06563 30.346874 103.45625 30.753124Q102.84688 31.159374 102.58125 31.940624Q102.31563 32.70625 102.31563 34.503124L102.31563 40.55L99.03438 40.55L99.03438 28.096874ZM127.4875 36.58125L130.76875 37.14375Q130.12813 38.940624 128.75313 39.89375Q127.39375 40.83125 125.34688 40.83125Q122.09688 40.83125 120.55 38.70625Q119.31563 37.003124 119.31563 34.425Q119.31563 31.33125 120.925 29.58125Q122.55 27.815624 125.01875 27.815624Q127.8 27.815624 129.39375 29.659374Q131.00313 31.4875 130.94063 35.26875L122.69063 35.26875Q122.72188 36.7375 123.4875 37.55Q124.25313 38.3625 125.37813 38.3625Q126.15938 38.3625 126.675 37.940624Q127.20625 37.51875 127.4875 36.58125ZM127.675 33.253124Q127.62813 31.83125 126.925 31.096874Q126.22188 30.346874 125.22188 30.346874Q124.14375 30.346874 123.44063 31.128124Q122.7375 31.909374 122.75313 33.253124L127.675 33.253124ZM144.59688 40.55L141.3 40.55L141.3 34.190624Q141.3 32.175 141.08125 31.596874Q140.87813 31.003124 140.39375 30.675Q139.925 30.346874 139.26875 30.346874Q138.40938 30.346874 137.72188 30.815624Q137.05 31.284374 136.8 32.065624Q136.55 32.83125 136.55 34.909374L136.55 40.55L133.25313 40.55L133.25313 28.096874L136.31563 28.096874L136.31563 29.925Q137.94063 27.815624 140.40938 27.815624Q141.50313 27.815624 142.39375 28.221874Q143.3 28.6125 143.76875 29.221874Q144.2375 29.83125 144.40938 30.6125Q144.59688 31.378124 144.59688 32.815624L144.59688 40.55ZM159.69063 40.55L156.62813 40.55L156.62813 38.721874Q155.8625 39.784374 154.83125 40.315624Q153.8 40.83125 152.7375 40.83125Q150.59688 40.83125 149.06563 39.1125Q147.53438 37.378124 147.53438 34.284374Q147.53438 31.1125 149.01875 29.471874Q150.51875 27.815624 152.78438 27.815624Q154.87813 27.815624 156.39375 29.55L156.39375 23.3625L159.69063 23.3625L159.69063 40.55ZM150.89375 34.05Q150.89375 36.05 151.45625 36.940624Q152.25313 38.221874 153.675 38.221874Q154.81563 38.221874 155.6125 37.26875Q156.40938 36.3 156.40938 34.378124Q156.40938 32.221874 155.62813 31.284374Q154.8625 30.346874 153.65938 30.346874Q152.4875 30.346874 151.69063 31.284374Q150.89375 32.20625 150.89375 34.05ZM170.4875 36.58125L173.76875 37.14375Q173.12813 38.940624 171.75313 39.89375Q170.39375 40.83125 168.34688 40.83125Q165.09688 40.83125 163.55 38.70625Q162.31563 37.003124 162.31563 34.425Q162.31563 31.33125 163.925 29.58125Q165.55 27.815624 168.01875 27.815624Q170.8 27.815624 172.39375 29.659374Q174.00313 31.4875 173.94063 35.26875L165.69063 35.26875Q165.72188 36.7375 166.4875 37.55Q167.25313 38.3625 168.37813 38.3625Q169.15938 38.3625 169.675 37.940624Q170.20625 37.51875 170.4875 36.58125ZM170.675 33.253124Q170.62813 31.83125 169.925 31.096874Q169.22188 30.346874 168.22188 30.346874Q167.14375 30.346874 166.44063 31.128124Q165.7375 31.909374 165.75313 33.253124L170.675 33.253124ZM187.69063 40.55L184.62813 40.55L184.62813 38.721874Q183.8625 39.784374 182.83125 40.315624Q181.8 40.83125 180.7375 40.83125Q178.59688 40.83125 177.06563 39.1125Q175.53438 37.378124 175.53438 34.284374Q175.53438 31.1125 177.01875 29.471874Q178.51875 27.815624 180.78438 27.815624Q182.87813 27.815624 184.39375 29.55L184.39375 23.3625L187.69063 23.3625L187.69063 40.55ZM178.89375 34.05Q178.89375 36.05 179.45625 36.940624Q180.25313 38.221874 181.675 38.221874Q182.81563 38.221874 183.6125 37.26875Q184.40938 36.3 184.40938 34.378124Q184.40938 32.221874 183.62813 31.284374Q182.8625 30.346874 181.65938 30.346874Q180.4875 30.346874 179.69063 31.284374Q178.89375 32.20625 178.89375 34.05Z" fill-rule="nonzero"/></svg>