<svg version="1.1" viewBox="0.0 0.0 600.0 371.0" fill="none" stroke="none" stroke-linecap="square" stroke-miterlimit="10" width="600" height="371" xmlns:xlink="http://www.w3.org/1999/xlink" xmlns="http://www.w3.org/2000/svg"><path fill="#ffffff" d="M0 0L600.0 0L600.0 371.0L0 371.0L0 0Z" fill-rule="nonzero"/><path stroke="#333333" stroke-width="1.0" stroke-linecap="butt" d="M45.5 318.5L581.5 318.5" fill-rule="nonzero"/><path stroke="#cccccc" stroke-width="1.0" stroke-linecap="butt" d="M45.5 261.5L581.5 261.5" fill-rule="nonzero"/><path stroke="#cccccc" stroke-width="1.0" stroke-linecap="butt" d="M45.5 205.5L581.5 205.5" fill-rule="nonzero"/><path stroke="#cccccc" stroke-width="1.0" stroke-linecap="butt" d="M45.5 148.5L581.5 148.5" fill-rule="nonzero"/><path stroke="#cccccc" stroke-width="1.0" stroke-linecap="butt" d="M45.5 92.5L581.5 92.5" fill-rule="nonzero"/><path stroke="#eeeeee" stroke-width="1.0" stroke-linecap="butt" d="M69.90909 301.88458L69.90909 317.88458" fill-rule="nonzero"/><path stroke="#eeeeee" stroke-width="1.0" stroke-linecap="butt" d="M118.62727 301.88458L118.62727 317.88458" fill-rule="nonzero"/><path stroke="#eeeeee" stroke-width="1.0" stroke-linecap="butt" d="M167.34546 301.88458L167.34546 317.88458" fill-rule="nonzero"/><path stroke="#eeeeee" stroke-width="1.0" stroke-linecap="butt" d="M216.06363 274.17917L216.06363 290.17917" fill-rule="nonzero"/><path stroke="#eeeeee" stroke-width="1.0" stroke-linecap="butt" d="M264.78183 245.90834L264.78183 261.90833" fill-rule="nonzero"/><path stroke="#eeeeee" stroke-width="1.0" stroke-linecap="butt" d="M313.5 245.90834L313.5 261.90833" fill-rule="nonzero"/><path stroke="#eeeeee" stroke-width="1.0" stroke-linecap="butt" d="M362.21817 274.17917L362.21817 290.17917" fill-rule="nonzero"/><path stroke="#eeeeee" stroke-width="1.0" stroke-linecap="butt" d="M410.93637 296.79584L410.93637 312.79584" fill-rule="nonzero"/><path stroke="#eeeeee" stroke-width="1.0" stroke-linecap="butt" d="M459.65454 245.90834L459.65454 261.90833" fill-rule="nonzero"/><path stroke="#eeeeee" stroke-width="1.0" stroke-linecap="butt" d="M508.37274 245.90834L508.37274 261.90833" fill-rule="nonzero"/><path stroke="#eeeeee" stroke-width="1.0" stroke-linecap="butt" d="M557.0909 132.825L557.0909 148.825" fill-rule="nonzero"/><clipPath id="id_0"><path d="M45.55 92.28333L581.45 92.28333L581.45 318.45L45.55 318.45L45.55 92.28333Z" clip-rule="nonzero"/></clipPath><path stroke="#648b94" stroke-width="1.0" stroke-linecap="butt" clip-path="url(#id_0)" d="M69.90909 317.94113L69.90909 317.82803" fill-rule="nonzero"/><path stroke="#648b94" stroke-width="1.0" stroke-linecap="butt" clip-path="url(#id_0)" d="M63.909092 317.94113L75.90909 317.94113" fill-rule="nonzero"/><path stroke="#648b94" stroke-width="1.0" stroke-linecap="butt" clip-path="url(#id_0)" d="M63.909092 317.82803L75.90909 317.82803" fill-rule="nonzero"/><path stroke="#648b94" stroke-width="1.0" stroke-linecap="butt" clip-path="url(#id_0)" d="M118.62727 317.94113L118.62727 317.82803" fill-rule="nonzero"/><path stroke="#648b94" stroke-width="1.0" stroke-linecap="butt" clip-path="url(#id_0)" d="M112.62727 317.94113L124.62727 317.94113" fill-rule="nonzero"/><path stroke="#648b94" stroke-width="1.0" stroke-linecap="butt" clip-path="url(#id_0)" d="M112.62727 317.82803L124.62727 317.82803" fill-rule="nonzero"/><path stroke="#648b94" stroke-width="1.0" stroke-linecap="butt" clip-path="url(#id_0)" d="M167.34546 317.94113L167.34546 317.82803" fill-rule="nonzero"/><path stroke="#648b94" stroke-width="1.0" stroke-linecap="butt" clip-path="url(#id_0)" d="M161.34546 317.94113L173.34546 317.94113" fill-rule="nonzero"/><path stroke="#648b94" stroke-width="1.0" stroke-linecap="butt" clip-path="url(#id_0)" d="M161.34546 317.82803L173.34546 317.82803" fill-rule="nonzero"/><path stroke="#648b94" stroke-width="1.0" stroke-linecap="butt" clip-path="url(#id_0)" d="M216.06363 293.00626L216.06363 287.35208" fill-rule="nonzero"/><path stroke="#648b94" stroke-width="1.0" stroke-linecap="butt" clip-path="url(#id_0)" d="M210.06363 293.00626L222.06363 293.00626" fill-rule="nonzero"/><path stroke="#648b94" stroke-width="1.0" stroke-linecap="butt" clip-path="url(#id_0)" d="M210.06363 287.35208L222.06363 287.35208" fill-rule="nonzero"/><path stroke="#648b94" stroke-width="1.0" stroke-linecap="butt" clip-path="url(#id_0)" d="M264.78183 267.5625L264.78183 256.25418" fill-rule="nonzero"/><path stroke="#648b94" stroke-width="1.0" stroke-linecap="butt" clip-path="url(#id_0)" d="M258.78183 267.5625L270.78183 267.5625" fill-rule="nonzero"/><path stroke="#648b94" stroke-width="1.0" stroke-linecap="butt" clip-path="url(#id_0)" d="M258.78183 256.25418L270.78183 256.25418" fill-rule="nonzero"/><path stroke="#648b94" stroke-width="1.0" stroke-linecap="butt" clip-path="url(#id_0)" d="M313.5 267.5625L313.5 256.25418" fill-rule="nonzero"/><path stroke="#648b94" stroke-width="1.0" stroke-linecap="butt" clip-path="url(#id_0)" d="M307.5 267.5625L319.5 267.5625" fill-rule="nonzero"/><path stroke="#648b94" stroke-width="1.0" stroke-linecap="butt" clip-path="url(#id_0)" d="M307.5 256.25418L319.5 256.25418" fill-rule="nonzero"/><path stroke="#648b94" stroke-width="1.0" stroke-linecap="butt" clip-path="url(#id_0)" d="M362.21817 293.00626L362.21817 287.35208" fill-rule="nonzero"/><path stroke="#648b94" stroke-width="1.0" stroke-linecap="butt" clip-path="url(#id_0)" d="M356.21817 293.00626L368.21817 293.00626" fill-rule="nonzero"/><path stroke="#648b94" stroke-width="1.0" stroke-linecap="butt" clip-path="url(#id_0)" d="M356.21817 287.35208L368.21817 287.35208" fill-rule="nonzero"/><path stroke="#648b94" stroke-width="1.0" stroke-linecap="butt" clip-path="url(#id_0)" d="M410.93637 313.36124L410.93637 312.2304" fill-rule="nonzero"/><path stroke="#648b94" stroke-width="1.0" stroke-linecap="butt" clip-path="url(#id_0)" d="M404.93637 313.36124L416.93637 313.36124" fill-rule="nonzero"/><path stroke="#648b94" stroke-width="1.0" stroke-linecap="butt" clip-path="url(#id_0)" d="M404.93637 312.2304L416.93637 312.2304" fill-rule="nonzero"/><path stroke="#648b94" stroke-width="1.0" stroke-linecap="butt" clip-path="url(#id_0)" d="M459.65454 267.5625L459.65454 256.25418" fill-rule="nonzero"/><path stroke="#648b94" stroke-width="1.0" stroke-linecap="butt" clip-path="url(#id_0)" d="M453.65454 267.5625L465.65454 267.5625" fill-rule="nonzero"/><path stroke="#648b94" stroke-width="1.0" stroke-linecap="butt" clip-path="url(#id_0)" d="M453.65454 256.25418L465.65454 256.25418" fill-rule="nonzero"/><path stroke="#648b94" stroke-width="1.0" stroke-linecap="butt" clip-path="url(#id_0)" d="M508.37274 267.5625L508.37274 256.25418" fill-rule="nonzero"/><path stroke="#648b94" stroke-width="1.0" stroke-linecap="butt" clip-path="url(#id_0)" d="M502.37274 267.5625L514.37274 267.5625" fill-rule="nonzero"/><path stroke="#648b94" stroke-width="1.0" stroke-linecap="butt" clip-path="url(#id_0)" d="M502.37274 256.25418L514.37274 256.25418" fill-rule="nonzero"/><path stroke="#648b94" stroke-width="1.0" stroke-linecap="butt" clip-path="url(#id_0)" d="M557.0909 165.7875L557.0909 131.8625" fill-rule="nonzero"/><path stroke="#648b94" stroke-width="1.0" stroke-linecap="butt" clip-path="url(#id_0)" d="M551.0909 165.7875L563.0909 165.7875" fill-rule="nonzero"/><path stroke="#648b94" stroke-width="1.0" stroke-linecap="butt" clip-path="url(#id_0)" d="M551.0909 131.8625L563.0909 131.8625" fill-rule="nonzero"/><path stroke="#134f5c" stroke-width="2.0" stroke-linecap="butt" clip-path="url(#id_0)" d="M69.90909 317.88458C69.90909 317.88458 102.38788 317.88458 118.62727 317.88458C134.86667 317.88458 151.10606 322.50217 167.34546 317.88458C183.58485 313.26703 199.82425 299.50854 216.06363 290.17917C232.30302 280.8498 248.54242 266.62015 264.78183 261.90833C281.0212 257.19653 297.26062 257.19653 313.5 261.90833C329.73938 266.62015 345.9788 281.6979 362.21817 290.17917C378.45758 298.66043 394.69696 317.50763 410.93637 312.79584C427.17575 308.084 443.41516 270.3896 459.65454 261.90833C475.89395 253.42708 492.13333 280.75555 508.37274 261.90833C524.6121 243.06111 557.0909 148.825 557.0909 148.825" fill-rule="nonzero"/><path stroke="#134f5c" stroke-width="2.0" stroke-linecap="butt" stroke-opacity="0.4" clip-path="url(#id_0)" d="M0 344.73245L581.45 218.47919" fill-rule="nonzero"/><path fill="#134f5c" clip-path="url(#id_0)" d="M75.90909 317.88458C75.90909 321.1983 73.2228 323.88458 69.90909 323.88458C66.59538 323.88458 63.909092 321.1983 63.909092 317.88458C63.909092 314.57086 66.59538 311.88458 69.90909 311.88458C73.2228 311.88458 75.90909 314.57086 75.90909 317.88458Z" fill-rule="nonzero"/><path fill="#134f5c" clip-path="url(#id_0)" d="M124.62727 317.88458C124.62727 321.1983 121.94098 323.88458 118.62727 323.88458C115.31356 323.88458 112.62727 321.1983 112.62727 317.88458C112.62727 314.57086 115.31356 311.88458 118.62727 311.88458C121.94098 311.88458 124.62727 314.57086 124.62727 317.88458Z" fill-rule="nonzero"/><path fill="#134f5c" clip-path="url(#id_0)" d="M173.34546 317.88458C173.34546 321.1983 170.65916 323.88458 167.34546 323.88458C164.03175 323.88458 161.34546 321.1983 161.34546 317.88458C161.34546 314.57086 164.03175 311.88458 167.34546 311.88458C170.65916 311.88458 173.34546 314.57086 173.34546 317.88458Z" fill-rule="nonzero"/><path fill="#134f5c" clip-path="url(#id_0)" d="M222.06363 290.17917C222.06363 293.4929 219.37735 296.17917 216.06363 296.17917C212.74992 296.17917 210.06363 293.4929 210.06363 290.17917C210.06363 286.86545 212.74992 284.17917 216.06363 284.17917C219.37735 284.17917 222.06363 286.86545 222.06363 290.17917Z" fill-rule="nonzero"/><path fill="#134f5c" clip-path="url(#id_0)" d="M270.78183 261.90833C270.78183 265.22205 268.09552 267.90833 264.78183 267.90833C261.4681 267.90833 258.78183 265.22205 258.78183 261.90833C258.78183 258.59464 261.4681 255.90834 264.78183 255.90834C268.09552 255.90834 270.78183 258.59464 270.78183 261.90833Z" fill-rule="nonzero"/><path fill="#134f5c" clip-path="url(#id_0)" d="M319.5 261.90833C319.5 265.22205 316.81372 267.90833 313.5 267.90833C310.18628 267.90833 307.5 265.22205 307.5 261.90833C307.5 258.59464 310.18628 255.90834 313.5 255.90834C316.81372 255.90834 319.5 258.59464 319.5 261.90833Z" fill-rule="nonzero"/><path fill="#134f5c" clip-path="url(#id_0)" d="M368.21817 290.17917C368.21817 293.4929 365.5319 296.17917 362.21817 296.17917C358.90448 296.17917 356.21817 293.4929 356.21817 290.17917C356.21817 286.86545 358.90448 284.17917 362.21817 284.17917C365.5319 284.17917 368.21817 286.86545 368.21817 290.17917Z" fill-rule="nonzero"/><path fill="#134f5c" clip-path="url(#id_0)" d="M416.93637 312.79584C416.93637 316.10953 414.25006 318.79584 410.93637 318.79584C407.62265 318.79584 404.93637 316.10953 404.93637 312.79584C404.93637 309.48212 407.62265 306.79584 410.93637 306.79584C414.25006 306.79584 416.93637 309.48212 416.93637 312.79584Z" fill-rule="nonzero"/><path fill="#134f5c" clip-path="url(#id_0)" d="M465.65454 261.90833C465.65454 265.22205 462.96826 267.90833 459.65454 267.90833C456.34085 267.90833 453.65454 265.22205 453.65454 261.90833C453.65454 258.59464 456.34085 255.90834 459.65454 255.90834C462.96826 255.90834 465.65454 258.59464 465.65454 261.90833Z" fill-rule="nonzero"/><path fill="#134f5c" clip-path="url(#id_0)" d="M514.37274 261.90833C514.37274 265.22205 511.68643 267.90833 508.37274 267.90833C505.05902 267.90833 502.37274 265.22205 502.37274 261.90833C502.37274 258.59464 505.05902 255.90834 508.37274 255.90834C511.68643 255.90834 514.37274 258.59464 514.37274 261.90833Z" fill-rule="nonzero"/><path fill="#134f5c" clip-path="url(#id_0)" d="M563.0909 148.825C563.0909 152.1387 560.4046 154.825 557.0909 154.825C553.7772 154.825 551.0909 152.1387 551.0909 148.825C551.0909 145.51129 553.7772 142.825 557.0909 142.825C560.4046 142.825 563.0909 145.51129 563.0909 148.825Z" fill-rule="nonzero"/><path stroke="#ffffff" stroke-width="3.0" stroke-linejoin="round" stroke-linecap="round" d="M63.971592 296.24396Q63.971592 298.1502 63.315342 299.0877Q62.674717 300.00958 61.284092 300.00958Q59.924717 300.00958 59.268467 299.10333Q58.612217 298.19708 58.580967 296.38458L58.580967 294.94708Q58.580967 293.05646 59.221592 292.1502Q59.877842 291.22833 61.268467 291.22833Q62.643467 291.22833 63.299717 292.11896Q63.955967 292.99396 63.971592 294.8377L63.971592 296.24396ZM62.877842 294.75958Q62.877842 293.38458 62.487217 292.75958Q62.112217 292.11896 61.268467 292.11896Q60.440342 292.11896 60.049717 292.75958Q59.674717 293.38458 59.674717 294.68146L59.674717 296.41583Q59.674717 297.79083 60.065342 298.4627Q60.471592 299.11896 61.284092 299.11896Q62.080967 299.11896 62.471592 298.49396Q62.862217 297.86896 62.877842 296.54083L62.877842 294.75958ZM65.75284 299.32208Q65.75284 299.04083 65.90909 298.85333Q66.08096 298.66583 66.40909 298.66583Q66.75284 298.66583 66.92471 298.85333Q67.09659 299.04083 67.09659 299.32208Q67.09659 299.5877 66.92471 299.7752Q66.75284 299.94708 66.40909 299.94708Q66.08096 299.94708 65.90909 299.7752Q65.75284 299.5877 65.75284 299.32208ZM73.97159 296.24396Q73.97159 298.1502 73.31534 299.0877Q72.67471 300.00958 71.28409 300.00958Q69.92471 300.00958 69.26846 299.10333Q68.61221 298.19708 68.58096 296.38458L68.58096 294.94708Q68.58096 293.05646 69.22159 292.1502Q69.87784 291.22833 71.26846 291.22833Q72.64346 291.22833 73.29971 292.11896Q73.95596 292.99396 73.97159 294.8377L73.97159 296.24396ZM72.87784 294.75958Q72.87784 293.38458 72.48721 292.75958Q72.11221 292.11896 71.26846 292.11896Q70.44034 292.11896 70.04971 292.75958Q69.67471 293.38458 69.67471 294.68146L69.67471 296.41583Q69.67471 297.79083 70.06534 298.4627Q70.47159 299.11896 71.28409 299.11896Q72.08096 299.11896 72.47159 298.49396Q72.86221 297.86896 72.87784 296.54083L72.87784 294.75958ZM79.17471 299.88458L78.09659 299.88458L78.09659 292.66583L75.90909 293.4627L75.90909 292.47833L79.01846 291.30646L79.17471 291.30646L79.17471 299.88458Z" fill-rule="nonzero"/><path fill="#134f5c" d="M63.971592 296.24396Q63.971592 298.1502 63.315342 299.0877Q62.674717 300.00958 61.284092 300.00958Q59.924717 300.00958 59.268467 299.10333Q58.612217 298.19708 58.580967 296.38458L58.580967 294.94708Q58.580967 293.05646 59.221592 292.1502Q59.877842 291.22833 61.268467 291.22833Q62.643467 291.22833 63.299717 292.11896Q63.955967 292.99396 63.971592 294.8377L63.971592 296.24396ZM62.877842 294.75958Q62.877842 293.38458 62.487217 292.75958Q62.112217 292.11896 61.268467 292.11896Q60.440342 292.11896 60.049717 292.75958Q59.674717 293.38458 59.674717 294.68146L59.674717 296.41583Q59.674717 297.79083 60.065342 298.4627Q60.471592 299.11896 61.284092 299.11896Q62.080967 299.11896 62.471592 298.49396Q62.862217 297.86896 62.877842 296.54083L62.877842 294.75958ZM65.75284 299.32208Q65.75284 299.04083 65.90909 298.85333Q66.08096 298.66583 66.40909 298.66583Q66.75284 298.66583 66.92471 298.85333Q67.09659 299.04083 67.09659 299.32208Q67.09659 299.5877 66.92471 299.7752Q66.75284 299.94708 66.40909 299.94708Q66.08096 299.94708 65.90909 299.7752Q65.75284 299.5877 65.75284 299.32208ZM73.97159 296.24396Q73.97159 298.1502 73.31534 299.0877Q72.67471 300.00958 71.28409 300.00958Q69.92471 300.00958 69.26846 299.10333Q68.61221 298.19708 68.58096 296.38458L68.58096 294.94708Q68.58096 293.05646 69.22159 292.1502Q69.87784 291.22833 71.26846 291.22833Q72.64346 291.22833 73.29971 292.11896Q73.95596 292.99396 73.97159 294.8377L73.97159 296.24396ZM72.87784 294.75958Q72.87784 293.38458 72.48721 292.75958Q72.11221 292.11896 71.26846 292.11896Q70.44034 292.11896 70.04971 292.75958Q69.67471 293.38458 69.67471 294.68146L69.67471 296.41583Q69.67471 297.79083 70.06534 298.4627Q70.47159 299.11896 71.28409 299.11896Q72.08096 299.11896 72.47159 298.49396Q72.86221 297.86896 72.87784 296.54083L72.87784 294.75958ZM79.17471 299.88458L78.09659 299.88458L78.09659 292.66583L75.90909 293.4627L75.90909 292.47833L79.01846 291.30646L79.17471 291.30646L79.17471 299.88458Z" fill-rule="nonzero"/><path stroke="#ffffff" stroke-width="3.0" stroke-linejoin="round" stroke-linecap="round" d="M112.68977 296.24396Q112.68977 298.1502 112.03352 299.0877Q111.3929 300.00958 110.00227 300.00958Q108.6429 300.00958 107.98665 299.10333Q107.3304 298.19708 107.29915 296.38458L107.29915 294.94708Q107.29915 293.05646 107.93977 292.1502Q108.59602 291.22833 109.98665 291.22833Q111.36165 291.22833 112.0179 292.11896Q112.67415 292.99396 112.68977 294.8377L112.68977 296.24396ZM111.59602 294.75958Q111.59602 293.38458 111.2054 292.75958Q110.8304 292.11896 109.98665 292.11896Q109.15852 292.11896 108.7679 292.75958Q108.3929 293.38458 108.3929 294.68146L108.3929 296.41583Q108.3929 297.79083 108.78352 298.4627Q109.18977 299.11896 110.00227 299.11896Q110.79915 299.11896 111.18977 298.49396Q111.5804 297.86896 111.59602 296.54083L111.59602 294.75958ZM114.47102 299.32208Q114.47102 299.04083 114.62727 298.85333Q114.79915 298.66583 115.12727 298.66583Q115.47102 298.66583 115.6429 298.85333Q115.81477 299.04083 115.81477 299.32208Q115.81477 299.5877 115.6429 299.7752Q115.47102 299.94708 115.12727 299.94708Q114.79915 299.94708 114.62727 299.7752Q114.47102 299.5877 114.47102 299.32208ZM122.68977 296.24396Q122.68977 298.1502 122.03352 299.0877Q121.3929 300.00958 120.00227 300.00958Q118.6429 300.00958 117.98665 299.10333Q117.3304 298.19708 117.29915 296.38458L117.29915 294.94708Q117.29915 293.05646 117.93977 292.1502Q118.59602 291.22833 119.98665 291.22833Q121.36165 291.22833 122.0179 292.11896Q122.67415 292.99396 122.68977 294.8377L122.68977 296.24396ZM121.59602 294.75958Q121.59602 293.38458 121.2054 292.75958Q120.8304 292.11896 119.98665 292.11896Q119.15852 292.11896 118.7679 292.75958Q118.3929 293.38458 118.3929 294.68146L118.3929 296.41583Q118.3929 297.79083 118.78352 298.4627Q119.18977 299.11896 120.00227 299.11896Q120.79915 299.11896 121.18977 298.49396Q121.5804 297.86896 121.59602 296.54083L121.59602 294.75958ZM127.8929 299.88458L126.81477 299.88458L126.81477 292.66583L124.62727 293.4627L124.62727 292.47833L127.73665 291.30646L127.8929 291.30646L127.8929 299.88458Z" fill-rule="nonzero"/><path fill="#134f5c" d="M112.68977 296.24396Q112.68977 298.1502 112.03352 299.0877Q111.3929 300.00958 110.00227 300.00958Q108.6429 300.00958 107.98665 299.10333Q107.3304 298.19708 107.29915 296.38458L107.29915 294.94708Q107.29915 293.05646 107.93977 292.1502Q108.59602 291.22833 109.98665 291.22833Q111.36165 291.22833 112.0179 292.11896Q112.67415 292.99396 112.68977 294.8377L112.68977 296.24396ZM111.59602 294.75958Q111.59602 293.38458 111.2054 292.75958Q110.8304 292.11896 109.98665 292.11896Q109.15852 292.11896 108.7679 292.75958Q108.3929 293.38458 108.3929 294.68146L108.3929 296.41583Q108.3929 297.79083 108.78352 298.4627Q109.18977 299.11896 110.00227 299.11896Q110.79915 299.11896 111.18977 298.49396Q111.5804 297.86896 111.59602 296.54083L111.59602 294.75958ZM114.47102 299.32208Q114.47102 299.04083 114.62727 298.85333Q114.79915 298.66583 115.12727 298.66583Q115.47102 298.66583 115.6429 298.85333Q115.81477 299.04083 115.81477 299.32208Q115.81477 299.5877 115.6429 299.7752Q115.47102 299.94708 115.12727 299.94708Q114.79915 299.94708 114.62727 299.7752Q114.47102 299.5877 114.47102 299.32208ZM122.68977 296.24396Q122.68977 298.1502 122.03352 299.0877Q121.3929 300.00958 120.00227 300.00958Q118.6429 300.00958 117.98665 299.10333Q117.3304 298.19708 117.29915 296.38458L117.29915 294.94708Q117.29915 293.05646 117.93977 292.1502Q118.59602 291.22833 119.98665 291.22833Q121.36165 291.22833 122.0179 292.11896Q122.67415 292.99396 122.68977 294.8377L122.68977 296.24396ZM121.59602 294.75958Q121.59602 293.38458 121.2054 292.75958Q120.8304 292.11896 119.98665 292.11896Q119.15852 292.11896 118.7679 292.75958Q118.3929 293.38458 118.3929 294.68146L118.3929 296.41583Q118.3929 297.79083 118.78352 298.4627Q119.18977 299.11896 120.00227 299.11896Q120.79915 299.11896 121.18977 298.49396Q121.5804 297.86896 121.59602 296.54083L121.59602 294.75958ZM127.8929 299.88458L126.81477 299.88458L126.81477 292.66583L124.62727 293.4627L124.62727 292.47833L127.73665 291.30646L127.8929 291.30646L127.8929 299.88458Z" fill-rule="nonzero"/><path stroke="#ffffff" stroke-width="3.0" stroke-linejoin="round" stroke-linecap="round" d="M161.40796 296.24396Q161.40796 298.1502 160.75171 299.0877Q160.11108 300.00958 158.72046 300.00958Q157.36108 300.00958 156.70483 299.10333Q156.04858 298.19708 156.01733 296.38458L156.01733 294.94708Q156.01733 293.05646 156.65796 292.1502Q157.31421 291.22833 158.70483 291.22833Q160.07983 291.22833 160.73608 292.11896Q161.39233 292.99396 161.40796 294.8377L161.40796 296.24396ZM160.31421 294.75958Q160.31421 293.38458 159.92358 292.75958Q159.54858 292.11896 158.70483 292.11896Q157.87671 292.11896 157.48608 292.75958Q157.11108 293.38458 157.11108 294.68146L157.11108 296.41583Q157.11108 297.79083 157.50171 298.4627Q157.90796 299.11896 158.72046 299.11896Q159.51733 299.11896 159.90796 298.49396Q160.29858 297.86896 160.31421 296.54083L160.31421 294.75958ZM163.18921 299.32208Q163.18921 299.04083 163.34546 298.85333Q163.51733 298.66583 163.84546 298.66583Q164.18921 298.66583 164.36108 298.85333Q164.53296 299.04083 164.53296 299.32208Q164.53296 299.5877 164.36108 299.7752Q164.18921 299.94708 163.84546 299.94708Q163.51733 299.94708 163.34546 299.7752Q163.18921 299.5877 163.18921 299.32208ZM171.40796 296.24396Q171.40796 298.1502 170.75171 299.0877Q170.11108 300.00958 168.72046 300.00958Q167.36108 300.00958 166.70483 299.10333Q166.04858 298.19708 166.01733 296.38458L166.01733 294.94708Q166.01733 293.05646 166.65796 292.1502Q167.31421 291.22833 168.70483 291.22833Q170.07983 291.22833 170.73608 292.11896Q171.39233 292.99396 171.40796 294.8377L171.40796 296.24396ZM170.31421 294.75958Q170.31421 293.38458 169.92358 292.75958Q169.54858 292.11896 168.70483 292.11896Q167.87671 292.11896 167.48608 292.75958Q167.11108 293.38458 167.11108 294.68146L167.11108 296.41583Q167.11108 297.79083 167.50171 298.4627Q167.90796 299.11896 168.72046 299.11896Q169.51733 299.11896 169.90796 298.49396Q170.29858 297.86896 170.31421 296.54083L170.31421 294.75958ZM176.61108 299.88458L175.53296 299.88458L175.53296 292.66583L173.34546 293.4627L173.34546 292.47833L176.45483 291.30646L176.61108 291.30646L176.61108 299.88458Z" fill-rule="nonzero"/><path fill="#134f5c" d="M161.40796 296.24396Q161.40796 298.1502 160.75171 299.0877Q160.11108 300.00958 158.72046 300.00958Q157.36108 300.00958 156.70483 299.10333Q156.04858 298.19708 156.01733 296.38458L156.01733 294.94708Q156.01733 293.05646 156.65796 292.1502Q157.31421 291.22833 158.70483 291.22833Q160.07983 291.22833 160.73608 292.11896Q161.39233 292.99396 161.40796 294.8377L161.40796 296.24396ZM160.31421 294.75958Q160.31421 293.38458 159.92358 292.75958Q159.54858 292.11896 158.70483 292.11896Q157.87671 292.11896 157.48608 292.75958Q157.11108 293.38458 157.11108 294.68146L157.11108 296.41583Q157.11108 297.79083 157.50171 298.4627Q157.90796 299.11896 158.72046 299.11896Q159.51733 299.11896 159.90796 298.49396Q160.29858 297.86896 160.31421 296.54083L160.31421 294.75958ZM163.18921 299.32208Q163.18921 299.04083 163.34546 298.85333Q163.51733 298.66583 163.84546 298.66583Q164.18921 298.66583 164.36108 298.85333Q164.53296 299.04083 164.53296 299.32208Q164.53296 299.5877 164.36108 299.7752Q164.18921 299.94708 163.84546 299.94708Q163.51733 299.94708 163.34546 299.7752Q163.18921 299.5877 163.18921 299.32208ZM171.40796 296.24396Q171.40796 298.1502 170.75171 299.0877Q170.11108 300.00958 168.72046 300.00958Q167.36108 300.00958 166.70483 299.10333Q166.04858 298.19708 166.01733 296.38458L166.01733 294.94708Q166.01733 293.05646 166.65796 292.1502Q167.31421 291.22833 168.70483 291.22833Q170.07983 291.22833 170.73608 292.11896Q171.39233 292.99396 171.40796 294.8377L171.40796 296.24396ZM170.31421 294.75958Q170.31421 293.38458 169.92358 292.75958Q169.54858 292.11896 168.70483 292.11896Q167.87671 292.11896 167.48608 292.75958Q167.11108 293.38458 167.11108 294.68146L167.11108 296.41583Q167.11108 297.79083 167.50171 298.4627Q167.90796 299.11896 168.72046 299.11896Q169.51733 299.11896 169.90796 298.49396Q170.29858 297.86896 170.31421 296.54083L170.31421 294.75958ZM176.61108 299.88458L175.53296 299.88458L175.53296 292.66583L173.34546 293.4627L173.34546 292.47833L176.45483 291.30646L176.61108 291.30646L176.61108 299.88458Z" fill-rule="nonzero"/><path stroke="#ffffff" stroke-width="3.0" stroke-linejoin="round" stroke-linecap="round" d="M213.62613 268.53854Q213.62613 270.4448 212.96988 271.3823Q212.32925 272.30417 210.93863 272.30417Q209.57925 272.30417 208.923 271.39792Q208.26675 270.49167 208.2355 268.67917L208.2355 267.24167Q208.2355 265.35104 208.87613 264.4448Q209.53238 263.52292 210.923 263.52292Q212.298 263.52292 212.95425 264.41354Q213.6105 265.28854 213.62613 267.1323L213.62613 268.53854ZM212.53238 267.05417Q212.53238 265.67917 212.14175 265.05417Q211.76675 264.41354 210.923 264.41354Q210.09488 264.41354 209.70425 265.05417Q209.32925 265.67917 209.32925 266.97604L209.32925 268.71042Q209.32925 270.08542 209.71988 270.7573Q210.12613 271.41354 210.93863 271.41354Q211.7355 271.41354 212.12613 270.78854Q212.51675 270.16354 212.53238 268.83542L212.53238 267.05417ZM215.40738 271.61667Q215.40738 271.33542 215.56363 271.14792Q215.7355 270.96042 216.06363 270.96042Q216.40738 270.96042 216.57925 271.14792Q216.75113 271.33542 216.75113 271.61667Q216.75113 271.8823 216.57925 272.0698Q216.40738 272.24167 216.06363 272.24167Q215.7355 272.24167 215.56363 272.0698Q215.40738 271.8823 215.40738 271.61667ZM218.76675 267.89792L219.20425 263.64792L223.57925 263.64792L223.57925 264.64792L220.12613 264.64792L219.8605 266.97604Q220.50113 266.60104 221.298 266.60104Q222.45425 266.60104 223.14175 267.3823Q223.82925 268.14792 223.82925 269.46042Q223.82925 270.77292 223.1105 271.53854Q222.40738 272.30417 221.12613 272.30417Q220.00113 272.30417 219.28238 271.67917Q218.56363 271.03854 218.46988 269.92917L219.4855 269.92917Q219.59488 270.66354 220.01675 271.03854Q220.43863 271.41354 221.12613 271.41354Q221.87613 271.41354 222.31363 270.89792Q222.75113 270.3823 222.75113 269.47604Q222.75113 268.61667 222.28238 268.10104Q221.81363 267.58542 221.03238 267.58542Q220.32925 267.58542 219.923 267.8823L219.64175 268.11667L218.76675 267.89792Z" fill-rule="nonzero"/><path fill="#134f5c" d="M213.62613 268.53854Q213.62613 270.4448 212.96988 271.3823Q212.32925 272.30417 210.93863 272.30417Q209.57925 272.30417 208.923 271.39792Q208.26675 270.49167 208.2355 268.67917L208.2355 267.24167Q208.2355 265.35104 208.87613 264.4448Q209.53238 263.52292 210.923 263.52292Q212.298 263.52292 212.95425 264.41354Q213.6105 265.28854 213.62613 267.1323L213.62613 268.53854ZM212.53238 267.05417Q212.53238 265.67917 212.14175 265.05417Q211.76675 264.41354 210.923 264.41354Q210.09488 264.41354 209.70425 265.05417Q209.32925 265.67917 209.32925 266.97604L209.32925 268.71042Q209.32925 270.08542 209.71988 270.7573Q210.12613 271.41354 210.93863 271.41354Q211.7355 271.41354 212.12613 270.78854Q212.51675 270.16354 212.53238 268.83542L212.53238 267.05417ZM215.40738 271.61667Q215.40738 271.33542 215.56363 271.14792Q215.7355 270.96042 216.06363 270.96042Q216.40738 270.96042 216.57925 271.14792Q216.75113 271.33542 216.75113 271.61667Q216.75113 271.8823 216.57925 272.0698Q216.40738 272.24167 216.06363 272.24167Q215.7355 272.24167 215.56363 272.0698Q215.40738 271.8823 215.40738 271.61667ZM218.76675 267.89792L219.20425 263.64792L223.57925 263.64792L223.57925 264.64792L220.12613 264.64792L219.8605 266.97604Q220.50113 266.60104 221.298 266.60104Q222.45425 266.60104 223.14175 267.3823Q223.82925 268.14792 223.82925 269.46042Q223.82925 270.77292 223.1105 271.53854Q222.40738 272.30417 221.12613 272.30417Q220.00113 272.30417 219.28238 271.67917Q218.56363 271.03854 218.46988 269.92917L219.4855 269.92917Q219.59488 270.66354 220.01675 271.03854Q220.43863 271.41354 221.12613 271.41354Q221.87613 271.41354 222.31363 270.89792Q222.75113 270.3823 222.75113 269.47604Q222.75113 268.61667 222.28238 268.10104Q221.81363 267.58542 221.03238 267.58542Q220.32925 267.58542 219.923 267.8823L219.64175 268.11667L218.76675 267.89792Z" fill-rule="nonzero"/><path stroke="#ffffff" stroke-width="3.0" stroke-linejoin="round" stroke-linecap="round" d="M265.54745 243.90834L264.46933 243.90834L264.46933 236.68959L262.28183 237.48647L262.28183 236.50209L265.3912 235.33022L265.54745 235.33022L265.54745 243.90834Z" fill-rule="nonzero"/><path fill="#134f5c" d="M265.54745 243.90834L264.46933 243.90834L264.46933 236.68959L262.28183 237.48647L262.28183 236.50209L265.3912 235.33022L265.54745 235.33022L265.54745 243.90834Z" fill-rule="nonzero"/><path stroke="#ffffff" stroke-width="3.0" stroke-linejoin="round" stroke-linecap="round" d="M314.26562 243.90834L313.1875 243.90834L313.1875 236.68959L311.0 237.48647L311.0 236.50209L314.10938 235.33022L314.26562 235.33022L314.26562 243.90834Z" fill-rule="nonzero"/><path fill="#134f5c" d="M314.26562 243.90834L313.1875 243.90834L313.1875 236.68959L311.0 237.48647L311.0 236.50209L314.10938 235.33022L314.26562 235.33022L314.26562 243.90834Z" fill-rule="nonzero"/><path stroke="#ffffff" stroke-width="3.0" stroke-linejoin="round" stroke-linecap="round" d="M359.78067 268.53854Q359.78067 270.4448 359.12442 271.3823Q358.4838 272.30417 357.09317 272.30417Q355.7338 272.30417 355.07755 271.39792Q354.4213 270.49167 354.39005 268.67917L354.39005 267.24167Q354.39005 265.35104 355.03067 264.4448Q355.68692 263.52292 357.07755 263.52292Q358.45255 263.52292 359.1088 264.41354Q359.76505 265.28854 359.78067 267.1323L359.78067 268.53854ZM358.68692 267.05417Q358.68692 265.67917 358.2963 265.05417Q357.9213 264.41354 357.07755 264.41354Q356.24942 264.41354 355.8588 265.05417Q355.4838 265.67917 355.4838 266.97604L355.4838 268.71042Q355.4838 270.08542 355.87442 270.7573Q356.28067 271.41354 357.09317 271.41354Q357.89005 271.41354 358.28067 270.78854Q358.6713 270.16354 358.68692 268.83542L358.68692 267.05417ZM361.56192 271.61667Q361.56192 271.33542 361.71817 271.14792Q361.89005 270.96042 362.21817 270.96042Q362.56192 270.96042 362.7338 271.14792Q362.90567 271.33542 362.90567 271.61667Q362.90567 271.8823 362.7338 272.0698Q362.56192 272.24167 362.21817 272.24167Q361.89005 272.24167 361.71817 272.0698Q361.56192 271.8823 361.56192 271.61667ZM364.9213 267.89792L365.3588 263.64792L369.7338 263.64792L369.7338 264.64792L366.28067 264.64792L366.01505 266.97604Q366.65567 266.60104 367.45255 266.60104Q368.6088 266.60104 369.2963 267.3823Q369.9838 268.14792 369.9838 269.46042Q369.9838 270.77292 369.26505 271.53854Q368.56192 272.30417 367.28067 272.30417Q366.15567 272.30417 365.43692 271.67917Q364.71817 271.03854 364.62442 269.92917L365.64005 269.92917Q365.74942 270.66354 366.1713 271.03854Q366.59317 271.41354 367.28067 271.41354Q368.03067 271.41354 368.46817 270.89792Q368.90567 270.3823 368.90567 269.47604Q368.90567 268.61667 368.43692 268.10104Q367.96817 267.58542 367.18692 267.58542Q366.4838 267.58542 366.07755 267.8823L365.7963 268.11667L364.9213 267.89792Z" fill-rule="nonzero"/><path fill="#134f5c" d="M359.78067 268.53854Q359.78067 270.4448 359.12442 271.3823Q358.4838 272.30417 357.09317 272.30417Q355.7338 272.30417 355.07755 271.39792Q354.4213 270.49167 354.39005 268.67917L354.39005 267.24167Q354.39005 265.35104 355.03067 264.4448Q355.68692 263.52292 357.07755 263.52292Q358.45255 263.52292 359.1088 264.41354Q359.76505 265.28854 359.78067 267.1323L359.78067 268.53854ZM358.68692 267.05417Q358.68692 265.67917 358.2963 265.05417Q357.9213 264.41354 357.07755 264.41354Q356.24942 264.41354 355.8588 265.05417Q355.4838 265.67917 355.4838 266.97604L355.4838 268.71042Q355.4838 270.08542 355.87442 270.7573Q356.28067 271.41354 357.09317 271.41354Q357.89005 271.41354 358.28067 270.78854Q358.6713 270.16354 358.68692 268.83542L358.68692 267.05417ZM361.56192 271.61667Q361.56192 271.33542 361.71817 271.14792Q361.89005 270.96042 362.21817 270.96042Q362.56192 270.96042 362.7338 271.14792Q362.90567 271.33542 362.90567 271.61667Q362.90567 271.8823 362.7338 272.0698Q362.56192 272.24167 362.21817 272.24167Q361.89005 272.24167 361.71817 272.0698Q361.56192 271.8823 361.56192 271.61667ZM364.9213 267.89792L365.3588 263.64792L369.7338 263.64792L369.7338 264.64792L366.28067 264.64792L366.01505 266.97604Q366.65567 266.60104 367.45255 266.60104Q368.6088 266.60104 369.2963 267.3823Q369.9838 268.14792 369.9838 269.46042Q369.9838 270.77292 369.26505 271.53854Q368.56192 272.30417 367.28067 272.30417Q366.15567 272.30417 365.43692 271.67917Q364.71817 271.03854 364.62442 269.92917L365.64005 269.92917Q365.74942 270.66354 366.1713 271.03854Q366.59317 271.41354 367.28067 271.41354Q368.03067 271.41354 368.46817 270.89792Q368.90567 270.3823 368.90567 269.47604Q368.90567 268.61667 368.43692 268.10104Q367.96817 267.58542 367.18692 267.58542Q366.4838 267.58542 366.07755 267.8823L365.7963 268.11667L364.9213 267.89792Z" fill-rule="nonzero"/><path stroke="#ffffff" stroke-width="3.0" stroke-linejoin="round" stroke-linecap="round" d="M408.49887 291.1552Q408.49887 293.06146 407.84262 293.99896Q407.202 294.92084 405.81137 294.92084Q404.452 294.92084 403.79575 294.0146Q403.1395 293.10834 403.10825 291.29584L403.10825 289.85834Q403.10825 287.9677 403.74887 287.06146Q404.40512 286.1396 405.79575 286.1396Q407.17075 286.1396 407.827 287.0302Q408.48325 287.9052 408.49887 289.74896L408.49887 291.1552ZM407.40512 289.67084Q407.40512 288.29584 407.0145 287.67084Q406.6395 287.0302 405.79575 287.0302Q404.96762 287.0302 404.577 287.67084Q404.202 288.29584 404.202 289.5927L404.202 291.3271Q404.202 292.7021 404.59262 293.37396Q404.99887 294.0302 405.81137 294.0302Q406.60825 294.0302 406.99887 293.4052Q407.3895 292.7802 407.40512 291.4521L407.40512 289.67084ZM410.28012 294.23334Q410.28012 293.9521 410.43637 293.7646Q410.60825 293.5771 410.93637 293.5771Q411.28012 293.5771 411.452 293.7646Q411.62387 293.9521 411.62387 294.23334Q411.62387 294.49896 411.452 294.68646Q411.28012 294.85834 410.93637 294.85834Q410.60825 294.85834 410.43637 294.68646Q410.28012 294.49896 410.28012 294.23334ZM416.702 294.79584L415.62387 294.79584L415.62387 287.5771L413.43637 288.37396L413.43637 287.3896L416.54575 286.2177L416.702 286.2177L416.702 294.79584Z" fill-rule="nonzero"/><path fill="#134f5c" d="M408.49887 291.1552Q408.49887 293.06146 407.84262 293.99896Q407.202 294.92084 405.81137 294.92084Q404.452 294.92084 403.79575 294.0146Q403.1395 293.10834 403.10825 291.29584L403.10825 289.85834Q403.10825 287.9677 403.74887 287.06146Q404.40512 286.1396 405.79575 286.1396Q407.17075 286.1396 407.827 287.0302Q408.48325 287.9052 408.49887 289.74896L408.49887 291.1552ZM407.40512 289.67084Q407.40512 288.29584 407.0145 287.67084Q406.6395 287.0302 405.79575 287.0302Q404.96762 287.0302 404.577 287.67084Q404.202 288.29584 404.202 289.5927L404.202 291.3271Q404.202 292.7021 404.59262 293.37396Q404.99887 294.0302 405.81137 294.0302Q406.60825 294.0302 406.99887 293.4052Q407.3895 292.7802 407.40512 291.4521L407.40512 289.67084ZM410.28012 294.23334Q410.28012 293.9521 410.43637 293.7646Q410.60825 293.5771 410.93637 293.5771Q411.28012 293.5771 411.452 293.7646Q411.62387 293.9521 411.62387 294.23334Q411.62387 294.49896 411.452 294.68646Q411.28012 294.85834 410.93637 294.85834Q410.60825 294.85834 410.43637 294.68646Q410.28012 294.49896 410.28012 294.23334ZM416.702 294.79584L415.62387 294.79584L415.62387 287.5771L413.43637 288.37396L413.43637 287.3896L416.54575 286.2177L416.702 286.2177L416.702 294.79584Z" fill-rule="nonzero"/><path stroke="#ffffff" stroke-width="3.0" stroke-linejoin="round" stroke-linecap="round" d="M460.42017 243.90834L459.34204 243.90834L459.34204 236.68959L457.15454 237.48647L457.15454 236.50209L460.26392 235.33022L460.42017 235.33022L460.42017 243.90834Z" fill-rule="nonzero"/><path fill="#134f5c" d="M460.42017 243.90834L459.34204 243.90834L459.34204 236.68959L457.15454 237.48647L457.15454 236.50209L460.26392 235.33022L460.42017 235.33022L460.42017 243.90834Z" fill-rule="nonzero"/><path stroke="#ffffff" stroke-width="3.0" stroke-linejoin="round" stroke-linecap="round" d="M509.13837 243.90834L508.06024 243.90834L508.06024 236.68959L505.87274 237.48647L505.87274 236.50209L508.98212 235.33022L509.13837 235.33022L509.13837 243.90834Z" fill-rule="nonzero"/><path fill="#134f5c" d="M509.13837 243.90834L508.06024 243.90834L508.06024 236.68959L505.87274 237.48647L505.87274 236.50209L508.98212 235.33022L509.13837 235.33022L509.13837 243.90834Z" fill-rule="nonzero"/><path stroke="#ffffff" stroke-width="3.0" stroke-linejoin="round" stroke-linecap="round" d="M555.87213 126.02812L556.68463 126.02812Q557.4659 126.0125 557.9034 125.62187Q558.3409 125.23125 558.3409 124.55937Q558.3409 123.05937 556.8409 123.05937Q556.13776 123.05937 555.7159 123.46562Q555.30963 123.87187 555.30963 124.52812L554.2159 124.52812Q554.2159 123.5125 554.95026 122.84062Q555.70026 122.16875 556.8409 122.16875Q558.044 122.16875 558.7315 122.80937Q559.419 123.45 559.419 124.59062Q559.419 125.15312 559.05963 125.66875Q558.70026 126.18437 558.07526 126.45Q558.7784 126.66875 559.1534 127.18437Q559.544 127.7 559.544 128.45Q559.544 129.59062 558.794 130.27812Q558.044 130.95 556.8409 130.95Q555.6534 130.95 554.88776 130.29375Q554.13776 129.6375 554.13776 128.575L555.2315 128.575Q555.2315 129.24687 555.669 129.65312Q556.1065 130.05937 556.8565 130.05937Q557.63776 130.05937 558.044 129.65312Q558.4659 129.23125 558.4659 128.46562Q558.4659 127.73125 558.01276 127.34062Q557.55963 126.93437 556.68463 126.91875L555.87213 126.91875L555.87213 126.02812Z" fill-rule="nonzero"/><path fill="#134f5c" d="M555.87213 126.02812L556.68463 126.02812Q557.4659 126.0125 557.9034 125.62187Q558.3409 125.23125 558.3409 124.55937Q558.3409 123.05937 556.8409 123.05937Q556.13776 123.05937 555.7159 123.46562Q555.30963 123.87187 555.30963 124.52812L554.2159 124.52812Q554.2159 123.5125 554.95026 122.84062Q555.70026 122.16875 556.8409 122.16875Q558.044 122.16875 558.7315 122.80937Q559.419 123.45 559.419 124.59062Q559.419 125.15312 559.05963 125.66875Q558.70026 126.18437 558.07526 126.45Q558.7784 126.66875 559.1534 127.18437Q559.544 127.7 559.544 128.45Q559.544 129.59062 558.794 130.27812Q558.044 130.95 556.8409 130.95Q555.6534 130.95 554.88776 130.29375Q554.13776 129.6375 554.13776 128.575L555.2315 128.575Q555.2315 129.24687 555.669 129.65312Q556.1065 130.05937 556.8565 130.05937Q557.63776 130.05937 558.044 129.65312Q558.4659 129.23125 558.4659 128.46562Q558.4659 127.73125 558.01276 127.34062Q557.55963 126.93437 556.68463 126.91875L555.87213 126.91875L555.87213 126.02812Z" fill-rule="nonzero"/><path fill="#000000" d="M33.05 318.21564Q33.05 316.6844 33.3625 315.7625Q33.675 314.825 34.284374 314.325Q34.909374 313.825 35.846874 313.825Q36.534374 313.825 37.05 314.10626Q37.58125 314.3875 37.925 314.91876Q38.26875 315.4344 38.45625 316.1844Q38.64375 316.9344 38.64375 318.21564Q38.64375 319.73126 38.33125 320.65314Q38.034374 321.575 37.409374 322.09064Q36.8 322.59064 35.846874 322.59064Q34.6125 322.59064 33.89375 321.7Q33.05 320.6375 33.05 318.21564ZM34.128124 318.21564Q34.128124 320.325 34.628124 321.02814Q35.128124 321.73126 35.846874 321.73126Q36.58125 321.73126 37.065624 321.02814Q37.565624 320.325 37.565624 318.21564Q37.565624 316.09064 37.065624 315.40314Q36.58125 314.7 35.83125 314.7Q35.1125 314.7 34.675 315.3094Q34.128124 316.09064 34.128124 318.21564Z" fill-rule="nonzero"/><path fill="#000000" d="M37.01875 265.90833L35.971874 265.90833L35.971874 259.18958Q35.58125 259.54895 34.95625 259.92395Q34.346874 260.28333 33.8625 260.4552L33.8625 259.43958Q34.7375 259.0177 35.39375 258.43958Q36.065624 257.84583 36.346874 257.28333L37.01875 257.28333L37.01875 265.90833Z" fill-rule="nonzero"/><path fill="#000000" d="M38.596874 208.35104L38.596874 209.36667L32.909374 209.36667Q32.909374 208.99167 33.034374 208.6323Q33.253124 208.05417 33.721874 207.49167Q34.20625 206.92917 35.1125 206.1948Q36.51875 205.03854 37.003124 204.36667Q37.503124 203.6948 37.503124 203.10104Q37.503124 202.47604 37.05 202.05417Q36.596874 201.61667 35.878124 201.61667Q35.1125 201.61667 34.659374 202.0698Q34.20625 202.52292 34.190624 203.33542L33.1125 203.22604Q33.221874 202.0073 33.940624 201.3823Q34.675 200.74167 35.909374 200.74167Q37.14375 200.74167 37.8625 201.42917Q38.58125 202.11667 38.58125 203.1323Q38.58125 203.64792 38.3625 204.14792Q38.159374 204.6323 37.659374 205.1948Q37.175 205.74167 36.05 206.6948Q35.096874 207.49167 34.815624 207.78854Q34.55 208.0698 34.378124 208.35104L38.596874 208.35104Z" fill-rule="nonzero"/><path fill="#000000" d="M33.05 150.55937L34.1125 150.41875Q34.284374 151.30937 34.721874 151.71562Q35.159374 152.10625 35.784374 152.10625Q36.534374 152.10625 37.05 151.59062Q37.565624 151.075 37.565624 150.30937Q37.565624 149.59062 37.08125 149.12187Q36.6125 148.6375 35.878124 148.6375Q35.58125 148.6375 35.128124 148.7625L35.253124 147.825Q35.3625 147.84062 35.425 147.84062Q36.096874 147.84062 36.628124 147.49687Q37.175 147.1375 37.175 146.40312Q37.175 145.825 36.784374 145.45Q36.39375 145.05937 35.76875 145.05937Q35.159374 145.05937 34.7375 145.45Q34.33125 145.84062 34.221874 146.60625L33.159374 146.41875Q33.346874 145.37187 34.034374 144.79375Q34.721874 144.2 35.7375 144.2Q36.440624 144.2 37.034374 144.5125Q37.628124 144.80937 37.940624 145.325Q38.253124 145.84062 38.253124 146.43437Q38.253124 146.98125 37.95625 147.45Q37.659374 147.90312 37.08125 148.16875Q37.83125 148.34062 38.253124 148.90312Q38.675 149.45 38.675 150.29375Q38.675 151.41875 37.846874 152.2Q37.034374 152.98125 35.784374 152.98125Q34.659374 152.98125 33.909374 152.30937Q33.159374 151.62187 33.05 150.55937Z" fill-rule="nonzero"/><path fill="#000000" d="M36.425 96.28333L36.425 94.22083L32.70625 94.22083L32.70625 93.25208L36.628124 87.68958L37.4875 87.68958L37.4875 93.25208L38.64375 93.25208L38.64375 94.22083L37.4875 94.22083L37.4875 96.28333L36.425 96.28333ZM36.425 93.25208L36.425 89.39271L33.7375 93.25208L36.425 93.25208Z" fill-rule="nonzero"/><path fill="#000000" d="M58.877842 335.45L57.830967 335.45L57.830967 328.73126Q57.440342 329.09064 56.815342 329.46564Q56.205967 329.825 55.721592 329.9969L55.721592 328.98126Q56.596592 328.5594 57.252842 327.98126Q57.924717 327.3875 58.205967 326.825L58.877842 326.825L58.877842 335.45ZM65.87784 335.45L64.83096 335.45L64.83096 328.73126Q64.44034 329.09064 63.815342 329.46564Q63.205967 329.825 62.721592 329.9969L62.721592 328.98126Q63.596592 328.5594 64.25284 327.98126Q64.92471 327.3875 65.20596 326.825L65.87784 326.825L65.87784 335.45ZM69.48721 330.4344L69.48721 329.23126L70.69034 329.23126L70.69034 330.4344L69.48721 330.4344ZM69.48721 335.45L69.48721 334.2469L70.69034 334.2469L70.69034 335.45L69.48721 335.45ZM71.90909 331.21564Q71.90909 329.6844 72.22159 328.7625Q72.53409 327.825 73.14346 327.325Q73.76846 326.825 74.70596 326.825Q75.39346 326.825 75.90909 327.10626Q76.44034 327.3875 76.78409 327.91876Q77.12784 328.4344 77.31534 329.1844Q77.50284 329.9344 77.50284 331.21564Q77.50284 332.73126 77.19034 333.65314Q76.89346 334.575 76.26846 335.09064Q75.65909 335.59064 74.70596 335.59064Q73.47159 335.59064 72.75284 334.7Q71.90909 333.6375 71.90909 331.21564ZM72.98721 331.21564Q72.98721 333.325 73.48721 334.02814Q73.98721 334.73126 74.70596 334.73126Q75.44034 334.73126 75.92471 334.02814Q76.42471 333.325 76.42471 331.21564Q76.42471 329.09064 75.92471 328.40314Q75.44034 327.7 74.69034 327.7Q73.97159 327.7 73.53409 328.3094Q72.98721 329.09064 72.98721 331.21564ZM78.90909 331.21564Q78.90909 329.6844 79.22159 328.7625Q79.53409 327.825 80.14346 327.325Q80.76846 326.825 81.70596 326.825Q82.39346 326.825 82.90909 327.10626Q83.44034 327.3875 83.78409 327.91876Q84.12784 328.4344 84.31534 329.1844Q84.50284 329.9344 84.50284 331.21564Q84.50284 332.73126 84.19034 333.65314Q83.89346 334.575 83.26846 335.09064Q82.65909 335.59064 81.70596 335.59064Q80.47159 335.59064 79.75284 334.7Q78.90909 333.6375 78.90909 331.21564ZM79.98721 331.21564Q79.98721 333.325 80.48721 334.02814Q80.98721 334.73126 81.70596 334.73126Q82.44034 334.73126 82.92471 334.02814Q83.42471 333.325 83.42471 331.21564Q83.42471 329.09064 82.92471 328.40314Q82.44034 327.7 81.69034 327.7Q80.97159 327.7 80.53409 328.3094Q79.98721 329.09064 79.98721 331.21564Z" fill-rule="nonzero"/><path fill="#000000" d="M60.893467 349.45L64.19034 340.85626L65.40909 340.85626L68.92471 349.45L67.64346 349.45L66.62784 346.84064L63.049717 346.84064L62.096592 349.45L60.893467 349.45ZM63.377842 345.91876L66.28409 345.91876L65.39346 343.54376Q64.97159 342.46564 64.78409 341.7625Q64.61221 342.59064 64.31534 343.40314L63.377842 345.91876ZM69.79971 349.45L69.79971 340.85626L71.51846 340.85626L73.54971 346.9344Q73.83096 347.79376 73.95596 348.21564Q74.09659 347.7469 74.40909 346.84064L76.47159 340.85626L78.00284 340.85626L78.00284 349.45L76.90909 349.45L76.90909 342.2625L74.40909 349.45L73.37784 349.45L70.89346 342.1375L70.89346 349.45L69.79971 349.45Z" fill-rule="nonzero"/><path fill="#000000" d="M107.59602 335.45L106.54915 335.45L106.54915 328.73126Q106.15852 329.09064 105.53352 329.46564Q104.92415 329.825 104.43977 329.9969L104.43977 328.98126Q105.31477 328.5594 105.97102 327.98126Q106.6429 327.3875 106.92415 326.825L107.59602 326.825L107.59602 335.45ZM116.17415 334.4344L116.17415 335.45L110.48665 335.45Q110.48665 335.075 110.61165 334.71564Q110.8304 334.1375 111.29915 333.575Q111.78352 333.0125 112.68977 332.27814Q114.09602 331.1219 114.5804 330.45Q115.0804 329.77814 115.0804 329.1844Q115.0804 328.5594 114.62727 328.1375Q114.17415 327.7 113.4554 327.7Q112.68977 327.7 112.23665 328.15314Q111.78352 328.60626 111.7679 329.41876L110.68977 329.3094Q110.79915 328.09064 111.5179 327.46564Q112.25227 326.825 113.48665 326.825Q114.72102 326.825 115.43977 327.5125Q116.15852 328.2 116.15852 329.21564Q116.15852 329.73126 115.93977 330.23126Q115.73665 330.71564 115.23665 331.27814Q114.75227 331.825 113.62727 332.77814Q112.67415 333.575 112.3929 333.8719Q112.12727 334.15314 111.9554 334.4344L116.17415 334.4344ZM118.2054 330.4344L118.2054 329.23126L119.40852 329.23126L119.40852 330.4344L118.2054 330.4344ZM118.2054 335.45L118.2054 334.2469L119.40852 334.2469L119.40852 335.45L118.2054 335.45ZM120.62727 331.21564Q120.62727 329.6844 120.93977 328.7625Q121.25227 327.825 121.86165 327.325Q122.48665 326.825 123.42415 326.825Q124.11165 326.825 124.62727 327.10626Q125.15852 327.3875 125.50227 327.91876Q125.84602 328.4344 126.03352 329.1844Q126.22102 329.9344 126.22102 331.21564Q126.22102 332.73126 125.90852 333.65314Q125.61165 334.575 124.98665 335.09064Q124.37727 335.59064 123.42415 335.59064Q122.18977 335.59064 121.47102 334.7Q120.62727 333.6375 120.62727 331.21564ZM121.7054 331.21564Q121.7054 333.325 122.2054 334.02814Q122.7054 334.73126 123.42415 334.73126Q124.15852 334.73126 124.6429 334.02814Q125.1429 333.325 125.1429 331.21564Q125.1429 329.09064 124.6429 328.40314Q124.15852 327.7 123.40852 327.7Q122.68977 327.7 122.25227 328.3094Q121.7054 329.09064 121.7054 331.21564ZM127.62727 331.21564Q127.62727 329.6844 127.93977 328.7625Q128.25227 327.825 128.86165 327.325Q129.48665 326.825 130.42415 326.825Q131.11165 326.825 131.62727 327.10626Q132.15852 327.3875 132.50227 327.91876Q132.84602 328.4344 133.03352 329.1844Q133.22102 329.9344 133.22102 331.21564Q133.22102 332.73126 132.90852 333.65314Q132.61165 334.575 131.98665 335.09064Q131.37727 335.59064 130.42415 335.59064Q129.18977 335.59064 128.47102 334.7Q127.62727 333.6375 127.62727 331.21564ZM128.7054 331.21564Q128.7054 333.325 129.2054 334.02814Q129.7054 334.73126 130.42415 334.73126Q131.15852 334.73126 131.6429 334.02814Q132.1429 333.325 132.1429 331.21564Q132.1429 329.09064 131.6429 328.40314Q131.15852 327.7 130.40852 327.7Q129.68977 327.7 129.25227 328.3094Q128.7054 329.09064 128.7054 331.21564Z" fill-rule="nonzero"/><path fill="#000000" d="M110.54915 349.45L110.54915 340.85626L113.79915 340.85626Q114.6429 340.85626 115.09602 340.9344Q115.73665 341.04376 116.15852 341.34064Q116.59602 341.6375 116.84602 342.16876Q117.11165 342.7 117.11165 343.34064Q117.11165 344.4344 116.40852 345.2Q115.72102 345.95 113.8929 345.95L111.68977 345.95L111.68977 349.45L110.54915 349.45ZM111.68977 344.95L113.90852 344.95Q115.0179 344.95 115.47102 344.54376Q115.93977 344.1219 115.93977 343.3719Q115.93977 342.84064 115.65852 342.46564Q115.3929 342.075 114.9554 341.95Q114.65852 341.8719 113.8929 341.8719L111.68977 341.8719L111.68977 344.95ZM118.5179 349.45L118.5179 340.85626L120.23665 340.85626L122.2679 346.9344Q122.54915 347.79376 122.67415 348.21564Q122.81477 347.7469 123.12727 346.84064L125.18977 340.85626L126.72102 340.85626L126.72102 349.45L125.62727 349.45L125.62727 342.2625L123.12727 349.45L122.09602 349.45L119.61165 342.1375L119.61165 349.45L118.5179 349.45Z" fill-rule="nonzero"/><path fill="#000000" d="M159.81421 335.45L158.76733 335.45L158.76733 328.73126Q158.37671 329.09064 157.75171 329.46564Q157.14233 329.825 156.65796 329.9969L156.65796 328.98126Q157.53296 328.5594 158.18921 327.98126Q158.86108 327.3875 159.14233 326.825L159.81421 326.825L159.81421 335.45ZM163.42358 330.4344L163.42358 329.23126L164.62671 329.23126L164.62671 330.4344L163.42358 330.4344ZM163.42358 335.45L163.42358 334.2469L164.62671 334.2469L164.62671 335.45L163.42358 335.45ZM165.84546 331.21564Q165.84546 329.6844 166.15796 328.7625Q166.47046 327.825 167.07983 327.325Q167.70483 326.825 168.64233 326.825Q169.32983 326.825 169.84546 327.10626Q170.37671 327.3875 170.72046 327.91876Q171.06421 328.4344 171.25171 329.1844Q171.43921 329.9344 171.43921 331.21564Q171.43921 332.73126 171.12671 333.65314Q170.82983 334.575 170.20483 335.09064Q169.59546 335.59064 168.64233 335.59064Q167.40796 335.59064 166.68921 334.7Q165.84546 333.6375 165.84546 331.21564ZM166.92358 331.21564Q166.92358 333.325 167.42358 334.02814Q167.92358 334.73126 168.64233 334.73126Q169.37671 334.73126 169.86108 334.02814Q170.36108 333.325 170.36108 331.21564Q170.36108 329.09064 169.86108 328.40314Q169.37671 327.7 168.62671 327.7Q167.90796 327.7 167.47046 328.3094Q166.92358 329.09064 166.92358 331.21564ZM172.84546 331.21564Q172.84546 329.6844 173.15796 328.7625Q173.47046 327.825 174.07983 327.325Q174.70483 326.825 175.64233 326.825Q176.32983 326.825 176.84546 327.10626Q177.37671 327.3875 177.72046 327.91876Q178.06421 328.4344 178.25171 329.1844Q178.43921 329.9344 178.43921 331.21564Q178.43921 332.73126 178.12671 333.65314Q177.82983 334.575 177.20483 335.09064Q176.59546 335.59064 175.64233 335.59064Q174.40796 335.59064 173.68921 334.7Q172.84546 333.6375 172.84546 331.21564ZM173.92358 331.21564Q173.92358 333.325 174.42358 334.02814Q174.92358 334.73126 175.64233 334.73126Q176.37671 334.73126 176.86108 334.02814Q177.36108 333.325 177.36108 331.21564Q177.36108 329.09064 176.86108 328.40314Q176.37671 327.7 175.62671 327.7Q174.90796 327.7 174.47046 328.3094Q173.92358 329.09064 173.92358 331.21564Z" fill-rule="nonzero"/><path fill="#000000" d="M159.26733 349.45L159.26733 340.85626L162.51733 340.85626Q163.36108 340.85626 163.81421 340.9344Q164.45483 341.04376 164.87671 341.34064Q165.31421 341.6375 165.56421 342.16876Q165.82983 342.7 165.82983 343.34064Q165.82983 344.4344 165.12671 345.2Q164.43921 345.95 162.61108 345.95L160.40796 345.95L160.40796 349.45L159.26733 349.45ZM160.40796 344.95L162.62671 344.95Q163.73608 344.95 164.18921 344.54376Q164.65796 344.1219 164.65796 343.3719Q164.65796 342.84064 164.37671 342.46564Q164.11108 342.075 163.67358 341.95Q163.37671 341.8719 162.61108 341.8719L160.40796 341.8719L160.40796 344.95ZM167.23608 349.45L167.23608 340.85626L168.95483 340.85626L170.98608 346.9344Q171.26733 347.79376 171.39233 348.21564Q171.53296 347.7469 171.84546 346.84064L173.90796 340.85626L175.43921 340.85626L175.43921 349.45L174.34546 349.45L174.34546 342.2625L171.84546 349.45L170.81421 349.45L168.32983 342.1375L168.32983 349.45L167.23608 349.45Z" fill-rule="nonzero"/><path fill="#000000" d="M210.1105 334.4344L210.1105 335.45L204.423 335.45Q204.423 335.075 204.548 334.71564Q204.76675 334.1375 205.2355 333.575Q205.71988 333.0125 206.62613 332.27814Q208.03238 331.1219 208.51675 330.45Q209.01675 329.77814 209.01675 329.1844Q209.01675 328.5594 208.56363 328.1375Q208.1105 327.7 207.39175 327.7Q206.62613 327.7 206.173 328.15314Q205.71988 328.60626 205.70425 329.41876L204.62613 329.3094Q204.7355 328.09064 205.45425 327.46564Q206.18863 326.825 207.423 326.825Q208.65738 326.825 209.37613 327.5125Q210.09488 328.2 210.09488 329.21564Q210.09488 329.73126 209.87613 330.23126Q209.673 330.71564 209.173 331.27814Q208.68863 331.825 207.56363 332.77814Q206.6105 333.575 206.32925 333.8719Q206.06363 334.15314 205.89175 334.4344L210.1105 334.4344ZM212.14175 330.4344L212.14175 329.23126L213.34488 329.23126L213.34488 330.4344L212.14175 330.4344ZM212.14175 335.45L212.14175 334.2469L213.34488 334.2469L213.34488 335.45L212.14175 335.45ZM214.56363 331.21564Q214.56363 329.6844 214.87613 328.7625Q215.18863 327.825 215.798 327.325Q216.423 326.825 217.3605 326.825Q218.048 326.825 218.56363 327.10626Q219.09488 327.3875 219.43863 327.91876Q219.78238 328.4344 219.96988 329.1844Q220.15738 329.9344 220.15738 331.21564Q220.15738 332.73126 219.84488 333.65314Q219.548 334.575 218.923 335.09064Q218.31363 335.59064 217.3605 335.59064Q216.12613 335.59064 215.40738 334.7Q214.56363 333.6375 214.56363 331.21564ZM215.64175 331.21564Q215.64175 333.325 216.14175 334.02814Q216.64175 334.73126 217.3605 334.73126Q218.09488 334.73126 218.57925 334.02814Q219.07925 333.325 219.07925 331.21564Q219.07925 329.09064 218.57925 328.40314Q218.09488 327.7 217.34488 327.7Q216.62613 327.7 216.18863 328.3094Q215.64175 329.09064 215.64175 331.21564ZM221.56363 331.21564Q221.56363 329.6844 221.87613 328.7625Q222.18863 327.825 222.798 327.325Q223.423 326.825 224.3605 326.825Q225.048 326.825 225.56363 327.10626Q226.09488 327.3875 226.43863 327.91876Q226.78238 328.4344 226.96988 329.1844Q227.15738 329.9344 227.15738 331.21564Q227.15738 332.73126 226.84488 333.65314Q226.548 334.575 225.923 335.09064Q225.31363 335.59064 224.3605 335.59064Q223.12613 335.59064 222.40738 334.7Q221.56363 333.6375 221.56363 331.21564ZM222.64175 331.21564Q222.64175 333.325 223.14175 334.02814Q223.64175 334.73126 224.3605 334.73126Q225.09488 334.73126 225.57925 334.02814Q226.07925 333.325 226.07925 331.21564Q226.07925 329.09064 225.57925 328.40314Q225.09488 327.7 224.34488 327.7Q223.62613 327.7 223.18863 328.3094Q222.64175 329.09064 222.64175 331.21564Z" fill-rule="nonzero"/><path fill="#000000" d="M207.9855 349.45L207.9855 340.85626L211.2355 340.85626Q212.07925 340.85626 212.53238 340.9344Q213.173 341.04376 213.59488 341.34064Q214.03238 341.6375 214.28238 342.16876Q214.548 342.7 214.548 343.34064Q214.548 344.4344 213.84488 345.2Q213.15738 345.95 211.32925 345.95L209.12613 345.95L209.12613 349.45L207.9855 349.45ZM209.12613 344.95L211.34488 344.95Q212.45425 344.95 212.90738 344.54376Q213.37613 344.1219 213.37613 343.3719Q213.37613 342.84064 213.09488 342.46564Q212.82925 342.075 212.39175 341.95Q212.09488 341.8719 211.32925 341.8719L209.12613 341.8719L209.12613 344.95ZM215.95425 349.45L215.95425 340.85626L217.673 340.85626L219.70425 346.9344Q219.9855 347.79376 220.1105 348.21564Q220.25113 347.7469 220.56363 346.84064L222.62613 340.85626L224.15738 340.85626L224.15738 349.45L223.06363 349.45L223.06363 342.2625L220.56363 349.45L219.53238 349.45L217.048 342.1375L217.048 349.45L215.95425 349.45Z" fill-rule="nonzero"/><path fill="#000000" d="M253.28181 333.1844L254.34431 333.04376Q254.51619 333.9344 254.95369 334.34064Q255.39119 334.73126 256.01617 334.73126Q256.76617 334.73126 257.2818 334.21564Q257.79742 333.7 257.79742 332.9344Q257.79742 332.21564 257.31305 331.7469Q256.8443 331.2625 256.10992 331.2625Q255.81306 331.2625 255.35994 331.3875L255.48494 330.45Q255.59431 330.46564 255.65681 330.46564Q256.32867 330.46564 256.85992 330.1219Q257.4068 329.7625 257.4068 329.02814Q257.4068 328.45 257.01617 328.075Q256.62555 327.6844 256.00055 327.6844Q255.39119 327.6844 254.96931 328.075Q254.56306 328.46564 254.45369 329.23126L253.39119 329.04376Q253.57869 327.9969 254.26619 327.41876Q254.95369 326.825 255.96931 326.825Q256.67242 326.825 257.26617 327.1375Q257.85992 327.4344 258.17242 327.95Q258.48492 328.46564 258.48492 329.0594Q258.48492 329.60626 258.18805 330.075Q257.89117 330.52814 257.31305 330.79376Q258.06305 330.96564 258.48492 331.52814Q258.9068 332.075 258.9068 332.91876Q258.9068 334.04376 258.07867 334.825Q257.26617 335.60626 256.01617 335.60626Q254.89119 335.60626 254.14119 334.9344Q253.39119 334.2469 253.28181 333.1844ZM260.85992 330.4344L260.85992 329.23126L262.06305 329.23126L262.06305 330.4344L260.85992 330.4344ZM260.85992 335.45L260.85992 334.2469L262.06305 334.2469L262.06305 335.45L260.85992 335.45ZM263.2818 331.21564Q263.2818 329.6844 263.5943 328.7625Q263.9068 327.825 264.51617 327.325Q265.14117 326.825 266.07867 326.825Q266.76617 326.825 267.2818 327.10626Q267.81305 327.3875 268.1568 327.91876Q268.50055 328.4344 268.68805 329.1844Q268.87555 329.9344 268.87555 331.21564Q268.87555 332.73126 268.56305 333.65314Q268.26617 334.575 267.64117 335.09064Q267.0318 335.59064 266.07867 335.59064Q264.8443 335.59064 264.12555 334.7Q263.2818 333.6375 263.2818 331.21564ZM264.35992 331.21564Q264.35992 333.325 264.85992 334.02814Q265.35992 334.73126 266.07867 334.73126Q266.81305 334.73126 267.29742 334.02814Q267.79742 333.325 267.79742 331.21564Q267.79742 329.09064 267.29742 328.40314Q266.81305 327.7 266.06305 327.7Q265.3443 327.7 264.9068 328.3094Q264.35992 329.09064 264.35992 331.21564ZM270.2818 331.21564Q270.2818 329.6844 270.5943 328.7625Q270.9068 327.825 271.51617 327.325Q272.14117 326.825 273.07867 326.825Q273.76617 326.825 274.2818 327.10626Q274.81305 327.3875 275.1568 327.91876Q275.50055 328.4344 275.68805 329.1844Q275.87555 329.9344 275.87555 331.21564Q275.87555 332.73126 275.56305 333.65314Q275.26617 334.575 274.64117 335.09064Q274.0318 335.59064 273.07867 335.59064Q271.8443 335.59064 271.12555 334.7Q270.2818 333.6375 270.2818 331.21564ZM271.35992 331.21564Q271.35992 333.325 271.85992 334.02814Q272.35992 334.73126 273.07867 334.73126Q273.81305 334.73126 274.29742 334.02814Q274.79742 333.325 274.79742 331.21564Q274.79742 329.09064 274.29742 328.40314Q273.81305 327.7 273.06305 327.7Q272.3443 327.7 271.9068 328.3094Q271.35992 329.09064 271.35992 331.21564Z" fill-rule="nonzero"/><path fill="#000000" d="M256.70367 349.45L256.70367 340.85626L259.95367 340.85626Q260.79742 340.85626 261.25055 340.9344Q261.89117 341.04376 262.31305 341.34064Q262.75055 341.6375 263.00055 342.16876Q263.26617 342.7 263.26617 343.34064Q263.26617 344.4344 262.56305 345.2Q261.87555 345.95 260.04742 345.95L257.8443 345.95L257.8443 349.45L256.70367 349.45ZM257.8443 344.95L260.06305 344.95Q261.17242 344.95 261.62555 344.54376Q262.0943 344.1219 262.0943 343.3719Q262.0943 342.84064 261.81305 342.46564Q261.54742 342.075 261.10992 341.95Q260.81305 341.8719 260.04742 341.8719L257.8443 341.8719L257.8443 344.95ZM264.67242 349.45L264.67242 340.85626L266.39117 340.85626L268.42242 346.9344Q268.70367 347.79376 268.82867 348.21564Q268.9693 347.7469 269.2818 346.84064L271.3443 340.85626L272.87555 340.85626L272.87555 349.45L271.7818 349.45L271.7818 342.2625L269.2818 349.45L268.25055 349.45L265.76617 342.1375L265.76617 349.45L264.67242 349.45Z" fill-rule="nonzero"/><path fill="#000000" d="M305.375 335.45L305.375 333.3875L301.65625 333.3875L301.65625 332.41876L305.57812 326.85626L306.4375 326.85626L306.4375 332.41876L307.59375 332.41876L307.59375 333.3875L306.4375 333.3875L306.4375 335.45L305.375 335.45ZM305.375 332.41876L305.375 328.5594L302.6875 332.41876L305.375 332.41876ZM309.57812 330.4344L309.57812 329.23126L310.78125 329.23126L310.78125 330.4344L309.57812 330.4344ZM309.57812 335.45L309.57812 334.2469L310.78125 334.2469L310.78125 335.45L309.57812 335.45ZM312.0 331.21564Q312.0 329.6844 312.3125 328.7625Q312.625 327.825 313.23438 327.325Q313.85938 326.825 314.79688 326.825Q315.48438 326.825 316.0 327.10626Q316.53125 327.3875 316.875 327.91876Q317.21875 328.4344 317.40625 329.1844Q317.59375 329.9344 317.59375 331.21564Q317.59375 332.73126 317.28125 333.65314Q316.98438 334.575 316.35938 335.09064Q315.75 335.59064 314.79688 335.59064Q313.5625 335.59064 312.84375 334.7Q312.0 333.6375 312.0 331.21564ZM313.07812 331.21564Q313.07812 333.325 313.57812 334.02814Q314.07812 334.73126 314.79688 334.73126Q315.53125 334.73126 316.01562 334.02814Q316.51562 333.325 316.51562 331.21564Q316.51562 329.09064 316.01562 328.40314Q315.53125 327.7 314.78125 327.7Q314.0625 327.7 313.625 328.3094Q313.07812 329.09064 313.07812 331.21564ZM319.0 331.21564Q319.0 329.6844 319.3125 328.7625Q319.625 327.825 320.23438 327.325Q320.85938 326.825 321.79688 326.825Q322.48438 326.825 323.0 327.10626Q323.53125 327.3875 323.875 327.91876Q324.21875 328.4344 324.40625 329.1844Q324.59375 329.9344 324.59375 331.21564Q324.59375 332.73126 324.28125 333.65314Q323.98438 334.575 323.35938 335.09064Q322.75 335.59064 321.79688 335.59064Q320.5625 335.59064 319.84375 334.7Q319.0 333.6375 319.0 331.21564ZM320.07812 331.21564Q320.07812 333.325 320.57812 334.02814Q321.07812 334.73126 321.79688 334.73126Q322.53125 334.73126 323.01562 334.02814Q323.51562 333.325 323.51562 331.21564Q323.51562 329.09064 323.01562 328.40314Q322.53125 327.7 321.78125 327.7Q321.0625 327.7 320.625 328.3094Q320.07812 329.09064 320.07812 331.21564Z" fill-rule="nonzero"/><path fill="#000000" d="M305.42188 349.45L305.42188 340.85626L308.67188 340.85626Q309.51562 340.85626 309.96875 340.9344Q310.60938 341.04376 311.03125 341.34064Q311.46875 341.6375 311.71875 342.16876Q311.98438 342.7 311.98438 343.34064Q311.98438 344.4344 311.28125 345.2Q310.59375 345.95 308.76562 345.95L306.5625 345.95L306.5625 349.45L305.42188 349.45ZM306.5625 344.95L308.78125 344.95Q309.89062 344.95 310.34375 344.54376Q310.8125 344.1219 310.8125 343.3719Q310.8125 342.84064 310.53125 342.46564Q310.26562 342.075 309.82812 341.95Q309.53125 341.8719 308.76562 341.8719L306.5625 341.8719L306.5625 344.95ZM313.39062 349.45L313.39062 340.85626L315.10938 340.85626L317.14062 346.9344Q317.42188 347.79376 317.54688 348.21564Q317.6875 347.7469 318.0 346.84064L320.0625 340.85626L321.59375 340.85626L321.59375 349.45L320.5 349.45L320.5 342.2625L318.0 349.45L316.96875 349.45L314.48438 342.1375L314.48438 349.45L313.39062 349.45Z" fill-rule="nonzero"/><path fill="#000000" d="M350.71817 333.2L351.82755 333.10626Q351.95255 333.91876 352.39005 334.325Q352.84317 334.73126 353.4838 334.73126Q354.2338 334.73126 354.76505 334.15314Q355.2963 333.575 355.2963 332.6375Q355.2963 331.73126 354.78067 331.21564Q354.28067 330.6844 353.45255 330.6844Q352.95255 330.6844 352.53067 330.91876Q352.12442 331.15314 351.89005 331.5125L350.90567 331.3875L351.7338 326.98126L356.01505 326.98126L356.01505 327.98126L352.57755 327.98126L352.12442 330.29376Q352.89005 329.7469 353.7338 329.7469Q354.8588 329.7469 355.62442 330.52814Q356.40567 331.3094 356.40567 332.54376Q356.40567 333.7 355.7338 334.5594Q354.90567 335.59064 353.4838 335.59064Q352.31192 335.59064 351.56192 334.9344Q350.82755 334.27814 350.71817 333.2ZM358.2963 330.4344L358.2963 329.23126L359.49942 329.23126L359.49942 330.4344L358.2963 330.4344ZM358.2963 335.45L358.2963 334.2469L359.49942 334.2469L359.49942 335.45L358.2963 335.45ZM360.71817 331.21564Q360.71817 329.6844 361.03067 328.7625Q361.34317 327.825 361.95255 327.325Q362.57755 326.825 363.51505 326.825Q364.20255 326.825 364.71817 327.10626Q365.24942 327.3875 365.59317 327.91876Q365.93692 328.4344 366.12442 329.1844Q366.31192 329.9344 366.31192 331.21564Q366.31192 332.73126 365.99942 333.65314Q365.70255 334.575 365.07755 335.09064Q364.46817 335.59064 363.51505 335.59064Q362.28067 335.59064 361.56192 334.7Q360.71817 333.6375 360.71817 331.21564ZM361.7963 331.21564Q361.7963 333.325 362.2963 334.02814Q362.7963 334.73126 363.51505 334.73126Q364.24942 334.73126 364.7338 334.02814Q365.2338 333.325 365.2338 331.21564Q365.2338 329.09064 364.7338 328.40314Q364.24942 327.7 363.49942 327.7Q362.78067 327.7 362.34317 328.3094Q361.7963 329.09064 361.7963 331.21564ZM367.71817 331.21564Q367.71817 329.6844 368.03067 328.7625Q368.34317 327.825 368.95255 327.325Q369.57755 326.825 370.51505 326.825Q371.20255 326.825 371.71817 327.10626Q372.24942 327.3875 372.59317 327.91876Q372.93692 328.4344 373.12442 329.1844Q373.31192 329.9344 373.31192 331.21564Q373.31192 332.73126 372.99942 333.65314Q372.70255 334.575 372.07755 335.09064Q371.46817 335.59064 370.51505 335.59064Q369.28067 335.59064 368.56192 334.7Q367.71817 333.6375 367.71817 331.21564ZM368.7963 331.21564Q368.7963 333.325 369.2963 334.02814Q369.7963 334.73126 370.51505 334.73126Q371.24942 334.73126 371.7338 334.02814Q372.2338 333.325 372.2338 331.21564Q372.2338 329.09064 371.7338 328.40314Q371.24942 327.7 370.49942 327.7Q369.78067 327.7 369.34317 328.3094Q368.7963 329.09064 368.7963 331.21564Z" fill-rule="nonzero"/><path fill="#000000" d="M354.14005 349.45L354.14005 340.85626L357.39005 340.85626Q358.2338 340.85626 358.68692 340.9344Q359.32755 341.04376 359.74942 341.34064Q360.18692 341.6375 360.43692 342.16876Q360.70255 342.7 360.70255 343.34064Q360.70255 344.4344 359.99942 345.2Q359.31192 345.95 357.4838 345.95L355.28067 345.95L355.28067 349.45L354.14005 349.45ZM355.28067 344.95L357.49942 344.95Q358.6088 344.95 359.06192 344.54376Q359.53067 344.1219 359.53067 343.3719Q359.53067 342.84064 359.24942 342.46564Q358.9838 342.075 358.5463 341.95Q358.24942 341.8719 357.4838 341.8719L355.28067 341.8719L355.28067 344.95ZM362.1088 349.45L362.1088 340.85626L363.82755 340.85626L365.8588 346.9344Q366.14005 347.79376 366.26505 348.21564Q366.40567 347.7469 366.71817 346.84064L368.78067 340.85626L370.31192 340.85626L370.31192 349.45L369.21817 349.45L369.21817 342.2625L366.71817 349.45L365.68692 349.45L363.20255 342.1375L363.20255 349.45L362.1088 349.45Z" fill-rule="nonzero"/><path fill="#000000" d="M404.90512 328.96564L403.85825 329.04376Q403.71762 328.41876 403.46762 328.1375Q403.03012 327.6844 402.40512 327.6844Q401.90512 327.6844 401.5145 327.96564Q401.03012 328.34064 400.73325 329.04376Q400.452 329.73126 400.43637 331.0125Q400.81137 330.4344 401.35825 330.15314Q401.92075 329.8719 402.53012 329.8719Q403.577 329.8719 404.31137 330.65314Q405.06137 331.4344 405.06137 332.65314Q405.06137 333.46564 404.702 334.16876Q404.35825 334.85626 403.74887 335.23126Q403.1395 335.59064 402.37387 335.59064Q401.04575 335.59064 400.21762 334.6219Q399.3895 333.65314 399.3895 331.4344Q399.3895 328.9344 400.31137 327.8094Q401.10825 326.825 402.46762 326.825Q403.48325 326.825 404.12387 327.40314Q404.78012 327.96564 404.90512 328.96564ZM400.60825 332.66876Q400.60825 333.21564 400.827 333.71564Q401.06137 334.2 401.46762 334.46564Q401.8895 334.73126 402.35825 334.73126Q403.0145 334.73126 403.49887 334.2Q403.98325 333.65314 403.98325 332.73126Q403.98325 331.84064 403.49887 331.325Q403.03012 330.8094 402.31137 330.8094Q401.59262 330.8094 401.09262 331.325Q400.60825 331.84064 400.60825 332.66876ZM407.0145 330.4344L407.0145 329.23126L408.21762 329.23126L408.21762 330.4344L407.0145 330.4344ZM407.0145 335.45L407.0145 334.2469L408.21762 334.2469L408.21762 335.45L407.0145 335.45ZM409.43637 331.21564Q409.43637 329.6844 409.74887 328.7625Q410.06137 327.825 410.67075 327.325Q411.29575 326.825 412.23325 326.825Q412.92075 326.825 413.43637 327.10626Q413.96762 327.3875 414.31137 327.91876Q414.65512 328.4344 414.84262 329.1844Q415.03012 329.9344 415.03012 331.21564Q415.03012 332.73126 414.71762 333.65314Q414.42075 334.575 413.79575 335.09064Q413.18637 335.59064 412.23325 335.59064Q410.99887 335.59064 410.28012 334.7Q409.43637 333.6375 409.43637 331.21564ZM410.5145 331.21564Q410.5145 333.325 411.0145 334.02814Q411.5145 334.73126 412.23325 334.73126Q412.96762 334.73126 413.452 334.02814Q413.952 333.325 413.952 331.21564Q413.952 329.09064 413.452 328.40314Q412.96762 327.7 412.21762 327.7Q411.49887 327.7 411.06137 328.3094Q410.5145 329.09064 410.5145 331.21564ZM416.43637 331.21564Q416.43637 329.6844 416.74887 328.7625Q417.06137 327.825 417.67075 327.325Q418.29575 326.825 419.23325 326.825Q419.92075 326.825 420.43637 327.10626Q420.96762 327.3875 421.31137 327.91876Q421.65512 328.4344 421.84262 329.1844Q422.03012 329.9344 422.03012 331.21564Q422.03012 332.73126 421.71762 333.65314Q421.42075 334.575 420.79575 335.09064Q420.18637 335.59064 419.23325 335.59064Q417.99887 335.59064 417.28012 334.7Q416.43637 333.6375 416.43637 331.21564ZM417.5145 331.21564Q417.5145 333.325 418.0145 334.02814Q418.5145 334.73126 419.23325 334.73126Q419.96762 334.73126 420.452 334.02814Q420.952 333.325 420.952 331.21564Q420.952 329.09064 420.452 328.40314Q419.96762 327.7 419.21762 327.7Q418.49887 327.7 418.06137 328.3094Q417.5145 329.09064 417.5145 331.21564Z" fill-rule="nonzero"/><path fill="#000000" d="M402.85825 349.45L402.85825 340.85626L406.10825 340.85626Q406.952 340.85626 407.40512 340.9344Q408.04575 341.04376 408.46762 341.34064Q408.90512 341.6375 409.15512 342.16876Q409.42075 342.7 409.42075 343.34064Q409.42075 344.4344 408.71762 345.2Q408.03012 345.95 406.202 345.95L403.99887 345.95L403.99887 349.45L402.85825 349.45ZM403.99887 344.95L406.21762 344.95Q407.327 344.95 407.78012 344.54376Q408.24887 344.1219 408.24887 343.3719Q408.24887 342.84064 407.96762 342.46564Q407.702 342.075 407.2645 341.95Q406.96762 341.8719 406.202 341.8719L403.99887 341.8719L403.99887 344.95ZM410.827 349.45L410.827 340.85626L412.54575 340.85626L414.577 346.9344Q414.85825 347.79376 414.98325 348.21564Q415.12387 347.7469 415.43637 346.84064L417.49887 340.85626L419.03012 340.85626L419.03012 349.45L417.93637 349.45L417.93637 342.2625L415.43637 349.45L414.40512 349.45L411.92075 342.1375L411.92075 349.45L410.827 349.45Z" fill-rule="nonzero"/><path fill="#000000" d="M448.21704 327.98126L448.21704 326.96564L453.77954 326.96564L453.77954 327.79376Q452.96704 328.66876 452.15454 330.1219Q451.35767 331.5594 450.92017 333.09064Q450.59204 334.16876 450.51392 335.45L449.42017 335.45Q449.4358 334.4344 449.8108 332.9969Q450.20142 331.5594 450.90454 330.23126Q451.6233 328.90314 452.4358 327.98126L448.21704 327.98126ZM455.73267 330.4344L455.73267 329.23126L456.9358 329.23126L456.9358 330.4344L455.73267 330.4344ZM455.73267 335.45L455.73267 334.2469L456.9358 334.2469L456.9358 335.45L455.73267 335.45ZM458.15454 331.21564Q458.15454 329.6844 458.46704 328.7625Q458.77954 327.825 459.38892 327.325Q460.01392 326.825 460.95142 326.825Q461.63892 326.825 462.15454 327.10626Q462.6858 327.3875 463.02954 327.91876Q463.3733 328.4344 463.5608 329.1844Q463.7483 329.9344 463.7483 331.21564Q463.7483 332.73126 463.4358 333.65314Q463.13892 334.575 462.51392 335.09064Q461.90454 335.59064 460.95142 335.59064Q459.71704 335.59064 458.9983 334.7Q458.15454 333.6375 458.15454 331.21564ZM459.23267 331.21564Q459.23267 333.325 459.73267 334.02814Q460.23267 334.73126 460.95142 334.73126Q461.6858 334.73126 462.17017 334.02814Q462.67017 333.325 462.67017 331.21564Q462.67017 329.09064 462.17017 328.40314Q461.6858 327.7 460.9358 327.7Q460.21704 327.7 459.77954 328.3094Q459.23267 329.09064 459.23267 331.21564ZM465.15454 331.21564Q465.15454 329.6844 465.46704 328.7625Q465.77954 327.825 466.38892 327.325Q467.01392 326.825 467.95142 326.825Q468.63892 326.825 469.15454 327.10626Q469.6858 327.3875 470.02954 327.91876Q470.3733 328.4344 470.5608 329.1844Q470.7483 329.9344 470.7483 331.21564Q470.7483 332.73126 470.4358 333.65314Q470.13892 334.575 469.51392 335.09064Q468.90454 335.59064 467.95142 335.59064Q466.71704 335.59064 465.9983 334.7Q465.15454 333.6375 465.15454 331.21564ZM466.23267 331.21564Q466.23267 333.325 466.73267 334.02814Q467.23267 334.73126 467.95142 334.73126Q468.6858 334.73126 469.17017 334.02814Q469.67017 333.325 469.67017 331.21564Q469.67017 329.09064 469.17017 328.40314Q468.6858 327.7 467.9358 327.7Q467.21704 327.7 466.77954 328.3094Q466.23267 329.09064 466.23267 331.21564Z" fill-rule="nonzero"/><path fill="#000000" d="M451.57642 349.45L451.57642 340.85626L454.82642 340.85626Q455.67017 340.85626 456.1233 340.9344Q456.76392 341.04376 457.1858 341.34064Q457.6233 341.6375 457.8733 342.16876Q458.13892 342.7 458.13892 343.34064Q458.13892 344.4344 457.4358 345.2Q456.7483 345.95 454.92017 345.95L452.71704 345.95L452.71704 349.45L451.57642 349.45ZM452.71704 344.95L454.9358 344.95Q456.04517 344.95 456.4983 344.54376Q456.96704 344.1219 456.96704 343.3719Q456.96704 342.84064 456.6858 342.46564Q456.42017 342.075 455.98267 341.95Q455.6858 341.8719 454.92017 341.8719L452.71704 341.8719L452.71704 344.95ZM459.54517 349.45L459.54517 340.85626L461.26392 340.85626L463.29517 346.9344Q463.57642 347.79376 463.70142 348.21564Q463.84204 347.7469 464.15454 346.84064L466.21704 340.85626L467.7483 340.85626L467.7483 349.45L466.65454 349.45L466.65454 342.2625L464.15454 349.45L463.1233 349.45L460.63892 342.1375L460.63892 349.45L459.54517 349.45Z" fill-rule="nonzero"/><path fill="#000000" d="M498.49774 330.79376Q497.8415 330.54376 497.51337 330.10626Q497.20087 329.65314 497.20087 329.04376Q497.20087 328.10626 497.87274 327.46564Q498.56024 326.825 499.66962 326.825Q500.79462 326.825 501.48212 327.48126Q502.16962 328.1375 502.16962 329.075Q502.16962 329.66876 501.85712 330.10626Q501.54462 330.54376 500.904 330.79376Q501.70087 331.04376 502.10712 331.6219Q502.51337 332.2 502.51337 332.9969Q502.51337 334.09064 501.73212 334.84064Q500.9665 335.59064 499.68524 335.59064Q498.41962 335.59064 497.63837 334.84064Q496.85712 334.09064 496.85712 332.96564Q496.85712 332.1219 497.279 331.5594Q497.7165 330.9969 498.49774 330.79376ZM498.279 328.9969Q498.279 329.60626 498.66962 329.9969Q499.07587 330.3875 499.70087 330.3875Q500.31024 330.3875 500.70087 330.0125Q501.0915 329.6219 501.0915 329.0594Q501.0915 328.48126 500.68524 328.09064Q500.279 327.6844 499.68524 327.6844Q499.07587 327.6844 498.66962 328.075Q498.279 328.46564 498.279 328.9969ZM497.95087 332.96564Q497.95087 333.41876 498.154 333.84064Q498.37274 334.2625 498.79462 334.4969Q499.2165 334.73126 499.70087 334.73126Q500.45087 334.73126 500.93524 334.2469Q501.43524 333.7625 501.43524 333.0125Q501.43524 332.2469 500.93524 331.7469Q500.43524 331.2469 499.66962 331.2469Q498.91962 331.2469 498.43524 331.7469Q497.95087 332.23126 497.95087 332.96564ZM504.45087 330.4344L504.45087 329.23126L505.654 329.23126L505.654 330.4344L504.45087 330.4344ZM504.45087 335.45L504.45087 334.2469L505.654 334.2469L505.654 335.45L504.45087 335.45ZM506.87274 331.21564Q506.87274 329.6844 507.18524 328.7625Q507.49774 327.825 508.10712 327.325Q508.73212 326.825 509.66962 326.825Q510.35712 326.825 510.87274 327.10626Q511.404 327.3875 511.74774 327.91876Q512.0915 328.4344 512.279 329.1844Q512.4665 329.9344 512.4665 331.21564Q512.4665 332.73126 512.154 333.65314Q511.85712 334.575 511.23212 335.09064Q510.62274 335.59064 509.66962 335.59064Q508.43524 335.59064 507.7165 334.7Q506.87274 333.6375 506.87274 331.21564ZM507.95087 331.21564Q507.95087 333.325 508.45087 334.02814Q508.95087 334.73126 509.66962 334.73126Q510.404 334.73126 510.88837 334.02814Q511.38837 333.325 511.38837 331.21564Q511.38837 329.09064 510.88837 328.40314Q510.404 327.7 509.654 327.7Q508.93524 327.7 508.49774 328.3094Q507.95087 329.09064 507.95087 331.21564ZM513.87274 331.21564Q513.87274 329.6844 514.18524 328.7625Q514.49774 327.825 515.1071 327.325Q515.7321 326.825 516.6696 326.825Q517.3571 326.825 517.87274 327.10626Q518.404 327.3875 518.74774 327.91876Q519.0915 328.4344 519.279 329.1844Q519.4665 329.9344 519.4665 331.21564Q519.4665 332.73126 519.154 333.65314Q518.8571 334.575 518.2321 335.09064Q517.62274 335.59064 516.6696 335.59064Q515.43524 335.59064 514.7165 334.7Q513.87274 333.6375 513.87274 331.21564ZM514.95087 331.21564Q514.95087 333.325 515.45087 334.02814Q515.95087 334.73126 516.6696 334.73126Q517.404 334.73126 517.88837 334.02814Q518.38837 333.325 518.38837 331.21564Q518.38837 329.09064 517.88837 328.40314Q517.404 327.7 516.654 327.7Q515.93524 327.7 515.49774 328.3094Q514.95087 329.09064 514.95087 331.21564Z" fill-rule="nonzero"/><path fill="#000000" d="M500.29462 349.45L500.29462 340.85626L503.54462 340.85626Q504.38837 340.85626 504.8415 340.9344Q505.48212 341.04376 505.904 341.34064Q506.3415 341.6375 506.5915 342.16876Q506.85712 342.7 506.85712 343.34064Q506.85712 344.4344 506.154 345.2Q505.4665 345.95 503.63837 345.95L501.43524 345.95L501.43524 349.45L500.29462 349.45ZM501.43524 344.95L503.654 344.95Q504.76337 344.95 505.2165 344.54376Q505.68524 344.1219 505.68524 343.3719Q505.68524 342.84064 505.404 342.46564Q505.13837 342.075 504.70087 341.95Q504.404 341.8719 503.63837 341.8719L501.43524 341.8719L501.43524 344.95ZM508.26337 349.45L508.26337 340.85626L509.98212 340.85626L512.01337 346.9344Q512.2946 347.79376 512.4196 348.21564Q512.56024 347.7469 512.87274 346.84064L514.93524 340.85626L516.4665 340.85626L516.4665 349.45L515.37274 349.45L515.37274 342.2625L512.87274 349.45L511.8415 349.45L509.35712 342.1375L509.35712 349.45L508.26337 349.45Z" fill-rule="nonzero"/><path fill="#000000" d="M545.74713 333.46564L546.76276 333.3719Q546.88776 334.09064 547.24713 334.41876Q547.62213 334.73126 548.18463 334.73126Q548.669 334.73126 549.0284 334.5125Q549.4034 334.27814 549.63776 333.91876Q549.87213 333.54376 550.0284 332.91876Q550.18463 332.27814 550.18463 331.6219Q550.18463 331.54376 550.18463 331.40314Q549.87213 331.90314 549.32526 332.23126Q548.7784 332.54376 548.13776 332.54376Q547.05963 332.54376 546.32526 331.77814Q545.5909 330.9969 545.5909 329.73126Q545.5909 328.41876 546.3565 327.6219Q547.13776 326.825 548.294 326.825Q549.12213 326.825 549.80963 327.27814Q550.51276 327.73126 550.87213 328.575Q551.2315 329.40314 551.2315 330.98126Q551.2315 332.6219 550.87213 333.60626Q550.5284 334.575 549.80963 335.09064Q549.1065 335.59064 548.169 335.59064Q547.1534 335.59064 546.51276 335.04376Q545.87213 334.48126 545.74713 333.46564ZM550.05963 329.66876Q550.05963 328.7625 549.57526 328.23126Q549.1065 327.7 548.419 327.7Q547.7159 327.7 547.18463 328.27814Q546.669 328.84064 546.669 329.7625Q546.669 330.575 547.169 331.09064Q547.669 331.60626 548.38776 331.60626Q549.12213 331.60626 549.5909 331.09064Q550.05963 330.575 550.05963 329.66876ZM553.169 330.4344L553.169 329.23126L554.37213 329.23126L554.37213 330.4344L553.169 330.4344ZM553.169 335.45L553.169 334.2469L554.37213 334.2469L554.37213 335.45L553.169 335.45ZM555.5909 331.21564Q555.5909 329.6844 555.9034 328.7625Q556.2159 327.825 556.82526 327.325Q557.45026 326.825 558.38776 326.825Q559.07526 326.825 559.5909 327.10626Q560.12213 327.3875 560.4659 327.91876Q560.80963 328.4344 560.99713 329.1844Q561.18463 329.9344 561.18463 331.21564Q561.18463 332.73126 560.87213 333.65314Q560.57526 334.575 559.95026 335.09064Q559.3409 335.59064 558.38776 335.59064Q557.1534 335.59064 556.43463 334.7Q555.5909 333.6375 555.5909 331.21564ZM556.669 331.21564Q556.669 333.325 557.169 334.02814Q557.669 334.73126 558.38776 334.73126Q559.12213 334.73126 559.6065 334.02814Q560.1065 333.325 560.1065 331.21564Q560.1065 329.09064 559.6065 328.40314Q559.12213 327.7 558.37213 327.7Q557.6534 327.7 557.2159 328.3094Q556.669 329.09064 556.669 331.21564ZM562.5909 331.21564Q562.5909 329.6844 562.9034 328.7625Q563.2159 327.825 563.82526 327.325Q564.45026 326.825 565.38776 326.825Q566.07526 326.825 566.5909 327.10626Q567.12213 327.3875 567.4659 327.91876Q567.80963 328.4344 567.99713 329.1844Q568.18463 329.9344 568.18463 331.21564Q568.18463 332.73126 567.87213 333.65314Q567.57526 334.575 566.95026 335.09064Q566.3409 335.59064 565.38776 335.59064Q564.1534 335.59064 563.43463 334.7Q562.5909 333.6375 562.5909 331.21564ZM563.669 331.21564Q563.669 333.325 564.169 334.02814Q564.669 334.73126 565.38776 334.73126Q566.12213 334.73126 566.6065 334.02814Q567.1065 333.325 567.1065 331.21564Q567.1065 329.09064 566.6065 328.40314Q566.12213 327.7 565.37213 327.7Q564.6534 327.7 564.2159 328.3094Q563.669 329.09064 563.669 331.21564Z" fill-rule="nonzero"/><path fill="#000000" d="M549.01276 349.45L549.01276 340.85626L552.26276 340.85626Q553.1065 340.85626 553.55963 340.9344Q554.20026 341.04376 554.62213 341.34064Q555.05963 341.6375 555.30963 342.16876Q555.57526 342.7 555.57526 343.34064Q555.57526 344.4344 554.87213 345.2Q554.18463 345.95 552.3565 345.95L550.1534 345.95L550.1534 349.45L549.01276 349.45ZM550.1534 344.95L552.37213 344.95Q553.4815 344.95 553.93463 344.54376Q554.4034 344.1219 554.4034 343.3719Q554.4034 342.84064 554.12213 342.46564Q553.8565 342.075 553.419 341.95Q553.12213 341.8719 552.3565 341.8719L550.1534 341.8719L550.1534 344.95ZM556.9815 349.45L556.9815 340.85626L558.70026 340.85626L560.7315 346.9344Q561.01276 347.79376 561.13776 348.21564Q561.2784 347.7469 561.5909 346.84064L563.6534 340.85626L565.18463 340.85626L565.18463 349.45L564.0909 349.45L564.0909 342.2625L561.5909 349.45L560.55963 349.45L558.07526 342.1375L558.07526 349.45L556.9815 349.45Z" fill-rule="nonzero"/><path fill="#134f5c" d="M242.0 65.916664C242.0 69.23038 239.3137 71.916664 236.0 71.916664C232.6863 71.916664 230.0 69.23038 230.0 65.916664C230.0 62.60296 232.6863 59.916668 236.0 59.916668C239.3137 59.916668 242.0 62.60296 242.0 65.916664Z" fill-rule="nonzero"/><path fill="#1a1a1a" d="M252.42188 69.916664L250.14062 61.322914L251.3125 61.322914L252.625 66.96354Q252.82812 67.83854 252.98438 68.71354Q253.3125 67.33854 253.375 67.11979L255.0 61.322914L256.375 61.322914L257.60938 65.666664Q258.0625 67.291664 258.28125 68.71354Q258.4375 67.90104 258.70312 66.83854L260.04688 61.322914L261.1875 61.322914L258.84375 69.916664L257.73438 69.916664L255.9375 63.36979Q255.70312 62.55729 255.65625 62.36979Q255.53125 62.947914 255.40625 63.36979L253.59375 69.916664L252.42188 69.916664ZM261.79688 62.541664L261.79688 61.322914L262.85938 61.322914L262.85938 62.541664L261.79688 62.541664ZM261.79688 69.916664L261.79688 63.697914L262.85938 63.697914L262.85938 69.916664L261.79688 69.916664ZM264.79688 69.916664L264.79688 63.697914L265.73438 63.697914L265.73438 64.572914Q266.42188 63.55729 267.71875 63.55729Q268.28125 63.55729 268.75 63.760414Q269.23438 63.96354 269.46875 64.291664Q269.70312 64.61979 269.79688 65.05729Q269.84375 65.354164 269.84375 66.08854L269.84375 69.916664L268.79688 69.916664L268.79688 66.135414Q268.79688 65.479164 268.67188 65.166664Q268.54688 64.854164 268.23438 64.666664Q267.92188 64.46354 267.5 64.46354Q266.82812 64.46354 266.32812 64.90104Q265.84375 65.322914 265.84375 66.510414L265.84375 69.916664L264.79688 69.916664ZM275.82812 69.916664L275.82812 69.135414Q275.23438 70.05729 274.09375 70.05729Q273.34375 70.05729 272.71875 69.65104Q272.09375 69.229164 271.75 68.49479Q271.40625 67.760414 271.40625 66.80729Q271.40625 65.885414 271.71875 65.11979Q272.03125 64.354164 272.65625 63.96354Q273.28125 63.55729 274.04688 63.55729Q274.60938 63.55729 275.04688 63.791664Q275.48438 64.02604 275.76562 64.40104L275.76562 61.322914L276.8125 61.322914L276.8125 69.916664L275.82812 69.916664ZM272.5 66.80729Q272.5 68.010414 273.0 68.604164Q273.5 69.18229 274.1875 69.18229Q274.875 69.18229 275.35938 68.61979Q275.84375 68.05729 275.84375 66.90104Q275.84375 65.61979 275.34375 65.02604Q274.85938 64.43229 274.14062 64.43229Q273.4375 64.43229 272.96875 65.010414Q272.5 65.572914 272.5 66.80729ZM278.375 68.05729L279.40625 67.90104Q279.5 68.52604 279.89062 68.854164Q280.29688 69.18229 281.03125 69.18229Q281.75 69.18229 282.09375 68.90104Q282.45312 68.604164 282.45312 68.197914Q282.45312 67.83854 282.14062 67.635414Q281.92188 67.49479 281.0625 67.27604Q279.90625 66.979164 279.45312 66.77604Q279.01562 66.55729 278.78125 66.18229Q278.54688 65.80729 278.54688 65.33854Q278.54688 64.93229 278.73438 64.572914Q278.92188 64.21354 279.25 63.979164Q279.5 63.80729 279.92188 63.68229Q280.34375 63.55729 280.84375 63.55729Q281.5625 63.55729 282.10938 63.77604Q282.67188 63.979164 282.9375 64.33854Q283.20312 64.697914 283.29688 65.291664L282.26562 65.43229Q282.20312 64.96354 281.85938 64.697914Q281.53125 64.416664 280.90625 64.416664Q280.1875 64.416664 279.875 64.666664Q279.5625 64.90104 279.5625 65.229164Q279.5625 65.43229 279.6875 65.58854Q279.82812 65.760414 280.09375 65.86979Q280.25 65.93229 281.03125 66.135414Q282.15625 66.447914 282.59375 66.635414Q283.03125 66.822914 283.28125 67.18229Q283.53125 67.541664 283.53125 68.08854Q283.53125 68.61979 283.21875 69.08854Q282.92188 69.541664 282.34375 69.80729Q281.76562 70.05729 281.03125 70.05729Q279.8125 70.05729 279.17188 69.55729Q278.54688 69.041664 278.375 68.05729ZM284.79688 72.30729L284.79688 63.697914L285.75 63.697914L285.75 64.49479Q286.09375 64.02604 286.51562 63.791664Q286.95312 63.55729 287.5625 63.55729Q288.35938 63.55729 288.96875 63.96354Q289.57812 64.36979 289.875 65.11979Q290.1875 65.86979 290.1875 66.760414Q290.1875 67.71354 289.84375 68.479164Q289.51562 69.24479 288.85938 69.65104Q288.20312 70.05729 287.48438 70.05729Q286.95312 70.05729 286.53125 69.83854Q286.10938 69.604164 285.84375 69.27604L285.84375 72.30729L284.79688 72.30729ZM285.75 66.83854Q285.75 68.041664 286.23438 68.61979Q286.71875 69.18229 287.40625 69.18229Q288.10938 69.18229 288.60938 68.58854Q289.10938 67.99479 289.10938 66.74479Q289.10938 65.55729 288.625 64.979164Q288.14062 64.385414 287.45312 64.385414Q286.78125 64.385414 286.26562 65.010414Q285.75 65.635414 285.75 66.83854ZM296.04688 67.916664L297.14062 68.041664Q296.89062 68.99479 296.1875 69.52604Q295.48438 70.05729 294.40625 70.05729Q293.04688 70.05729 292.23438 69.21354Q291.4375 68.36979 291.4375 66.854164Q291.4375 65.291664 292.25 64.43229Q293.0625 63.55729 294.34375 63.55729Q295.59375 63.55729 296.375 64.40104Q297.17188 65.24479 297.17188 66.791664Q297.17188 66.885414 297.17188 67.072914L292.53125 67.072914Q292.59375 68.104164 293.10938 68.65104Q293.625 69.18229 294.40625 69.18229Q294.98438 69.18229 295.39062 68.885414Q295.8125 68.572914 296.04688 67.916664ZM292.59375 66.21354L296.0625 66.21354Q296.0 65.416664 295.67188 65.02604Q295.15625 64.416664 294.35938 64.416664Q293.625 64.416664 293.125 64.90104Q292.64062 65.385414 292.59375 66.21354ZM303.04688 67.916664L304.14062 68.041664Q303.89062 68.99479 303.1875 69.52604Q302.48438 70.05729 301.40625 70.05729Q300.04688 70.05729 299.23438 69.21354Q298.4375 68.36979 298.4375 66.854164Q298.4375 65.291664 299.25 64.43229Q300.0625 63.55729 301.34375 63.55729Q302.59375 63.55729 303.375 64.40104Q304.17188 65.24479 304.17188 66.791664Q304.17188 66.885414 304.17188 67.072914L299.53125 67.072914Q299.59375 68.104164 300.10938 68.65104Q300.625 69.18229 301.40625 69.18229Q301.98438 69.18229 302.39062 68.885414Q302.8125 68.572914 303.04688 67.916664ZM299.59375 66.21354L303.0625 66.21354Q303.0 65.416664 302.67188 65.02604Q302.15625 64.416664 301.35938 64.416664Q300.625 64.416664 300.125 64.90104Q299.64062 65.385414 299.59375 66.21354ZM309.82812 69.916664L309.82812 69.135414Q309.23438 70.05729 308.09375 70.05729Q307.34375 70.05729 306.71875 69.65104Q306.09375 69.229164 305.75 68.49479Q305.40625 67.760414 305.40625 66.80729Q305.40625 65.885414 305.71875 65.11979Q306.03125 64.354164 306.65625 63.96354Q307.28125 63.55729 308.04688 63.55729Q308.60938 63.55729 309.04688 63.791664Q309.48438 64.02604 309.76562 64.40104L309.76562 61.322914L310.8125 61.322914L310.8125 69.916664L309.82812 69.916664ZM306.5 66.80729Q306.5 68.010414 307.0 68.604164Q307.5 69.18229 308.1875 69.18229Q308.875 69.18229 309.35938 68.61979Q309.84375 68.05729 309.84375 66.90104Q309.84375 65.61979 309.34375 65.02604Q308.85938 64.43229 308.14062 64.43229Q307.4375 64.43229 306.96875 65.010414Q306.5 65.572914 306.5 66.80729ZM317.8125 72.447914Q316.9375 71.33854 316.32812 69.86979Q315.73438 68.385414 315.73438 66.80729Q315.73438 65.416664 316.17188 64.135414Q316.70312 62.65104 317.8125 61.18229L318.5625 61.18229Q317.85938 62.40104 317.625 62.916664Q317.26562 63.729164 317.0625 64.604164Q316.8125 65.697914 316.8125 66.80729Q316.8125 69.635414 318.5625 72.447914L317.8125 72.447914ZM319.79688 69.916664L319.79688 63.697914L320.73438 63.697914L320.73438 64.572914Q321.03125 64.104164 321.51562 63.83854Q322.0 63.55729 322.625 63.55729Q323.3125 63.55729 323.75 63.83854Q324.20312 64.11979 324.375 64.635414Q325.125 63.55729 326.29688 63.55729Q327.23438 63.55729 327.71875 64.072914Q328.21875 64.572914 328.21875 65.65104L328.21875 69.916664L327.17188 69.916664L327.17188 65.99479Q327.17188 65.36979 327.0625 65.08854Q326.96875 64.80729 326.70312 64.635414Q326.4375 64.46354 326.0625 64.46354Q325.40625 64.46354 324.96875 64.90104Q324.54688 65.33854 324.54688 66.30729L324.54688 69.916664L323.48438 69.916664L323.48438 65.86979Q323.48438 65.166664 323.21875 64.822914Q322.96875 64.46354 322.39062 64.46354Q321.9375 64.46354 321.5625 64.697914Q321.1875 64.93229 321.01562 65.385414Q320.84375 65.83854 320.84375 66.68229L320.84375 69.916664L319.79688 69.916664ZM329.0 70.05729L331.48438 61.18229L332.32812 61.18229L329.84375 70.05729L329.0 70.05729ZM332.375 68.05729L333.40625 67.90104Q333.5 68.52604 333.89062 68.854164Q334.29688 69.18229 335.03125 69.18229Q335.75 69.18229 336.09375 68.90104Q336.45312 68.604164 336.45312 68.197914Q336.45312 67.83854 336.14062 67.635414Q335.92188 67.49479 335.0625 67.27604Q333.90625 66.979164 333.45312 66.77604Q333.01562 66.55729 332.78125 66.18229Q332.54688 65.80729 332.54688 65.33854Q332.54688 64.93229 332.73438 64.572914Q332.92188 64.21354 333.25 63.979164Q333.5 63.80729 333.92188 63.68229Q334.34375 63.55729 334.84375 63.55729Q335.5625 63.55729 336.10938 63.77604Q336.67188 63.979164 336.9375 64.33854Q337.20312 64.697914 337.29688 65.291664L336.26562 65.43229Q336.20312 64.96354 335.85938 64.697914Q335.53125 64.416664 334.90625 64.416664Q334.1875 64.416664 333.875 64.666664Q333.5625 64.90104 333.5625 65.229164Q333.5625 65.43229 333.6875 65.58854Q333.82812 65.760414 334.09375 65.86979Q334.25 65.93229 335.03125 66.135414Q336.15625 66.447914 336.59375 66.635414Q337.03125 66.822914 337.28125 67.18229Q337.53125 67.541664 337.53125 68.08854Q337.53125 68.61979 337.21875 69.08854Q336.92188 69.541664 336.34375 69.80729Q335.76562 70.05729 335.03125 70.05729Q333.8125 70.05729 333.17188 69.55729Q332.54688 69.041664 332.375 68.05729ZM339.48438 72.447914L338.73438 72.447914Q340.48438 69.635414 340.48438 66.80729Q340.48438 65.71354 340.23438 64.61979Q340.03125 63.74479 339.67188 62.93229Q339.4375 62.416664 338.73438 61.18229L339.48438 61.18229Q340.57812 62.65104 341.10938 64.135414Q341.5625 65.416664 341.5625 66.80729Q341.5625 68.385414 340.95312 69.86979Q340.34375 71.33854 339.48438 72.447914Z" fill-rule="nonzero"/><path stroke="#134f5c" stroke-width="4.0" stroke-linecap="butt" stroke-opacity="0.4" d="M358.0 65.916664L370.0 65.916664" fill-rule="nonzero"/><path fill="#000000" d="M22.7375 40.55L18.628124 23.3625L22.190624 23.3625L24.76875 35.175L27.909374 23.3625L32.034374 23.3625L35.05 35.3625L37.690624 23.3625L41.175 23.3625L37.003124 40.55L33.33125 40.55L29.909374 27.70625L26.503124 40.55L22.7375 40.55ZM43.26875 26.409374L43.26875 23.3625L46.565624 23.3625L46.565624 26.409374L43.26875 26.409374ZM43.26875 40.55L43.26875 28.096874L46.565624 28.096874L46.565624 40.55L43.26875 40.55ZM61.596874 40.55L58.3 40.55L58.3 34.190624Q58.3 32.175 58.08125 31.596874Q57.878124 31.003124 57.39375 30.675Q56.925 30.346874 56.26875 30.346874Q55.409374 30.346874 54.721874 30.815624Q54.05 31.284374 53.8 32.065624Q53.55 32.83125 53.55 34.909374L53.55 40.55L50.253124 40.55L50.253124 28.096874L53.315624 28.096874L53.315624 29.925Q54.940624 27.815624 57.409374 27.815624Q58.503124 27.815624 59.39375 28.221874Q60.3 28.6125 60.76875 29.221874Q61.2375 29.83125 61.409374 30.6125Q61.596874 31.378124 61.596874 32.815624L61.596874 40.55ZM76.69063 40.55L73.62813 40.55L73.62813 38.721874Q72.8625 39.784374 71.83125 40.315624Q70.8 40.83125 69.7375 40.83125Q67.59688 40.83125 66.06563 39.1125Q64.53438 37.378124 64.53438 34.284374Q64.53438 31.1125 66.01875 29.471874Q67.51875 27.815624 69.78438 27.815624Q71.87813 27.815624 73.39375 29.55L73.39375 23.3625L76.69063 23.3625L76.69063 40.55ZM67.89375 34.05Q67.89375 36.05 68.45625 36.940624Q69.25313 38.221874 70.675 38.221874Q71.81563 38.221874 72.6125 37.26875Q73.40938 36.3 73.40938 34.378124Q73.40938 32.221874 72.62813 31.284374Q71.8625 30.346874 70.65938 30.346874Q69.4875 30.346874 68.69063 31.284374Q67.89375 32.20625 67.89375 34.05ZM79.1125 37.003124L82.425 36.4875Q82.62813 37.45625 83.26875 37.95625Q83.925 38.45625 85.08125 38.45625Q86.3625 38.45625 87.00313 37.9875Q87.44063 37.659374 87.44063 37.096874Q87.44063 36.721874 87.20625 36.4875Q86.95625 36.253124 86.09688 36.05Q82.1125 35.175 81.05 34.440624Q79.56563 33.440624 79.56563 31.64375Q79.56563 30.01875 80.84688 28.925Q82.12813 27.815624 84.81563 27.815624Q87.3625 27.815624 88.59688 28.659374Q89.84688 29.4875 90.31563 31.1125L87.20625 31.690624Q87.01875 30.95625 86.45625 30.58125Q85.89375 30.190624 84.8625 30.190624Q83.56563 30.190624 83.00313 30.55Q82.62813 30.815624 82.62813 31.221874Q82.62813 31.565624 82.95625 31.815624Q83.40938 32.14375 86.03438 32.753124Q88.65938 33.346874 89.70625 34.20625Q90.7375 35.08125 90.7375 36.659374Q90.7375 38.3625 89.3 39.596874Q87.87813 40.83125 85.08125 40.83125Q82.53438 40.83125 81.05 39.8Q79.56563 38.76875 79.1125 37.003124ZM93.175 28.096874L96.25313 28.096874L96.25313 29.925Q96.84688 28.9875 97.8625 28.409374Q98.89375 27.815624 100.12813 27.815624Q102.3 27.815624 103.8 29.51875Q105.31563 31.221874 105.31563 34.253124Q105.31563 37.378124 103.78438 39.1125Q102.26875 40.83125 100.1125 40.83125Q99.08125 40.83125 98.2375 40.425Q97.39375 40.003124 96.47188 39.01875L96.47188 45.284374L93.175 45.284374L93.175 28.096874ZM96.44063 34.1125Q96.44063 36.20625 97.26875 37.221874Q98.09688 38.221874 99.3 38.221874Q100.44063 38.221874 101.20625 37.3Q101.97188 36.378124 101.97188 34.284374Q101.97188 32.315624 101.175 31.378124Q100.39375 30.425 99.2375 30.425Q98.03438 30.425 97.2375 31.3625Q96.44063 32.284374 96.44063 34.1125ZM115.4875 36.58125L118.76875 37.14375Q118.12813 38.940624 116.75313 39.89375Q115.39375 40.83125 113.34688 40.83125Q110.09688 40.83125 108.55 38.70625Q107.31563 37.003124 107.31563 34.425Q107.31563 31.33125 108.925 29.58125Q110.55 27.815624 113.01875 27.815624Q115.8 27.815624 117.39375 29.659374Q119.00313 31.4875 118.94063 35.26875L110.69063 35.26875Q110.72188 36.7375 111.4875 37.55Q112.25313 38.3625 113.37813 38.3625Q114.15938 38.3625 114.675 37.940624Q115.20625 37.51875 115.4875 36.58125ZM115.675 33.253124Q115.62813 31.83125 114.925 31.096874Q114.22188 30.346874 113.22188 30.346874Q112.14375 30.346874 111.44063 31.128124Q110.7375 31.909374 110.75313 33.253124L115.675 33.253124ZM128.4875 36.58125L131.76875 37.14375Q131.12813 38.940624 129.75313 39.89375Q128.39375 40.83125 126.34688 40.83125Q123.09688 40.83125 121.55 38.70625Q120.31563 37.003124 120.31563 34.425Q120.31563 31.33125 121.925 29.58125Q123.55 27.815624 126.01875 27.815624Q128.8 27.815624 130.39375 29.659374Q132.00313 31.4875 131.94063 35.26875L123.69063 35.26875Q123.72188 36.7375 124.4875 37.55Q125.25313 38.3625 126.37813 38.3625Q127.15938 38.3625 127.675 37.940624Q128.20625 37.51875 128.4875 36.58125ZM128.675 33.253124Q128.62813 31.83125 127.925 31.096874Q127.22188 30.346874 126.22188 30.346874Q125.14375 30.346874 124.44063 31.128124Q123.7375 31.909374 123.75313 33.253124L128.675 33.253124ZM145.69063 40.55L142.62813 40.55L142.62813 38.721874Q141.8625 39.784374 140.83125 40.315624Q139.8 40.83125 138.7375 40.83125Q136.59688 40.83125 135.06563 39.1125Q133.53438 37.378124 133.53438 34.284374Q133.53438 31.1125 135.01875 29.471874Q136.51875 27.815624 138.78438 27.815624Q140.87813 27.815624 142.39375 29.55L142.39375 23.3625L145.69063 23.3625L145.69063 40.55ZM136.89375 34.05Q136.89375 36.05 137.45625 36.940624Q138.25313 38.221874 139.675 38.221874Q140.81563 38.221874 141.6125 37.26875Q142.40938 36.3 142.40938 34.378124Q142.40938 32.221874 141.62813 31.284374Q140.8625 30.346874 139.65938 30.346874Q138.4875 30.346874 137.69063 31.284374Q136.89375 32.20625 136.89375 34.05Z" fill-rule="nonzero"/></svg>